<?xml version="1.0" encoding="UTF-8"?>
<svg width="100pt" height="100pt" version="1.1" viewBox="0 0 100 100" xmlns="http://www.w3.org/2000/svg">
 <path d="m87.707 49.375c-6.5547-8.6953-14.527-14.832-23.234-18.055v-6.25l3.957-2.9023c0.26562-0.19531 0.42969-0.51562 0.42969-0.84766v-5.8047c2.1797-0.47266 3.8203-2.418 3.8203-4.75 0-2.6797-2.1797-4.8594-4.8594-4.8594-2.6797 0-4.8594 2.1797-4.8594 4.8594 0 2.3203 1.6406 4.2656 3.8203 4.75v5.2773l-3.957 2.9023c-0.26562 0.19531-0.42969 0.51563-0.42969 0.84766v6.0703c-3.6797-1.1523-7.4727-1.793-11.348-1.8906v-8.8594c2.1953-0.48438 3.832-2.4297 3.832-4.7656 0-2.6953-2.1953-4.875-4.875-4.875-2.6797 0-4.875 2.1953-4.875 4.875 0 2.332 1.6523 4.2773 3.832 4.7656v8.8594c-3.8594 0.097656-7.668 0.73438-11.348 1.8906v-6.0703c0-0.33203-0.15234-0.64062-0.42969-0.84766l-3.9727-2.9023v-5.2773c2.1797-0.47266 3.8203-2.418 3.8203-4.75 0-2.6797-2.1797-4.8594-4.8594-4.8594s-4.8594 2.1797-4.8594 4.8594c0 2.3203 1.6406 4.2656 3.8203 4.75v5.8047c0 0.33203 0.15234 0.64063 0.42969 0.84766l3.9727 2.9023v6.25c-8.707 3.2227-16.68 9.3594-23.234 18.055-0.27734 0.375-0.27734 0.875 0 1.25 6.5547 8.6953 14.527 14.832 23.234 18.055v6.25l-3.9727 2.9023c-0.26562 0.19531-0.42969 0.51562-0.42969 0.84766v5.8047c-2.1797 0.48438-3.8203 2.418-3.8203 4.75 0 2.6797 2.1797 4.8594 4.8594 4.8594s4.8594-2.1797 4.8594-4.8594c0-2.3203-1.6406-4.2656-3.8203-4.75v-5.2773l3.9727-2.9023c0.26562-0.19531 0.42969-0.51563 0.42969-0.84766v-6.0703c3.6797 1.1523 7.4727 1.793 11.348 1.8906v8.8594c-2.1953 0.48438-3.832 2.4297-3.832 4.7656 0 2.6953 2.1953 4.875 4.875 4.875 2.6797 0 4.875-2.1953 4.875-4.875 0-2.332-1.6523-4.2773-3.832-4.7656v-8.8594c3.8594-0.097656 7.668-0.73438 11.348-1.8906v6.0703c0 0.33203 0.15234 0.64062 0.42969 0.84766l3.957 2.9023v5.2773c-2.1797 0.47266-3.8203 2.418-3.8203 4.75 0 2.6797 2.1797 4.8594 4.8594 4.8594 2.6797 0 4.8594-2.1797 4.8594-4.8594 0-2.3203-1.6406-4.2656-3.8203-4.75v-5.8047c0-0.33203-0.15234-0.64063-0.42969-0.84766l-3.957-2.9023v-6.25c8.707-3.2227 16.68-9.3594 23.234-18.055 0.27734-0.375 0.27734-0.875 0-1.25zm-22.664-38.609c0-1.5273 1.25-2.7773 2.7773-2.7773 1.5273 0 2.7773 1.25 2.7773 2.7773s-1.25 2.7773-2.7773 2.7773c-1.5273 0-2.7773-1.2383-2.7773-2.7773zm-35.641 0c0-1.5273 1.25-2.7773 2.7773-2.7773 1.5273 0 2.7773 1.25 2.7773 2.7773s-1.25 2.7773-2.7773 2.7773c-1.5273 0-2.7773-1.2383-2.7773-2.7773zm5.5547 78.469c0 1.5273-1.25 2.7773-2.7773 2.7773-1.5273 0-2.7773-1.25-2.7773-2.7773s1.25-2.7773 2.7773-2.7773c1.5273 0 2.7773 1.2383 2.7773 2.7773zm35.641 0c0 1.5273-1.25 2.7773-2.7773 2.7773-1.5273 0-2.7773-1.25-2.7773-2.7773s1.25-2.7773 2.7773-2.7773c1.5273 0 2.7773 1.2383 2.7773 2.7773zm-23.391-74.137c0-1.543 1.25-2.793 2.793-2.793s2.793 1.25 2.793 2.793c0 1.543-1.25 2.793-2.793 2.793s-2.793-1.25-2.793-2.793zm5.5859 69.805c0 1.543-1.25 2.793-2.793 2.793s-2.793-1.25-2.793-2.793c0-1.543 1.25-2.793 2.793-2.793s2.793 1.25 2.793 2.793zm-2.793-15.668c-13.375 0-25.973-6.8203-35.57-19.234 9.5977-12.418 22.195-19.234 35.57-19.234s25.973 6.8164 35.57 19.234c-9.5977 12.418-22.195 19.234-35.57 19.234z" fill="#541875"/>
 <path d="m50 34.902c-8.332 0-15.098 6.7773-15.098 15.098s6.7773 15.098 15.098 15.098 15.098-6.7656 15.098-15.098-6.7656-15.098-15.098-15.098zm0 28.113c-7.1797 0-13.016-5.832-13.016-13.016 0-7.1797 5.832-13.016 13.016-13.016 7.1797 0 13.016 5.832 13.016 13.016 0 7.1797-5.8359 13.016-13.016 13.016z" fill="#541875"/>
 <path d="m50 43.625c-3.5156 0-6.375 2.8594-6.375 6.375s2.8594 6.375 6.375 6.375 6.375-2.8594 6.375-6.375-2.8594-6.375-6.375-6.375zm0 10.668c-2.3594 0-4.293-1.9297-4.293-4.293 0-2.3594 1.9297-4.293 4.293-4.293 2.3594 0 4.293 1.9297 4.293 4.293 0 2.3594-1.9336 4.293-4.293 4.293z" fill="#541875"/>
</svg>
