<?xml version="1.0" encoding="UTF-8"?>
<svg width="100pt" height="100pt" version="1.1" viewBox="0 0 100 100" xmlns="http://www.w3.org/2000/svg">
 <path d="m40.629 79.469c-0.097656 0.046875-0.21094 0.074219-0.32812 0.074219zm18.746-58.934c0.097656-0.046875 0.21094-0.078125 0.32422-0.078125zm20.09 38.844c0.046875 0.097656 0.074218 0.20703 0.074218 0.32422zm-58.93-18.75c-0.046875-0.097656-0.074218-0.21094-0.074218-0.32812zm31.465 15.309v3.9414c0 0.55078-0.22656 1.0508-0.58594 1.4102-0.36328 0.36328-0.86328 0.58594-1.4141 0.58594-0.55078 0.003906-1.0508-0.22266-1.4102-0.58594-0.35938-0.35937-0.58594-0.86328-0.58594-1.4102v-3.9414c-0.28125-0.23828-0.51953-0.53125-0.69531-0.85547l-0.023438-0.042969c-0.22656-0.42969-0.35547-0.91797-0.35547-1.4336 0-0.84766 0.34375-1.6172 0.89844-2.1719 0.015625-0.015625 0.03125-0.03125 0.050781-0.042969 0.55469-0.52734 1.3008-0.85547 2.125-0.85547 0.84766 0.003906 1.6172 0.34766 2.1719 0.90234h0.003907c0.55469 0.55859 0.89844 1.3242 0.89844 2.1719 0 0.53125-0.13672 1.0352-0.37891 1.4727v0.003907c-0.17969 0.32031-0.41797 0.61328-0.69922 0.85156zm-19.418-26.289h6.9648v-7.9883l-4.2891-2.2773c-0.25391-0.13281-0.39844-0.39844-0.39844-0.66406v0.003906-4.0234c-0.65234-0.14844-1.2383-0.47656-1.6953-0.93359-0.625-0.62891-1.0156-1.4961-1.0156-2.4492s0.38672-1.8203 1.0156-2.4453l0.003907-0.003906c0.62891-0.625 1.4922-1.0156 2.4453-1.0156s1.8203 0.38672 2.4453 1.0117l0.003906 0.007813c0.625 0.62891 1.0117 1.4883 1.0117 2.4453 0 0.95312-0.38672 1.8164-1.0117 2.4453l-0.003906 0.007812c-0.45703 0.45312-1.043 0.78516-1.6953 0.92969v3.5742l4.2695 2.2656c0.25 0.11719 0.42188 0.375 0.42188 0.67188v8.4414h8.1992v-9.6719c-0.65234-0.14453-1.2383-0.47656-1.6953-0.93359h-0.003906c-0.62891-0.62891-1.0156-1.4922-1.0156-2.4492 0-0.94922 0.38672-1.8164 1.0156-2.4453h0.003906c0.625-0.62891 1.4922-1.0195 2.4414-1.0195 0.95703 0 1.8203 0.38672 2.4453 1.0156l0.003907 0.003906c0.62891 0.62891 1.0156 1.4883 1.0156 2.4453 0 0.95703-0.38672 1.8203-1.0156 2.4453v0.007812c-0.45703 0.45703-1.043 0.78516-1.6953 0.92969v9.6758h8.1992v-8.4414c0-0.29297 0.17188-0.55469 0.42188-0.67578l4.2695-2.2656v-3.5703c-0.65234-0.14844-1.2383-0.47656-1.6953-0.93359h-0.003907c-0.62891-0.62891-1.0156-1.4961-1.0156-2.4492 0-0.95312 0.38672-1.8203 1.0156-2.4453l0.003907-0.003906c0.625-0.625 1.4922-1.0156 2.4453-1.0156 0.95703 0 1.8203 0.38672 2.4453 1.0117l0.003906 0.007812c0.625 0.62891 1.0117 1.4883 1.0117 2.4453 0 0.95313-0.38672 1.8164-1.0117 2.4453l-0.003906 0.007813c-0.45703 0.45312-1.043 0.78516-1.6953 0.92969v4.0234c0 0.26563-0.14453 0.52344-0.39844 0.66016l-4.2891 2.2812v7.9883h6.9648c0.54688 0 1.0625 0.15234 1.5039 0.41797l9.1523-9.1484c-0.49609-0.60156-0.79688-1.3711-0.79688-2.207 0-0.95312 0.38672-1.8203 1.0156-2.4453l0.003906-0.003907c0.625-0.62891 1.4883-1.0156 2.4414-1.0156 0.95703 0.003906 1.8203 0.38672 2.4453 1.0117l0.003906 0.003906c0.62891 0.62891 1.0117 1.4922 1.0117 2.4453s-0.38672 1.8164-1.0117 2.4453l-0.003906 0.003906c-0.62891 0.62891-1.4922 1.0117-2.4453 1.0117-0.52344 0-1.0234-0.11719-1.4727-0.32812l-9.2969 9.2969c0.24219 0.42578 0.37891 0.91797 0.37891 1.4414l0.003907 6.9688h7.9883l2.2773-4.2891c0.13672-0.25391 0.39453-0.40234 0.66406-0.40234v0.003907h4.0195c0.14453-0.65234 0.47266-1.2383 0.93359-1.6953l0.003907-0.003906c0.625-0.625 1.4922-1.0117 2.4453-1.0117s1.8203 0.38672 2.4453 1.0117l0.003907 0.007812c0.62891 0.62891 1.0156 1.4883 1.0156 2.4453 0 0.95312-0.38672 1.8203-1.0156 2.4453l-0.003907 0.003906c-0.62891 0.62891-1.4922 1.0117-2.4453 1.0117s-1.8203-0.38672-2.4453-1.0156h-0.003907c-0.45703-0.45703-0.78906-1.043-0.93359-1.6953h-3.5703l-2.2695 4.2656c-0.12109 0.25391-0.37891 0.42188-0.67578 0.42188l-8.4336-0.007813v8.1992h9.6719c0.14453-0.65625 0.47656-1.2383 0.93359-1.6953l0.003906-0.003907c0.62891-0.62891 1.4922-1.0156 2.4453-1.0156 0.95312 0.003906 1.8164 0.38672 2.4453 1.0117l0.003906 0.003906c0.62891 0.62891 1.0117 1.4883 1.0117 2.4453 0.003906 0.95312-0.38672 1.8164-1.0117 2.4453l-0.003906 0.003906c-0.625 0.62891-1.4922 1.0117-2.4453 1.0117s-1.8203-0.38672-2.4453-1.0156h-0.003906c-0.45703-0.45703-0.78906-1.043-0.93359-1.6953l-9.6719 0.003906v8.1992h8.4375c0.29688 0 0.55078 0.17188 0.67578 0.42578l2.2695 4.2695h3.5703c0.14453-0.65625 0.47266-1.2422 0.93359-1.6953l0.003906-0.003907c0.625-0.62891 1.4922-1.0156 2.4453-1.0156 0.95312 0.003906 1.8203 0.38672 2.4453 1.0117l0.003906 0.003906c0.62891 0.62891 1.0156 1.4922 1.0156 2.4453 0 0.95703-0.38672 1.8203-1.0156 2.4453l-0.003906 0.003906c-0.62891 0.62891-1.4922 1.0117-2.4453 1.0117s-1.8203-0.38672-2.4453-1.0117l-0.003906-0.003906c-0.45703-0.45703-0.78906-1.043-0.93359-1.6953l-4.0195 0.003906v-0.003906c-0.26953 0-0.52734-0.14453-0.66406-0.39844l-2.2773-4.2891h-7.9922v6.9688c0 0.54688-0.15234 1.0586-0.42188 1.5l9.1523 9.1523c0.60156-0.49609 1.3672-0.79688 2.2031-0.79688 0.95703 0 1.8203 0.38672 2.4453 1.0117l0.003906 0.003907c0.625 0.62891 1.0156 1.4883 1.0156 2.4453 0 0.95312-0.38672 1.8203-1.0156 2.4453v0.007812c-0.62891 0.625-1.4922 1.0117-2.4492 1.0117-0.95312 0.003906-1.8164-0.38672-2.4453-1.0117l-0.003906-0.003906c-0.625-0.62891-1.0156-1.4922-1.0156-2.4453 0-0.52734 0.11719-1.0273 0.33203-1.4766l-9.2969-9.2969c-0.42578 0.24219-0.92188 0.38281-1.4453 0.38281l-6.9648 0.003907v7.9883l4.2891 2.2812c0.25391 0.13281 0.39844 0.39062 0.39844 0.66016v4.0234c0.65234 0.14844 1.2383 0.47266 1.6953 0.92969l0.003907 0.007813c0.625 0.625 1.0117 1.4883 1.0117 2.4453 0 0.95312-0.38672 1.8203-1.0117 2.4453l-0.003907 0.003906c-0.62891 0.62891-1.4922 1.0117-2.4453 1.0117s-1.8164-0.38672-2.4453-1.0117l-0.003906-0.003906c-0.62891-0.62891-1.0156-1.4922-1.0156-2.4453s0.38672-1.8203 1.0156-2.4453l0.003906-0.003906c0.45703-0.45703 1.0391-0.78906 1.6953-0.93359v-3.5703l-4.2656-2.2656c-0.25391-0.12109-0.42578-0.37891-0.42578-0.67578v-8.4336l-8.1953-0.007812v9.6719c0.65625 0.14844 1.2383 0.47656 1.6953 0.93359l0.003907 0.003906c0.62891 0.62891 1.0156 1.4922 1.0156 2.4453s-0.38672 1.8164-1.0156 2.4453v0.003906c-0.62891 0.62891-1.4922 1.0117-2.4453 1.0117-0.94922 0-1.8164-0.38672-2.4453-1.0117l-0.003906-0.003906c-0.62891-0.625-1.0156-1.4922-1.0156-2.4453s0.38672-1.8203 1.0156-2.4453l0.003906-0.003906c0.45703-0.45703 1.0391-0.78906 1.6914-0.93359v-9.6719h-8.1992v8.4414c0 0.29297-0.17578 0.55078-0.42578 0.67188l-4.2656 2.2656v3.5703c0.65234 0.14844 1.2383 0.47266 1.6953 0.92969l0.003906 0.007813c0.625 0.625 1.0117 1.4883 1.0117 2.4453 0 0.95312-0.38672 1.8203-1.0117 2.4453l-0.003906 0.003907c-0.62891 0.62891-1.4922 1.0117-2.4453 1.0117s-1.8164-0.38672-2.4453-1.0117v-0.003907c-0.625-0.62891-1.0156-1.4922-1.0156-2.4453s0.38672-1.8203 1.0156-2.4453l0.003907-0.003907c0.45703-0.45703 1.043-0.78906 1.6953-0.93359l0.003907-4.0195c0-0.26953 0.14453-0.53125 0.39844-0.66406l4.2891-2.2773v-7.9883h-6.9648c-0.52344 0-1.0156-0.14062-1.4414-0.38281l-9.293 9.2969c0.21094 0.44531 0.32812 0.94531 0.32812 1.4727 0 0.95312-0.38672 1.8203-1.0117 2.4453l-0.003906 0.007812c-0.62891 0.625-1.4922 1.0117-2.4453 1.0117-0.95312 0.003907-1.8203-0.38672-2.4453-1.0117l-0.003906-0.003906c-0.62891-0.62891-1.0156-1.4922-1.0156-2.4453s0.38672-1.8203 1.0117-2.4453l0.003907-0.003906c0.625-0.62891 1.4922-1.0117 2.4453-1.0117 0.83984 0 1.6055 0.29688 2.2031 0.79297l9.1523-9.1523c-0.26562-0.44141-0.41797-0.95703-0.41797-1.5039v-6.9648h-7.9883l-2.2773 4.2891c-0.13281 0.25391-0.39453 0.39844-0.66406 0.39844v0.003907h-4.0195c-0.14453 0.65234-0.47656 1.2344-0.93359 1.6914l-0.003907 0.003906c-0.625 0.62891-1.4922 1.0117-2.4453 1.0117s-1.8203-0.38672-2.4453-1.0117l-0.003906-0.003906c-0.625-0.62891-1.0156-1.4922-1.0156-2.4492 0.003906-0.95312 0.38672-1.8164 1.0156-2.4453l0.003906-0.003906c0.62891-0.62891 1.4922-1.0156 2.4453-1.0156 0.95312 0.003907 1.8203 0.38672 2.4453 1.0117l0.003907 0.003906c0.45703 0.45703 0.78516 1.043 0.93359 1.6953l3.5703 0.003906 2.2695-4.2656c0.12109-0.25391 0.37891-0.42578 0.67578-0.42578h8.4375v-8.1992h-9.6719c-0.14844 0.65625-0.47656 1.2383-0.93359 1.6953l-0.003907 0.003907c-0.62891 0.62891-1.4922 1.0117-2.4453 1.0117s-1.8164-0.38672-2.4453-1.0156h-0.003906c-0.62891-0.62891-1.0156-1.4922-1.0156-2.4453s0.38672-1.8203 1.0156-2.4453l0.003906-0.003907c0.625-0.62891 1.4922-1.0156 2.4453-1.0156 0.95312 0.003906 1.8164 0.38672 2.4453 1.0117l0.003907 0.003906c0.45703 0.45703 0.78516 1.043 0.92969 1.6914l9.6758 0.003906-0.011718-8.1953h-8.4375c-0.29688 0-0.55469-0.17578-0.67578-0.42578l-2.2695-4.2656h-3.5703c-0.14453 0.65625-0.47656 1.2383-0.93359 1.6953l-0.003907 0.003906c-0.625 0.62891-1.4922 1.0117-2.4453 1.0117s-1.8203-0.38672-2.4453-1.0156v0.003906c-0.625-0.62891-1.0117-1.4961-1.0117-2.4492 0.003906-0.95312 0.38672-1.8164 1.0156-2.4453l0.003906-0.003906c0.62891-0.625 1.4922-1.0117 2.4453-1.0117 0.95313 0 1.8203 0.38672 2.4453 1.0117l0.003906 0.007813c0.45703 0.45703 0.78516 1.0391 0.93359 1.6914l4.0195 0.003906c0.26953 0 0.52734 0.14453 0.66406 0.39844l2.2773 4.293h7.9883v-6.9688c0-0.52344 0.14062-1.0156 0.38281-1.4414l-9.2969-9.2969c-0.44922 0.21484-0.94531 0.32812-1.4727 0.32812-0.95312 0-1.8203-0.38672-2.4453-1.0117v-0.003906c-0.62891-0.62891-1.0156-1.4922-1.0156-2.4453s0.38672-1.8203 1.0156-2.4453l0.003907-0.003906c0.62891-0.62891 1.4922-1.0156 2.4453-1.0156 0.95312 0.003906 1.8203 0.38672 2.4453 1.0117l0.003906 0.003906c0.62891 0.62891 1.0156 1.4922 1.0156 2.4453 0 0.83594-0.30078 1.6016-0.79688 2.2031l9.1484 9.1523c0.43359-0.26562 0.94531-0.41797 1.4961-0.41797zm34.836 1.5h-34.836c-0.39453 0-0.75391 0.16016-1.0117 0.42187l-0.011718 0.011719-0.011719 0.015625c-0.24609 0.25781-0.39844 0.60547-0.39844 0.98438l0.003906 7.7188v27.117c0 0.37891 0.14844 0.72266 0.38672 0.97656l0.058594 0.058594v0.003906c0.25781 0.24219 0.60547 0.39453 0.98438 0.39453l7.7188 0.003907h27.117c0.37109 0 0.71094-0.14844 0.96484-0.37891l0.023438-0.019531c0.011719-0.015625 0.023438-0.027343 0.039062-0.039062v-0.003907c0.25-0.25781 0.40625-0.60937 0.40625-0.99609v-34.832c0-0.37891-0.15234-0.73047-0.39844-0.98828v0.003906l-0.011719-0.015624h-0.003906l-0.011719-0.011719v-0.003907l-0.015625-0.015624h-0.003906c-0.25781-0.24609-0.60938-0.40625-0.99609-0.40625zm-30.418-21.215-0.003906-0.003906c-0.35547-0.35547-0.84766-0.57422-1.3867-0.57422-0.54297 0-1.0312 0.21875-1.3867 0.57031l-0.003906 0.007813c-0.35156 0.35156-0.57031 0.83984-0.57031 1.3828 0.003906 0.54297 0.21875 1.0312 0.57031 1.3867l0.003906 0.007813c0.35547 0.35156 0.84375 0.56641 1.3867 0.56641 0.54297 0.003906 1.0312-0.21875 1.3867-0.57031l0.003906-0.003906c0.35156-0.35547 0.57031-0.84766 0.57031-1.3867 0-0.54297-0.21875-1.0352-0.57031-1.3867zm14.391 5.2773-0.003906-0.003907c-0.35156-0.35156-0.84375-0.57422-1.3867-0.57422s-1.0312 0.21875-1.3867 0.57031l-0.003906 0.007813c-0.35156 0.35156-0.57031 0.84375-0.57031 1.3828 0.003907 0.54297 0.21875 1.0352 0.57031 1.3867l0.003906 0.003906c0.35547 0.35156 0.84375 0.57031 1.3867 0.57031s1.0352-0.21875 1.3867-0.57031l0.003906-0.003906c0.35156-0.35547 0.57031-0.84766 0.57031-1.3867 0.003906-0.53906-0.21875-1.0312-0.57031-1.3867zm13-5.8555c-0.54297 0-1.0352 0.21875-1.3867 0.57031l-0.003906 0.007813c-0.35156 0.35156-0.57031 0.83984-0.57031 1.3828 0 0.54297 0.21875 1.0312 0.57031 1.3867l0.003906 0.007813c0.35547 0.35156 0.84375 0.56641 1.3867 0.56641 0.54297 0.003906 1.0312-0.21875 1.3867-0.57031l0.003906-0.003906c0.35156-0.35547 0.57031-0.84766 0.57031-1.3867 0-0.54297-0.21875-1.0352-0.57031-1.3867h-0.003906c-0.35156-0.35547-0.84375-0.57422-1.3867-0.57422zm25.68 27.645v-0.003906c0.35547-0.35547 0.57031-0.84766 0.57031-1.3867s-0.21875-1.0312-0.57031-1.3867c-0.35547-0.35156-0.84766-0.57422-1.3867-0.57422-0.54297 0.003906-1.0312 0.21875-1.3867 0.57031l-0.003906 0.007812c-0.35547 0.35547-0.57031 0.84375-0.57031 1.3828 0 0.54297 0.21875 1.0352 0.57031 1.3867l0.003906 0.003906c0.35547 0.35156 0.84375 0.57031 1.3867 0.57031 0.54297 0 1.0312-0.21875 1.3867-0.57031zm-5.2773 14.391 0.003906-0.003906c0.35547-0.35156 0.57031-0.84375 0.57031-1.3867 0-0.53906-0.21875-1.0352-0.57031-1.3906-0.35547-0.35547-0.84766-0.57031-1.3867-0.57031-0.54297 0.003907-1.0352 0.21484-1.3867 0.57031l-0.003907 0.007813c-0.35156 0.35156-0.57031 0.84375-0.57031 1.3867 0 0.54297 0.21875 1.0312 0.57031 1.3867l0.003907 0.003906c0.35156 0.35156 0.84375 0.57031 1.3867 0.57031 0.53906 0 1.0312-0.22266 1.3828-0.57422zm5.8516 13c0-0.54297-0.21875-1.0352-0.57031-1.3906-0.35547-0.35156-0.84766-0.57031-1.3867-0.57031-0.54297 0.003906-1.0312 0.21875-1.3867 0.57031l-0.003906 0.003906c-0.35547 0.35547-0.57031 0.84375-0.57031 1.3828 0 0.54297 0.21875 1.0352 0.57031 1.3867l0.003906 0.003906c0.35547 0.35547 0.84375 0.57031 1.3867 0.57031 0.54297 0.003906 1.0312-0.21875 1.3867-0.57031l0.003906 0.003906c0.34766-0.35156 0.56641-0.84766 0.56641-1.3906zm-11.094-44.113c0.023438 0.015625 0.046875 0.027344 0.070313 0.050781 0.31641 0.22266 0.70312 0.34766 1.1211 0.34766 0.54297 0.003907 1.0312-0.21875 1.3867-0.57031l0.003906-0.003907c0.35547-0.35156 0.57031-0.84375 0.57031-1.3867 0-0.54297-0.21875-1.0352-0.57031-1.3867l-0.003906-0.003906c-0.35156-0.35156-0.84766-0.57031-1.3867-0.57031-0.53906 0.003906-1.0312 0.21875-1.3867 0.57031l-0.003907 0.007812c-0.35156 0.35547-0.57031 0.84375-0.57031 1.3867s0.21875 1.0312 0.57031 1.3867l0.003907 0.003906c0.058593 0.054687 0.125 0.11328 0.19531 0.16797zm-70.195 15.336c0 0.54297 0.21875 1.0312 0.57031 1.3867l0.003907 0.003906c0.35547 0.35156 0.84375 0.57031 1.3867 0.57031 0.54297 0 1.0312-0.21875 1.3867-0.57031l0.003906-0.003906c0.35547-0.35547 0.57031-0.84766 0.57031-1.3867 0-0.53906-0.21875-1.0312-0.57031-1.3867h-0.003906c-0.35156-0.35156-0.84375-0.57422-1.3867-0.57422-0.54297 0.003906-1.0312 0.21875-1.3867 0.57031l-0.003907 0.003906c-0.35156 0.35547-0.57031 0.84375-0.57031 1.3867zm5.2773 14.391c0 0.54297 0.21875 1.0312 0.57031 1.3867l0.003906 0.003906c0.35547 0.35156 0.84375 0.57031 1.3867 0.57031 0.54297 0.003906 1.0312-0.21875 1.3867-0.57031l0.003906-0.003906c0.35156-0.35156 0.57031-0.84375 0.57031-1.3867 0-0.53906-0.21875-1.0352-0.57031-1.3906h-0.003906c-0.35547-0.35547-0.84766-0.57031-1.3867-0.57031-0.54297 0.003906-1.0312 0.21484-1.3867 0.57031l-0.003906 0.007813c-0.35156 0.34766-0.57031 0.83594-0.57031 1.3828zm-4.7031 13-0.003907 0.003906c-0.35547 0.35547-0.57031 0.84375-0.57031 1.3828 0 0.54297 0.21875 1.0352 0.57031 1.3867l0.003907 0.003906c0.35547 0.35547 0.84375 0.57031 1.3867 0.57031 0.54297 0.003907 1.0312-0.21875 1.3867-0.57031l0.003906 0.003906c0.35547-0.35547 0.57031-0.84766 0.57031-1.3906 0-0.53906-0.21875-1.0312-0.57031-1.3867h-0.003906c-0.35156-0.35156-0.84375-0.57031-1.3867-0.57031-0.54297-0.003906-1.0312 0.21094-1.3867 0.56641zm10.449-42.68c0.023438-0.019531 0.046875-0.035157 0.070313-0.050781 0.070312-0.050782 0.13672-0.10938 0.19531-0.17188l0.003907-0.003906c0.35156-0.35156 0.57031-0.84375 0.57031-1.3867 0-0.53906-0.21875-1.0352-0.57031-1.3867l-0.003907-0.003907c-0.35547-0.35156-0.84766-0.57031-1.3867-0.57031-0.54297 0.003906-1.0312 0.21875-1.3867 0.57031l-0.003906 0.007813c-0.35156 0.35547-0.57031 0.84375-0.57031 1.3867 0 0.54297 0.21875 1.0312 0.57031 1.3867l0.003906 0.003907c0.35547 0.35547 0.84375 0.57031 1.3867 0.57031 0.41797 0 0.80469-0.13281 1.1211-0.35156zm15.23 70.324c0.54297 0 1.0312-0.21875 1.3867-0.57422h0.003906c0.35156-0.35547 0.57031-0.84766 0.57031-1.3906 0-0.54297-0.21875-1.0312-0.57031-1.3867l-0.003906-0.003906c-0.35547-0.35156-0.84766-0.57031-1.3867-0.57031-0.54297 0.003906-1.0312 0.21875-1.3867 0.57031l-0.003906 0.003906c-0.35156 0.35547-0.57031 0.84375-0.57031 1.3867 0.003906 0.54297 0.21875 1.0312 0.57031 1.3867l0.003906 0.003907c0.35547 0.35547 0.84375 0.57031 1.3867 0.57422zm14.391-5.2773c0.54297 0 1.0312-0.21875 1.3867-0.57422l0.003906 0.003906c0.35156-0.35547 0.57031-0.84766 0.57031-1.3906 0.003906-0.54297-0.21875-1.0352-0.57031-1.3867l-0.003906-0.003907c-0.35156-0.35156-0.84375-0.57031-1.3867-0.57031-0.54297 0.003906-1.0312 0.21875-1.3867 0.57031l-0.003906 0.003907c-0.35156 0.35547-0.57031 0.84375-0.57031 1.3867 0.003907 0.54297 0.21875 1.0312 0.57031 1.3867l0.003906 0.003906c0.35547 0.35547 0.84375 0.57031 1.3867 0.57031zm13 4.7031h0.003906c0.35547 0.35547 0.84375 0.57031 1.3867 0.57031 0.54297 0.003907 1.0312-0.21875 1.3867-0.57031h0.003906c0.35156-0.35547 0.57031-0.84766 0.57031-1.3906 0-0.54297-0.21875-1.0312-0.57031-1.3867l-0.003906-0.003906c-0.35156-0.35156-0.84375-0.57031-1.3867-0.57031-0.53906 0.003906-1.0312 0.21875-1.3867 0.57031l-0.003906 0.003906c-0.35156 0.35547-0.57031 0.84375-0.57031 1.3867 0 0.54688 0.21875 1.0312 0.57031 1.3906zm-42.676-10.453c-0.019531-0.023438-0.035157-0.050782-0.050781-0.070313-0.054688-0.070312-0.10938-0.13672-0.17188-0.19531l-0.003906-0.003907c-0.35156-0.35156-0.84766-0.57031-1.3867-0.57031-0.53906 0.003906-1.0312 0.21875-1.3867 0.57031l-0.003907 0.003907c-0.35156 0.35547-0.57422 0.84375-0.57422 1.3867 0 0.54297 0.21875 1.0312 0.57031 1.3867l0.003906 0.003906c0.35547 0.35547 0.84375 0.57031 1.3867 0.57031s1.0312-0.21875 1.3867-0.57031l0.003906-0.003906c0.35156-0.35156 0.57031-0.84375 0.57031-1.3867 0.007812-0.41797-0.125-0.80469-0.34375-1.1211zm59.402-0.066406c-0.015624 0.023437-0.035156 0.042968-0.050781 0.066406-0.21875 0.32031-0.35156 0.70312-0.35156 1.1211 0.003906 0.54297 0.21875 1.0312 0.57031 1.3867l0.003907 0.003906c0.35547 0.35547 0.84375 0.57031 1.3867 0.57031 0.54297 0 1.0312-0.21875 1.3867-0.57031l0.003906-0.003906c0.35156-0.35156 0.57031-0.84375 0.57031-1.3867 0-0.53906-0.21875-1.0352-0.57031-1.3867l-0.003906-0.003907c-0.35547-0.35156-0.84375-0.57031-1.3867-0.57031-0.54297 0.003906-1.0312 0.21875-1.3867 0.57031l-0.003907 0.003907c-0.058593 0.058593-0.11719 0.125-0.16797 0.19922zm-38.734-32.883h0.17187v-3.5742c0-2.4297 0.99219-4.6445 2.5938-6.2422 1.6016-1.5977 3.8086-2.5938 6.2422-2.5938 2.4336 0.003906 4.6445 0.99609 6.2422 2.5938 1.6016 1.6055 2.5938 3.8125 2.5938 6.2422v3.5742h0.17187c0.91406 0 1.7461 0.375 2.3516 0.97656l0.003906 0.003906c0.60156 0.60547 0.97656 1.4375 0.97656 2.3516v12.402c0 0.91797-0.375 1.75-0.97656 2.3555-0.015625 0.015625-0.03125 0.03125-0.046875 0.042969-0.60156 0.58203-1.4141 0.93359-2.3086 0.93359l-18.016 0.003907c-0.91406 0-1.75-0.375-2.3555-0.98047v0.003906c-0.60547-0.60547-0.98047-1.4375-0.98047-2.3555v-12.402c0-0.91406 0.375-1.75 0.97656-2.3555h0.003907c0.60938-0.60547 1.4414-0.98438 2.3555-0.98047zm1.6719 0h1.2383v-3.5742c0-1.6758 0.68359-3.1992 1.7891-4.3086 1.1055-1.1016 2.6289-1.7891 4.3047-1.7891 1.6562 0.003906 3.1602 0.66797 4.2617 1.75 0.015626 0.015625 0.03125 0.027344 0.042969 0.039062 1.1055 1.1055 1.793 2.6289 1.793 4.3086v3.5742h1.2383v-3.5742c0-2.0156-0.82812-3.8516-2.1562-5.1836-1.3281-1.3281-3.1641-2.1523-5.1836-2.1523-2.0156 0.003906-3.8516 0.82422-5.1797 2.1523-1.3281 1.332-2.1562 3.1641-2.1562 5.1836zm2.7383 0h9.1953v-3.5742c0-1.2578-0.51953-2.4141-1.3516-3.2461l-0.035156-0.035156c-0.83203-0.8125-1.9688-1.3164-3.2109-1.3164-1.2617 0.003906-2.4102 0.51562-3.2422 1.3516-0.83203 0.83594-1.3516 1.9844-1.3516 3.2461zm13.605 1.5h-18.016c-0.50391 0-0.96484 0.20312-1.2969 0.53906-0.33203 0.33203-0.53906 0.78906-0.53906 1.293v12.402c0 0.50391 0.20703 0.96094 0.53906 1.293 0.33203 0.33203 0.78906 0.53906 1.293 0.53906h18.02c0.48828 0 0.93359-0.19531 1.2617-0.50781l0.03125-0.03125c0.33203-0.32812 0.53906-0.79297 0.53906-1.293l0.003906-12.402c0-0.50391-0.20703-0.96484-0.53906-1.2969-0.33203-0.33203-0.79297-0.53516-1.2969-0.53516zm-8.5078 11.707v-4.3086h0.003906c0-0.25 0.12109-0.49219 0.34375-0.63281 0.22266-0.14453 0.40625-0.33984 0.53516-0.57422v0.003907c0.12109-0.22266 0.19141-0.47656 0.19141-0.75781 0-0.43359-0.17578-0.82812-0.46094-1.1133l0.003907 0.003906v-0.003906c-0.28125-0.28125-0.67578-0.45703-1.1133-0.45703-0.41797 0-0.80078 0.16406-1.082 0.42578l-0.03125 0.035156c-0.28516 0.28516-0.46094 0.67578-0.46094 1.1094 0 0.26562 0.0625 0.51172 0.17187 0.72656l0.019532 0.03125c0.12109 0.21875 0.28516 0.40234 0.48438 0.54297 0.23828 0.125 0.39844 0.375 0.39844 0.66016v4.3125c0 0.13672 0.054688 0.26172 0.14844 0.35156 0.089844 0.089844 0.21484 0.14844 0.35156 0.14844 0.13672 0 0.26172-0.058593 0.35156-0.14844 0.085937-0.089844 0.14453-0.21875 0.14453-0.35547z" fill="#541875" fill-rule="evenodd"/>
</svg>
