<?xml version="1.0" encoding="UTF-8"?>
<svg width="100pt" height="100pt" version="1.1" viewBox="0 0 100 100" xmlns="http://www.w3.org/2000/svg">
 <path d="m36.762 19.219c0.77734 0 1.5078-0.19531 2.1523-0.53906l3.3789 3.3789v19.871c-4.8359 2.7109-8.1133 7.8828-8.1133 13.809 0 8.7227 7.0977 15.816 15.816 15.816 8.7227 0 15.816-7.0977 15.816-15.816 0-5.9258-3.2773-11.098-8.1133-13.809l0.003906-19.871 3.3789-3.3789c0.64062 0.34375 1.3711 0.53906 2.1523 0.53906 2.5156 0 4.5664-2.0469 4.5664-4.5664 0-2.5156-2.0469-4.5664-4.5664-4.5664-2.5156 0-4.5664 2.0469-4.5664 4.5664 0 0.77734 0.19531 1.5078 0.53906 2.1523l-3.7695 3.7695c-0.25 0.25-0.38672 0.58594-0.38672 0.9375v19.242c-1.1875-0.40234-2.4375-0.66406-3.7305-0.77344l0.003907-28.25c1.8711-0.57031 3.2383-2.3125 3.2383-4.3672 0-2.5156-2.0469-4.5664-4.5664-4.5664-2.5156 0-4.5664 2.0469-4.5664 4.5664 0 2.0547 1.3672 3.8008 3.2383 4.3672v28.246c-1.293 0.10938-2.543 0.37109-3.7305 0.77344l0.003906-19.242c0-0.35156-0.14062-0.6875-0.38672-0.9375l-3.7695-3.7695c0.34375-0.64062 0.53906-1.3711 0.53906-2.1523 0-2.5156-2.0469-4.5664-4.5664-4.5664-2.5156 0-4.5664 2.0469-4.5664 4.5664 0 2.5156 2.0469 4.5664 4.5664 4.5664zm26.477-6.4805c1.0547 0 1.9141 0.85938 1.9141 1.9141 0 1.0547-0.85938 1.9141-1.9141 1.9141-1.0547 0-1.9141-0.85938-1.9141-1.9141 0-1.0547 0.85938-1.9141 1.9141-1.9141zm-0.070312 43c0 7.2617-5.9062 13.168-13.168 13.168s-13.168-5.9062-13.168-13.168 5.9062-13.168 13.168-13.168 13.168 5.9062 13.168 13.168zm-15.082-48.375c0-1.0547 0.85937-1.9141 1.9141-1.9141s1.9141 0.85938 1.9141 1.9141c0 1.0547-0.85937 1.9141-1.9141 1.9141s-1.9141-0.85938-1.9141-1.9141zm-11.324 5.375c1.0547 0 1.9141 0.85938 1.9141 1.9141 0 1.0547-0.85938 1.9141-1.9141 1.9141-1.0547 0-1.9141-0.85938-1.9141-1.9141 0-1.0547 0.85938-1.9141 1.9141-1.9141zm56.383 16.379c-2.5156 0-4.5664 2.0469-4.5664 4.5664 0 0.77734 0.19531 1.5078 0.53906 2.1523l-3.7695 3.7695c-0.25 0.25-0.38672 0.58594-0.38672 0.9375v7.1914h-3.7305v-16.973c1.8711-0.57031 3.2383-2.3125 3.2383-4.3672 0-2.5156-2.0469-4.5664-4.5664-4.5664-2.5156 0-4.5664 2.0469-4.5664 4.5664 0 2.0547 1.3672 3.8008 3.2383 4.3672v16.969h-3.7305v-7.1914c0-0.35156-0.14062-0.6875-0.38672-0.9375l-3.7695-3.7695c0.34375-0.64062 0.53906-1.3711 0.53906-2.1523 0-2.5156-2.0469-4.5664-4.5664-4.5664-2.5156 0-4.5664 2.0469-4.5664 4.5664 0 2.5156 2.0469 4.5664 4.5664 4.5664 0.77734 0 1.5078-0.19531 2.1523-0.53906l3.3828 3.3828v6.6406h-2.5234c-0.42578 0-0.82812 0.20703-1.0781 0.55469s-0.31641 0.79297-0.17969 1.1992c0.68359 2.0078 1.0273 4.1133 1.0273 6.2578 0 10.727-8.7266 19.449-19.449 19.449-10.727 0-19.449-8.7266-19.449-19.449 0-2.1406 0.34766-4.2461 1.0273-6.2578 0.13672-0.40625 0.070313-0.85156-0.17969-1.1992s-0.64844-0.55469-1.0781-0.55469h-2.5234v-6.6406l3.3828-3.3789c0.64062 0.34375 1.3711 0.53906 2.1523 0.53906 2.5156 0 4.5664-2.0469 4.5664-4.5664 0-2.5156-2.0469-4.5664-4.5664-4.5664-2.5156 0-4.5664 2.0469-4.5664 4.5664 0 0.77734 0.19531 1.5078 0.53906 2.1523l-3.7695 3.7695c-0.25 0.24609-0.38672 0.58594-0.38672 0.9375v7.1914h-3.7305l0.007813-16.973c1.8711-0.57031 3.2383-2.3125 3.2383-4.3672 0-2.5156-2.0469-4.5664-4.5664-4.5664-2.5156 0-4.5664 2.0469-4.5664 4.5664 0 2.0547 1.3672 3.8008 3.2383 4.3672v16.969h-3.7305v-7.1914c0-0.35156-0.14062-0.6875-0.38672-0.9375l-3.7695-3.7695c0.34375-0.64062 0.53906-1.3711 0.53906-2.1523 0-2.5156-2.0469-4.5664-4.5664-4.5664-2.5156 0-4.5664 2.0469-4.5664 4.5664 0 2.5156 2.0469 4.5664 4.5664 4.5664 0.77734 0 1.5078-0.19531 2.1523-0.53906l3.3789 3.3789v6.6406h-2.5234c-0.73047 0-1.3242 0.59375-1.3242 1.3242v13.363c0 0.63281 0.44922 1.1797 1.0703 1.3008l7.375 1.4531 3 7.2344-4.1875 6.2461c-0.35156 0.52734-0.28516 1.2266 0.16406 1.6758l9.4492 9.4492c0.44922 0.44922 1.1484 0.51562 1.6758 0.16406l6.2461-4.1875 7.2344 3 1.4531 7.375c0.12109 0.62109 0.66797 1.0703 1.3008 1.0703h13.363c0.63281 0 1.1797-0.44922 1.3008-1.0703l1.4531-7.375 7.2344-3 6.2461 4.1875c0.52734 0.35156 1.2266 0.28516 1.6758-0.16406l9.4492-9.4492c0.44922-0.44922 0.51562-1.1484 0.16406-1.6758l-4.1875-6.2461 3-7.2344 7.375-1.4531c0.62109-0.12109 1.0703-0.66797 1.0703-1.3008v-13.363c0-0.73047-0.59375-1.3242-1.3242-1.3242h-2.5234v-6.6406l3.3789-3.3828c0.64062 0.34375 1.3711 0.53906 2.1523 0.53906 2.5156 0 4.5664-2.0469 4.5664-4.5664 0-2.5156-2.0469-4.5664-4.5664-4.5664zm-15.152-2.7227c0-1.0547 0.85937-1.9141 1.9141-1.9141s1.9141 0.85938 1.9141 1.9141c0 1.0547-0.85937 1.9141-1.9141 1.9141s-1.9141-0.85938-1.9141-1.9141zm-11.324 9.2031c-1.0547 0-1.9141-0.85938-1.9141-1.9141 0-1.0547 0.85938-1.9141 1.9141-1.9141 1.0547 0 1.9141 0.85938 1.9141 1.9141 0 1.0547-0.85938 1.9141-1.9141 1.9141zm-33.34-3.8281c1.0547 0 1.9141 0.85938 1.9141 1.9141 0 1.0547-0.85938 1.9141-1.9141 1.9141s-1.9141-0.85938-1.9141-1.9141c0-1.0547 0.85938-1.9141 1.9141-1.9141zm-15.152-5.375c0-1.0547 0.85938-1.9141 1.9141-1.9141 1.0547 0 1.9141 0.85938 1.9141 1.9141 0 1.0547-0.85938 1.9141-1.9141 1.9141-1.0547 0-1.9141-0.85938-1.9141-1.9141zm-11.324 9.2031c-1.0547 0-1.9141-0.85938-1.9141-1.9141 0-1.0547 0.85938-1.9141 1.9141-1.9141 1.0547 0 1.9141 0.85938 1.9141 1.9141 0 1.0547-0.85938 1.9141-1.9141 1.9141zm81.957 25.734-7.0039 1.3828c-0.43359 0.085937-0.79688 0.38281-0.96875 0.79297l-3.543 8.5469c-0.17188 0.41016-0.125 0.87891 0.12109 1.2461l3.9766 5.9336-7.9102 7.9102-5.9336-3.9766c-0.36719-0.24609-0.83594-0.29297-1.2461-0.125l-8.5469 3.543c-0.41016 0.17187-0.70703 0.53125-0.79297 0.96875l-1.3828 7.0039h-11.188l-1.3828-7.0039c-0.085937-0.43359-0.38281-0.79688-0.79297-0.96875l-8.5469-3.543c-0.41016-0.17188-0.87891-0.125-1.2461 0.125l-5.9336 3.9766-7.9102-7.9102 3.9766-5.9336c0.24609-0.36719 0.29297-0.83594 0.12109-1.2461l-3.543-8.5469c-0.17187-0.41016-0.53125-0.70703-0.96875-0.79297l-7.0039-1.3828v-10.949h17.395c-0.43359 1.7461-0.65234 3.5391-0.65234 5.3555 0 12.188 9.9141 22.102 22.102 22.102s22.102-9.9141 22.102-22.102c0-1.8164-0.21875-3.6133-0.65234-5.3555h17.363v10.949zm4.3359-25.734c-1.0547 0-1.9141-0.85938-1.9141-1.9141 0-1.0547 0.85938-1.9141 1.9141-1.9141 1.0547 0 1.9141 0.85938 1.9141 1.9141 0 1.0547-0.85938 1.9141-1.9141 1.9141zm-48.406 17.199c0 1.7188 0.85547 3.3281 2.2344 4.3047v3.8125c0 1.6719 1.3594 3.0273 3.0273 3.0273 1.6719 0 3.0273-1.3594 3.0273-3.0273v-3.8125c1.3789-0.97656 2.2344-2.5859 2.2344-4.3047 0-2.9023-2.3594-5.2617-5.2617-5.2617s-5.2617 2.3594-5.2617 5.2617zm7.875 0c0 0.99609-0.58203 1.9219-1.4805 2.3555-0.46094 0.22266-0.75 0.68359-0.75 1.1953v4.5625c0 0.20312-0.17187 0.37891-0.37891 0.37891-0.20703 0-0.37891-0.17187-0.37891-0.37891v-4.5625c0-0.50781-0.29297-0.97266-0.75-1.1953-0.90234-0.43359-1.4805-1.3594-1.4805-2.3555 0-1.4414 1.1719-2.6133 2.6133-2.6133 1.4414 0 2.6133 1.1719 2.6133 2.6133z" fill="#9654bc"/>
</svg>
