<?xml version="1.0" encoding="UTF-8"?>
<svg width="100pt" height="100pt" version="1.1" viewBox="0 0 100 100" xmlns="http://www.w3.org/2000/svg">
 <path d="m57.781 49.93h-15.562c-2.5508 0-4.6289 2.0781-4.6289 4.6289v34.602c0 2.5508 2.0781 4.6289 4.6289 4.6289h15.57c2.5508 0 4.6289-2.0781 4.6289-4.6289v-34.602c-0.007813-2.5586-2.0781-4.6289-4.6367-4.6289zm2.5 39.23c0 1.3711-1.1211 2.4883-2.4883 2.4883h-15.574c-1.3711 0-2.4883-1.1211-2.4883-2.4883v-34.602c0-1.3711 1.1211-2.4883 2.4883-2.4883h15.57c1.3711 0 2.4883 1.1211 2.4883 2.4883zm-30.371-31.391h-15.57c-2.5508 0-4.6289 2.0781-4.6289 4.6289v26.762c0 2.5508 2.0781 4.6289 4.6289 4.6289h15.57c2.5508 0 4.6289-2.0781 4.6289-4.6289v-26.762c0-2.5469-2.0703-4.6289-4.6289-4.6289zm2.5 31.391c0 1.3711-1.1211 2.4883-2.4883 2.4883h-15.582c-1.3711 0-2.4883-1.1211-2.4883-2.4883v-26.762c0-1.3711 1.1211-2.4883 2.4883-2.4883h15.57c1.3711 0 2.4883 1.1211 2.4883 2.4883v26.762zm53.25-23.832h-15.57c-2.5508 0-4.6289 2.0781-4.6289 4.6289v19.199c0 2.5508 2.0781 4.6289 4.6289 4.6289h15.57c2.5508 0 4.6289-2.0781 4.6289-4.6289v-19.199c-0.007812-2.5469-2.0781-4.6289-4.6289-4.6289zm2.4883 23.832c0 1.3711-1.1211 2.4883-2.4883 2.4883h-15.57c-1.3711 0-2.4883-1.1211-2.4883-2.4883v-19.199c0-1.3711 1.1211-2.4883 2.4883-2.4883h15.57c1.3711 0 2.4883 1.1211 2.4883 2.4883zm-46.59-62.441h0.23047c1.1406 1.2891 2.5703 2.3086 4.1914 2.9609v7.0781h-0.19922c-1.9609 0-3.5508 1.5898-3.5508 3.5508v2.4805c0 0.58984 0.48047 1.0703 1.0703 1.0703h13.398c0.58984 0 1.0703-0.48047 1.0703-1.0703v-2.4805c0-1.9609-1.5898-3.5508-3.5508-3.5508h-0.19922v-7.0781c1.6289-0.64063 3.0586-1.6719 4.1914-2.9609h0.23047c3.1992 0 5.9297-1.2383 7.8984-3.5781 1.8086-2.1602 2.8086-5.1289 2.8086-8.3516 0-2.6602-2.1602-4.8203-4.8203-4.8203h-3.3906l0.003906-0.91016c0-1.5703-1.2812-2.8516-2.8516-2.8516l-16.18 0.003907c-1.5703 0-2.8516 1.2812-2.8516 2.8516v0.91016h-3.3906c-2.6602 0-4.8203 2.1602-4.8203 4.8203 0 3.2305 1 6.1992 2.8086 8.3516 1.9844 2.3359 4.7148 3.5742 7.9023 3.5742zm14.07 13.59v1.4219h-11.258v-1.4219c0-0.78125 0.64062-1.4219 1.4219-1.4219h8.4219c0.77344 0.003906 1.4141 0.64453 1.4141 1.4219zm-3.75-3.5586h-3.7617v-6.4805c0.60937 0.10938 1.2383 0.17188 1.8789 0.17188s1.2695-0.070312 1.8789-0.17188zm12.449-24.648c1.4805 0 2.6797 1.1992 2.6797 2.6797 0 5.2617-2.9297 9.0586-7.2812 9.6992 0.76172-1.4883 1.1992-3.1797 1.1992-4.9609l0.003907-7.418zm-23.129-3.043c0-0.39062 0.32031-0.71094 0.71094-0.71094h16.18c0.39062 0 0.71094 0.32031 0.71094 0.71094v10.461c0 4.8516-3.9492 8.8008-8.8008 8.8008s-8.8008-3.9492-8.8008-8.8008zm-5.5273 3.043h3.3906v7.4102c0 1.7891 0.44141 3.4688 1.1992 4.9609-4.3398-0.62891-7.2812-4.4414-7.2812-9.6992 0.007812-1.4648 1.2109-2.6719 2.6914-2.6719zm-18.641 33.75-0.75 4.25c-0.089844 0.53125 0.12109 1.0586 0.55859 1.3789 0.44141 0.32031 1 0.35938 1.4805 0.10156l3.8086-2.0312 3.8086 2.0312c0.21094 0.10938 0.42969 0.17188 0.66016 0.17188 0.28906 0 0.57812-0.089844 0.82031-0.26953 0.44141-0.32031 0.64844-0.83984 0.55859-1.3711l-0.75-4.25 3.1094-3c0.39062-0.37109 0.53125-0.92969 0.35937-1.4414-0.17187-0.51172-0.60156-0.87891-1.1406-0.94922l-4.2812-0.60156-1.8906-3.8789c-0.23828-0.48828-0.71875-0.78906-1.2617-0.78906-0.53906 0-1.0195 0.30078-1.2617 0.78906l-1.8906 3.8789-4.2812 0.60156c-0.53125 0.078125-0.96875 0.44141-1.1406 0.94922-0.17188 0.51172-0.03125 1.0586 0.35938 1.4414zm2.8086-3.9609c0.35156-0.050781 0.66016-0.26953 0.80859-0.58984l1.4805-3.0312 1.4805 3.0312c0.16016 0.32031 0.46094 0.53906 0.80859 0.58984l3.3398 0.46875-2.4297 2.3398c-0.26172 0.25-0.37109 0.60156-0.30859 0.94922l0.58984 3.3203-2.9805-1.5781c-0.16016-0.078125-0.32812-0.12109-0.5-0.12109s-0.33984 0.039063-0.5 0.12109l-2.9805 1.5781 0.58984-3.3203c0.058594-0.35156-0.050781-0.71094-0.30859-0.94922l-2.4297-2.3398zm52.93 11.52-0.75 4.25c-0.089843 0.53125 0.12109 1.0586 0.55859 1.3789 0.25 0.17969 0.53125 0.26953 0.82031 0.26953 0.21875 0 0.44922-0.050782 0.66016-0.17188l3.8086-2.0312 3.8086 2.0312c0.48047 0.25 1.0391 0.21094 1.4805-0.10156 0.44141-0.32031 0.64844-0.83984 0.55859-1.3711l-0.75-4.25 3.1094-3c0.39062-0.37109 0.53125-0.92969 0.35938-1.4414-0.17188-0.51172-0.60156-0.87891-1.1406-0.94922l-4.2812-0.60156-1.8906-3.8789c-0.23828-0.48047-0.71875-0.78906-1.2617-0.78906-0.53906 0-1.0195 0.30078-1.2617 0.78906l-1.8906 3.8789-4.2812 0.60156c-0.53125 0.078124-0.96875 0.44141-1.1406 0.94922-0.17188 0.51172-0.03125 1.0586 0.35938 1.4414zm2.8086-3.9492c0.35156-0.050782 0.66016-0.26953 0.80859-0.58984l1.4805-3.0312 1.4805 3.0312c0.16016 0.32031 0.46094 0.53906 0.80859 0.58984l3.3398 0.46875-2.4297 2.3398c-0.26172 0.25-0.37109 0.60156-0.30859 0.94922l0.58984 3.3203-2.9805-1.5781c-0.16016-0.078126-0.32813-0.12109-0.5-0.12109-0.17188 0-0.33984 0.039062-0.5 0.12109l-2.9805 1.5781 0.58984-3.3203c0.058594-0.35156-0.050781-0.71094-0.30859-0.94922l-2.4297-2.3398zm-26.648-25.41c0-0.58984 0.48047-1.0703 1.0703-1.0703 1.8789 0 3.4609-1.5781 3.4609-3.4609 0-0.58984 0.48047-1.0703 1.0703-1.0703s1.0703 0.48047 1.0703 1.0703c0 3.0898-2.5117 5.6016-5.6016 5.6016-0.58984-0.011719-1.0703-0.49219-1.0703-1.0703z" fill="#541875"/>
</svg>
