<?xml version="1.0" encoding="UTF-8"?>
<svg width="100pt" height="100pt" version="1.1" viewBox="0 0 100 100" xmlns="http://www.w3.org/2000/svg">
 <path d="m85.516 73.652v-2c0-3.0469-2.4688-5.5156-5.5156-5.5156h-17.605v-10.227h16.105c0.65234 2.4844 2.8789 4.332 5.5625 4.332 3.1953 0 5.7891-2.5898 5.7891-5.7891 0-3.1836-2.5898-5.7734-5.7891-5.7734-2.6836 0-4.9258 1.8477-5.5625 4.332l-16.105 0.003906v-10.211h17.621c3.0469 0 5.5156-2.4688 5.5156-5.4258l0.12109-2.1211c2.5-0.63672 4.3633-2.8945 4.3633-5.5898 0-3.1836-2.5898-5.7734-5.7891-5.7734-3.1836 0-5.7734 2.5898-5.7734 5.7734 0 2.668 1.8164 4.9102 4.2891 5.5625l-0.10547 2.0625c0 1.4375-1.168 2.6055-2.6055 2.6055l-17.637-0.003907v-10.637h6.5898c3.0469 0 5.5156-2.4688 5.5156-5.5156v-2c2.5625-0.58984 4.4844-2.8789 4.4844-5.6211 0-3.1836-2.5898-5.7734-5.7891-5.7734-3.1836 0-5.7734 2.5898-5.7734 5.7734 0 2.6367 1.7734 4.832 4.168 5.5312v2.1055c0 1.4375-1.168 2.6055-2.6055 2.6055h-6.5898v-7.3633c0-7.7734-6.3164-14.09-14.09-14.09-7.7109 0-13.969 6.3164-13.969 14.09v0.19531c-0.83203-0.15234-1.7109-0.22656-2.6055-0.22656-7.7109 0-13.969 6.3164-13.969 14.09 0 1.4375 0.21094 2.832 0.63672 4.1523-5.0195 2.1836-8.3984 7.2266-8.3984 12.789 0 5.7578 3.6523 10.969 8.8945 13.031-0.75781 1.7109-1.1367 3.5742-1.1367 5.5742 0 7.7109 6.2734 13.969 13.969 13.969 0.89453 0 1.7891-0.089844 2.6523-0.25781 0.60547 7.1523 6.6211 12.773 13.926 12.773 7.7734 0 14.09-6.2734 14.09-13.969v-2.4375h4.1523c1.4375 0 2.6055 1.168 2.6055 2.6055v2.1055c-2.3945 0.69531-4.168 2.8945-4.168 5.5312 0 3.1836 2.5898 5.7734 5.7734 5.7734 3.1953 0 5.7891-2.5898 5.7891-5.7734 0-2.7422-1.9258-5.0312-4.4844-5.6211v-2c0-3.0312-2.4688-5.5156-5.5156-5.5156h-4.1523v-6.7578h17.621c1.4375 0 2.6055 1.168 2.6055 2.6055v2.1055c-2.3945 0.69531-4.168 2.8945-4.168 5.5312 0 3.1836 2.5898 5.7734 5.7734 5.7734 3.1953 0 5.7891-2.5898 5.7891-5.7734-0.015625-2.7422-1.9414-5.0312-4.5-5.6211zm-1.4531-22.062c1.5898 0 2.8789 1.2891 2.8789 2.8633 0 1.5898-1.2891 2.8789-2.8789 2.8789-1.5742 0-2.8633-1.2891-2.8633-2.8789-0.003907-1.5742 1.2852-2.8633 2.8633-2.8633zm-2.7148-21.938c0-1.5742 1.2891-2.8633 2.8633-2.8633 1.5898 0 2.8789 1.2891 2.8789 2.8633 0 1.5312-1.1953 2.7734-2.7109 2.8633-0.015625 0-0.046875-0.015625-0.0625-0.015625-0.0625 0-0.12109 0.015625-0.18359 0.03125-1.5273-0.03125-2.7852-1.3047-2.7852-2.8789zm-11.031-13.531c0-1.5742 1.2891-2.8633 2.8633-2.8633 1.5898 0 2.8789 1.2891 2.8789 2.8633 0 1.5898-1.2891 2.8789-2.8789 2.8789-1.5742 0-2.8633-1.2891-2.8633-2.8789zm3.3203 72.805c0 1.5742-1.2891 2.8633-2.8789 2.8633-1.5742 0-2.8633-1.2891-2.8633-2.8633 0-1.5898 1.2891-2.8789 2.8633-2.8789 1.5898 0 2.8789 1.2852 2.8789 2.8789zm-14.152-7.8047c0 6.1055-5.0156 11.074-11.195 11.074-6.1055 0-11.074-4.9688-11.074-11.074 0-0.074219 0.015625-0.13672 0.015625-0.19531 0.10547-0.28906 0.12109-0.58984 0.046875-0.87891 0.51562-5.5625 4.9844-9.8633 10.605-10.062 1.9102 0.95312 4.0742 1.5 6.3789 1.5 0.80469 0 1.4531-0.65234 1.4531-1.4531 0-0.80469-0.65234-1.4531-1.4531-1.4531-5.9258 0-10.695-4.4688-11.105-10.258 1.1211-2.0156 1.5742-4.4102 1.168-6.8945-0.13672-0.78906-0.87891-1.3164-1.668-1.1953-0.78906 0.13672-1.3164 0.87891-1.1953 1.668 0.30469 1.7734-0.046876 3.4688-0.83203 4.9102-0.15234 0.16797-0.25781 0.36328-0.31641 0.57422-1.0742 1.6055-2.7422 2.7891-4.8047 3.1836-0.78906 0.15234-1.3047 0.91016-1.1523 1.6953 0.13672 0.69531 0.74219 1.1836 1.4258 1.1836 0.089844 0 0.18359-0.015624 0.27344-0.03125 1.7891-0.34766 3.3789-1.1211 4.6836-2.2109 0.66797 2.4531 1.9844 4.6367 3.7734 6.3477-5.3477 1.4844-9.332 6.0469-10.047 11.695-0.87891 0.22656-1.7891 0.37891-2.7266 0.37891-6.1055 0-11.074-4.9688-11.074-11.074 0-2.1211 0.51563-3.9844 1.5742-5.668 0.24219-0.39453 0.28906-0.87891 0.10547-1.3164s-0.54688-0.75781-1-0.86328c-4.8789-1.168-8.4258-5.6953-8.4258-10.758 0-4.8164 3.2109-9.1523 7.7891-10.531 0.41016-0.12109 0.72656-0.41016 0.91016-0.78906 0.16797-0.37891 0.16797-0.81641 0-1.1953-0.62109-1.3477-0.9375-2.832-0.9375-4.3945 0-6.168 4.9688-11.195 11.074-11.195 1.3789 0 2.6523 0.21094 3.8047 0.62109 0.48438 0.18359 1.0312 0.074218 1.4258-0.24219 0.39453-0.33203 0.58984-0.84766 0.5-1.3477-0.10547-0.63672-0.21094-1.3047-0.21094-1.9102 0-6.168 4.9688-11.195 11.074-11.195 6.168 0 11.195 5.0156 11.195 11.195v22.074c-3.7734-0.51562-6.7266-3.6055-7.0312-7.4375 2.3164-1.3633 4.0469-3.5 4.8945-6.0898 0.24219-0.75781-0.16797-1.5742-0.92578-1.832-0.75781-0.24219-1.5742 0.16797-1.832 0.92578-0.68359 2.0898-2.1367 3.7891-4.0898 4.7734-1.9375 0.96875-4.1367 1.1367-6.2109 0.45312-0.75781-0.25781-1.5742 0.16797-1.832 0.92578-0.25781 0.75781 0.16797 1.5742 0.92578 1.832 1.1367 0.37891 2.3047 0.5625 3.4688 0.5625 0.95312 0 1.8945-0.13672 2.8164-0.37891 0.80469 4.8945 4.8164 8.7109 9.8047 9.2109l-0.015625 37.141zm24.727 1.0156c-1.5742 0-2.8633-1.2891-2.8633-2.8633 0-1.5898 1.2891-2.8789 2.8633-2.8789 1.5898 0 2.8789 1.2891 2.8789 2.8789 0.015625 1.5742-1.2852 2.8633-2.8789 2.8633z" fill="#541875"/>
</svg>
