<?xml version="1.0" encoding="UTF-8"?>
<svg width="100pt" height="100pt" version="1.1" viewBox="0 0 100 100" xmlns="http://www.w3.org/2000/svg">
 <path d="m27.434 24.164c1.2734-4.207 3.0469-8.25 5.2812-12.035-4.6445 2.5391-8.6797 6.0625-11.816 10.332 1.8828 0.57422 3.8398 1.0938 5.8789 1.5586l0.65234 0.14453zm-3.375 18.301c0.37109-5.2969 1.2461-10.547 2.6133-15.684l-0.48828-0.10938c-2.375-0.54297-4.6719-1.1641-6.8711-1.8633-3.3047 5.3164-5.1602 11.402-5.3867 17.656zm49.27-15.684c1.3672 5.1328 2.2422 10.383 2.6133 15.684h10.133c-0.22656-6.2539-2.082-12.34-5.3867-17.656-2.1992 0.69922-4.5 1.3203-6.8711 1.8633zm-6.043-14.652c2.2344 3.7852 4.0078 7.8281 5.2812 12.035l0.65234-0.14453c2.0352-0.46484 3.9961-0.98828 5.8789-1.5625-3.1367-4.2656-7.168-7.7891-11.812-10.328zm-39.887 59.852c-1.2383-2.4883-2.0234-5.1758-2.3203-7.9414-0.75781 0.1875-1.4961 0.38281-2.2227 0.58594-0.66797 0.1875-1.3164 0.375-1.9531 0.57031h-0.003906c1.8633 2.5352 4.0469 4.8164 6.5 6.7852zm47.766-7.8789c-0.20703 1.8984-0.6875 3.7578-1.4336 5.5156-0.019531 0.0625-0.046875 0.12109-0.074219 0.17969-0.33984 0.77734-0.72266 1.5312-1.1523 2.2617 2.4922-1.9883 4.7109-4.2969 6.6016-6.8633-0.63672-0.19531-1.2891-0.38672-1.9609-0.57031-0.64844-0.17969-1.3086-0.35547-1.9844-0.52344zm-52.289-2.3008c-2.9219-2.0586-4.6016-4.5117-4.6016-7.1875 0-2.4375 1.375-4.6797 3.8086-6.6094 0.5625-0.44141 1.1445-0.84766 1.7539-1.2227 0.015624-0.53516 0.035156-1.0664 0.058593-1.5938h-9.9688c0.22656 6.2539 2.082 12.34 5.3828 17.656 0.93359-0.29688 1.875-0.57422 2.8203-0.83984 0.24609-0.066406 0.49609-0.13281 0.74219-0.19922zm10.688 4.5c-1.8828-0.46875-3.7344-1.0625-5.5352-1.7773l-0.125-0.050782h-0.003906c0.17578 1.125 0.4375 2.2383 0.77344 3.3281h4.2266c0.14453-0.53125 0.36719-1.0352 0.66406-1.5zm11.734 1.7617h-0.003906c-2.9062-0.17188-5.8047-0.53516-8.6641-1.082-0.30859 0.20312-0.57031 0.46875-0.76953 0.78125-0.26953 0.41797-0.41406 0.90234-0.41406 1.3984 0.007813 1.4414 1.1758 2.6055 2.6133 2.6133h4.8672c1.4414-0.007813 2.6055-1.1719 2.6094-2.6133 0.003906-0.28516-0.042968-0.57031-0.13672-0.83984-0.027344-0.089843-0.0625-0.17578-0.10547-0.26172zm18.078-1.082h-0.003906c-2.8594 0.54688-5.7578 0.91016-8.6641 1.082-0.042969 0.085938-0.078125 0.17188-0.10547 0.26172-0.09375 0.26953-0.14062 0.55469-0.13672 0.83984 0.003906 1.4414 1.168 2.6094 2.6094 2.6133h4.8672c1.4414-0.003906 2.6055-1.1719 2.6133-2.6133 0-0.49609-0.14453-0.98047-0.41406-1.3984-0.19922-0.3125-0.46094-0.57422-0.76953-0.78125zm9.0117-2.6289c-0.13672 0.058594-0.27344 0.11328-0.41016 0.16797l-0.003906 0.003907c-1.8008 0.71484-3.6523 1.3086-5.5352 1.7773 0.29688 0.46094 0.52344 0.96875 0.66406 1.5h4.3984c0.41797-1.1172 0.71484-2.2734 0.89062-3.4492zm3.7773-17.574h-0.003906c0.60938 0.375 1.1953 0.78125 1.7539 1.2227 2.4375 1.9297 3.8086 4.1719 3.8086 6.6094 0 2.6758-1.6758 5.1289-4.6016 7.1875 0.24609 0.066406 0.49609 0.13281 0.74219 0.19922 0.94531 0.26172 1.8867 0.54297 2.8242 0.83984h0.003906c3.3008-5.3125 5.1562-11.395 5.3828-17.645h-9.9688c0.023437 0.53125 0.042969 1.0625 0.058593 1.5938zm-36.129 5.2852c-2.3906-0.25781-4.7656-0.65234-7.1133-1.1758l-0.15234 1.625h-0.003906c2.4102 0.57422 4.8516 1 7.3086 1.2695 3.2969 0.37109 6.6094 0.55469 9.9258 0.54688 3.3164 0.007813 6.6289-0.17578 9.9258-0.54688 2.457-0.26953 4.8984-0.69531 7.3086-1.2695l-0.15234-1.625h-0.003906c-2.3477 0.52344-4.7227 0.91797-7.1133 1.1758-3.3086 0.36328-6.6367 0.54297-9.9648 0.53906-3.3281 0.003907-6.6562-0.17578-9.9648-0.53906zm-6.8555-3.9062c2.3594 0.54297 4.7461 0.94141 7.1562 1.1992 3.207 0.35156 6.4336 0.52344 9.6641 0.51562 3.2305 0.007812 6.457-0.16406 9.6641-0.51562 2.4102-0.25781 4.7969-0.65625 7.1562-1.1992l-0.30859-3.2461c-0.007813-0.039062-0.011719-0.082031-0.011719-0.125l-1.1797-12.406c-0.26562-3.1875-1.625-6.1875-3.8516-8.4844-2.043-2.082-4.8398-3.2461-7.7539-3.2383h-7.4297c-2.9141-0.007812-5.7109 1.1562-7.7539 3.2383-2.2266 2.2969-3.5859 5.2969-3.8516 8.4844l-1.1797 12.406c0 0.042969-0.007812 0.082032-0.011719 0.125zm33.934-20.199c1.1992-0.1875 2.3828-0.39453 3.5469-0.61719 1.4414 5.3828 2.3281 10.898 2.6484 16.461v0.03125c0 0.066407 0.007812 0.13281 0.015625 0.19922 0.027343 0.42969 0.046875 0.85938 0.066406 1.2891-1.3867-0.62891-2.8125-1.1758-4.2656-1.6289l-1.1016-11.562h0.003906c-0.13281-1.4219-0.44141-2.8203-0.91406-4.168zm-15.75-10.027v-10.176c3.8008 0.13672 7.5547 0.875 11.121 2.1914 3.3281 4.4414 5.832 9.4453 7.3984 14.77-1.2852 0.24219-2.5977 0.46484-3.9297 0.66406-0.6875-1.25-1.5469-2.4023-2.5547-3.4141-2.5508-2.5938-6.043-4.0508-9.6836-4.0352zm-17.324 7.4492c-1.332-0.19922-2.6445-0.42188-3.9297-0.66406 1.5703-5.3242 4.0742-10.328 7.4023-14.77 3.5664-1.3164 7.3203-2.0547 11.121-2.1914v10.176h-2.3516c-3.6406-0.015626-7.1289 1.4414-9.6797 4.0352-1.0117 1.0117-1.8711 2.1602-2.5625 3.4141zm-3.1641 18.305c-1.4531 0.45312-2.8789 0.99609-4.2656 1.6289 0.019531-0.42969 0.042969-0.85938 0.066406-1.2891 0.011719-0.066407 0.015625-0.13281 0.015625-0.19922v-0.03125c0.32031-5.5625 1.207-11.078 2.6484-16.457 1.1641 0.22656 2.3477 0.42969 3.5469 0.61719-0.47266 1.3477-0.77734 2.7461-0.91016 4.168zm-0.51953 5.4492-0.39844 4.2383v-0.003906c-0.082031 0.67187 0.33594 1.3008 0.98828 1.4805 2.8945 0.76953 5.8438 1.3164 8.8242 1.6406 3.3984 0.38281 6.8125 0.57422 10.23 0.56641 3.418 0.007812 6.8359-0.18359 10.234-0.56641 2.9766-0.32422 5.9297-0.87109 8.8242-1.6406 0.63672-0.17578 1.0547-0.78125 0.99219-1.4375l-0.40625-4.2773c-0.003906-0.046874-0.007812-0.089843-0.015625-0.13281l-0.22266-2.3555c1.625 0.55078 3.1992 1.2461 4.6992 2.0781 0.03125 0.019532 0.0625 0.035156 0.09375 0.050782 0.71094 0.40625 1.3906 0.85937 2.0352 1.3633 1.7656 1.3984 2.7656 2.9258 2.7656 4.4766 0 2.2852-2.1016 4.4727-5.6211 6.2852-0.042968 0.023437-0.089844 0.042968-0.13281 0.070312l-0.18359 0.09375c-0.058594 0.019531-0.11328 0.046875-0.16406 0.078125-0.60938 0.29688-1.2539 0.58203-1.9375 0.85938-2.4648 0.96875-5.0117 1.7109-7.6133 2.2148l-0.046875 0.011718c-4.3828 0.85547-8.8359 1.2773-13.301 1.2578-4.4648 0.019531-8.918-0.40234-13.301-1.2578l-0.046875-0.011718v0.003906c-2.6016-0.50781-5.1484-1.25-7.6133-2.2188-0.68359-0.27344-1.3281-0.5625-1.9375-0.85938-0.042968-0.023437-0.089843-0.050781-0.13672-0.070313-0.070313-0.042968-0.14453-0.078124-0.21875-0.10547-3.5977-1.8281-5.7461-4.0391-5.7461-6.3516 0-1.5508 1-3.0781 2.7656-4.4766 0.64453-0.50391 1.3242-0.96094 2.0352-1.3633 0.03125-0.015626 0.0625-0.035157 0.089844-0.050782 1.5-0.83203 3.0742-1.5273 4.6992-2.082l-0.21875 2.3594c-0.007813 0.042969-0.011719 0.085938-0.015625 0.13281zm36.199 30.121c1.4375 0.89844 2.9219 1.7539 4.375 2.5898 6.3516 3.6641 12.223 7.0547 11.398 11.922h0.003906c-0.070312 0.69922-0.65234 1.2344-1.3555 1.2344h-61.953c-0.65625 0-1.2148-0.46484-1.3359-1.1094-0.94141-4.9336 4.9766-8.3477 11.379-12.043 1.4453-0.83203 2.9141-1.6836 4.3438-2.5742-0.26172-0.23828-0.51562-0.47266-0.76172-0.70703-9.4062-4.6953-16.508-13.004-19.68-23.027-3.168-10.023-2.1406-20.902 2.8516-30.156 4.9922-9.2539 13.523-16.086 23.641-18.938 10.121-2.8516 20.965-1.4766 30.051 3.8086 9.0898 5.2812 15.648 14.027 18.176 24.23 2.5273 10.207 0.8125 21-4.7578 29.914-0.16016 0.25781-0.32422 0.50781-0.48828 0.76172h-0.003906c-0.019531 0.035156-0.042969 0.070313-0.066406 0.10156-3.7969 5.7227-9.0352 10.34-15.191 13.387-0.20313 0.19922-0.41016 0.39844-0.62109 0.60156zm-31.031 1.8984c-1.6328 1.043-3.3906 2.0547-5.1094 3.0508-4.8516 2.8008-9.3828 5.4141-10.027 8.0742h59.219c-0.64062-2.6641-5.1719-5.2773-10.023-8.0781-1.7109-0.98828-3.4609-2-5.0859-3.0312-0.98047 0.87891-1.9883 1.7578-3.0117 2.6484-1.9922 1.7344-4.0391 3.5117-5.9297 5.3672-1.5586 1.3672-3.5742 2.1055-5.6523 2.0586-2.0156 0.054687-3.9766-0.6875-5.457-2.0586-2.8438-2.7852-5.3867-4.9805-7.6133-6.8984-0.44922-0.38281-0.87891-0.76172-1.3008-1.1289zm0.98047-2.7539c-2.9648-2.6133-5.2148-4.8672-6.7305-7.8633l3.125 0.003906c0.625 2.3398 2.7422 3.9688 5.1641 3.9766h4.8672c2.9453-0.007813 5.332-2.3945 5.3359-5.3398 0-0.33203-0.027344-0.66016-0.089844-0.98047 0.60547 0.015626 1.2148 0.019532 1.8281 0.023438 0.61328 0 1.2227-0.007812 1.8281-0.023438-0.0625 0.32031-0.09375 0.64844-0.09375 0.98047 0.007813 2.9453 2.3945 5.332 5.3398 5.3398h4.8672c2.418-0.011719 4.5312-1.6406 5.1562-3.9805h3.1016c-2.3984 4.1641-6.332 7.5898-10.508 11.223-1.9805 1.7227-4.0156 3.4922-6.0469 5.4844h-0.003907c-1.0469 0.875-2.3828 1.3281-3.7461 1.2734-1.3008 0.050781-2.5742-0.40625-3.5508-1.2734-2.8984-2.8438-5.4805-5.0703-7.7383-7.0195-0.71094-0.61328-1.3867-1.1953-2.0273-1.7617-0.019531-0.023438-0.046875-0.042969-0.070312-0.0625z" fill="#541875" fill-rule="evenodd"/>
</svg>
