<?xml version="1.0" encoding="UTF-8"?>
<svg width="100pt" height="100pt" version="1.1" viewBox="0 0 100 100" xmlns="http://www.w3.org/2000/svg">
 <path d="m65.312 51.383c-0.26562 0.34766-0.41016 0.625-0.37109 1.1016 0.03125 0.38672 0.21484 0.74219 0.51172 0.99609l-0.003906 0.003906 7.0703 5.9414c1.1211 0.65625 2.3633-0.19141 2.2656-1.3516-0.03125-0.37891-0.20312-0.73438-0.51172-0.99609v-0.003906l-6.918-5.832c-0.59766-0.5-1.5156-0.4375-2.043 0.14062zm-35.711-6.0273c-1.2578 0-1.2578-1.9102 0-1.9102h29.441c1.2578 0 1.2578 1.9102 0 1.9102zm0-7.4141c-1.2578 0-1.2578-1.9141 0-1.9141h29.441c1.2578 0 1.2578 1.9141 0 1.9141zm-7.8477 18.93 0.96875 3.0039 3.1602-0.007812c0.92188 0 1.3008 1.1836 0.55859 1.7227v0.003906l-2.5586 1.8516 0.98047 3.0039c0.28125 0.86328-0.72266 1.6523-1.5273 1.0234l-2.4961-1.8203-2.5547 1.8633c-0.74219 0.54297-1.7461-0.19141-1.4648-1.0625h-0.003906l0.98047-3.0039-2.5586-1.8516c-0.73828-0.53516-0.38672-1.7617 0.62891-1.7266l3.0898 0.007812 0.96875-3.0039c0.29688-0.88672 1.543-0.87891 1.8281-0.003906zm-0.63281 4.25-0.27734-0.85547-0.27734 0.85547c-0.25781 0.80469-1.082 0.66016-1.8086 0.66016 0.58203 0.42188 1.3398 0.79297 1.0781 1.5977l-0.28125 0.85938c0.56641-0.41406 1.1641-1.0312 1.8477-0.53125l0.73047 0.53125c-0.21094-0.64844-0.62891-1.4258 0.066407-1.9258l0.73047-0.52734c-0.67578-0.003906-1.5469 0.15234-1.8086-0.66406zm-10.141-8.9961 0.24219-2.4336h-0.003906c0.09375-0.77344 0.52344-1.418 1.1992-1.8086v-0.003906c0.67969-0.39453 1.4648-0.44141 2.1875-0.125v-0.003906l2.2109 0.99609c0.23438 0.10547 0.49609 0.035156 0.64844-0.17188l1.4297-1.9844c0.26562-0.35156 0.60156-0.61719 0.98828-0.78125v-33.199c0-0.52734 0.42969-0.95703 0.95703-0.95703h15.156l0.007812-3.0469c0-0.52734 0.42969-0.95703 0.95703-0.95703h8.1875c1.1211-4.3633 9.0781-5.8945 13.672-3.0352 1.2617 0.78516 2.1406 1.8359 2.4453 3.0352h8.1875c0.52734 0 0.95703 0.42969 0.95703 0.95703v3.0469h15.156c0.52734 0 0.95703 0.42969 0.95703 0.95703v67.488l8.082 6.8516c3.0664 2.6016 1.4062 7.5391-2.5234 7.8672-1.1328 0.09375-2.3047-0.24219-3.2422-1.0352l-2.3164-1.9648v4.0664c0 0.52734-0.42969 0.95703-0.95703 0.95703h-64.723c-0.52734 0-0.95703-0.42969-0.95703-0.95703v-16.77c-0.39453-0.16406-0.73438-0.43359-1-0.80078l-1.418-1.9688c-0.14844-0.20703-0.41406-0.27734-0.64844-0.17188l-1.3008 0.58594-4.5117 8.7891c-0.42187 0.82422-1.6562 0.61328-1.7891-0.29688h0.003906l-0.61328-4.1914-3.4023 1.7734c-0.82031 0.42578-1.7031-0.45312-1.2891-1.2734l4.7773-9.418c-0.63672-0.0625-1.1016-0.066406-1.6641-0.43359-0.95312-0.63281-1.3867-1.918-0.89453-3.0156l0.99609-2.2109c0.10547-0.23438 0.035157-0.5-0.17187-0.64844l-1.9688-1.418c-1.3242-0.95312-1.3242-2.9609 0-3.9141l1.9688-1.418c0.20703-0.14844 0.27734-0.41406 0.17187-0.64844l-0.99609-2.2031c-0.69141-1.5391 0.42188-3.293 2.0273-3.3984l2.3477-0.23438c0.24609-0.023437 0.44531-0.21875 0.46875-0.47266zm10.82-6.3203v-32.238h14.199v3.5547c0 0.52734 0.42969 0.95703 0.95703 0.95703h32.492c0.52734 0 0.95703-0.42969 0.95703-0.95703v-3.5547h14.199v64.91l-14.676-12.445c0.96484-1.4336 1.8398-2.9492 2.625-4.5508 1.2148 0.28516 2.5156-0.12109 3.3555-1.1094h-0.003906c1.1992-1.4102 1.0195-3.543-0.39844-4.7422v-0.003906l-6.9258-5.8359c-1.4297-1.2031-3.5586-1.0195-4.7617 0.40234l0.003907 0.003906c-0.8125 0.95703-1 2.2578-0.57031 3.3789-5.3633 3.6875-9.3984 8.4023-12.273 14.238-1.1914-0.27734-2.6445 0.16016-3.3516 1.1055l0.003906 0.003906c-1.1953 1.375-1.0391 3.5234 0.39453 4.7422v-0.003906l6.9258 5.8398c1.4297 1.207 3.5508 1.0156 4.7578-0.39844 0.8125-0.9375 1.0039-2.2695 0.57031-3.3867 1.3398-0.92578 2.5977-1.9141 3.7773-2.9648l20.551 17.445v4.7344l-16.496-0.003907v-2.6016c0-2.1328-1.7422-3.8711-3.8711-3.8711h-1.5859v-1.3359c0-1.3594-1.1094-2.4688-2.4648-2.4688l-14.086 0.003906c-0.67969 0-1.2969 0.27734-1.7422 0.72266-0.88281 0.88281-0.72266 1.8594-0.72266 3.0781h-1.5859c-2.1328 0-3.8711 1.7422-3.8711 3.8711v2.6016h-16.383v-15.812c0.39453-0.16406 0.73438-0.43359 1-0.80078l1.418-1.9688c0.14844-0.20703 0.41406-0.27734 0.64844-0.17188l1.3008 0.58594 4.5117 8.7891c0.42187 0.82422 1.6562 0.61328 1.7891-0.29688h0.003906l0.61328-4.1914 3.3984 1.7734c0.82031 0.42578 1.7031-0.45312 1.2891-1.2734l-4.7734-9.418 0.59766-0.058594c0.78906-0.078125 1.4414-0.51953 1.8359-1.1992 0.39453-0.67578 0.44922-1.4727 0.12891-2.1875l-0.99609-2.2109c-0.10547-0.23438-0.035156-0.5 0.17188-0.64844l1.9688-1.418c1.3242-0.95312 1.3242-2.9609 0-3.9141l-1.9688-1.418c-0.20703-0.14844-0.27734-0.41406-0.17188-0.64844l0.99609-2.2109c0.66797-1.4805-0.33984-3.2305-1.9609-3.3906l-2.4141-0.24219c-0.125-0.011719-0.23828-0.066406-0.32031-0.15234l-0.003907 0.003906-0.14844-0.32422-0.24219-2.4141c-0.16016-1.6172-1.9141-2.625-3.3906-1.9609l-2.2109 0.99609c-0.23438 0.10547-0.49609 0.035156-0.64844-0.17188l-1.418-1.9688c-0.26953-0.36328-0.60938-0.62891-1.0039-0.79687zm9.1797 26.578-0.12109 0.089844 0.003906 0.003906c-0.085937 0.082032-0.14062 0.19531-0.15234 0.32031l-0.24219 2.4141c-0.10547 1.043-0.87109 1.8672-1.875 2.1055l2.418 4.7109 0.375-2.5742c0.097656-0.66016 0.8125-1.0391 1.4492-0.67188l1.8906 0.98828zm-17.883 4.9297c-1.0039-0.24219-1.7734-1.0664-1.875-2.1055l-0.24219-2.4141c-0.019531-0.17578-0.12109-0.33203-0.27344-0.41406l-3.7461 7.3867 1.8906-0.98828c0.63672-0.36719 1.3555 0.011718 1.4492 0.67188l0.375 2.5742zm0.019532-27.395-0.23828 2.3906c-0.11719 1.1641-1.0156 2.0664-2.1836 2.1836l-2.3906 0.24219c-0.375 0.050781-0.55469 0.42969-0.42969 0.71094l0.99609 2.2109c0.48047 1.0664 0.14844 2.293-0.80078 2.9766l-1.9688 1.418c-0.25781 0.18359-0.25781 0.63672 0 0.82031l1.9688 1.418c0.94922 0.68359 1.2773 1.9141 0.80078 2.9766l-0.99609 2.2109c-0.13672 0.30078 0.097656 0.67969 0.40625 0.71094l2.4141 0.24219c1.168 0.11719 2.0664 1.0156 2.1836 2.1836l0.24219 2.4141c0.03125 0.3125 0.41016 0.53906 0.71094 0.40625l2.2109-0.99609c1.0664-0.48047 2.293-0.14844 2.9766 0.80078l1.418 1.9688c0.18359 0.25781 0.63672 0.25781 0.82031 0l1.418-1.9688c0.68359-0.94922 1.9141-1.2773 2.9766-0.80078l2.2109 0.99609c0.29688 0.13281 0.67969-0.09375 0.71094-0.40625l0.24219-2.4141c0.058594-0.58594 0.3125-1.1016 0.69531-1.4883l0.003906 0.003906c0.38672-0.38672 0.90234-0.64062 1.4844-0.69922l2.4141-0.24219c0.16797-0.015625 0.28516-0.10938 0.37109-0.25781h0.003906c0.085938-0.14844 0.10547-0.29688 0.035157-0.44922l-0.99609-2.2109c-0.48047-1.0664-0.14844-2.293 0.80078-2.9766l1.9688-1.418c0.25781-0.18359 0.25781-0.63672 0-0.82031l-1.9688-1.418c-0.94922-0.68359-1.2773-1.9141-0.80078-2.9766l0.99609-2.2109c0.13281-0.29688-0.09375-0.67969-0.40625-0.71094l-2.4141-0.24219c-0.58594-0.058594-1.1016-0.3125-1.4883-0.69531l0.003906-0.003906c-0.38672-0.38672-0.64062-0.90234-0.69922-1.4844l-0.24219-2.4141c-0.03125-0.31641-0.41406-0.53906-0.71094-0.40625l-2.2109 0.99609c-1.0664 0.48047-2.293 0.14844-2.9766-0.80078l-1.418-1.9688c-0.17578-0.24609-0.60938-0.27734-0.83203 0.019531l-1.4023 1.9492c-0.68359 0.94922-1.9141 1.2773-2.9766 0.80078l-2.2109-0.99609c-0.15625-0.058594-0.30078-0.046876-0.44922 0.039062v-0.003906c-0.15625 0.089844-0.23438 0.21094-0.25781 0.39453zm14.062 8.3711c-2.168-3.4297-7.0078-4.4961-10.504-2.1602l-0.003906-0.003906c-1.7539 1.1562-2.8672 2.9023-3.2578 4.8086-0.38672 1.8867-0.058593 3.9219 1.0703 5.6641l0.007813 0.011719c2.2969 3.5195 7.043 4.4883 10.488 2.2109 1.7812-1.1953 2.8906-2.8672 3.293-4.832 0.38672-1.8945 0.058593-3.9648-1.0977-5.6953zm1.6406-0.97266c-0.015624-0.027344-0.03125-0.058594-0.050781-0.085937l-0.003906 0.003906c-1.4453-2.1875-3.6367-3.582-6.0117-4.0703-2.3633-0.48437-4.9727-0.066406-7.1367 1.375l0.003906 0.003907-0.023438 0.019531c-2.1719 1.4453-3.5586 3.6289-4.043 5.9961-0.48438 2.3594-0.074219 4.9023 1.3398 7.082 0.015625 0.027344 0.03125 0.054687 0.050781 0.078125 1.4453 2.1719 3.6289 3.5586 5.9961 4.043 2.3594 0.48438 4.9023 0.074219 7.082-1.3398 0.027343-0.015625 0.054687-0.03125 0.078124-0.050781 4.3203-2.8828 5.5312-8.6953 2.7188-13.055zm44.137-33.328c-4.3125 0-7.8086 3.4961-7.8086 7.8086s3.4961 7.8086 7.8086 7.8086 7.8086-3.4961 7.8086-7.8086c0-4.3086-3.4961-7.8086-7.8086-7.8086zm4.168 3.6406c-2.3047-2.3047-6.0391-2.3047-8.3398 0-2.3047 2.3047-2.3047 6.0391 0 8.3398 2.3047 2.3047 6.0391 2.3047 8.3398 0 2.3047-2.3008 2.3047-6.0391 0-8.3398zm-8.0273 4.5625 2.0586 2.3125c0.35938 0.40234 0.96484 0.43359 1.3828 0.046875l4.2305-4.1367c0.89844-0.87891-0.4375-2.2461-1.3359-1.3672l-3.5156 3.4375-1.3945-1.5625c-0.35156-0.39453-0.95313-0.42969-1.3477-0.078125-0.39062 0.35156-0.42969 0.95312-0.078125 1.3477zm-39.496-1.6641h29.441c1.2578 0 1.2578-1.9102 0-1.9102h-29.441c-1.2578 0-1.2578 1.9102 0 1.9102zm23.602-23.156c-1.875 0-3.3945 1.5195-3.3945 3.3945 0 3.0117 3.6602 4.5352 5.793 2.3984 2.1367-2.1328 0.61328-5.793-2.3984-5.793zm1.0508 2.3438c-0.92969-0.92969-2.5312-0.26953-2.5312 1.0469 0 1.3164 1.5977 1.9805 2.5312 1.0469 0.57812-0.57422 0.57812-1.5156 0-2.0938zm-8.2734-0.15234h-8.0664v6.6055h30.582v-6.6055h-8.0664c-0.52734 0-0.95703-0.42969-0.95703-0.95703 0-0.88672-0.63672-1.7305-1.6641-2.3672-2.5117-1.5625-6.6992-1.5625-9.2109 0-1.0273 0.64062-1.6641 1.4805-1.6641 2.3672 0 0.52734-0.42578 0.95703-0.95312 0.95703zm39.016 71.746c-0.035156-0.023438-0.066406-0.050782-0.097656-0.082032l-16.082-13.637c-1.0273 1.3633-2.1484 2.6406-3.3633 3.8438l24.613 20.895c1.707 1.4492 4.3867 0.10156 4.1953-2.1797-0.058594-0.71484-0.35156-1.2734-0.89453-1.7383zm-24.809 5.2578h-14.082c-0.30469 0-0.55469 0.25391-0.55469 0.55469v1.332h15.195v-1.332c-0.003906-0.30469-0.25391-0.55469-0.55859-0.55469zm4.0508 3.8008h-22.184c-1.0781 0-1.9609 0.88281-1.9609 1.9609v2.6016h26.109v-2.6016c-0.003906-1.0781-0.88672-1.9609-1.9648-1.9609zm-0.875-19.566c-1.3047 1.2188-2.7188 2.3477-4.2461 3.3984l-6.4688-5.4531c2.7539-5.625 6.5898-10.113 11.762-13.648l6.4727 5.457c-0.87891 1.8086-1.8711 3.4961-2.9883 5.0703-1.3633 1.8555-2.7734 3.582-4.4883 5.1367-0.015625 0.011719-0.03125 0.023437-0.042969 0.039062zm-12.34-0.92578c-0.32031-0.16406-0.51172-0.26953-0.94141-0.23438-1.2461 0.10547-1.8555 1.6367-0.82422 2.5742v0.003906l6.9141 5.8281c0.96875 0.81641 2.5273 0.089844 2.4141-1.2422-0.035157-0.40625-0.20313-0.71484-0.51563-0.99609z" fill="#541875" fill-rule="evenodd"/>
</svg>
