<?xml version="1.0" encoding="UTF-8"?>
<svg width="100pt" height="100pt" version="1.1" viewBox="0 0 100 100" xmlns="http://www.w3.org/2000/svg">
 <path d="m-0.30859 97.539h17.078v-75.23h-17.078zm2.3086-72.922h12.461v70.617l-12.461-0.003906z" fill="#541875"/>
 <path d="m20.461 97.539h17.078v-63.23h-17.078zm2.3086-60.922h12.613v58.617h-12.461v-58.617z" fill="#541875"/>
 <path d="m41.383 97.539h17.078v-55.539h-17.078zm2.3086-53.23h12.461v51.078h-12.461z" fill="#541875"/>
 <path d="m62.309 97.539h17.078l-0.003907-41.078h-17.074zm2.3086-38.77h12.461v36.617l-12.461-0.003907z" fill="#541875"/>
 <path d="m83.23 77.23v20.309h17.078v-20.309zm14.922 18h-12.461v-15.691h12.461z" fill="#541875"/>
 <path d="m48.461 24.309 20 20h9.3867l14.461 14.309h-6.4609v2.3047h10.305v-10.305h-2.3047v6.4609l-15.078-15.078h-9.3867l-19.844-20h-19.691l-19.695-19.539-1.6914 1.5391 20.309 20.309z" fill="#541875"/>
</svg>
