<?xml version="1.0" encoding="UTF-8"?>
<svg width="100pt" height="100pt" version="1.1" viewBox="0 0 100 100" xmlns="http://www.w3.org/2000/svg">
 <path d="m50.957 16.008v6.5664c0 0.52734-0.42969 0.95703-0.95703 0.95703-0.82812 0-1.5781 0.33594-2.1211 0.87891-0.54297 0.54297-0.87891 1.293-0.87891 2.1211s0.33594 1.5781 0.87891 2.1211c0.54297 0.54297 1.293 0.87891 2.1211 0.87891 0.52734 0 0.95703 0.42969 0.95703 0.95703v5.3203h2.6094c0.20703-1.4141 0.87109-2.6797 1.8359-3.6445 1.1758-1.1758 2.8047-1.9062 4.5977-1.9062 1.7969 0 3.4219 0.72656 4.5977 1.9062 0.96484 0.96484 1.6289 2.2305 1.8359 3.6445h3.2969c-0.019531-1.9805-0.32422-3.9531-0.89844-5.8438-1.082-3.5625-3.1172-6.832-5.957-9.3086-3.0742-2.6836-7.1055-4.4414-11.918-4.6484zm8.2031 49.629 3.6641 3.9062c0.1875 0.17578 0.30469 0.42578 0.30469 0.69922v5.9219h6.6172c0.16797-0.59766 0.48438-1.1367 0.91406-1.5625 0.64453-0.64453 1.5352-1.043 2.5195-1.043 0.98437 0 1.875 0.39844 2.5195 1.043 0.64453 0.64453 1.043 1.5352 1.043 2.5195s-0.39844 1.875-1.043 2.5195-1.5352 1.043-2.5195 1.043c-0.98438 0-1.875-0.39844-2.5195-1.043-0.42969-0.42578-0.74609-0.96484-0.91406-1.5625h-7.6406l-0.09375-0.015625c-0.007813 0-0.015625-0.003906-0.023438-0.003906l-0.023437-0.003906c-0.007813-0.003907-0.015625-0.003907-0.023438-0.003907l-0.14062-0.046875-0.039062-0.015625-0.17578-0.10547-0.058594-0.046874-0.0625-0.0625-0.046875-0.058594-0.10547-0.17578-0.011719-0.023437-0.007812-0.019531-0.007813-0.023438-0.015625-0.023437-0.03125-0.09375-0.027343-0.16406v-6.5742l-3.4023-3.6289c-0.0625 0.03125-0.12891 0.058594-0.19141 0.085938 0.16797 0.36719 0.26172 0.77734 0.26172 1.207 0 0.79297-0.32031 1.5156-0.83594 2.043v10.039l2.2305 2.3047c0.50781-0.27734 1.0859-0.43359 1.7031-0.43359 0.98438 0 1.875 0.39844 2.5195 1.043 0.64453 0.64453 1.043 1.5352 1.043 2.5195s-0.39844 1.875-1.043 2.5195c-0.64453 0.64453-1.5352 1.043-2.5195 1.043-0.98437 0-1.875-0.39844-2.5195-1.043-0.64453-0.64453-1.043-1.5352-1.043-2.5195 0-0.66016 0.17969-1.2734 0.49219-1.8047l-2.457-2.5352c-0.19531-0.17578-0.32031-0.42969-0.32031-0.71484v-9.5508c-0.054687 0.003906-0.11328 0.003906-0.17188 0.003906h-4v18.66c0.59766 0.16797 1.1367 0.48828 1.5625 0.91406 0.64453 0.64453 1.043 1.5352 1.043 2.5195 0 0.98438-0.39844 1.875-1.043 2.5195-0.64453 0.64844-1.5352 1.0469-2.5195 1.0469s-1.875-0.39844-2.5195-1.043-1.043-1.5352-1.043-2.5195 0.39844-1.875 1.043-2.5195c0.42969-0.42578 0.96484-0.74609 1.5625-0.91406v-18.66h-4c-0.058594 0-0.11328-0.003907-0.17188-0.003907v9.5508c0 0.28516-0.125 0.53906-0.32031 0.71484l-2.4492 2.5352c0.3125 0.52734 0.49219 1.1445 0.49219 1.8047 0 0.98438-0.39844 1.875-1.043 2.5195-0.64453 0.64453-1.5352 1.043-2.5195 1.043s-1.875-0.39844-2.5195-1.043c-0.64453-0.64453-1.043-1.5352-1.043-2.5195s0.39844-1.875 1.043-2.5195 1.5352-1.043 2.5195-1.043c0.61719 0 1.1953 0.15625 1.7031 0.43359l2.2305-2.3047v-10.043c-0.51953-0.52734-0.83594-1.25-0.83594-2.043 0-0.42969 0.09375-0.83984 0.26172-1.207-0.066406-0.027344-0.12891-0.054688-0.19141-0.082031l-3.4023 3.6289v6.5039c0 0.52734-0.42969 0.95703-0.95703 0.95703h-0.003906l-7.5742-0.007812c-0.16797 0.60156-0.48828 1.1367-0.91406 1.5625-0.64453 0.64453-1.5352 1.043-2.5195 1.043s-1.875-0.39844-2.5195-1.043c-0.64453-0.64453-1.043-1.5352-1.043-2.5195 0-0.98438 0.39844-1.875 1.043-2.5195 0.64453-0.64453 1.5352-1.043 2.5195-1.043s1.875 0.39844 2.5195 1.043c0.42969 0.42578 0.74609 0.96484 0.91406 1.5625h6.6133v-5.9219c0-0.27734 0.11719-0.52734 0.30469-0.69922l3.6641-3.9062c-0.17969-0.375-0.28125-0.79297-0.28125-1.2344 0-0.53516 0.14844-1.0352 0.40234-1.4648-0.15625-0.10547-0.30469-0.22656-0.4375-0.36328-0.53906-0.53906-0.87109-1.2773-0.87109-2.0977 0-0.81641 0.33203-1.5586 0.87109-2.0977 0.17969-0.17969 0.38281-0.33594 0.60156-0.46484-0.24219-0.71094-0.57812-1.3789-1.0078-1.9922-0.58203-0.83594-1.3359-1.5742-2.2461-2.1914-4.7227-3.1914-7.5742-7.5508-8.8047-12.219-1.0508-3.9922-0.91016-8.207 0.27344-12.102s3.4102-7.4727 6.5273-10.191c3.6094-3.1445 8.3984-5.1367 14.129-5.1367s10.52 1.9961 14.129 5.1445c3.1172 2.7188 5.3398 6.2969 6.5273 10.191 1.1836 3.8945 1.3281 8.1094 0.27344 12.102-1.2305 4.668-4.0859 9.0273-8.8047 12.219-0.91016 0.61719-1.6641 1.3516-2.2461 2.1914-0.42969 0.61328-0.76562 1.2812-1.0078 1.9922 0.21875 0.12891 0.42188 0.28516 0.60156 0.46484 0.53906 0.53906 0.87109 1.2812 0.87109 2.0977 0 0.81641-0.33594 1.5586-0.87109 2.0977-0.13281 0.13281-0.28125 0.25391-0.4375 0.36328 0.25781 0.42969 0.40234 0.92969 0.40234 1.4648 0 0.4375-0.097656 0.85547-0.27734 1.2305zm-20.133 21.809c0.45703 0 0.86719-0.18359 1.168-0.48437 0.30078-0.30078 0.48438-0.71094 0.48438-1.168s-0.18359-0.86719-0.48438-1.168c-0.30078-0.30078-0.71094-0.48438-1.168-0.48438-0.45703 0-0.86719 0.18359-1.168 0.48438s-0.48438 0.71094-0.48438 1.168 0.18359 0.86719 0.48438 1.168c0.30078 0.30078 0.71094 0.48437 1.168 0.48437zm20.777-0.48047c0.30078 0.30078 0.71094 0.48438 1.168 0.48438 0.45703 0 0.86719-0.18359 1.168-0.48438 0.30078-0.30078 0.48438-0.71094 0.48438-1.168s-0.18359-0.86719-0.48438-1.168c-0.29688-0.30078-0.71094-0.48438-1.168-0.48438-0.45703 0-0.86719 0.18359-1.168 0.48438-0.30078 0.29688-0.48438 0.71094-0.48438 1.168 0.003907 0.45703 0.1875 0.86719 0.48438 1.168zm-10.973 7.4961c0.30078 0.30078 0.71094 0.48437 1.168 0.48437s0.86719-0.18359 1.168-0.48437c0.30078-0.30078 0.48438-0.71094 0.48438-1.168s-0.18359-0.86719-0.48438-1.168c-0.29688-0.30078-0.71094-0.48438-1.168-0.48438s-0.86719 0.18359-1.168 0.48438-0.48438 0.71094-0.48438 1.168c0 0.45312 0.1875 0.86719 0.48438 1.168zm-22.008-15.691c0.45703 0 0.86719-0.18359 1.168-0.48438 0.30078-0.30078 0.48437-0.71094 0.48437-1.168 0-0.45703-0.18359-0.86719-0.48437-1.168-0.30078-0.30078-0.71094-0.48438-1.168-0.48438s-0.86719 0.18359-1.168 0.48438c-0.30078 0.29688-0.48438 0.71094-0.48438 1.168 0 0.45703 0.18359 0.86719 0.48438 1.168 0.30078 0.30078 0.71484 0.48438 1.168 0.48438zm45.184-0.48438c0.29688 0.30078 0.71094 0.48438 1.168 0.48438s0.86719-0.18359 1.168-0.48438c0.30078-0.30078 0.48438-0.71094 0.48438-1.168 0-0.45703-0.18359-0.86719-0.48438-1.168s-0.71094-0.48438-1.168-0.48438-0.86719 0.18359-1.168 0.48438c-0.30078 0.29688-0.48437 0.71094-0.48437 1.168 0 0.45703 0.18359 0.87109 0.48437 1.168zm-26.965-9h9.9141c0.27734 0 0.52734-0.11328 0.71094-0.29688 0.18359-0.18359 0.29688-0.43359 0.29688-0.71094s-0.11328-0.52734-0.29688-0.71094c-0.17969-0.17969-0.42969-0.29297-0.70703-0.29688h-9.9258c-0.27344 0.003907-0.52344 0.11719-0.70703 0.29688-0.18359 0.18359-0.29688 0.43359-0.29688 0.71094s0.11328 0.52734 0.29688 0.71094c0.1875 0.18359 0.4375 0.29688 0.71484 0.29688zm-0.007813-3.9297h11.535c0.26172 0 0.5-0.10547 0.67188-0.28125 0.17187-0.17578 0.28125-0.41016 0.28125-0.67188 0-0.26172-0.10547-0.5-0.28125-0.67188-0.17188-0.17188-0.40234-0.27734-0.66016-0.28125l-13.168-0.003907c-0.25781 0.003907-0.49219 0.10938-0.66016 0.28125-0.17188 0.17188-0.28125 0.41016-0.28125 0.67188 0 0.26172 0.10938 0.5 0.28125 0.67187 0.17188 0.17188 0.41016 0.28125 0.67188 0.28125zm-1.6172-3.8203h13.953c0.28906 0 0.55469-0.11719 0.74609-0.30859 0.19141-0.19141 0.3125-0.45703 0.3125-0.74609 0-0.28906-0.12109-0.55469-0.3125-0.74609-0.14453-0.14453-0.32813-0.24609-0.53516-0.28906-0.019531-0.003906-0.042969-0.007812-0.0625-0.011718-0.046875-0.007813-0.097656-0.011719-0.14453-0.011719h-14.75c-0.050781 0-0.097656 0.003906-0.14453 0.011719-0.019531 0.003906-0.042969 0.007812-0.0625 0.011718-0.20703 0.042969-0.39062 0.14453-0.53516 0.28906-0.19141 0.19141-0.30859 0.45703-0.30859 0.74609 0 0.28906 0.11719 0.55469 0.30859 0.74609 0.19141 0.19141 0.45703 0.30859 0.74609 0.30859zm-0.41406-4.0234h6.0391v-6.5547c0-0.52734 0.42969-0.95703 0.95703-0.95703 0.82812 0 1.5781-0.33594 2.1211-0.87891 0.54297-0.54297 0.87891-1.293 0.87891-2.1211s-0.33594-1.5781-0.87891-2.1211c-0.54297-0.54297-1.293-0.87891-2.1211-0.87891-0.52734 0-0.95703-0.42969-0.95703-0.95703v-5.3203h-4.2969c-0.19141 0.97266-0.67188 1.8438-1.3477 2.5195-0.89063 0.89062-2.1172 1.4414-3.4727 1.4414s-2.5859-0.55078-3.4727-1.4414c-0.67578-0.67578-1.1523-1.543-1.3477-2.5195h-4.7617c0.097656 1.1133 0.28516 2.2188 0.57031 3.3086 1.1172 4.2422 3.7188 8.207 8.0273 11.121 1.1094 0.75 2.0312 1.6523 2.7461 2.6836 0.57422 0.81641 1.0156 1.7148 1.3164 2.6758zm7.9531 0h6.0391c0.30078-0.96094 0.74219-1.8594 1.3125-2.6797 0.71484-1.0273 1.6367-1.9336 2.7461-2.6836 4.3086-2.9102 6.9102-6.8789 8.0273-11.121 0.28906-1.0898 0.47656-2.1953 0.57422-3.3086h-3.2227c-0.20703 1.4141-0.87109 2.6797-1.8359 3.6445-1.1758 1.1758-2.8047 1.9062-4.5977 1.9062-1.7969 0-3.4219-0.72656-4.5977-1.9062-0.96484-0.96484-1.6289-2.2305-1.8359-3.6445h-2.6094v4.457c0.97266 0.19141 1.8438 0.67188 2.5195 1.3477 0.89063 0.89062 1.4375 2.1172 1.4375 3.4727 0 1.3555-0.55078 2.5859-1.4375 3.4727-0.67578 0.67578-1.543 1.1523-2.5195 1.3477zm-20.688-21.703c0.015625-1.9805 0.32422-3.9531 0.89844-5.8438 1.082-3.5625 3.1172-6.832 5.957-9.3086 3.0742-2.6797 7.1055-4.4375 11.918-4.6445v5.7031c-0.97266 0.19141-1.8438 0.67188-2.5195 1.3477-0.89063 0.88672-1.4414 2.1172-1.4414 3.4727 0 1.3555 0.55078 2.5859 1.4414 3.4727 0.67578 0.67578 1.543 1.1523 2.5195 1.3477v4.457h-4.8594c-0.050782 0-0.10156 0.003906-0.15234 0.011719-0.050781-0.007813-0.10156-0.011719-0.15234-0.011719-0.52734 0-0.95703 0.42969-0.95703 0.95703 0 0.82812-0.33594 1.5781-0.87891 2.1211s-1.293 0.87891-2.1211 0.87891-1.5781-0.33594-2.1211-0.87891-0.87891-1.293-0.87891-2.1211c0-0.52734-0.42969-0.95703-0.95703-0.95703zm41.555-11.453 6.1523-3.5508c0.45703-0.26172 0.61328-0.84766 0.34766-1.3047-0.26172-0.45703-0.84766-0.61328-1.3047-0.34766l-6.1523 3.5508c-0.45703 0.26562-0.61328 0.84766-0.34766 1.3047 0.26562 0.45703 0.84766 0.61328 1.3047 0.34766zm-8.6758-9.3672 3.5508-6.1523c0.26172-0.45703 0.10938-1.0391-0.34766-1.3047-0.45703-0.26172-1.0391-0.10938-1.3047 0.34766l-3.5508 6.1523c-0.26172 0.45703-0.10938 1.0391 0.34766 1.3047 0.45703 0.26172 1.043 0.10547 1.3047-0.34766zm-12.191-3.7812c0 0.52734-0.42969 0.95703-0.95703 0.95703s-0.95703-0.42969-0.95703-0.95703v-7.1055c0-0.52734 0.42969-0.95703 0.95703-0.95703s0.95703 0.42969 0.95703 0.95703zm-12.457 2.8281-3.5508-6.1523c-0.26172-0.45703-0.84375-0.61328-1.3008-0.35156-0.45703 0.26172-0.61328 0.84375-0.35156 1.3008l3.5508 6.1523c0.26172 0.45703 0.84375 0.61328 1.3008 0.35156 0.45703-0.26563 0.61328-0.84766 0.35156-1.3008zm-9.3711 8.668-6.1523-3.5508c-0.45703-0.26172-1.0391-0.10547-1.3008 0.35156-0.26172 0.45703-0.10547 1.0391 0.35156 1.3008l6.1523 3.5508c0.45703 0.26172 1.0391 0.10547 1.3008-0.35156 0.26172-0.45312 0.10547-1.0391-0.35156-1.3008zm-3.7773 12.195h-7.1055c-0.52734 0-0.95703 0.42969-0.95703 0.95703 0 0.52734 0.42969 0.95703 0.95703 0.95703h7.1055c0.52734 0 0.95703-0.42969 0.95703-0.95703 0-0.53125-0.42969-0.95703-0.95703-0.95703zm2.8242 12.453-6.1523 3.5508c-0.45703 0.26172-0.61328 0.84766-0.34766 1.3047 0.26172 0.45703 0.84766 0.61328 1.3047 0.34766l6.1523-3.5508c0.45703-0.26172 0.61328-0.84766 0.34766-1.3047-0.26562-0.45312-0.84766-0.60938-1.3047-0.34766zm42.691 1.6523 6.1523 3.5508c0.45703 0.26172 1.0391 0.10937 1.3047-0.34766 0.26172-0.45703 0.10938-1.0391-0.34766-1.3047l-6.1523-3.5508c-0.45703-0.26172-1.0391-0.10937-1.3047 0.34766-0.26172 0.45703-0.10547 1.0391 0.34766 1.3047zm3.7812-12.195h7.1055c0.52734 0 0.95703-0.42969 0.95703-0.95703 0-0.52734-0.42969-0.95703-0.95703-0.95703h-7.1055c-0.52734 0-0.95703 0.42969-0.95703 0.95703 0 0.53125 0.42969 0.95703 0.95703 0.95703zm-14.648-4.6328c1.2695 0 2.4141 0.51172 3.2461 1.3438 0.83203 0.83203 1.3438 1.9805 1.3438 3.2461 0 1.2695-0.51172 2.4141-1.3438 3.2461-0.83203 0.83203-1.9805 1.3438-3.2461 1.3438-1.2695 0-2.4141-0.51172-3.2461-1.3438-0.83203-0.83203-1.3438-1.9805-1.3438-3.2461 0-1.2695 0.51172-2.4141 1.3438-3.2461 0.83203-0.83203 1.9766-1.3438 3.2461-1.3438zm-2.6211 5.375c-0.39062-0.35156-0.41797-0.95703-0.066406-1.3438 0.35156-0.39062 0.95703-0.41797 1.3438-0.066406l0.85547 0.77344 1.7031-2.2734c0.31641-0.42188 0.91406-0.50781 1.332-0.19141 0.42188 0.31641 0.50781 0.91406 0.19141 1.332l-2.332 3.1055c-0.019531 0.023437-0.035156 0.046875-0.054688 0.066406-0.35156 0.39062-0.95703 0.41797-1.3438 0.066406z" fill="#9654bc" fill-rule="evenodd"/>
</svg>
