<?xml version="1.0" encoding="UTF-8"?>
<svg width="100pt" height="100pt" version="1.1" viewBox="0 0 100 100" xmlns="http://www.w3.org/2000/svg">
 <path d="m31.492 63.473c-0.32031-0.18359-0.61328-0.41016-0.875-0.67188l-1.1797-1.1797v-0.003906c-1.3594-1.3438-1.6875-3.4141-0.80859-5.1094l0.48828-0.96484c0.16016-0.30078 0.24609-0.63672 0.24609-0.97656-0.011719-0.33984-0.10156-0.67578-0.26953-0.96875-0.80078-1.4688-1.4414-3.0156-1.9102-4.6172-0.09375-0.32422-0.26562-0.62109-0.5-0.86719-0.23828-0.24219-0.53516-0.41797-0.85547-0.51953l-1.0273-0.33203c-1.8242-0.57031-3.0586-2.2695-3.043-4.1836v-1.6719c-0.015624-1.9141 1.2188-3.6133 3.043-4.1875l1.0273-0.33594v0.003907c0.32031-0.10156 0.61719-0.27734 0.85547-0.51953 0.23438-0.24609 0.40625-0.54297 0.5-0.87109 0.23438-0.80078 0.51172-1.5859 0.83203-2.3594 0.32031-0.76953 0.67969-1.5234 1.082-2.2539 0.16406-0.29687 0.25391-0.625 0.26562-0.96484 0-0.33984-0.082031-0.67578-0.24219-0.98047l-0.49609-0.96484h0.003906c-0.87891-1.6992-0.55078-3.7695 0.80859-5.1133l1.1797-1.1758c1.3477-1.3594 3.418-1.6875 5.1172-0.80859l0.96484 0.49609-0.003907-0.003906c0.30078 0.16016 0.63672 0.24219 0.97656 0.24219 0.33984-0.007813 0.67188-0.10156 0.96875-0.26562 0.73438-0.40234 1.4844-0.76172 2.2578-1.082 0.76953-0.31641 1.5586-0.59766 2.3555-0.83203 0.32812-0.09375 0.62891-0.26172 0.87109-0.49609 0.24219-0.24219 0.41797-0.53516 0.51953-0.85938l0.33594-1.0273c0.57422-1.8242 2.2695-3.0586 4.1836-3.0469h1.6719c1.9141-0.011719 3.6094 1.2227 4.1836 3.0469l0.33594 1.0273c0.19531 0.66016 0.72266 1.1758 1.3906 1.3555 0.79688 0.23437 1.5859 0.51562 2.3555 0.83203 0.77344 0.32031 1.5234 0.67969 2.2578 1.082 0.59766 0.34375 1.3359 0.35156 1.9453 0.023438l0.96484-0.49609-0.003906 0.003906c1.6992-0.87891 3.7695-0.55078 5.1094 0.80859l0.59375 0.59375 0.59375 0.58984c1.3594 1.3438 1.6875 3.4141 0.80859 5.1133l-0.49609 0.96484 0.003906-0.003906c-0.16016 0.30078-0.24219 0.63672-0.24219 0.97656 0.011719 0.33984 0.10156 0.67188 0.26562 0.96875 0.40234 0.73438 0.76172 1.4844 1.082 2.2578 0.32031 0.76953 0.59766 1.5586 0.83203 2.3594 0.09375 0.32422 0.26562 0.62109 0.5 0.86719 0.23828 0.24219 0.53516 0.41797 0.85547 0.51953l1.0273 0.33594c1.8242 0.57422 3.0547 2.2734 3.043 4.1836v1.6719c0.011718 1.9102-1.2227 3.6055-3.043 4.1797l-0.79688 0.25781c-0.019532 0-0.039063 0.015625-0.054688 0.019531l-0.17969 0.058594c-0.32031 0.10156-0.61719 0.27734-0.85547 0.51953-0.23438 0.24219-0.40234 0.54297-0.49609 0.86719-0.23438 0.80078-0.51172 1.5898-0.83203 2.3594-0.32031 0.77344-0.67969 1.5234-1.082 2.2578-0.16406 0.29688-0.25391 0.62891-0.26562 0.96875 0 0.33984 0.082031 0.67578 0.24219 0.97656l0.49609 0.96484h-0.003906c0.87891 1.6953 0.55078 3.7656-0.80859 5.1133l-0.59375 0.58984v-0.003906c-0.015625 0.023437-0.039062 0.042968-0.058594 0.0625l-0.53125 0.52734h-0.003906c-0.26172 0.25391-0.55078 0.48047-0.86719 0.67188 0.78125 2.1562 1.1797 4.4297 1.1758 6.7227v0.25391c-0.007813 0.63281-0.52344 1.1445-1.1562 1.1445h-6.4727c-0.33203 2.75-1.5977 5.3047-3.5859 7.2344l-2.4219 2.3477v0.30078h0.61719c0.64063 0 1.1602 0.51953 1.1602 1.1641 0 0.64062-0.51953 1.1602-1.1602 1.1602h-0.61719v2.4727c0 0.027343 0 0.054687-0.003906 0.082031-0.10938 3.332-2.8438 5.9805-6.1797 5.9805-3.3359 0-6.0703-2.6484-6.1758-5.9805-0.003906-0.027344-0.007812-0.054688-0.003906-0.082031v-2.4688h-0.62109c-0.64062 0-1.1602-0.51953-1.1602-1.1602 0-0.64453 0.51953-1.1641 1.1602-1.1641h0.62109v-0.42969l-2.4102-2.4805c-1.8438-1.8984-3.0117-4.3477-3.3281-6.9727h-6.4648c-0.30859 0-0.60156-0.12109-0.82031-0.33594-0.21875-0.21875-0.34375-0.51562-0.34375-0.82031v-0.082031c0-0.15625-0.007812 0.007813-0.007812-0.16016 0-2.293 0.39844-4.5703 1.1836-6.7266zm-7.9961-3.4844c0.039062-0.30469 0.19531-0.58203 0.4375-0.76953 0.24219-0.19141 0.55078-0.27344 0.85547-0.23828 0.63672 0.082031 1.0898 0.66016 1.0078 1.2969l-0.52734 4.0977 0.003907-0.003906c-0.023438 0.31641-0.17188 0.61328-0.41406 0.81641-0.26953 0.22656-0.62891 0.31641-0.97266 0.25l-4.0859-0.52734c-0.30859-0.03125-0.59375-0.1875-0.78516-0.43359-0.19531-0.24219-0.28125-0.55469-0.24219-0.86328 0.039062-0.30859 0.20312-0.58984 0.44922-0.77734 0.25-0.1875 0.5625-0.26953 0.87109-0.22266l1.3906 0.17969h-0.003906c-5.0664-7.1445-7.2656-15.93-6.1641-24.617 1.0977-8.6875 5.4219-16.648 12.109-22.305 6.6836-5.6562 15.25-8.5938 24.004-8.2383 8.75 0.35938 17.047 3.9883 23.25 10.172 6.2031 6.1797 9.8594 14.465 10.25 23.215 0.38672 8.75-2.5234 17.328-8.1562 24.031-0.41016 0.49219-1.1445 0.55859-1.6328 0.14844-0.49219-0.41016-0.55859-1.1406-0.14844-1.6328 5.2656-6.2578 7.9922-14.266 7.6406-22.434-0.35156-8.1719-3.7578-15.914-9.543-21.695s-13.527-9.1797-21.699-9.5273c-8.168-0.34766-16.172 2.3828-22.43 7.6523-6.2539 5.2695-10.301 12.695-11.348 20.805-1.043 8.1133 0.99219 16.32 5.707 23zm22.508 25.121h7.7109l0.003906-1.3047h-7.7148zm7.4961 2.3281h-7.2812c0.19531 0.54688 0.50781 1.0469 0.92188 1.457 0.9375 0.9375 2.2891 1.3242 3.582 1.0273 1.293-0.29688 2.3398-1.2344 2.7773-2.4844zm-7.4961-5.957h7.7109l0.003906-0.78516h0.003906c-0.003906-0.3125 0.125-0.61328 0.34766-0.83594l2.7812-2.6914c3.8633-3.7695 3.9844-9.9414 0.26953-13.859-0.039063-0.035156-0.078125-0.074219-0.11328-0.11328-3.7812-3.8086-9.9102-3.9023-13.805-0.21094-0.015625 0.015625-0.027344 0.03125-0.042969 0.046875l-0.015625 0.007812 0.003907 0.003907c-3.8867 3.7891-3.9805 10.008-0.21094 13.914l2.6797 2.7617v0.003906c0.24609 0.21875 0.39062 0.53516 0.39062 0.86328zm16.109-12.211h5.2188c-0.32031-5.9727-3.6914-11.359-8.9219-14.258-5.2344-2.8984-11.59-2.8984-16.824 0-5.2344 2.8984-8.6055 8.2852-8.9258 14.258h5.2227c0.19531-2.9883 1.4922-5.7969 3.6367-7.8867 0.027344-0.023437 0.050781-0.050781 0.078125-0.074218 4.8398-4.5859 12.465-4.4414 17.129 0.32422h0.003907c2 2.0625 3.1992 4.7695 3.3867 7.6367zm5.457-7.957c0.058594-0.050781 0.11328-0.097656 0.16797-0.15625l0.52734-0.52734c0.019531-0.023437 0.039063-0.042968 0.058594-0.066406l0.58984-0.58984v0.003906c0.31641-0.30469 0.53125-0.70703 0.60156-1.1445 0.0625-0.43359-0.011719-0.87891-0.21484-1.2695l-0.49609-0.96484c-0.66797-1.293-0.64453-2.8359 0.0625-4.1055 0.35937-0.66016 0.68359-1.3398 0.96875-2.0391 0.29297-0.69141 0.54297-1.4023 0.75391-2.125 0.19922-0.68359 0.5625-1.3125 1.0586-1.8281 0.50391-0.51172 1.1211-0.89453 1.8047-1.1133l0.18359-0.0625 0.046875-0.011719 0.79297-0.25781c0.42188-0.12891 0.78906-0.39453 1.0508-0.75 0.25781-0.35547 0.39844-0.78516 0.39844-1.2266h-0.003906l-0.003906-1.6719h0.007812c0-0.44141-0.14062-0.87109-0.39844-1.2305-0.26172-0.35547-0.62891-0.61719-1.0508-0.74609l-1.0273-0.33594c-1.3906-0.4375-2.4648-1.5469-2.8633-2.9492-0.21094-0.71875-0.46094-1.4297-0.74609-2.1211-0.29297-0.69531-0.61719-1.3789-0.97656-2.0391-0.34766-0.62891-0.53516-1.332-0.54688-2.0469-0.007812-0.71875 0.16016-1.4219 0.49219-2.0586l0.48828-0.96484c0.20312-0.39062 0.27734-0.83594 0.21875-1.2734-0.074219-0.43359-0.28516-0.83594-0.60547-1.1445l-1.1797-1.1797 0.003906 0.003906c-0.3125-0.3125-0.71484-0.52344-1.1484-0.59766-0.4375-0.066406-0.88281 0.007813-1.2734 0.21094l-0.96484 0.48828c-0.63281 0.33203-1.3398 0.5-2.0547 0.49219-0.71875-0.011718-1.4219-0.19922-2.0508-0.54687-0.66016-0.35938-1.3398-0.68359-2.0352-0.97266-0.69531-0.28906-1.4062-0.53906-2.125-0.75-0.6875-0.19922-1.3164-0.5625-1.832-1.0586-0.51172-0.50391-0.89453-1.1211-1.1094-1.8047l-0.33594-1.0273c-0.26563-0.86328-1.0703-1.4531-1.9766-1.4375h-1.6641c-0.44141-0.003906-0.87109 0.13281-1.2266 0.39062-0.35938 0.26172-0.62109 0.62891-0.75391 1.0508l-0.32812 1.0273h-0.003907c-0.21875 0.67969-0.59766 1.3008-1.1094 1.8008-0.51563 0.49609-1.1445 0.85937-1.832 1.0625-0.71875 0.21094-1.4297 0.46094-2.125 0.74609-0.69531 0.28906-1.375 0.61719-2.0352 0.97656-0.62891 0.34375-1.332 0.53125-2.0508 0.54688-0.71484 0.007812-1.4219-0.16016-2.0547-0.49219l-0.96484-0.48828c-0.80469-0.43359-1.793-0.27734-2.4219 0.38281l-1.1797 1.1797h-0.003906c-0.65625 0.62891-0.8125 1.6211-0.37891 2.4219l0.48828 0.96484c0.67188 1.2891 0.65234 2.832-0.054688 4.1055-0.35938 0.66016-0.6875 1.3398-0.97656 2.0391-0.28516 0.69141-0.53516 1.4023-0.75 2.1211-0.39453 1.4023-1.4727 2.5117-2.8594 2.9492l-1.0273 0.33594c-0.86719 0.26562-1.4531 1.0703-1.4453 1.9766h0.003907v1.6719h-0.003907c-0.003906 0.90234 0.58594 1.7031 1.4492 1.9648l1.0273 0.33594c0.67969 0.21875 1.2969 0.60156 1.7969 1.1133s0.86328 1.1406 1.0586 1.8281c0.21875 0.72266 0.46484 1.4258 0.75391 2.125 0.28906 0.69531 0.61719 1.375 0.97656 2.0391 0.70703 1.2695 0.73047 2.8125 0.054688 4.1055l-0.48828 0.96484c-0.42969 0.79688-0.27344 1.7852 0.38281 2.4141l1.1797 1.1797 0.16406 0.15234c0.94531-1.8594 2.1797-3.5586 3.6523-5.0312 0.51172-0.50781 1.0469-0.98438 1.6055-1.4336-1.5039-1.4727-2.7344-3.2031-3.6289-5.1055-2.5625-5.457-2.1602-11.844 1.0742-16.934 3.2305-5.0898 8.8398-8.1719 14.867-8.1719 6.0312 0 11.641 3.082 14.871 8.1719 3.2344 5.0898 3.6367 11.477 1.0742 16.934-0.89453 1.9023-2.125 3.6328-3.625 5.1055 0.55859 0.44922 1.0977 0.92969 1.6055 1.4375 1.4766 1.4766 2.7109 3.1758 3.6523 5.0391zm-27.953-7.8438c1.5039-0.9375 3.125-1.6641 4.8242-2.1641-4.1875-2.5-6.1914-7.4883-4.8945-12.191 1.2969-4.6992 5.5742-7.957 10.453-7.957s9.1562 3.2578 10.453 7.957c1.2969 4.7031-0.70703 9.6914-4.8945 12.191 1.6992 0.5 3.3203 1.2266 4.8242 2.1641 3.0312-2.8047 4.8047-6.7109 4.9141-10.836 0.10938-4.1289-1.457-8.1211-4.3359-11.078-2.8789-2.957-6.832-4.625-10.961-4.625s-8.082 1.668-10.961 4.625c-2.8789 2.957-4.4453 6.9492-4.3359 11.078 0.10938 4.125 1.8828 8.0312 4.9141 10.836zm16.41-17.512c-2.875-2.875-7.3828-3.3203-10.766-1.0586-3.3828 2.2617-4.6953 6.5977-3.1367 10.355 1.5547 3.7578 5.5508 5.8906 9.543 5.0938 3.9883-0.79297 6.8594-4.2969 6.8594-8.3633 0-2.2617-0.89844-4.4297-2.4961-6.0273z" fill="#541875"/>
</svg>
