<?xml version="1.0" encoding="UTF-8"?>
<svg width="100pt" height="100pt" version="1.1" viewBox="0 0 100 100" xmlns="http://www.w3.org/2000/svg">
 <path d="m95.785 26.293c-2.2734 0-4.1328 2.0039-4.2109 4.5-0.69141-0.32422-1.4609-0.44922-2.2188-0.33594-1.9922 0.28906-3.4531 2.1172-3.5469 4.2617-0.019532 0.003906-0.035156 0.003906-0.054688 0.007812-2.3008 0.33203-3.8711 2.6758-3.5 5.2188l1.5898 10.957c-0.42969 0.097656-0.84766 0.25391-1.2461 0.46484-0.44531 0.23047-10.898 5.7148-13.629 8.7344-1.8711 2.0703-4.4727 7.2227-5.0625 10.027-0.41016 1.957 0.52344 7.9961 1.4258 12.922h-0.38672c-1.5742 0-2.8555 1.2812-2.8555 2.8555v4.9766c0 1.5742 1.2812 2.8555 2.8555 2.8555h21.523c1.5742 0 2.8555-1.2812 2.8555-2.8555v-4.9766c0-0.76172-0.29688-1.4766-0.83594-2.0195-0.53906-0.53906-1.2578-0.83984-2.0156-0.83984h-1.6094l0.16797-2.0234 10.602-16.605c0.039063-0.058594 0.066407-0.12109 0.085938-0.1875l4.2461-13.695c0.023437-0.074218 0.035156-0.15234 0.035156-0.23047v-19.348c0-2.5703-1.8906-4.6602-4.2148-4.6641zm2.6484 23.895-4.1797 13.484-10.652 16.68c-0.070312 0.10547-0.10937 0.23047-0.12109 0.35547l-0.19531 2.3438h-16.367c-0.93359-5.082-1.8398-10.945-1.4922-12.602 0.53516-2.5508 2.9922-7.418 4.6914-9.3008 2.543-2.8164 13.09-8.3438 13.195-8.4023 0.45312-0.24219 0.94141-0.375 1.4453-0.40234h0.011719c1.1016-0.054688 2.0703 0.44141 2.5234 1.2969 0.32422 0.60938 0.35156 1.3359 0.082031 2.0469l-0.003906 0.007812c0 0.003907-0.003906 0.007813-0.003906 0.011719-0.28125 0.72656-0.83984 1.3398-1.5742 1.7266-0.03125 0.015625-0.058594 0.03125-0.085938 0.050781l-8.332 5.8789c-0.35156 0.25-0.4375 0.73438-0.1875 1.0898 0.15234 0.21484 0.39453 0.33203 0.64062 0.33203 0.15625 0 0.3125-0.046875 0.44922-0.14453l8.293-5.8516c1.0273-0.55469 1.8164-1.4297 2.2344-2.4727 0.003906-0.011718 0.011718-0.019531 0.015624-0.03125l4.2461-10.426c0.039063-0.09375 0.058594-0.19531 0.058594-0.29297l0.003906-13.25v-1.3633c0-1.707 1.1914-3.0977 2.6523-3.0977s2.6523 1.3906 2.6523 3.0977zm-10.676 35.723v4.9766c0 0.71094-0.58203 1.293-1.293 1.293h-21.523c-0.71094 0-1.293-0.58203-1.293-1.293v-4.9766c0-0.71484 0.58203-1.293 1.293-1.293h21.523c0.34375 0 0.66797 0.13672 0.91406 0.37891 0.24609 0.24609 0.37891 0.57031 0.37891 0.91406zm3.8164-53.258-0.003907 12.762-2.2891 5.625 0.20312-0.82812c0.023437-0.097657 0.03125-0.19922 0.015625-0.30078l-2.0977-14.461c0-0.007813-0.003906-0.015625-0.007813-0.027344v-0.035156c-0.21094-1.6641 0.76562-3.1836 2.1836-3.3867 0.70312-0.097656 1.418 0.14062 1.9961 0.65234zm-5.6289 3.6289 1.9883 13.703-0.39844 1.6094c-0.60156-0.4375-1.332-0.71094-2.125-0.78906l-1.6094-11.082c-0.24609-1.6797 0.71484-3.2148 2.1445-3.4414z" fill="#541875"/>
 <path d="m83.27 85.094c-1.8203 0-3.3047 1.4805-3.3047 3.3047 0 1.8203 1.4805 3.3047 3.3047 3.3047 1.8203 0 3.3047-1.4805 3.3047-3.3047-0.003907-1.8242-1.4844-3.3047-3.3047-3.3047zm0 5.043c-0.96094 0-1.7422-0.78125-1.7422-1.7422 0-0.96094 0.78125-1.7422 1.7422-1.7422 0.96094 0 1.7422 0.78125 1.7422 1.7422-0.003907 0.96094-0.78125 1.7422-1.7422 1.7422z" fill="#541875"/>
 <path d="m0.039062 50.539 4.2461 13.695c0.019532 0.066406 0.050782 0.12891 0.085938 0.1875l10.602 16.605 0.16797 2.0234h-1.6094c-0.76172 0-1.4766 0.29688-2.0156 0.83984-0.53906 0.53906-0.83984 1.2578-0.83594 2.0195v4.9766c0 1.5742 1.2812 2.8555 2.8555 2.8555h21.523c1.5742 0 2.8555-1.2812 2.8555-2.8555v-4.9766c0-1.5742-1.2812-2.8555-2.8555-2.8555h-0.38672c0.90234-4.9297 1.8359-10.965 1.4258-12.922-0.58984-2.8047-3.1914-7.957-5.0625-10.027-2.7305-3.0195-13.188-8.5039-13.625-8.7344-0.40234-0.21094-0.82031-0.36719-1.25-0.46484l1.5898-10.957c0.36719-2.543-1.2031-4.8828-3.5-5.2188-0.019531-0.003907-0.039062-0.003907-0.054688-0.007813-0.09375-2.1445-1.5547-3.9766-3.5469-4.2617-0.75781-0.10938-1.5273 0.011718-2.2188 0.33594-0.078126-2.4961-1.9375-4.5-4.2109-4.5-2.3281 0-4.2188 2.0898-4.2188 4.6602l0.0039062 19.352c0 0.078125 0.011719 0.15625 0.035156 0.23047zm6.8242-19.582v1.3633l0.003907 13.25c0 0.10156 0.019531 0.19922 0.058593 0.29297l4.2383 10.402c0 0.003906 0.003907 0.007813 0.003907 0.011719l0.003906 0.011718c0.003906 0.007813 0.007813 0.015626 0.011719 0.027344 0.41797 1.043 1.207 1.9219 2.2344 2.4766l8.293 5.8516c0.13672 0.097657 0.29297 0.14453 0.44922 0.14453 0.24609 0 0.48828-0.11719 0.64062-0.33203 0.25-0.35156 0.16406-0.83984-0.1875-1.0898l-8.332-5.8789c-0.027344-0.019531-0.054688-0.035156-0.085938-0.050781-0.73047-0.38672-1.2891-1-1.5742-1.7266 0-0.003907-0.003906-0.003907-0.003906-0.007813-0.27734-0.71484-0.25-1.4453 0.078124-2.0586 0.45313-0.85547 1.4141-1.3555 2.5234-1.2969h0.011719c0.50391 0.027344 0.99219 0.16016 1.4492 0.40234 0.10547 0.054688 10.648 5.582 13.195 8.3984 1.6992 1.8789 4.1562 6.7461 4.6914 9.3008 0.34766 1.6562-0.55859 7.5195-1.4922 12.602h-16.367l-0.19531-2.3438c-0.011719-0.125-0.050781-0.25-0.12109-0.35547l-10.645-16.68-4.1797-13.484-0.003906-19.23c0-1.707 1.1875-3.0977 2.6523-3.1016 1.4609 0 2.6484 1.3906 2.6484 3.1016zm9.3398 8.7617-1.6055 11.082c-0.79297 0.078125-1.5234 0.35156-2.125 0.78906l-0.39844-1.6094 1.9883-13.703c1.4219 0.23047 2.3828 1.7656 2.1406 3.4414zm-3.5977-4.3281v0.035156c0 0.007813-0.003907 0.015625-0.007813 0.027344l-2.0977 14.461c-0.015625 0.10156-0.007812 0.20313 0.015625 0.30078l0.20312 0.82812-2.2891-5.625-0.003907-12.762c0.57812-0.51562 1.293-0.75391 1.9922-0.65234 1.418 0.20312 2.3984 1.7227 2.1875 3.3867zm23.746 50.516v4.9766c0 0.71484-0.57812 1.293-1.293 1.293h-21.523c-0.71484 0-1.293-0.57812-1.293-1.293v-4.9766c0-0.34375 0.13281-0.66797 0.37891-0.91406 0.24609-0.24609 0.57031-0.37891 0.91406-0.37891h21.523c0.71094 0 1.293 0.58203 1.293 1.293z" fill="#541875"/>
 <path d="m20.035 88.395c0-1.8203-1.4805-3.3047-3.3047-3.3047-1.8203 0-3.3047 1.4805-3.3047 3.3047 0 1.8203 1.4805 3.3047 3.3047 3.3047 1.8203 0 3.3047-1.4805 3.3047-3.3047zm-1.5625 0c0 0.96094-0.78125 1.7422-1.7422 1.7422-0.96094 0-1.7422-0.78125-1.7422-1.7422 0-0.96094 0.78125-1.7422 1.7422-1.7422 0.96094 0.003906 1.7422 0.78516 1.7422 1.7422z" fill="#541875"/>
 <path d="m82.453 23.984v-11.449c0-3.4609-2.8164-6.2773-6.2773-6.2773h-52.352c-3.4609 0-6.2773 2.8164-6.2773 6.2773v11.449c0 3.043 2.1758 5.5859 5.0547 6.1562l-2.625 5.0586c-0.15625 0.30469-0.097656 0.67578 0.14453 0.91797 0.14844 0.14844 0.34766 0.22656 0.54688 0.22656 0.125 0 0.25391-0.03125 0.37109-0.09375l11.129-5.9844h44.012c3.457-0.003906 6.2734-2.8164 6.2734-6.2812zm-59.926 9.6875 1.9883-3.832c0.125-0.24219 0.11719-0.53125-0.027344-0.76562-0.14062-0.23438-0.39453-0.375-0.66797-0.375-2.6016 0-4.7148-2.1133-4.7148-4.7148l0.003906-11.449c0-2.6016 2.1133-4.7148 4.7148-4.7148h52.352c2.6016 0 4.7148 2.1133 4.7148 4.7148v11.449c0 2.6016-2.1133 4.7148-4.7148 4.7148h-44.207c-0.12891 0-0.25781 0.03125-0.37109 0.09375z" fill="#541875"/>
 <path d="m35.492 24.77c0.24219-0.17578 0.35937-0.47266 0.3125-0.76562l-0.74609-4.3594 3.168-3.0898c0.21484-0.20703 0.28906-0.51953 0.19922-0.80078-0.09375-0.28125-0.33594-0.48828-0.62891-0.53125l-4.3789-0.63672-1.957-3.9688c-0.13281-0.26563-0.40234-0.43359-0.69922-0.43359s-0.57031 0.16797-0.69922 0.43359l-1.957 3.9688-4.3789 0.63672c-0.29297 0.042969-0.53906 0.25-0.62891 0.53125-0.09375 0.28125-0.015625 0.59375 0.19922 0.80078l3.168 3.0898-0.74609 4.3594c-0.050781 0.29297 0.070312 0.58984 0.3125 0.76562 0.13672 0.097657 0.29688 0.14844 0.46094 0.14844 0.125 0 0.25-0.03125 0.36328-0.089844l3.9141-2.0586 3.918 2.0586c0.24609 0.14062 0.56641 0.11719 0.80469-0.058594zm-7.9805-2.0586 0.55078-3.207c0.042969-0.25391-0.039062-0.51172-0.22266-0.69141l-2.3281-2.2695 3.2188-0.46875c0.25391-0.035157 0.47266-0.19531 0.58984-0.42578l1.4375-2.918 1.4375 2.918c0.11328 0.23047 0.33594 0.39062 0.58984 0.42578l3.2188 0.46875-2.3281 2.2695c-0.18359 0.17969-0.26953 0.4375-0.22266 0.69141l0.55078 3.207-2.8789-1.5117c-0.11328-0.058594-0.23828-0.089844-0.36328-0.089844s-0.25 0.03125-0.36328 0.089844z" fill="#541875"/>
 <path d="m45.699 19.645-0.74609 4.3594c-0.050781 0.29297 0.070313 0.58984 0.3125 0.76562 0.13672 0.097657 0.29688 0.14844 0.46094 0.14844 0.125 0 0.25-0.03125 0.36328-0.089844l3.9141-2.0586 3.918 2.0586c0.26172 0.13672 0.58203 0.11328 0.82422-0.058594 0.24219-0.17578 0.35938-0.47266 0.3125-0.76562l-0.74609-4.3594 3.168-3.0898c0.21484-0.20703 0.28906-0.51953 0.19922-0.80078-0.09375-0.28125-0.33594-0.48828-0.62891-0.53125l-4.3789-0.63672-1.957-3.9688c-0.13281-0.26563-0.40234-0.43359-0.69922-0.43359s-0.57031 0.16797-0.69922 0.43359l-1.957 3.9688-4.3789 0.63672c-0.29297 0.042969-0.53906 0.25-0.62891 0.53125-0.09375 0.28125-0.015624 0.59375 0.19922 0.80078zm2.8633-3.9961 1.4375-2.9141 1.4375 2.918c0.11328 0.23047 0.33594 0.39062 0.58984 0.42578l3.2188 0.46875-2.3281 2.2695c-0.18359 0.17969-0.26953 0.4375-0.22266 0.69141l0.55078 3.207-2.8789-1.5117c-0.11328-0.058594-0.23828-0.089844-0.36328-0.089844s-0.25 0.03125-0.36328 0.089844l-2.8789 1.5117 0.55078-3.207c0.042969-0.25391-0.039062-0.51172-0.22266-0.69141l-2.3359-2.2734 3.2188-0.46875c0.25391-0.035157 0.47266-0.19531 0.58984-0.42578z" fill="#541875"/>
 <path d="m64.941 19.645-0.74609 4.3594c-0.050781 0.29297 0.070313 0.58984 0.3125 0.76562 0.13672 0.097657 0.29688 0.14844 0.46094 0.14844 0.125 0 0.25-0.03125 0.36328-0.089844l3.918-2.0586 3.918 2.0586c0.26172 0.13672 0.58203 0.11328 0.82422-0.058594 0.24219-0.17578 0.35937-0.47266 0.3125-0.76562l-0.74609-4.3594 3.168-3.0898c0.21484-0.20703 0.28906-0.51953 0.19922-0.80078-0.09375-0.28125-0.33594-0.48828-0.62891-0.53125l-4.3789-0.63672-1.957-3.9688c-0.13281-0.26563-0.40234-0.43359-0.69922-0.43359s-0.57031 0.16797-0.69922 0.43359l-1.9766 3.9727-4.3789 0.63672c-0.29297 0.042969-0.53906 0.25-0.62891 0.53125-0.09375 0.28125-0.015625 0.59375 0.19922 0.80078zm2.8633-3.9961 1.4375-2.918 1.4375 2.918c0.11328 0.23047 0.33594 0.39062 0.58984 0.42578l3.2188 0.46875-2.3281 2.2695c-0.18359 0.17969-0.26953 0.4375-0.22266 0.69141l0.55078 3.207-2.8789-1.5117c-0.11328-0.058594-0.23828-0.089844-0.36328-0.089844s-0.25 0.03125-0.36328 0.089844l-2.8789 1.5117 0.55078-3.207c0.042968-0.25391-0.039063-0.51172-0.22266-0.69141l-2.3281-2.2695 3.2188-0.46875c0.25-0.035157 0.46875-0.19531 0.58203-0.42578z" fill="#541875"/>
 <path d="m63.496 51.039c0.70312-0.76172 1.5-1.6211 1.5-2.7383 0-1.1172-0.79688-1.9805-1.5-2.7383-0.42188-0.45703-0.85938-0.92969-0.98828-1.3242-0.14062-0.42969-0.0625-1.0938 0.007813-1.7305 0.11719-1.0078 0.24609-2.1523-0.38672-3.0195-0.64062-0.875-1.7734-1.1055-2.7734-1.3047-0.625-0.125-1.2734-0.25781-1.6328-0.51562-0.35156-0.25391-0.66797-0.82422-0.97656-1.375-0.50391-0.89844-1.0703-1.9141-2.1172-2.25-0.22266-0.074219-0.46484-0.10938-0.71094-0.10938-0.76953 0-1.5195 0.34375-2.2422 0.67188-0.59375 0.27344-1.2109 0.55078-1.6797 0.55078s-1.0859-0.28125-1.6797-0.55078c-0.72656-0.33203-1.4766-0.67188-2.2422-0.67188-0.25 0-0.48828 0.035156-0.71094 0.10938-1.0469 0.33984-1.6133 1.3555-2.1172 2.25-0.30859 0.55078-0.62891 1.1211-0.97656 1.375-0.35938 0.26172-1.0039 0.39062-1.6289 0.51562-1 0.20312-2.1328 0.42969-2.7734 1.3086-0.63281 0.86719-0.5 2.0117-0.38672 3.0195 0.074219 0.64062 0.14844 1.3008 0.007812 1.7305-0.12891 0.39844-0.56641 0.87109-0.98828 1.3242-0.70312 0.75781-1.5 1.6211-1.5 2.7383 0 1.1172 0.79688 1.9805 1.5 2.7383 0.42188 0.45703 0.85938 0.92969 0.98828 1.3242 0.14062 0.42969 0.0625 1.0938-0.007812 1.7305-0.11719 1.0078-0.24609 2.1523 0.38672 3.0195 0.64062 0.87891 1.7734 1.1055 2.7734 1.3086 0.625 0.125 1.2734 0.25781 1.6289 0.51562 0.13281 0.097656 0.26172 0.23828 0.38672 0.40625l-4.4141 12.121c-0.10938 0.30078-0.023438 0.63672 0.21484 0.85156 0.23828 0.21484 0.58203 0.25781 0.87109 0.11719l4.1484-2.0781 1.8438 4.2578c0.125 0.28516 0.40625 0.47266 0.71875 0.47266h0.023438c0.32031-0.007813 0.60156-0.21484 0.71094-0.51562l3.2266-8.8828 3.2305 8.8789c0.10938 0.30078 0.39062 0.50391 0.71094 0.51563h0.023438c0.3125 0 0.59375-0.18359 0.71875-0.47266l1.8438-4.2578 4.1484 2.0781c0.11328 0.054687 0.23047 0.078125 0.35547 0.082031 0.42969 0 0.78125-0.35156 0.78125-0.78125 0-0.12109-0.027344-0.23438-0.078125-0.33984l-4.3867-12.051c0.125-0.16797 0.25391-0.3125 0.38672-0.40625 0.35938-0.26172 1.0039-0.39062 1.6289-0.51562 1-0.20312 2.1328-0.42969 2.7734-1.3086 0.63281-0.87109 0.5-2.0117 0.38672-3.0195-0.074219-0.64062-0.14844-1.3008-0.007813-1.7305 0.125-0.39453 0.55859-0.86719 0.98047-1.3242zm-2.5312 3.2344c0.085937 0.76172 0.17578 1.5469-0.097656 1.9219-0.28125 0.38672-1.0625 0.54297-1.8164 0.69531-0.78906 0.16016-1.6055 0.32422-2.2422 0.78516-0.625 0.45703-1.0312 1.1758-1.4219 1.875-0.37891 0.67969-0.77344 1.3789-1.2383 1.5312-0.070313 0.023438-0.14453 0.03125-0.23047 0.03125-0.42969 0-1.0234-0.26953-1.5938-0.53125-0.74609-0.33984-1.5195-0.69531-2.3281-0.69531s-1.582 0.35156-2.3281 0.69531c-0.6875 0.3125-1.4141 0.63281-1.8242 0.5-0.46484-0.15234-0.85938-0.85156-1.2383-1.5312-0.39062-0.69531-0.79688-1.418-1.4219-1.875-0.63281-0.46094-1.4492-0.625-2.2422-0.78516-0.75781-0.15234-1.5391-0.30859-1.8164-0.69531-0.27344-0.37891-0.18359-1.1641-0.097656-1.9219 0.09375-0.80469 0.1875-1.6367-0.058594-2.3906-0.23438-0.72266-0.78906-1.3242-1.3281-1.9023-0.53125-0.57812-1.082-1.1719-1.082-1.6797 0-0.50781 0.55078-1.1016 1.082-1.6797 0.53516-0.57812 1.0898-1.1797 1.3281-1.9023 0.24609-0.75391 0.14844-1.5859 0.058594-2.3906-0.085938-0.76172-0.17578-1.5469 0.097656-1.9219 0.28125-0.38672 1.0625-0.54297 1.8164-0.69531 0.78906-0.16016 1.6094-0.32422 2.2422-0.78516 0.625-0.45703 1.0312-1.1758 1.4219-1.875 0.37891-0.67969 0.77344-1.3789 1.2383-1.5312 0.070312-0.023437 0.14453-0.03125 0.23047-0.03125 0.42969 0 1.0234 0.26953 1.5938 0.53125 0.74609 0.33984 1.5195 0.69141 2.3281 0.69141s1.582-0.35156 2.3281-0.69531c0.6875-0.3125 1.4141-0.63281 1.8242-0.5 0.46484 0.15234 0.85547 0.85156 1.2383 1.5312 0.39062 0.69531 0.79688 1.418 1.4219 1.875 0.63281 0.46094 1.4531 0.625 2.2422 0.78516 0.75391 0.15234 1.5352 0.30859 1.8164 0.69531 0.27344 0.37891 0.18359 1.1641 0.097656 1.9219-0.09375 0.80469-0.1875 1.6367 0.058594 2.3906 0.23437 0.72266 0.78906 1.3242 1.3281 1.9023 0.53125 0.57812 1.082 1.1719 1.082 1.6797s-0.55078 1.1016-1.082 1.6797c-0.53516 0.57813-1.0898 1.1797-1.3281 1.9023-0.24219 0.75781-0.14844 1.5898-0.058594 2.3945zm-4.4805 14.316c-0.19141-0.097656-0.41406-0.10938-0.61719-0.035156-0.20313 0.074218-0.36328 0.22656-0.44922 0.42578l-1.3906 3.2148-3.1953-8.7852 0.55859-1.5352c0.097656 0.042969 0.19141 0.085938 0.28906 0.12891 0.72656 0.33203 1.4727 0.67188 2.2422 0.67188 0.25 0 0.48828-0.035156 0.71094-0.10938 0.75391-0.24609 1.2617-0.84375 1.6758-1.4961l3.3086 9.0859zm-11.902 0.39062c-0.085937-0.19531-0.25-0.35156-0.44922-0.42578-0.085937-0.03125-0.17578-0.046876-0.26562-0.046876-0.12109 0-0.24219 0.027344-0.35156 0.082032l-3.1328 1.5664 3.3086-9.0859c0.41406 0.65234 0.91797 1.25 1.6758 1.4961 0.22266 0.074219 0.46484 0.10938 0.71094 0.10938 0.76953 0 1.5195-0.34375 2.2422-0.67188 0.54688-0.25 1.1055-0.50391 1.5586-0.54297l-3.9062 10.734z" fill="#541875"/>
 <path d="m50 37c-6.2305 0-11.301 5.0703-11.301 11.301s5.0703 11.301 11.301 11.301 11.301-5.0703 11.301-11.301-5.0703-11.301-11.301-11.301zm0 1.5625c5.3711 0 9.7383 4.3672 9.7383 9.7383 0 5.3711-4.3672 9.7383-9.7383 9.7383s-9.7383-4.3672-9.7383-9.7383c0-5.3711 4.3672-9.7383 9.7383-9.7383z" fill="#541875"/>
 <path d="m47.609 53.625c0.34766 0.34766 0.8125 0.53906 1.3047 0.53906 0.050782 0 0.10156 0 0.15234-0.007812 0.53906-0.046875 1.0312-0.32422 1.3477-0.76562l5.7422-8.043c0.28516-0.40234 0.39844-0.89062 0.32031-1.375-0.082031-0.48438-0.34766-0.91016-0.74609-1.1992-0.31641-0.22266-0.68359-0.34375-1.0703-0.34375-0.59375 0-1.1562 0.28906-1.5 0.77344l-4.4766 6.2695-2.0234-2.0273c-0.34766-0.34766-0.8125-0.53906-1.3047-0.53906-0.49219 0-0.95703 0.19141-1.3047 0.53906-0.71875 0.71875-0.71875 1.8867 0 2.6094zm-2.4609-5.0664c0.070312-0.070313 0.15625-0.082032 0.19922-0.082032 0.042969 0 0.12891 0.011719 0.19922 0.082032l2.6758 2.6797c0.16406 0.16406 0.38672 0.24219 0.61719 0.22656 0.23047-0.019532 0.4375-0.13672 0.57031-0.32422l5.0156-7.0234c0.074219-0.10547 0.1875-0.11719 0.23047-0.11719 0.058594 0 0.11328 0.015625 0.16406 0.050781 0.082032 0.058594 0.10547 0.14062 0.11328 0.18359 0.007812 0.042969 0.011718 0.125-0.046875 0.21094l-5.7422 8.043c-0.046875 0.066407-0.125 0.10938-0.20703 0.11719h-0.023438c-0.074218 0-0.14453-0.03125-0.19922-0.082031l-3.5664-3.5625c-0.10938-0.11328-0.10938-0.29297 0-0.40234z" fill="#541875"/>
</svg>
