<?xml version="1.0" encoding="UTF-8"?>
<svg width="100pt" height="100pt" version="1.1" viewBox="0 0 100 100" xmlns="http://www.w3.org/2000/svg">
 <path d="m84.859 34.57c1.3398-3.3711 1.6719-7.1094 0.92969-10.68-0.85156-4.0703-3.0703-7.75-6.2383-10.359-3.2109-2.6406-7.25-4.1719-11.379-4.3086-4.0508-0.12891-7.8984 1.0391-11.211 3.4102-2.4883-4.3711-6.4414-7.6797-11.238-9.3906-5.1641-1.8438-10.734-1.6328-15.691 0.58594-4.5 2.0195-8.1797 5.6016-10.359 10.078-2.0586 4.25-2.6289 9.0703-1.6211 13.68-9.082 1.2031-16.051 9.043-16.051 18.336 0 10.199 8.3008 18.5 18.5 18.5h2.9609c-0.48047 2.0195-0.73828 4.1289-0.73828 6.3008-0.003906 15.039 12.238 27.277 27.277 27.277s27.281-12.238 27.281-27.281c0-2.1719-0.26172-4.2695-0.73828-6.3008h7.8516c7.6289 0 13.602-6.2812 13.609-14.289-0.003906-8.0703-5.6641-14.629-13.145-15.559zm-34.859 61.469c-13.961 0-25.32-11.359-25.32-25.32s11.359-25.32 25.32-25.32 25.32 11.359 25.32 25.32-11.359 25.32-25.32 25.32zm-19.441-49.438-4.6719 4.6719c-0.51953 0.51953-1.3711 0.51953-1.8906 0-0.25-0.25-0.39062-0.58984-0.39062-0.94141 0-0.35938 0.14062-0.69141 0.39062-0.94141l4.6719-4.6719c0.25-0.25 0.58984-0.39062 0.94141-0.39062 0.35938 0 0.69141 0.14062 0.94141 0.39062s0.39062 0.58984 0.39062 0.94141c0 0.35156-0.13281 0.69141-0.38281 0.94141zm-0.23047 3 1.1289 1.1289c-0.5 0.46094-0.98047 0.94922-1.4492 1.4492l-1.1289-1.1289zm15.371-11.023c-1.1211 0-2.0312-0.91016-2.0312-2.0312s0.91016-2.0312 2.0312-2.0312h8.6016c1.1211 0 2.0312 0.91016 2.0312 2.0312s-0.91016 2.0312-2.0312 2.0312zm5.9297 1.9609v2.9414c-0.53906-0.03125-1.0781-0.050781-1.6289-0.050781s-1.0898 0.019531-1.6289 0.050781v-2.9414zm17.812 6.0625c-0.25-0.25-0.39062-0.58984-0.39062-0.94141 0-0.35938 0.14062-0.69141 0.39062-0.94141s0.58984-0.39062 0.94141-0.39062c0.35938 0 0.69141 0.14062 0.94141 0.39062l4.6758 4.6602c0.51953 0.51953 0.51953 1.3711 0 1.8906s-1.3711 0.51953-1.8906 0zm1.6797 4.4492-1.1289 1.1289c-0.46094-0.5-0.94922-0.98047-1.4492-1.4492l1.1289-1.1289zm13.27 11.41h-8.3906c-1.0312-3.2383-2.6484-6.2109-4.7305-8.8008l1.2305-1.2305 0.23047 0.23047c0.64062 0.64062 1.4883 0.96094 2.3281 0.96094s1.6914-0.32031 2.3281-0.96094c1.2812-1.2812 1.2812-3.3711 0-4.6602l-4.6719-4.6719c-0.62109-0.62109-1.4492-0.96094-2.3281-0.96094-0.87891 0-1.7109 0.33984-2.3281 0.96094-0.62109 0.62109-0.96094 1.4492-0.96094 2.3281s0.33984 1.7109 0.96094 2.3281l0.23047 0.23047-1.2305 1.2305c-3.7891-3.0508-8.4219-5.1016-13.469-5.7695v-3.1289h0.71094c2.1992 0 3.9883-1.7891 3.9883-3.9883 0-2.1992-1.7891-3.9883-3.9883-3.9883h-8.6016c-2.1992 0-3.9883 1.7891-3.9883 3.9883 0 2.1992 1.7891 3.9883 3.9883 3.9883h0.71094v3.1289c-5.0508 0.67188-9.6797 2.7188-13.469 5.7695l-1.2305-1.2305 0.23047-0.23047c0.62109-0.62109 0.96094-1.4492 0.96094-2.3281s-0.33984-1.7109-0.96094-2.3281c-0.62109-0.62109-1.4492-0.96094-2.3281-0.96094-0.87891 0-1.7109 0.33984-2.3281 0.96094l-4.6758 4.6719c-0.62109 0.62109-0.96094 1.4492-0.96094 2.3281s0.33984 1.7109 0.96094 2.3281c0.64062 0.64062 1.4883 0.96094 2.3281 0.96094s1.6914-0.32031 2.3281-0.96094l0.23047-0.23047 1.2305 1.2305c-2.0781 2.5898-3.6992 5.5586-4.7305 8.8008h-3.5c-9.1211 0-16.539-7.4219-16.539-16.539 0-8.6602 6.7617-15.898 15.391-16.5 0.28906-0.019531 0.55859-0.17188 0.73047-0.41016 0.17188-0.23828 0.21875-0.53906 0.14062-0.82812-2.5-9.0391 2.0586-18.738 10.609-22.57 9.3789-4.1992 20.32-0.28125 24.922 8.9297 0.12891 0.26953 0.37891 0.46094 0.67188 0.51953 0.28906 0.058594 0.58984-0.011719 0.82031-0.19922 6.1797-5.0195 14.828-4.9492 21.039 0.17188 5.8008 4.7695 7.5703 13.172 4.2305 19.969-0.14844 0.30078-0.12891 0.64844 0.039062 0.94141 0.17188 0.28906 0.48047 0.46094 0.80859 0.46875 7.1094 0.17969 12.672 6.1992 12.672 13.711 0 6.918-5.1094 12.34-11.641 12.34zm-34.391-13.441c-11.961 0-21.691 9.7305-21.691 21.691 0 11.961 9.7305 21.691 21.691 21.691s21.691-9.7305 21.691-21.691c0-11.961-9.7305-21.691-21.691-21.691zm18.961 22.68h0.73047c-0.23047 4.6992-2.1094 8.9688-5.0781 12.238l-0.51172-0.51172c-0.37891-0.37891-1-0.37891-1.3906 0-0.37891 0.37891-0.37891 1 0 1.3906l0.51172 0.51172c-3.2812 2.9688-7.5391 4.8398-12.238 5.0781v-0.73047c0-0.53906-0.44141-0.98047-0.98047-0.98047-0.53906 0-0.98047 0.44141-0.98047 0.98047v0.73047c-4.6992-0.23047-8.9688-2.1094-12.238-5.0781l0.51172-0.51172c0.37891-0.37891 0.37891-1 0-1.3906-0.37891-0.37891-1-0.37891-1.3906 0l-0.51172 0.51172c-2.9688-3.2812-4.8398-7.5391-5.0781-12.238h0.73047c0.53906 0 0.98047-0.44141 0.98047-0.98047s-0.44141-0.98047-0.98047-0.98047h-0.73047c0.23047-4.6992 2.1094-8.9688 5.0781-12.238l0.50391 0.5c0.19141 0.19141 0.44141 0.28906 0.69141 0.28906s0.5-0.10156 0.69141-0.28906c0.37891-0.37891 0.37891-1 0-1.3906l-0.51172-0.51172c3.2812-2.9688 7.5391-4.8398 12.238-5.0781v0.73047c0 0.53906 0.44141 0.98047 0.98047 0.98047 0.53906 0 0.98047-0.44141 0.98047-0.98047v-0.73047c4.6992 0.23047 8.9688 2.1094 12.238 5.0781l-0.51172 0.51172c-0.37891 0.37891-0.37891 1 0 1.3906 0.19141 0.19141 0.44141 0.28906 0.69141 0.28906s0.5-0.10156 0.69141-0.28906l0.51172-0.51172c2.9688 3.2812 4.8398 7.5391 5.0781 12.238h-0.73047c-0.53906 0-0.98047 0.44141-0.98047 0.98047 0.023438 0.55469 0.46484 0.99219 1.0039 0.99219zm-17.98-3.918v-12.02c0-0.53906-0.44141-0.98047-0.98047-0.98047s-0.98047 0.44141-0.98047 0.98047v12.02c-1.2305 0.41016-2.1289 1.5703-2.1289 2.9414 0 1.7109 1.3984 3.1094 3.1094 3.1094s3.1094-1.3984 3.1094-3.1094c0-1.3711-0.89844-2.5312-2.1289-2.9414zm-0.98047 4.0898c-0.62891 0-1.1484-0.51953-1.1484-1.1484s0.51953-1.1484 1.1484-1.1484 1.1484 0.51953 1.1484 1.1484-0.51953 1.1484-1.1484 1.1484z" fill="#541875"/>
</svg>
