<?xml version="1.0" encoding="UTF-8"?>
<svg width="100pt" height="100pt" version="1.1" viewBox="0 0 100 100" xmlns="http://www.w3.org/2000/svg">
 <path d="m52.469 77.488c0 0.51953-0.42188 0.94141-0.94141 0.94141h-27.039c-0.51953 0-0.94141-0.42188-0.94141-0.94141s0.42188-0.94141 0.94141-0.94141h27.039c0.52344 0.003906 0.94141 0.42188 0.94141 0.94141zm9.6523-7.0977h-37.633c-0.51953 0-0.94141 0.42188-0.94141 0.94141s0.42188 0.94141 0.94141 0.94141h37.621c0.51953 0 0.94141-0.42188 0.94141-0.94141 0-0.52344-0.42188-0.94141-0.92969-0.94141zm-36.68-17.57c0 0.51953 0.42188 0.94141 0.94141 0.94141h35.738c0.51953 0 0.94141-0.42188 0.94141-0.94141 0-0.51953-0.42188-0.94141-0.94141-0.94141h-35.742c-0.51953 0-0.9375 0.42188-0.9375 0.94141zm36.68 5.2305h-37.633c-0.51953 0-0.94141 0.42188-0.94141 0.94141 0 0.51953 0.42188 0.94141 0.94141 0.94141h37.621c0.51953 0 0.94141-0.42188 0.94141-0.94141 0-0.52344-0.42188-0.94141-0.92969-0.94141zm0 6.168h-37.633c-0.51953 0-0.94141 0.42188-0.94141 0.94141 0 0.51953 0.42188 0.94141 0.94141 0.94141h37.621c0.51953 0 0.94141-0.42187 0.94141-0.94141 0-0.51953-0.42188-0.94141-0.92969-0.94141zm-28.973-26.859c0-5.6016 4.5586-10.16 10.16-10.16 5.6016 0 10.16 4.5586 10.16 10.16s-4.5586 10.16-10.16 10.16c-5.6094 0-10.16-4.5586-10.16-10.16zm1.8711 0c0 4.5703 3.7188 8.2812 8.2812 8.2812 4.5703 0 8.2812-3.7188 8.2812-8.2812 0-4.5703-3.7188-8.2812-8.2812-8.2812-4.5625-0.007813-8.2812 3.7109-8.2812 8.2812zm5.5586 3.7617c0.03125 0 0.070313 0.011718 0.10156 0.011718 0.21875 0 0.42969-0.078124 0.60156-0.21875l6.7695-5.6719c0.39844-0.32813 0.44922-0.92188 0.12109-1.3203s-0.92188-0.44922-1.3203-0.12109l-6.0117 5.0391-2.0898-2.7305c-0.30859-0.41016-0.89844-0.48828-1.3203-0.17969-0.41016 0.30859-0.48828 0.89844-0.17969 1.3203l2.6797 3.5117c0.17187 0.19922 0.39844 0.32812 0.64844 0.35938zm48.852 48.41c0 1.3594-1.1094 2.4609-2.4609 2.4609h-0.17188v1.5391c0 1.3594-1.1094 2.4609-2.4609 2.4609l-19.656-0.003907c-1.3594 0-2.4609-1.1094-2.4609-2.4609v-1.5273h-0.17188c-1 0-1.8516-0.60156-2.2383-1.4492h-42.129c-3.9219 0-7.1094-3.1914-7.1094-7.1094v-64.398c0-3.9219 3.1914-7.1094 7.1094-7.1094h11.398c0.42188-1.5195 1.7891-2.6484 3.4414-2.6484h4.6289c0.46094-2.9844 3.0508-5.2852 6.1602-5.2852 3.1016 0 5.6914 2.3008 6.1406 5.2812h4.6289c1.6484 0 3.0312 1.1289 3.4414 2.6484h11.398c3.9219 0 7.1094 3.1914 7.1094 7.1094v33.629c1.6719 0.30859 3.1797 1.1016 4.3516 2.3281 1.6602 1.7383 2.5586 4.2188 2.4492 6.8203-0.10938 2.6484-1.1797 4.3008-2.0391 5.6289-0.16016 0.23828-0.30859 0.48047-0.44141 0.69922-0.12891 1.0898-0.78125 7.2188-1.1016 10.699h0.03125c2.1992 0 3.9883 1.7891 3.9883 3.9883v1.1797h0.64844c3.0352 0.007812 5.5156 2.4766 5.5156 5.5195zm-10.148-8.8125h-9.5508c-1.1602 0-2.1094 0.94922-2.1094 2.1094v1.1797h13.781v-1.1797c-0.011719-1.1562-0.96094-2.1094-2.1211-2.1094zm-0.24219-24.418c-1.1914-1.2383-2.7617-1.8984-4.5312-1.8984-1.7695 0-3.3398 0.66016-4.5312 1.8984-1.3086 1.3711-2.0117 3.3516-1.9297 5.4414 0.089844 2.1406 0.92969 3.4414 1.7383 4.6914 0.21094 0.32031 0.39844 0.62109 0.57812 0.94141 0.12891 0.21875 0.12891 0.21875 0.64062 5.1211 0.14062 1.3008 0.44141 4.2695 0.62891 6.3594h5.7305c0.19141-2.0898 0.5-5.0586 0.62891-6.3594 0.51172-4.8984 0.51172-4.8984 0.64062-5.1211 0.17969-0.30859 0.37891-0.62109 0.57813-0.94141 0.80859-1.25 1.6484-2.5508 1.7383-4.6914 0.10156-2.0938-0.59766-4.0703-1.9102-5.4414zm-10.109-42.5h-11.258v2.3594h10.551c1.9805 0 3.5781 1.6094 3.5781 3.5781v33.23c0.75-0.26172 1.5391-0.39844 2.3594-0.42969v-33.5c0-2.8906-2.3516-5.2383-5.2305-5.2383zm-38.109 3.8086c0 0.94141 0.76953 1.7109 1.7109 1.7109h21.551c0.94141 0 1.7109-0.76953 1.7109-1.7109v-4.7383c0-0.94141-0.76953-1.7109-1.7109-1.7109h-5.5c-0.51953 0-0.94141-0.42188-0.94141-0.94141 0-2.3906-1.9492-4.3398-4.3398-4.3398s-4.3398 1.9492-4.3398 4.3398c0 0.51953-0.42188 0.94141-0.94141 0.94141h-5.5c-0.94141 0-1.7109 0.76953-1.7109 1.7109v4.7383zm-1.832 0.42969h-10.602c-0.94141 0-1.7109 0.76953-1.7109 1.7109v62.98c0 0.94141 0.76953 1.7109 1.7109 1.7109h44.602c0.64844-0.26953 1.3594-0.42188 2.1016-0.42188h0.64844v-1.1797c0-2.1992 1.7891-3.9883 3.9883-3.9883h0.03125c-0.32031-3.4805-0.96875-9.6094-1.1016-10.699-0.14062-0.21875-0.28906-0.46094-0.44141-0.69922-0.85938-1.3281-1.9297-2.9805-2.0391-5.6289-0.10938-2.5898 0.78125-5.0781 2.4492-6.8203 0.39844-0.42188 0.83984-0.78906 1.3203-1.1016l0.003907-34.164c0-0.94141-0.76953-1.7109-1.7109-1.7109h-10.602c-0.21875 1.7695-1.7109 3.1484-3.5391 3.1484l-21.566 0.003907c-1.832 0.011718-3.332-1.3711-3.543-3.1406zm-11.309 70.633h41.969c0.14062-0.87109 0.48047-1.6719 0.96875-2.3594l-42.227-0.003906c-1.9805 0-3.5781-1.6094-3.5781-3.5781l-0.003906-62.992c0-1.9805 1.6094-3.5781 3.5781-3.5781h10.551l0.003906-2.3594h-11.262c-2.8906 0-5.2305 2.3516-5.2305 5.2305v64.398c0 2.8906 2.3516 5.2422 5.2305 5.2422zm67.23 3.3281h-20.82v1.5391c0 0.32031 0.26172 0.58984 0.58984 0.58984h19.648c0.32031 0 0.58984-0.26172 0.58984-0.58984l0.003906-1.5391zm2.6406-2.4688c0-2.0117-1.6289-3.6406-3.6406-3.6406h-18.82c-2.0117 0-3.6406 1.6289-3.6406 3.6406 0 0.32031 0.26172 0.58984 0.58984 0.58984h24.922c0.32812 0 0.58984-0.26172 0.58984-0.58984zm-44.242-77.793c0.83984 0 1.5195-0.67969 1.5195-1.5195s-0.67969-1.5195-1.5195-1.5195-1.5195 0.67969-1.5195 1.5195 0.67969 1.5195 1.5195 1.5195z" fill="#541875" fill-rule="evenodd"/>
</svg>
