<?xml version="1.0" encoding="UTF-8"?>
<svg width="100pt" height="100pt" version="1.1" viewBox="0 0 100 100" xmlns="http://www.w3.org/2000/svg">
 <path d="m78.027 80.141c0 0.57031-0.46094 1.0312-1.0312 1.0312-0.57031 0-1.0312-0.46094-1.0312-1.0312v-9.4336c0-0.57031 0.46094-1.0312 1.0312-1.0312 0.57031 0 1.0312 0.46094 1.0312 1.0312zm0 3.7656c0 0.57031-0.46094 1.0312-1.0312 1.0312-0.57031 0-1.0312-0.46094-1.0312-1.0312s0.46094-1.0312 1.0312-1.0312c0.57031 0 1.0312 0.46094 1.0312 1.0312zm-5.6211-51.23c1.1562-1.1836 2.7617-1.9258 4.5469-1.9492 1.7852-0.023437 3.4062 0.67969 4.5898 1.8359 1.1836 1.1562 1.9258 2.7617 1.9492 4.5469 0.023437 1.7852-0.67969 3.4062-1.8359 4.5898-1.1562 1.1836-2.7617 1.9258-4.5469 1.9492-1.7852 0.023437-3.4062-0.67969-4.5898-1.8359-1.1836-1.1562-1.9258-2.7617-1.9492-4.5469-0.023437-1.7852 0.67969-3.4062 1.8359-4.5898zm4.5703 0.10156c-1.2148 0.015625-2.3086 0.52344-3.0977 1.3281-0.78906 0.80859-1.2695 1.918-1.2539 3.1328 0.015625 1.2148 0.52344 2.3086 1.3281 3.0977 0.80859 0.78906 1.918 1.2695 3.1328 1.2539 1.2148-0.015625 2.3086-0.52344 3.0977-1.3281 0.78906-0.80859 1.2695-1.918 1.2539-3.1328s-0.52344-2.3086-1.3281-3.0977c-0.80859-0.78906-1.918-1.2695-3.1328-1.2539zm-15.832 36.141c0.56641 0 1.0273 0.46094 1.0273 1.0273 0 0.56641-0.46094 1.0273-1.0273 1.0273l-28.23-0.019531c-0.56641 0-1.0273-0.46094-1.0273-1.0273 0-0.56641 0.46094-1.0273 1.0273-1.0273zm-28.23-5.3203c-0.56641 0-1.0273-0.46094-1.0273-1.0273 0-0.56641 0.46094-1.0273 1.0273-1.0273l28.23 0.019531c0.56641 0 1.0273 0.46094 1.0273 1.0273s-0.46094 1.0273-1.0273 1.0273zm-4.6289-1.9844 0.20312-0.17188c0.43359-0.36328 1.082-0.30859 1.4453 0.125 0.36328 0.43359 0.30859 1.082-0.125 1.4453l-1.5234 1.2812v7.2891c0 0.57031-0.46094 1.0312-1.0312 1.0312h-10.676c-0.57031 0-1.0312-0.46094-1.0312-1.0312v-10.676c0-0.57031 0.46094-1.0312 1.0312-1.0312h10.676c0.57031 0 1.0312 0.46094 1.0312 1.0312zm-9.4961 4.5312c-0.44141-0.35156-0.51562-1-0.16016-1.4414 0.35156-0.44141 1-0.51562 1.4414-0.16016l2.4336 1.9453 3.7227-3.1367v-1.4102h-8.6133v8.6133h8.6133v-4.5234l-3.0469 2.5664c-0.36719 0.30859-0.91016 0.32812-1.3008 0.015625l-3.0898-2.4727zm42.355-14.738c0.56641 0 1.0273 0.46094 1.0273 1.0273s-0.46094 1.0273-1.0273 1.0273l-28.23-0.019532c-0.56641 0-1.0273-0.46094-1.0273-1.0273 0-0.56641 0.46094-1.0273 1.0273-1.0273zm-28.23-5.3242c-0.56641 0-1.0273-0.46094-1.0273-1.0273 0-0.56641 0.46094-1.0273 1.0273-1.0273l28.23 0.019531c0.56641 0 1.0273 0.46094 1.0273 1.0273 0 0.56641-0.46094 1.0273-1.0273 1.0273zm-4.6289-1.9805 0.20312-0.17187c0.43359-0.36328 1.082-0.30859 1.4453 0.125 0.36328 0.43359 0.30859 1.082-0.125 1.4453l-1.5234 1.2812v7.2891c0 0.57031-0.46094 1.0312-1.0312 1.0312h-10.676c-0.57031 0-1.0312-0.46094-1.0312-1.0312v-10.676c0-0.57031 0.46094-1.0312 1.0312-1.0312h10.676c0.57031 0 1.0312 0.46094 1.0312 1.0312zm-9.4961 4.5273c-0.44141-0.35156-0.51562-1-0.16016-1.4414 0.35156-0.44141 1-0.51562 1.4414-0.16016l2.4336 1.9453 3.7227-3.1367v-1.4102h-8.6133v8.6133h8.6133v-4.5234l-3.0469 2.5664c-0.36719 0.30859-0.91016 0.32812-1.3008 0.015625l-3.0898-2.4727zm14.125-20.059c-0.56641 0-1.0273-0.46094-1.0273-1.0273 0-0.56641 0.46094-1.0273 1.0273-1.0273l28.23 0.019531c0.56641 0 1.0273 0.46094 1.0273 1.0273s-0.46094 1.0273-1.0273 1.0273zm-4.6289-1.9805 0.20312-0.17188c0.43359-0.36328 1.082-0.30859 1.4453 0.125 0.36328 0.43359 0.30859 1.082-0.125 1.4453l-1.5234 1.2812v7.2891c0 0.57031-0.46094 1.0312-1.0312 1.0312h-10.676c-0.57031 0-1.0312-0.46094-1.0312-1.0312v-10.676c0-0.57031 0.46094-1.0312 1.0312-1.0312h10.676c0.57031 0 1.0312 0.46094 1.0312 1.0312zm-9.4961 4.5273c-0.44141-0.35156-0.51562-1-0.16016-1.4414 0.35156-0.44141 1-0.51562 1.4414-0.16016l2.4336 1.9453 3.7227-3.1367v-1.4102h-8.6133v8.6133h8.6133v-4.5234l-3.0469 2.5664c-0.36719 0.30859-0.91016 0.32813-1.3008 0.015626l-3.0898-2.4727zm52.199 39.254c-0.019531 0.042968-0.046875 0.085937-0.074219 0.125l-7.8867 13.656h-0.003906c-0.22656 0.39453-0.34375 0.82031-0.34375 1.2461 0 0.32031 0.066406 0.64453 0.19531 0.95312 0.023438 0.046876 0.046875 0.09375 0.0625 0.14063 0.019531 0.035156 0.035156 0.070312 0.054688 0.10547l0.027343 0.046875c0.23438 0.40234 0.54297 0.71875 0.90234 0.92578 0.35938 0.20703 0.78906 0.32031 1.2578 0.32031h23.609c0.46875 0 0.89453-0.10938 1.2578-0.32031 0.35938-0.21094 0.67188-0.52344 0.90234-0.92578 0.23047-0.39844 0.34375-0.82031 0.34375-1.2461 0-0.42578-0.11328-0.85156-0.34375-1.25l-5.8711-10.168c-0.011719-0.015625-0.023437-0.035157-0.03125-0.054688l-5.9023-10.223c-0.23438-0.40234-0.54297-0.71875-0.90234-0.92578-0.35938-0.20703-0.78906-0.32031-1.2578-0.32031-0.44922 0-0.85938 0.10156-1.2109 0.29297l-0.042969 0.027344c-0.36328 0.21094-0.67578 0.52344-0.90625 0.92578l-3.8477 6.6641zm-1.957-51.164h-11.113c-0.57031 0-1.0312-0.46094-1.0312-1.0312l-0.003907-11.113h-48.188v78.758h51.949c-0.015625-0.14062-0.019531-0.28125-0.019531-0.42187 0-0.77344 0.21094-1.5508 0.625-2.2734l0.003906-0.003906h-0.003906l7.7773-13.477v-19.16c-0.36719 0.11328-0.77734 0.007813-1.0469-0.27734l-3.9258-3.8281c-0.35547-0.34766-0.40625-0.89062-0.14844-1.293l1.4375-2.2305c-0.10938-0.22656-0.21094-0.44922-0.30469-0.67578-0.09375-0.22266-0.17969-0.44922-0.26172-0.67578l-2.5195-0.47656c-0.50781-0.09375-0.85937-0.55078-0.83984-1.0508l-0.050781-4.0625c-0.074219 0.015626-0.14844 0.023438-0.22656 0.023438l-28.23-0.019531c-0.56641 0-1.0273-0.46094-1.0273-1.0273s0.46094-1.0273 1.0273-1.0273l28.23 0.019531c0.12891 0 0.25 0.023438 0.36328 0.066407 0.14453-0.23438 0.38281-0.40234 0.66016-0.46094v-0.003906s2.5859-0.55859 2.5859-0.55859c0.078125-0.23047 0.16797-0.46094 0.26172-0.6875 0.09375-0.22656 0.19141-0.44531 0.29297-0.66406l-1.4453-2.125c-0.28906-0.42188-0.21875-0.98438 0.14062-1.3242l3.8281-3.9258c0.32031-0.32812 0.80859-0.39844 1.1953-0.20312v-4.8047zm-10.086-10.688 8.6289 8.6289h-8.6289zm-43.371 79.359h45.801c0.39844 0.62109 0.92188 1.1172 1.5352 1.4688 0.67969 0.39062 1.4531 0.60156 2.2773 0.60156h10.719v2.9883h-60.332zm60.336-27.355c-0.39844 0.09375-0.77734 0.24219-1.1328 0.44141-0.023438 0.011718-0.042969 0.023437-0.066406 0.035156-0.67578 0.39062-1.2422 0.95703-1.6562 1.6758l-1.9648 3.4023v-16.938l0.34375-0.23438c0.21484 0.10156 0.4375 0.19922 0.66406 0.29297 0.22656 0.09375 0.45703 0.17969 0.6875 0.26172l0.55859 2.5859h0.003906c0.097656 0.46875 0.51953 0.82031 1.0156 0.8125l1.5469-0.019531zm0-38.969-1.6758 0.019531c-0.50391-0.019531-0.95703 0.32812-1.0508 0.83984l-0.47656 2.5195c-0.22656 0.078125-0.45312 0.16797-0.67578 0.26172-0.22656 0.09375-0.44922 0.19531-0.67578 0.30469l-0.26172-0.16797v-7.1562c0-0.26562-0.10156-0.52734-0.30078-0.73047l-3.2656-3.2656h8.3867v7.3711zm1.1328 2.0391c-0.035157 0.003906-0.070313 0.003906-0.10547 0.003906-0.027344 0-0.050781 0-0.078125-0.003906l-1.8164 0.023438-0.42578 2.2422c-0.054688 0.38672-0.32813 0.72656-0.72656 0.84766-0.36719 0.10938-0.72656 0.23828-1.0742 0.38672-0.34375 0.14453-0.66797 0.29688-0.97656 0.46484-0.32812 0.20312-0.75391 0.21484-1.1016-0.007813l-1.1797-0.76172c-0.039063-0.023437-0.074219-0.046874-0.10938-0.070312l-0.73047-0.47266-2.6836 2.75 1.3047 1.9141c0.21875 0.30859 0.25781 0.72656 0.066406 1.082-0.18359 0.34375-0.35156 0.6875-0.49219 1.0352-0.13672 0.33594-0.26172 0.67969-0.36719 1.0391-0.09375 0.37109-0.38672 0.67188-0.78516 0.75781l-2.3477 0.50781 0.046876 3.8398 2.2461 0.42578c0.38672 0.054688 0.72656 0.32812 0.84766 0.72656 0.10937 0.36719 0.23828 0.72656 0.38281 1.0742 0.14453 0.33984 0.29688 0.66797 0.46484 0.97656 0.20312 0.32812 0.21484 0.75391-0.007813 1.1016l-1.3047 2.0234 2.75 2.6836 0.57812-0.39453c0.035156-0.027343 0.074219-0.054687 0.11328-0.078124l1.2227-0.83203c0.30859-0.21875 0.72656-0.25781 1.082-0.066406 0.34375 0.18359 0.6875 0.35156 1.0352 0.49219 0.33594 0.13672 0.67578 0.25781 1.0156 0.35937 0.37891 0.085938 0.69141 0.38672 0.77734 0.78906l0.50781 2.3477 1.6562-0.019531c0.035156-0.003906 0.070313-0.003906 0.10547-0.003906 0.027344 0 0.050781 0 0.078125 0.003906l2.0039-0.023438 0.42578-2.2461c0.054688-0.38672 0.32812-0.72656 0.72656-0.84766 0.36719-0.10937 0.72656-0.23828 1.0742-0.38281 0.33984-0.14453 0.66797-0.29688 0.97656-0.46484 0.32812-0.20312 0.75391-0.21484 1.1016 0.007813l2.0234 1.3047 2.6836-2.75-1.3047-1.9141c-0.21875-0.30859-0.25781-0.72656-0.066406-1.082 0.18359-0.34375 0.35156-0.6875 0.49219-1.0352 0.13672-0.33594 0.25781-0.67578 0.35937-1.0156 0.085938-0.37891 0.38672-0.69141 0.78906-0.77734l2.3477-0.50781-0.046875-3.8398-2.2461-0.42578c-0.38672-0.054688-0.72656-0.32812-0.84766-0.72656-0.10938-0.36719-0.23828-0.72656-0.38281-1.0742-0.14453-0.33984-0.29688-0.66797-0.46484-0.97656-0.20312-0.32812-0.21484-0.75391 0.007812-1.1016l1.3047-2.0234-2.75-2.6836-1.9141 1.3047c-0.30859 0.21875-0.72656 0.25781-1.082 0.066406-0.34375-0.1875-0.6875-0.35156-1.0352-0.49219-0.33594-0.13672-0.67578-0.25781-1.0156-0.35938-0.37891-0.085938-0.69141-0.38672-0.77734-0.78906l-0.50781-2.3477-1.8438 0.023437zm-11.578-11.473-6.8086-6.8086c-0.1875-0.19141-0.44922-0.3125-0.73828-0.3125h-50.254c-0.57031 0-1.0312 0.46094-1.0312 1.0312v80.816c0 0.57031 0.46094 1.0312 1.0312 1.0312h5.8477v6.0898c0 0.57031 0.46094 1.0312 1.0312 1.0312h62.395c0.57031 0 1.0312-0.46094 1.0312-1.0312v-4.0195h10.828c0.82422 0 1.5977-0.21094 2.2773-0.60156 0.67969-0.39062 1.2461-0.96094 1.6602-1.6758 0.41797-0.72266 0.625-1.5 0.625-2.2773 0-0.77734-0.21094-1.5508-0.625-2.2734l-5.8711-10.172c-0.011719-0.019531-0.019531-0.039063-0.03125-0.058594l-5.9023-10.223c-0.41406-0.71484-0.98047-1.2812-1.6602-1.6758-0.40234-0.23438-0.84375-0.40234-1.3047-0.5v-7.6836l1.8594-0.023438c0.50391 0.019532 0.95703-0.32812 1.0508-0.83984l0.47656-2.5195c0.22656-0.078125 0.45313-0.16797 0.67578-0.26172 0.22656-0.09375 0.44922-0.19531 0.67578-0.30469l2.2266 1.4375c0.40234 0.25781 0.94531 0.20703 1.293-0.14844l3.8281-3.9258c0.35938-0.33984 0.42969-0.90234 0.14062-1.3242l-1.4453-2.1211c0.10156-0.21484 0.19922-0.4375 0.29297-0.66406 0.09375-0.22656 0.17969-0.45703 0.26172-0.6875l2.5859-0.55859v-0.003907c0.46875-0.097656 0.82031-0.51953 0.8125-1.0156l-0.066407-5.4688c0.019532-0.50391-0.32812-0.95703-0.83984-1.0508l-2.5195-0.47656c-0.078126-0.22656-0.16797-0.45312-0.26172-0.67578-0.09375-0.22656-0.19531-0.44922-0.30469-0.67578l1.4375-2.2266c0.25781-0.40234 0.20703-0.94531-0.14844-1.293l-3.9258-3.8281c-0.33984-0.35938-0.90234-0.42969-1.3242-0.14062l-2.1211 1.4453c-0.21484-0.10156-0.4375-0.19922-0.66406-0.29297-0.22656-0.09375-0.45703-0.17969-0.6875-0.26172l-0.55859-2.5859h-0.003906c-0.097657-0.46875-0.51953-0.82031-1.0156-0.8125l-1.7305 0.023438v-8.3789c0-0.57031-0.46094-1.0312-1.0312-1.0312h-11.477z" fill="#541875" fill-rule="evenodd"/>
</svg>
