<?xml version="1.0" encoding="UTF-8"?>
<svg width="100pt" height="100pt" version="1.1" viewBox="0 0 100 100" xmlns="http://www.w3.org/2000/svg">
 <path d="m53.141 76.859c0 0.51953-0.42188 0.94141-0.94141 0.94141h-14.82c-0.51953 0-0.94141-0.42188-0.94141-0.94141s0.42188-0.94141 0.94141-0.94141l14.82 0.003906c0.51953 0 0.94141 0.41797 0.94141 0.9375zm-3.4023 5.5312h-12.359c-0.51953 0-0.94141 0.42188-0.94141 0.94141s0.42188 0.94141 0.94141 0.94141h12.359c0.51953 0 0.94141-0.42188 0.94141-0.94141 0-0.52344-0.41797-0.94141-0.94141-0.94141zm-21.039-4.9922v5.3711c0 1.8984-1.5391 3.4414-3.4414 3.4414h-5.3711c-1.8984 0-3.4414-1.5391-3.4414-3.4414l0.003907-5.3711c0-1.8984 1.5391-3.4414 3.4414-3.4414h5.3711c1.8867 0.011719 3.4375 1.5547 3.4375 3.4414zm-1.8789 0c0-0.85938-0.69922-1.5586-1.5586-1.5586h-5.3711c-0.85938 0-1.5586 0.69922-1.5586 1.5586v5.3711c0 0.85938 0.69922 1.5586 1.5586 1.5586h5.3711c0.85938 0 1.5586-0.69922 1.5586-1.5586zm10.559-48.539h24.148c0.51953 0 0.94141-0.42188 0.94141-0.94141s-0.42188-0.94141-0.94141-0.94141l-24.148 0.003907c-0.51953 0-0.94141 0.42188-0.94141 0.94141 0.003906 0.51953 0.42188 0.9375 0.94141 0.9375zm0 6.4688h13.941c0.51953 0 0.94141-0.42188 0.94141-0.94141s-0.42188-0.94141-0.94141-0.94141l-13.941 0.003907c-0.51953 0-0.94141 0.42188-0.94141 0.94141 0.003906 0.51953 0.42188 0.9375 0.94141 0.9375zm-17.488 1.9531h5.3711c1.8281 0 3.3398-1.4297 3.4297-3.2617 0.03125-0.51953-0.37109-0.96094-0.89062-0.98047-0.51953-0.03125-0.96094 0.37109-0.98047 0.89063-0.039062 0.82812-0.73047 1.4805-1.5586 1.4805h-5.3711c-0.85938 0-1.5586-0.69922-1.5586-1.5586v-5.3711c0-0.85938 0.69922-1.5586 1.5586-1.5586h5.3711c0.26172 0 0.5 0.058594 0.73047 0.17969 0.46094 0.23828 1.0312 0.070313 1.2695-0.39062 0.23828-0.46094 0.070312-1.0312-0.39062-1.2695-0.48828-0.26172-1.0508-0.39844-1.6094-0.39844h-5.3711c-1.8984 0-3.4414 1.5391-3.4414 3.4414v5.3711c0 1.8828 1.5391 3.4258 3.4414 3.4258zm8.5-9.4727-5.5391 4.6406-1.8984-2.4883c-0.30859-0.41016-0.89844-0.48828-1.3203-0.17969-0.41016 0.30859-0.48828 0.89844-0.17969 1.3203l2.4883 3.2695c0.16016 0.19922 0.39062 0.33984 0.64062 0.35938 0.03125 0 0.070313 0.011719 0.10156 0.011719 0.21875 0 0.42969-0.078126 0.60156-0.21875l6.2891-5.2695c0.39844-0.32812 0.44922-0.92188 0.12109-1.3203-0.31641-0.40234-0.90625-0.46484-1.3047-0.125zm8.9883 23.832h13.941c0.51953 0 0.94141-0.42188 0.94141-0.94141s-0.42188-0.94141-0.94141-0.94141l-13.941 0.003907c-0.51953 0-0.94141 0.42188-0.94141 0.94141 0.003906 0.51562 0.42188 0.9375 0.94141 0.9375zm0-6.4609h24.148c0.51953 0 0.94141-0.42188 0.94141-0.94141s-0.42188-0.94141-0.94141-0.94141l-24.148 0.003906c-0.51953 0-0.94141 0.42188-0.94141 0.94141 0.003906 0.50781 0.42188 0.9375 0.94141 0.9375zm-17.488 8.4102h5.3711c1.8281 0 3.3398-1.4297 3.4297-3.2617 0.03125-0.51953-0.37109-0.96094-0.89062-0.98047-0.51953-0.03125-0.96094 0.37109-0.98047 0.89062-0.039062 0.82812-0.73047 1.4805-1.5586 1.4805h-5.3711c-0.85938 0-1.5586-0.69922-1.5586-1.5586v-5.3711c0-0.85937 0.69922-1.5586 1.5586-1.5586h5.3711c0.26172 0 0.5 0.058593 0.73047 0.17969 0.46094 0.23828 1.0312 0.070313 1.2695-0.39062 0.23828-0.46094 0.070312-1.0312-0.39062-1.2695-0.48828-0.26172-1.0508-0.39844-1.6094-0.39844h-5.3711c-1.8984 0-3.4414 1.5391-3.4414 3.4414v5.3711c0 1.8867 1.5391 3.4258 3.4414 3.4258zm8.5-9.4688-5.5391 4.6406-1.8984-2.4883c-0.30859-0.41016-0.89844-0.48828-1.3203-0.17969-0.41016 0.30859-0.48828 0.89844-0.17969 1.3203l2.4883 3.2695c0.16016 0.19922 0.39062 0.33984 0.64062 0.35938 0.03125 0 0.070313 0.011719 0.10156 0.011719 0.21875 0 0.42969-0.078126 0.60156-0.21875l6.2891-5.2695c0.39844-0.32812 0.44922-0.92188 0.12109-1.3203-0.31641-0.40625-0.90625-0.46484-1.3047-0.125zm34.078 16.43c0-0.51953-0.42188-0.94141-0.94141-0.94141h-24.148c-0.51953 0-0.94141 0.42188-0.94141 0.94141s0.42188 0.94141 0.94141 0.94141h24.148c0.52344-0.003907 0.94141-0.43359 0.94141-0.94141zm-25.09 7.3984h13.941c0.51953 0 0.94141-0.42188 0.94141-0.94141 0-0.51953-0.42188-0.94141-0.94141-0.94141l-13.941 0.003906c-0.51953 0-0.94141 0.42188-0.94141 0.94141 0.003906 0.51953 0.42188 0.9375 0.94141 0.9375zm-17.488 1.9492h5.3711c1.8281 0 3.3398-1.4297 3.4297-3.2617 0.03125-0.51953-0.37109-0.96094-0.89062-0.98047-0.51953-0.03125-0.96094 0.37109-0.98047 0.89062-0.039062 0.82812-0.73047 1.4805-1.5586 1.4805h-5.3711c-0.85938 0-1.5586-0.69922-1.5586-1.5586v-5.3711c0-0.85938 0.69922-1.5586 1.5586-1.5586h5.3711c0.26172 0 0.5 0.058594 0.73047 0.17969 0.46094 0.23828 1.0312 0.070312 1.2695-0.39062s0.070312-1.0312-0.39062-1.2695c-0.48828-0.26172-1.0508-0.39844-1.6094-0.39844h-5.3711c-1.8984 0-3.4414 1.5391-3.4414 3.4414v5.3711c0 1.8867 1.5391 3.4258 3.4414 3.4258zm8.5-9.4688-5.5391 4.6406-1.8984-2.4883c-0.30859-0.41016-0.89844-0.48828-1.3203-0.17969-0.41016 0.30859-0.48828 0.89844-0.17969 1.3203l2.4883 3.2695c0.16016 0.19922 0.39062 0.33984 0.64062 0.35937 0.03125 0 0.070313 0.011719 0.10156 0.011719 0.21875 0 0.42969-0.078125 0.60156-0.21875l6.2891-5.2695c0.39844-0.32812 0.44922-0.92188 0.12109-1.3203-0.31641-0.40625-0.90625-0.46484-1.3047-0.125zm67.109 24.371c-0.66016 1.1484-1.8008 1.8086-3.1289 1.8086h-17.449v2.8203c0 3.6211-2.9492 6.5703-6.5703 6.5703h-57.781c-3.6211 0-6.5703-2.9492-6.5703-6.5703v-72.141c0-3.6211 2.9492-6.5703 6.5703-6.5703h20.512c0.44922 0 0.82031-0.30078 0.92188-0.73047 0.76562-3.4688 3.9062-5.9883 7.457-5.9883 3.5508 0 6.6914 2.5117 7.4688 5.9805 0.10156 0.44141 0.46875 0.73047 0.92187 0.73047h20.512c3.6211 0 6.5703 2.9492 6.5703 6.5703v32.289c0.078125 0 0.16016-0.011718 0.23828-0.011718 1.3281 0 2.4688 0.66016 3.1289 1.8086l17.199 29.824c0.67188 1.1367 0.67188 2.457 0 3.6094zm-27.148-72.211h-13.031v2.25h12.66c1.5508 0 2.8203 1.2617 2.8203 2.8203v35.852l1.2383-2.1406c0.26953-0.46094 0.60938-0.83984 1.0195-1.1289v-32.953c-0.007813-2.5898-2.1172-4.6992-4.707-4.6992zm-13.531 68.602 14.102-24.422v-39.102c0-0.51953-0.42188-0.94141-0.94141-0.94141l-12.66 0.003907v0.78125c0 2.0703-1.6797 3.7617-3.7617 3.7617h-24.199c-2.0703 0-3.7617-1.6797-3.7617-3.7617v-0.78125h-12.648c-0.51953 0-0.94141 0.42188-0.94141 0.94141v71.391c0 0.51953 0.42188 0.94141 0.94141 0.94141h57.031c0.51953 0 0.94141-0.42188 0.94141-0.94141v-2.4492l-10.973-0.003906c-1.3281 0-2.4688-0.66016-3.1289-1.8086-0.67187-1.1523-0.67187-2.4727 0-3.6094zm-23.742-68.602h-5.6016v4.9102c0 1.0391 0.83984 1.8789 1.8789 1.8789h24.199c1.0391 0 1.8789-0.83984 1.8789-1.8789v-4.9102h-5.6016c-1.3281 0-2.4609-0.91016-2.75-2.1992-0.57812-2.6094-2.9492-4.5117-5.6406-4.5117-2.6797 0-5.0508 1.8984-5.6406 4.5117-0.26172 1.3008-1.3906 2.1992-2.7227 2.1992zm41.973 74.02h-2.25v2.4492c0 1.5508-1.2617 2.8203-2.8203 2.8203h-57.031c-1.5508 0-2.8203-1.2617-2.8203-2.8203v-71.398c0-1.5508 1.2617-2.8203 2.8203-2.8203h12.66v-2.25h-13.039c-2.5898 0-4.6914 2.1094-4.6914 4.6914v72.141c0 2.5898 2.1094 4.6914 4.6914 4.6914h57.781c2.5898 0 4.6914-2.1094 4.6914-4.6914l-0.003907-2.8125zm20.828-4.4883-17.219-29.812c-0.32031-0.55859-0.85938-0.87109-1.5-0.87109-0.64844 0-1.1797 0.30859-1.5 0.87109l-17.219 29.812c-0.32031 0.55859-0.32031 1.1797 0 1.7383 0.32031 0.55859 0.85938 0.87109 1.5 0.87109h34.43c0.64844 0 1.1797-0.30859 1.5-0.87109 0.32812-0.55859 0.32812-1.1797 0.007812-1.7383zm-54.418-68.883c0.87891 0 1.5898-0.71094 1.5898-1.5898 0-0.87891-0.71094-1.5898-1.5898-1.5898-0.87891 0-1.5898 0.71094-1.5898 1.5898 0 0.88281 0.70703 1.5898 1.5898 1.5898zm35.699 45.07c-1.6406 0-2.7812 1.2891-2.6719 2.8086l1.0195 14.48c0.058594 0.85938 0.78906 1.5 1.6484 1.5s1.5898-0.64844 1.6484-1.5l1.0195-14.48c0.11719-1.5156-1.0234-2.8086-2.6641-2.8086zm0 20.141c-1.0781 0-1.9492 0.87109-1.9492 1.9492 0 1.0781 0.87109 1.9492 1.9492 1.9492s1.9492-0.87109 1.9492-1.9492c0-1.0781-0.87109-1.9492-1.9492-1.9492z" fill="#9654bc" fill-rule="evenodd"/>
</svg>
