<?xml version="1.0" encoding="UTF-8"?>
<svg width="100pt" height="100pt" version="1.1" viewBox="0 0 100 100" xmlns="http://www.w3.org/2000/svg">
 <path d="m39.449 65.5c0.30469-0.30078 0.47266-0.71094 0.47266-1.1406l0.61719-23.359v-0.058594c-0.035156-0.88672-0.59375-1.668-1.418-1.9883-0.82812-0.32031-1.7656-0.12109-2.3906 0.50781-0.41406 0.40625-0.64453 0.96094-0.64062 1.5391l0.62109 23.219c-0.03125 0.47266 0.14062 0.93359 0.46875 1.2695 0.62891 0.62109 1.6406 0.62109 2.2695 0zm2.8711-1.1406c-0.019531 2.2109-1.8281 3.9844-4.0352 3.9648-2.2109-0.019531-3.9844-1.8242-3.9648-4.0352l-0.60937-23.219c-0.007813-1.8711 1.1133-3.5586 2.8398-4.2812 1.7266-0.71875 3.7148-0.32812 5.0391 0.99219 0.87109 0.84375 1.3555 2.0078 1.3398 3.2188v0.12109l-0.62109 23.289zm-2.1719 10.102c-0.73828-0.74219-1.8516-0.96484-2.8203-0.5625-0.96875 0.39844-1.6016 1.3438-1.6016 2.3906 0 1.0508 0.63281 1.9922 1.6016 2.3945 0.96875 0.39844 2.082 0.17969 2.8203-0.5625 1.0117-1.0117 1.0117-2.6484 0-3.6602zm-1.8281-3.1484v-0.003906c2.0234 0 3.8438 1.2188 4.6172 3.0898 0.77734 1.8672 0.34766 4.0156-1.082 5.4453-1.4297 1.4336-3.582 1.8594-5.4492 1.0859-1.8672-0.77344-3.0859-2.5977-3.0859-4.6211 0-2.7617 2.2383-5 5-5zm-9.8203-34.852-5.25 9.1094-1.4883-1.4883v-1.3906l2.3398-2.3398c0.42969-0.42969 0.47266-1.1133 0.097657-1.5898-0.59375-0.89844-1.1016-1.8477-1.5078-2.8398-0.4375-1.0195-0.77344-2.0781-1-3.1602-0.089844-0.57812-0.58594-1.0039-1.1719-1h-3.2695l-1-1v-2.6719l1-1h3.3086c0.58594 0.003906 1.0859-0.42188 1.1797-1 0.44531-2.1445 1.2969-4.1797 2.5117-6 0.3125-0.47656 0.25-1.1055-0.14844-1.5117l-2.3398-2.3398v-1.418l1.9297-1.9297h1.3906l2.3398 2.3398c0.42578 0.42969 1.1094 0.47266 1.5898 0.097656 0.89062-0.59766 1.8438-1.1016 2.8398-1.5078 1.0117-0.4375 2.0664-0.77344 3.1484-1 0.57422-0.09375 0.99609-0.58984 1-1.1719v-3.2695l1-1h2.7188l1 1v3.3125c0.003906 0.58203 0.42578 1.082 1 1.1797 2.1445 0.44141 4.1836 1.293 6 2.5078 0.47656 0.3125 1.1055 0.25 1.5117-0.14844l2.3398-2.3398h1.4297l1.9219 1.9297v1.3906l-2.3281 2.3398h-0.003906c-0.42969 0.42578-0.47266 1.1094-0.10156 1.5898 0.59766 0.90234 1.1055 1.8594 1.5117 2.8594 0.4375 1.0156 0.77344 2.0703 1 3.1484 0.09375 0.57812 0.58984 1 1.1719 1h3.3086l1 1v2.7188l-1 1-3.4023 0.003906c-0.58203 0-1.082 0.42188-1.1797 1-0.4375 2.1406-1.293 4.1797-2.5078 6-0.31641 0.47266-0.25391 1.1055 0.14844 1.5078l2.3281 2.3398v1.3906l-1.4805 1.4883-5.2617-9.1094h0.003906c2.625-3.6758 2.9766-8.5078 0.91016-12.527-2.0703-4.0156-6.207-6.5391-10.723-6.5391-4.5195 0-8.6562 2.5234-10.723 6.5391-2.0703 4.0195-1.7188 8.8516 0.90625 12.527zm18.289-2.3281v-0.003906c1.6602-2.9961 1.6094-6.6484-0.12891-9.6016-1.7422-2.9531-4.9141-4.7617-8.3398-4.7617-3.4258 0-6.5977 1.8086-8.3398 4.7617-1.7383 2.9531-1.7891 6.6055-0.12891 9.6016l1.5781-2.7305c1.4141-2.4688 4.043-3.9922 6.8906-3.9922 2.8477 0 5.4766 1.5234 6.8906 3.9922l1.5781 2.7305zm16.41 15v-0.003906c-3.832 0-7.5117 1.5234-10.219 4.2383-2.7109 2.7109-4.2344 6.3906-4.2305 10.223 0.003906 3.8359 1.5273 7.5117 4.2422 10.219 2.7148 2.707 6.3945 4.2266 10.227 4.2227 3.8359-0.007812 7.5117-1.5352 10.215-4.25 2.707-2.7188 4.2227-6.3984 4.2148-10.23 0-3.832-1.5195-7.5078-4.2305-10.219-2.7109-2.7109-6.3867-4.2305-10.219-4.2305zm-11.91 2.5078c-3.625 3.6328-5.3945 8.7227-4.8086 13.82 0.58594 5.1016 3.4648 9.6562 7.8203 12.371 4.3555 2.7188 9.7109 3.3008 14.551 1.5898-0.26562 1.6992-1.2695 3.1914-2.7422 4.0781-0.84766 0.48438-1.8125 0.73047-2.7891 0.71875h-50c-0.98047 0.015625-1.9492-0.23438-2.8008-0.71875-2.625-1.582-3.5117-4.9648-2-7.6289l12.48-21.641v-0.058594l3.4414-6c0.039063-0.066406 0.074219-0.13281 0.10938-0.20312l6.3281-11c0.039063-0.050781 0.070313-0.10156 0.10156-0.16016l2.4805-4.3008v0.003907c1-1.7148 2.8359-2.7695 4.8203-2.7695s3.8203 1.0547 4.8203 2.7695l2.4805 4.3008-0.003906-0.003906c0.03125 0.058594 0.066406 0.10938 0.10156 0.16016l6.3281 11h0.003907c0.03125 0.070312 0.066406 0.13672 0.10938 0.20312l1 1.7812v-0.003906c-0.67188 0.50391-1.3086 1.0547-1.9023 1.6523zm6.3984 6.1484 7.7422 13.41c-3.5117 0.96875-7.2305-0.55859-9.0508-3.7148-1.8203-3.1523-1.2812-7.1367 1.3125-9.6953zm5.5117-2.2109c3.4922 0.042969 6.5547 2.3477 7.5625 5.6914 1.0117 3.3398-0.26562 6.9531-3.1523 8.9219l-8-13.781c1.1055-0.54688 2.3203-0.83203 3.5508-0.83203zm-7.3281 0.64062c2.9609-2.9609 7.418-3.8477 11.289-2.2461 3.8711 1.6055 6.3945 5.3828 6.3945 9.5742 0 4.1875-2.5234 7.9648-6.3945 9.5703-3.8711 1.6016-8.3281 0.71484-11.289-2.2461-4.0469-4.0469-4.0469-10.605 0-14.652zm24.871 22.398-0.003907 0.003906c-0.99219 0.007812-1.8867 0.61328-2.2656 1.5352-0.37891 0.91797-0.17188 1.9766 0.52734 2.6836l9.0508 9c0.96484 0.96484 2.5312 0.96484 3.5 0 0.96484-0.96484 0.96484-2.5352 0-3.5l-9.0508-9c-0.46484-0.46484-1.0938-0.72266-1.75-0.71875zm0.39062-2.3789h-0.003906c1.1562 0.09375 2.2422 0.59375 3.0625 1.4102l9 9c1.9023 1.9023 1.9023 4.9883 0 6.8906-1.9023 1.9023-4.9883 1.9023-6.8906 0l-9-9c-0.80859-0.80469-1.3086-1.8633-1.4102-3l-3.6914-3.75c-0.30078 0.19141-0.60938 0.37109-0.92188 0.53906h0.003906c0.089844 2.9648-1.4453 5.7422-4 7.2422-1.2188 0.69531-2.5977 1.0547-4 1.0508h-50c-1.4023 0.003906-2.7812-0.35547-4-1.0508-2.4492-1.4492-3.9609-4.0664-4-6.9102 0.003906-1.4062 0.38281-2.7891 1.0977-4l15.621-26.949-2.2891-2.2891c-0.22656-0.22266-0.35547-0.52734-0.35156-0.84375v-2.3867c-0.003906-0.32422 0.12891-0.62891 0.35938-0.85156l2-2c-0.95312-1.6016-1.668-3.332-2.1289-5.1406h-2.8398c-0.32031 0-0.625-0.12891-0.85156-0.35938l-1.6797-1.6797c-0.22266-0.22266-0.34766-0.52344-0.34766-0.83984v-3.7305c0-0.32031 0.12891-0.625 0.35938-0.85156l1.6797-1.6797c0.21875-0.22656 0.52344-0.35156 0.83984-0.34766h2.8516c0.45703-1.8086 1.1758-3.5391 2.1289-5.1406l-2-2c-0.22656-0.22266-0.35156-0.52344-0.35156-0.83984v-2.4102c-0.003906-0.32031 0.12891-0.62891 0.35938-0.85156l2.6094-2.6211 0.003906 0.003906c0.22266-0.22656 0.53125-0.35547 0.84766-0.35156h2.3906c0.32031-0.003906 0.62891 0.12891 0.85156 0.35938l2 2c1.6016-0.95312 3.332-1.6719 5.1367-2.1289v-2.8516c-0.007813-0.33203 0.12109-0.65234 0.36328-0.87891l1.6797-1.6797c0.22656-0.21094 0.52734-0.32812 0.83984-0.32031h3.7188c0.32031 0 0.625 0.13281 0.85156 0.35938l1.6797 1.6406c0.22266 0.22266 0.34766 0.52344 0.34766 0.83984v2.8516c1.8086 0.45703 3.5391 1.1758 5.1406 2.1289l2-2c0.22656-0.22656 0.53125-0.35156 0.85156-0.35156h2.3906c0.32031 0 0.62891 0.12891 0.84766 0.35938l2.6211 2.6094v0.003906c0.22266 0.22656 0.34766 0.53125 0.35156 0.84766v2.3906c-0.003907 0.32031-0.13281 0.625-0.36328 0.85156l-2 2c0.95312 1.6133 1.6602 3.3594 2.1016 5.1797h2.8398c0.32422-0.003907 0.63672 0.125 0.85938 0.35937l1.6797 1.6797c0.22266 0.22266 0.34766 0.52344 0.35156 0.83984v3.7188c-0.003907 0.32031-0.13281 0.62891-0.35938 0.85156l-1.6797 1.6797c-0.22656 0.22656-0.53125 0.35156-0.85156 0.35156h-2.8398c-0.46094 1.8086-1.1797 3.5391-2.1406 5.1367l2 2c0.22266 0.23047 0.34766 0.53516 0.35156 0.85156v2.3906c-0.003907 0.32031-0.13281 0.625-0.35938 0.85156l-2.2812 2.2812 0.57813 1v-0.003906c4.4102-2.4102 9.6602-2.7305 14.328-0.87109 4.668 1.8594 8.2578 5.707 9.8008 10.488 1.5391 4.7812 0.86719 10-1.8359 14.234l3.6914 3.6914zm-3.832 1.4102c-0.3125 0.29687-0.58203 0.63281-0.80078 1l-2.3516-2.3516v0.003906c0.66016-0.55469 1.2773-1.1562 1.8516-1.8008l2.3516 2.3516c-0.38672 0.21875-0.73828 0.48828-1.0508 0.79688z" fill="#541875" fill-rule="evenodd"/>
</svg>
