<?xml version="1.0" encoding="UTF-8"?>
<svg width="100pt" height="100pt" version="1.1" viewBox="0 0 100 100" xmlns="http://www.w3.org/2000/svg">
 <path d="m4.8906 6.6914h42.969c0.52734 0 0.95703 0.42969 0.95703 0.95703v24.086c0 0.52734-0.42969 0.95703-0.95703 0.95703h-42.969c-0.52734 0-0.95703-0.42969-0.95703-0.95703v-24.086c0-0.52734 0.42969-0.95703 0.95703-0.95703zm44.262 62.66c-0.60156-0.30859-1.0117-0.93359-1.0117-1.6562 0-1.0273 0.83203-1.8594 1.8594-1.8594s1.8594 0.83203 1.8594 1.8594c0 0.72266-0.41016 1.3477-1.0117 1.6562v1.2148c0 0.46484-0.38281 0.84766-0.84766 0.84766s-0.84766-0.38281-0.84766-0.84766zm4.1016-6.0781h-8.6875c-0.1875 0-0.35938 0.078124-0.48828 0.20312-0.125 0.125-0.20312 0.29688-0.20312 0.48828v9.3242c0 0.1875 0.078125 0.35938 0.20312 0.48828 0.125 0.125 0.29688 0.20312 0.48828 0.20312h10.867c0.1875 0 0.35938-0.078125 0.48828-0.20312 0.125-0.125 0.20312-0.29688 0.20312-0.48828v-9.3242c0-0.1875-0.078125-0.35938-0.20312-0.48828-0.125-0.125-0.29688-0.20312-0.48828-0.20312zm-0.96094-1.9102v-1.7305c0-0.49219-0.19922-0.9375-0.52734-1.2617-0.32422-0.32422-0.77344-0.52734-1.2617-0.52734h-1.0117c-0.49219 0-0.9375 0.20312-1.2617 0.52734-0.32422 0.32422-0.52734 0.77344-0.52734 1.2617v1.7305zm-6.4961 0h-1.2266c-0.71484 0-1.3672 0.29297-1.8359 0.76172-0.47266 0.47266-0.76172 1.1211-0.76172 1.8359v9.3242c0 0.71484 0.29297 1.3672 0.76172 1.8359 0.47266 0.47266 1.1211 0.76172 1.8359 0.76172h10.867c0.71484 0 1.3672-0.29297 1.8359-0.76172 0.47266-0.47266 0.76172-1.1211 0.76172-1.8359v-9.3242c0-0.71484-0.29297-1.3672-0.76172-1.8359-0.47266-0.47266-1.1211-0.76172-1.8359-0.76172h-1.2266v-1.7305c0-1.0195-0.41406-1.9453-1.0859-2.6133-0.66797-0.67188-1.5977-1.0859-2.6133-1.0859h-1.0117c-1.0195 0-1.9453 0.41406-2.6133 1.0859-0.66797 0.66797-1.0859 1.5938-1.0859 2.6133l-0.007812 1.7305zm24.453 4.8438c0.007812-0.027343 0.015625-0.054687 0.027344-0.082031 0.63672-1.9688 1.1367-4.0039 1.4883-6.1094 0.003906-0.042969 0.011719-0.085937 0.019531-0.12891 0.35938-2.1953 0.5625-4.4648 0.59375-6.8047l-20.512-7.7852c-0.042969-0.011719-0.085938-0.03125-0.12891-0.050781l-1.7383-0.66016-1.7383 0.66016c-0.042969 0.019531-0.085938 0.035156-0.12891 0.050781l-20.512 7.7852c0.027344 2.3828 0.20703 4.6484 0.52734 6.8125 0.011718 0.042969 0.019531 0.089844 0.019531 0.13672 0.32422 2.1289 0.78516 4.1562 1.3711 6.0898 0.015626 0.039062 0.027344 0.074218 0.035157 0.11719 1.0547 3.4297 2.5195 6.5664 4.3281 9.4414 0.62109 0.98828 1.2891 1.9492 1.9922 2.8789 0.03125 0.035156 0.058594 0.070312 0.082031 0.10938 3.7031 4.8672 8.4805 8.9727 14.02 12.555 5.4648-3.5508 10.117-7.7578 13.738-12.578 0.011719-0.019531 0.027344-0.039062 0.042969-0.058593 1.0117-1.3477 1.9414-2.7461 2.7852-4.1914 1.5117-2.5781 2.7461-5.3086 3.6875-8.1875zm2.2148-0.69922c0.42188-1.4453 0.77344-2.9297 1.0547-4.4414h21.594c0.52734 0 0.95703-0.42969 0.95703-0.95703l-0.003906-24.09c0-0.52734-0.42969-0.95703-0.95703-0.95703l-42.965 0.003906c-0.52734 0-0.95703 0.42969-0.95703 0.95703v6.9805l-0.85156-0.32422c-0.21094-0.078126-0.44531-0.085938-0.67188 0l-0.85156 0.32422v-6.9844c0-0.52734-0.42969-0.95703-0.95703-0.95703l-42.965 0.003906c-0.52734 0-0.95703 0.42969-0.95703 0.95703v24.09c0 0.52734 0.42969 0.95703 0.95703 0.95703l21.516-0.003906c0.25781 1.5312 0.58203 3.0117 0.97656 4.4414h-10.773v0.003907c-0.24609 0-0.49219 0.09375-0.67969 0.28516l-12.422 12.676c-0.19922 0.17578-0.32422 0.43359-0.32422 0.71875 0 0.52734 0.42969 0.95703 0.95703 0.95703h30.578c3.9219 5.0586 8.9531 9.3047 14.762 13.004 0.30469 0.20312 0.71094 0.21875 1.0391 0.011718 5.75-3.6602 10.652-8.0078 14.484-13.012h30.867v-0.003906c0.24219 0 0.48047-0.089844 0.66797-0.27344 0.375-0.36719 0.37891-0.97266 0.011719-1.3477l-12.422-12.676c-0.17578-0.20703-0.4375-0.33984-0.73047-0.33984l-10.934-0.007813zm-6.0781 12.727c0.64453-0.9375 1.2578-1.8945 1.8281-2.875 1.4648-2.5117 2.6875-5.1602 3.6406-7.9414h11.137l10.602 10.816zm-38.434-10.816c1.0898 3.3516 2.5547 6.4336 4.3438 9.2773 0.32812 0.51953 0.66797 1.0352 1.0156 1.5391h-26.906l10.602-10.816zm22.047-18.719-18.539 7.0352c0.45703 6.8555 2.3555 12.668 5.4961 17.707 3.1523 5.0586 7.5664 9.3594 13.035 13.172 5.4453-3.8594 9.9609-8.4883 13.184-13.879 2.9883-5 4.8672-10.668 5.3516-17.008zm-19.867 5.5c-0.41016 0.15234-0.64844 0.55859-0.61328 0.97266 0.39453 7.4844 2.4102 13.809 5.8203 19.277 3.4023 5.4648 8.1836 10.062 14.117 14.113 0.35156 0.23828 0.80078 0.21094 1.1211-0.035156 5.8867-4.082 10.77-9.0195 14.23-14.816 3.25-5.4414 5.25-11.633 5.668-18.57 0.027344-0.4375-0.24609-0.82031-0.64062-0.95703l-19.496-7.3984c-0.22656-0.085937-0.46094-0.078125-0.67188 0zm22.969-10.473v-6.75h41.055v22.176h-20.328c0.30469-2.1562 0.46094-4.3789 0.46094-6.668 0.023438-0.40625-0.21484-0.80078-0.61719-0.94922zm-26.977 15.426h-20.277v-22.176h41.055v6.75l-20.574 7.8086c-0.35938 0.13672-0.61719 0.48438-0.61719 0.89062 0.003906 2.3438 0.14453 4.582 0.41406 6.7266zm68.031-50.551h-41.055v22.176h41.055zm-42.012-1.9102h42.969c0.52734 0 0.95703 0.42969 0.95703 0.95703v24.086c0 0.52734-0.42969 0.95703-0.95703 0.95703h-42.969c-0.52734 0-0.95703-0.42969-0.95703-0.95703v-24.086c0-0.52734 0.42969-0.95703 0.95703-0.95703zm-5.2422 1.9102h-41.055v22.176h41.055z" fill="#541875" fill-rule="evenodd"/>
</svg>
