<?xml version="1.0" encoding="UTF-8"?>
<svg width="100pt" height="100pt" version="1.1" viewBox="0 0 100 100" xmlns="http://www.w3.org/2000/svg">
 <path d="m83.398 53.125h1.9531v-39.648h2.1484v-1.9531h-46.875v1.9531h42.773z" fill="#541875"/>
 <path d="m26.727 74.023h-6.5781c-4.7578 0-8.625 3.8672-8.625 8.625v4.8516h1.9531v-4.8516c0-3.6797 2.9922-6.6719 6.6719-6.6719h6.5781c3.6797 0 6.6719 2.9922 6.6719 6.6719v4.8516h1.9531v-4.8516c0-4.7578-3.8672-8.625-8.625-8.625z" fill="#541875"/>
 <path d="m53.289 74.023h-6.5781c-4.7578 0-8.625 3.8672-8.625 8.625v4.8516h1.9531v-4.8516c0-3.6797 2.9922-6.6719 6.6719-6.6719h6.5781c3.6797 0 6.6719 2.9922 6.6719 6.6719v4.8516h1.9531v-4.8516c0-4.7578-3.8672-8.625-8.625-8.625z" fill="#541875"/>
 <path d="m79.852 74.023h-6.5781c-4.7578 0-8.625 3.8672-8.625 8.625v4.8516h1.9531v-4.8516c0-3.6797 2.9922-6.6719 6.6719-6.6719h6.5781c3.6797 0 6.6719 2.9922 6.6719 6.6719v4.8516h1.9531v-4.8516c0-4.7578-3.8672-8.625-8.625-8.625z" fill="#541875"/>
 <path d="m16.211 64.062c0 1.918 0.75781 4.0781 2.0234 5.7812 1.4414 1.9414 3.2891 3.0078 5.2031 3.0078s3.7617-1.0664 5.2031-3.0078c1.2656-1.7031 2.0234-3.8633 2.0234-5.7812 0-3.9844-3.2422-7.2266-7.2266-7.2266s-7.2266 3.2422-7.2266 7.2266zm12.5 0c0 3.0156-2.4844 6.8359-5.2734 6.8359s-5.2734-3.8203-5.2734-6.8359c0-2.9062 2.3672-5.2734 5.2734-5.2734s5.2734 2.3672 5.2734 5.2734z" fill="#541875"/>
 <path d="m28.125 33.789c5.7344 0 10.352-6.707 10.352-12.262 0-5.5156-4.6445-10.004-10.352-10.004s-10.352 4.4883-10.352 10.004c0 5.5547 4.6172 12.262 10.352 12.262zm0-20.312c4.6328 0 8.3984 3.6094 8.3984 8.0508 0 2.2656-0.94922 4.8516-2.543 6.9141-0.97656 1.2695-3.0391 3.3945-5.8555 3.3945s-4.8789-2.125-5.8555-3.3906c-1.5938-2.0625-2.543-4.6484-2.543-6.9141 0-4.4453 3.7656-8.0547 8.3984-8.0547z" fill="#541875"/>
 <path d="m42.773 64.062c0 1.918 0.75781 4.0781 2.0234 5.7812 1.4414 1.9414 3.2891 3.0078 5.2031 3.0078s3.7617-1.0664 5.2031-3.0078c1.2656-1.7031 2.0234-3.8633 2.0234-5.7812 0-3.9844-3.2422-7.2266-7.2266-7.2266s-7.2266 3.2422-7.2266 7.2266zm12.5 0c0 3.0156-2.4844 6.8359-5.2734 6.8359-2.793 0-5.2734-3.8203-5.2734-6.8359 0-2.9062 2.3672-5.2734 5.2734-5.2734s5.2734 2.3672 5.2734 5.2734z" fill="#541875"/>
 <path d="m76.562 56.836c-3.9844 0-7.2266 3.2422-7.2266 7.2266 0 1.918 0.75781 4.0781 2.0234 5.7812 1.4414 1.9414 3.2891 3.0078 5.2031 3.0078s3.7617-1.0664 5.2031-3.0078c1.2656-1.7031 2.0234-3.8633 2.0234-5.7812 0-3.9844-3.2422-7.2266-7.2266-7.2266zm0 14.062c-2.7891 0-5.2734-3.8203-5.2734-6.8359 0-2.9062 2.3672-5.2734 5.2734-5.2734s5.2734 2.3672 5.2734 5.2734c0 3.0156-2.4844 6.8359-5.2734 6.8359z" fill="#541875"/>
 <path d="m13.477 42.32c0-2.9688 2.4141-5.3945 5.375-5.4062l28.023 0.023438 10.938 0.007812c1.1836 0 2.1484 0.96484 2.1484 2.1484 0 0.57422-0.22266 1.1172-0.62891 1.5195-0.40625 0.40625-0.94531 0.62891-1.5195 0.62891h-18.75c-0.53906 0-0.97656 0.4375-0.97656 0.97656v10.938h1.9531v-9.9609h7.0781c1.2656 2.8789 3.4492 5.2852 6.207 6.8164l7.1367 3.9648c0.14844 0.082032 0.3125 0.125 0.47656 0.125s0.32812-0.039062 0.47656-0.125l7.1367-3.9648c4.582-2.543 7.4258-7.3789 7.4258-12.621v-12.391c0-0.53906-0.4375-0.97656-0.97656-0.97656-2.418 0-4.8086-0.38672-7.1016-1.1523-2.2969-0.76562-4.4375-1.8906-6.375-3.3398-0.34766-0.26172-0.82422-0.26172-1.1719 0-1.9336 1.4531-4.0781 2.5742-6.375 3.3398-2.2969 0.76562-4.6875 1.1523-7.1016 1.1523-0.53906 0-0.97656 0.4375-0.97656 0.97656v9.9805l-27.051-0.019531c-4.0391 0.019531-7.3242 3.3242-7.3242 7.3594v11.059h1.9531zm35.805 0.875h8.5273c0.77344 0 1.5078-0.21094 2.1484-0.60937l0.003907 8.8789-5.6875-3.1602c-2.1289-1.1836-3.8633-2.9688-4.9922-5.1094zm18.32 5.1094-5.6875 3.1602v-14.551h12.109v0.47656c0 4.5312-2.4609 8.7148-6.4219 10.914zm6.4219-22.348v9.0039h-12.109v-12.789c1.6758 1.0625 3.4727 1.9219 5.3672 2.5508 2.1836 0.73047 4.4453 1.1445 6.7422 1.2344zm-19.43-1.2305c1.8906-0.63281 3.6875-1.4883 5.3672-2.5508v12.785h-12.109v-9.0039c2.2969-0.089843 4.5586-0.50391 6.7422-1.2305z" fill="#541875"/>
</svg>
