<?xml version="1.0" encoding="UTF-8"?>
<svg width="100pt" height="100pt" version="1.1" viewBox="0 0 100 100" xmlns="http://www.w3.org/2000/svg">
 <path d="m48 59.848-1.6914-1.8477-1.6914 1.6914 3.3828 3.3867 7.3828-7.2305-1.6914-1.6953z" fill="#541875"/>
 <path d="m50 48.309c-5.3828 0-9.8477 4.4609-9.8477 9.8477 0 5.3828 4.4609 9.8477 9.8477 9.8477 5.3828 0 9.8477-4.4609 9.8477-9.8477s-4.4648-9.8477-9.8477-9.8477zm0 17.539c-4.1523 0-7.5391-3.3828-7.5391-7.5391 0-4.1523 3.3828-7.5391 7.5391-7.5391 4.1523 0 7.5391 3.3828 7.5391 7.5391 0 4.1523-3.3867 7.5391-7.5391 7.5391z" fill="#541875"/>
 <path d="m50 19.539c-8.6172 0-15.691 7.0781-15.691 15.691v8.1523c-3.5391 0.46094-6.4609 3.5391-6.4609 7.2305v15.078c0 4 3.2305 7.3828 7.3828 7.3828h29.539c4 0 7.3828-3.2305 7.3828-7.3828v-15.078c0-3.6914-2.7695-6.7695-6.4609-7.2305v-8.1523c0-8.6133-7.0742-15.691-15.691-15.691zm7.5391 23.844h-15.23v-7.8477c0-4.1523 3.0781-7.6914 7.0781-7.8477 2.1523-0.15234 4.1523 0.61719 5.6914 2s2.4609 3.3828 2.4609 5.5391zm-7.5391-21.535c7.3828 0 13.383 6 13.383 13.383v8h-3.5391v-8c0-2.7695-1.0781-5.3828-3.0781-7.2305s-4.6172-2.7695-7.3828-2.6172c-5.2305 0.30859-9.2305 4.7695-9.2305 10.152v7.8477h-3.5391v-8.1523c0.003907-7.3828 6.0039-13.383 13.387-13.383zm19.848 28.77h-2.7695v2.3086h2.9219v2.457h-3.5391v2.3086h3.5391v2.6172h-3.5391v2.3086h3.5391v2.6172h-2.9219v2.3086h2.6172c-0.61719 2-2.4609 3.3828-4.7695 3.3828l-29.695-0.003906c-2.1523 0-4-1.3828-4.7695-3.3828h2.6172v-2.3086h-2.9219v-2.6172h3.5391v-2.3086h-3.5391v-2.6172h3.5391l-0.003906-2.3047h-3.5391v-2.6172h2.9219v-2.3086h-2.7695c0-2.7695 2.3086-4.9219 4.9219-4.9219h29.539c2.7734 0.15625 4.9258 2.3125 5.082 5.082z" fill="#541875"/>
 <path d="m19.078 19.848c6.7695-6.9219 15.691-11.383 25.23-12.617 0.76953 2.4609 2.9219 4.4609 5.6914 4.4609 3.2305 0 6-2.6172 6-6 0-3.3828-2.6172-6-6-6-3.0781 0-5.5391 2.3086-5.8477 5.2305-10.152 1.2305-19.691 6-26.77 13.23zm30.922-18c2 0 3.6914 1.6914 3.6914 3.6914s-1.6914 3.6914-3.6914 3.6914-3.6914-1.6914-3.6914-3.6914 1.6914-3.6914 3.6914-3.6914z" fill="#541875"/>
 <path d="m6.3086 62.922 2.1523-0.61719c-1.2305-4-1.6914-8-1.6914-12.152 0-5.6914 1.0781-11.383 3.2305-16.617 0.46094 0.15234 1.0781 0.15234 1.5391 0.15234 2.1523 0 4.1523-1.0781 5.2305-2.9219 0.76953-1.3828 1.0781-2.9219 0.61719-4.4609-0.46094-1.5391-1.3828-2.7695-2.7695-3.6914-0.92188-0.46094-2-0.76953-3.0781-0.76953-2.1523 0-4.1523 1.0781-5.2305 2.9219-0.61719 1.2344-0.92578 2.9258-0.46094 4.4648 0.30469 1.2305 1.0742 2.3086 2.1523 3.0781-2.3086 5.5391-3.5391 11.539-3.5391 17.691 0 4.3086 0.61719 8.7695 1.8477 12.922zm2.1523-37.074c0.61719-1.0781 1.8477-1.8477 3.2305-1.8477 0.61719 0 1.2305 0.15234 1.8477 0.46094 0.76953 0.46094 1.3828 1.2305 1.6914 2.3086 0.30859 0.92188 0.15234 2-0.30859 2.7695-1.0742 1.6914-3.3828 2.3086-5.0742 1.2305-0.76953-0.46094-1.3828-1.2305-1.6914-2.3086-0.30859-0.76953-0.15625-1.8438 0.30469-2.6133z" fill="#541875"/>
 <path d="m15.539 76.152c0.76953-0.76953 1.2305-1.5391 1.5391-2.6172 0.46094-1.5391 0.15234-3.0781-0.61719-4.6172-1.0781-1.8477-3.0781-3.0781-5.2305-3.0781-1.0781 0-2 0.30859-2.9219 0.76953-1.3828 0.76953-2.3086 2-2.7695 3.5391-0.46094 1.5391-0.15234 3.0781 0.61719 4.6172 1.0781 1.8477 3.0781 3.0781 5.2305 3.0781 0.76953 0 1.5391-0.15234 2.3086-0.46094 6 7.8477 14.309 13.691 23.848 16.309l0.61719-2.1523c-8.9297-2.4609-16.93-8-22.621-15.387zm-7.3867-2.4609c-0.46094-0.92188-0.61719-1.8477-0.30859-2.7695s0.92188-1.6914 1.6914-2.1523c0.61719-0.30859 1.2305-0.46094 1.8477-0.46094 1.3828 0 2.6172 0.76953 3.2305 1.8477 0.46094 0.92188 0.61719 1.8477 0.30859 2.7695s-0.92188 1.6914-1.6914 2.1523c-1.6914 1.0742-4 0.30469-5.0781-1.3867z" fill="#541875"/>
 <path d="m80.617 80.461c-6.7695 6.7695-15.539 11.078-24.922 12.309-0.30859-0.92188-0.76953-1.8477-1.5391-2.6172-1.0781-1.0781-2.6172-1.8477-4.3086-1.8477-3.2305 0-6 2.6172-6 5.8477 0 3.2305 2.6172 6 5.8477 6 3.0781 0 5.5391-2.3086 5.8477-5.2305 10-1.2305 19.23-5.8477 26.461-13.078zm-30.617 17.539v1.0781-1.0781c-2 0-3.6914-1.6914-3.6914-3.6914s1.6914-3.6914 3.6914-3.6914c0.92188 0 1.8477 0.46094 2.6172 1.0781 0.61719 0.76953 1.0781 1.6914 1.0781 2.6172-0.003906 2.1484-1.6953 3.6875-3.6953 3.6875z" fill="#541875"/>
 <path d="m84.617 24.152c-0.76953 0.76953-1.2305 1.5391-1.5391 2.6172-0.46094 1.5391-0.30859 3.0781 0.46094 4.6172 1.0781 1.8477 3.0781 3.0781 5.2305 3.0781 1.0781 0 2-0.30859 2.9219-0.76953 2.9219-1.5391 3.8477-5.2305 2.3086-8.1523-1.0781-1.8477-3.0781-3.0781-5.2305-3.0781-0.76953 0-1.5391 0.15234-2.1523 0.46094-6.3086-8.4609-15.383-14.617-25.539-17.078l-0.61719 2.3086c9.6914 2.3047 18.309 7.9961 24.156 15.996zm7.3828 2.4648c0.92188 1.6914 0.30859 4-1.3828 4.9219-1.6914 0.92188-4 0.30859-4.9219-1.3828-0.46094-0.92188-0.61719-1.8477-0.30859-2.7695 0.30859-0.92188 0.92188-1.6914 1.6914-2.1523 0.61719-0.30859 1.2305-0.46094 1.8477-0.46094 1.2266-0.003907 2.457 0.76562 3.0742 1.8438z" fill="#541875"/>
 <path d="m91.848 68c2.4609-5.6914 3.6914-11.848 3.6914-18 0-3.8477-0.46094-7.8477-1.5391-11.539l-2.3086 0.61719c0.92188 3.5391 1.3828 7.2305 1.3828 10.922 0 5.8477-1.2305 11.539-3.5391 16.922-0.46094-0.15234-1.0781-0.15234-1.6914-0.15234-2.1523 0-4 1.0781-5.0781 2.9219-1.6914 2.7695-0.76953 6.4609 2 8.1523 0.92188 0.61719 2 0.76953 3.0781 0.76953 2.1523 0 4-1.0781 5.0781-2.9219 0.76953-1.3828 1.0781-2.9219 0.61719-4.4609 0.15234-1.2305-0.61719-2.3086-1.6914-3.2305zm-0.61719 6.6172c-0.92188 1.6914-3.3828 2.3086-5.0781 1.2305-1.6914-1.0781-2.3086-3.2305-1.2305-5.0781 0.61719-1.0781 1.8477-1.8477 3.2305-1.8477 0.61719 0 1.2305 0.15234 1.8477 0.46094 0.76953 0.46094 1.3828 1.2305 1.6914 2.3086s0.15625 2-0.46094 2.9258z" fill="#541875"/>
</svg>
