<?xml version="1.0" encoding="UTF-8"?>
<svg width="100pt" height="100pt" version="1.1" viewBox="0 0 100 100" xmlns="http://www.w3.org/2000/svg">
 <path d="m53.574 49.953c0 0.91016-0.73828 1.6484-1.6445 1.6484-0.91016 0-1.6445-0.73828-1.6445-1.6484s0.73438-1.6484 1.6445-1.6484c0.91016 0 1.6445 0.73828 1.6445 1.6484zm10.285 8.0859 0.32422-2.0664-9.0547-11.207h-2.5742c-0.71484 0-1.3359-0.49609-1.4961-1.1953l-0.59375-2.6406-7.6758 5.8281c-3.9414 2.9922-6.0273 7.1914-6.0273 12.145l0.003906 15.406 3.2031 4.1602 17.742 0.003906 2.8477-3.6992-10.238-15.113c-0.25781-0.37891-0.32812-0.85156-0.19922-1.2891s0.44531-0.79688 0.86328-0.97656c3.5742-1.5312 7.6328-0.77734 10.844 1.9492zm-1.9102 24.199v3.4531l-26.219 0.003906v-3.457c0-0.38281 0.32422-0.70703 0.70703-0.70703h24.809c0.37891 0.003906 0.70312 0.32422 0.70312 0.70703zm-4.8984-39.969c-0.28906-0.35938-0.72656-0.57031-1.1914-0.57031l-2.0781 0.003906-0.84766-3.7695c-0.11328-0.50781-0.48047-0.92578-0.96875-1.1016-0.48828-0.17969-1.0352-0.097656-1.4492 0.21875l-9.5742 7.2695c-4.6641 3.543-7.2344 8.7227-7.2344 14.582l-0.007812 15.926c0 0.33984 0.10938 0.66406 0.31641 0.93359l2.0938 2.7227c-1.9297 0.16406-3.4492 1.7812-3.4492 3.7539v4.9844c0 0.84766 0.68359 1.5312 1.5312 1.5312h29.281c0.84375 0 1.5312-0.6875 1.5312-1.5312l0.007813-4.9844c0-1.9688-1.5234-3.5898-3.4492-3.7539l2.0977-2.7227c0.40234-0.52344 0.42578-1.2461 0.054688-1.793l-9.6562-14.25c2.2461-0.23828 4.6055 0.68359 6.4922 2.6211 0.50781 0.51953 1.3125 0.61328 1.9219 0.21875l3.6133-2.3203c0.36719-0.23438 0.61719-0.61719 0.6875-1.0508l0.53906-3.418c0.066406-0.42578-0.050781-0.86328-0.32031-1.1992zm27.094 22.238c6.9258-3.0352 11.602-10.008 11.602-17.656 0-8.9062-6.0547-16.598-14.727-18.711-0.41406-0.10156-0.76953-0.37109-0.97656-0.74609-0.21094-0.375-0.24609-0.82031-0.11328-1.2266 0.375-1.1211 0.5625-2.2969 0.5625-3.4883 0-6.082-4.9492-11.027-11.027-11.027-2.2305 0-4.3789 0.66406-6.2148 1.918-0.68359 0.46875-1.6133 0.30859-2.1016-0.35937-4.0977-5.6055-10.684-8.9531-17.621-8.9531-12.027 0-21.812 9.7852-21.812 21.812v0.14453l0.003906 0.10547c0.007812 0.75781-0.53906 1.4102-1.2852 1.5273-9.2227 1.4922-16.18 9.6641-16.18 19.004 0 7.6445 4.6758 14.621 11.602 17.656 0.082031-18.758 15.367-33.992 34.145-33.992s34.062 15.234 34.145 33.992zm-34.145 31.238c17.141 0 31.086-13.945 31.086-31.086s-13.945-31.086-31.086-31.086-31.086 13.945-31.086 31.086 13.945 31.086 31.086 31.086zm43.938-62.773c-2.7617-3.4609-6.5117-6.0391-10.684-7.3828 0.19922-0.95312 0.30078-1.9258 0.30078-2.9102 0-7.7695-6.3203-14.09-14.09-14.09-2.3633 0-4.6562 0.58203-6.707 1.6953-4.7031-5.7188-11.789-9.0938-19.227-9.0938-13.383 0-24.328 10.621-24.855 23.875-4.7109 1.0508-8.9805 3.6211-12.145 7.3359-3.4453 4.0469-5.3438 9.1797-5.3438 14.453 0 4.8594 1.5508 9.4844 4.4844 13.383 2.6211 3.4805 6.2617 6.1602 10.328 7.6289 1.625 17.328 16.25 30.941 34 30.941s32.375-13.613 33.996-30.945c4.0703-1.4688 7.707-4.1484 10.328-7.6289 2.9336-3.8945 4.4805-8.5234 4.4805-13.383 0.003906-5.0117-1.7266-9.9414-4.8672-13.879z" fill="#541875" fill-rule="evenodd"/>
</svg>
