<?xml version="1.0" encoding="UTF-8"?>
<svg width="100pt" height="100pt" version="1.1" viewBox="0 0 100 100" xmlns="http://www.w3.org/2000/svg">
 <path d="m91.531 61.973c-1.8945-2.957-5.8438-3.8203-8.7969-1.9258l-13.672 8.7617c-0.5625-1.9883-2.0742-3.6289-4.1289-4.3047l-23.48-7.7695c-3.0273-1-6.0664-0.65234-8.7852 1.0039l-10.418 6.332-0.92188-1.4453c-0.37109-0.58203-1.1445-0.75391-1.7266-0.38281l-11.562 7.3711c-0.58203 0.37109-0.75391 1.1445-0.38281 1.7266 0.37109 0.58203 1.1445 0.75391 1.7266 0.38281l10.508-6.6992 0.88281 1.3867c0.003906 0.007813 0.007812 0.011719 0.011718 0.019532 0.007813 0.015624 0.019532 0.027343 0.03125 0.042968l12.445 19.52-10.504 6.7031c-0.58203 0.37109-0.75391 1.1445-0.38281 1.7266 0.23828 0.375 0.64453 0.57812 1.0547 0.57812 0.23047 0 0.46484-0.0625 0.67187-0.19531l11.555-7.375c0.58203-0.37109 0.75391-1.1445 0.38281-1.7266l-1.8281-2.8711 4.668-2.8398 18.785 6.2148c1.2344 0.41016 2.4688 0.61328 3.6836 0.61328 2.1211 0 4.1875-0.61719 6.1055-1.8438l22.16-14.203c1.4258-0.91797 2.4141-2.3398 2.7773-4.0078 0.36328-1.6641 0.058594-3.3711-0.85938-4.793zm-1.5859 4.2617c-0.22266 1.0156-0.82031 1.8789-1.6836 2.4375l-22.16 14.199c-2.3594 1.5078-5.0039 1.8438-7.6562 0.96484l-19.336-6.3984c-0.34766-0.11328-0.73047-0.070312-1.043 0.11719l-5.207 3.1641-9.2734-14.539 10.371-6.3047c2.1055-1.2812 4.3594-1.5391 6.6992-0.76562l23.48 7.7695c1.6445 0.54297 2.7148 2.0977 2.6484 3.8203-0.011718 0.054687-0.023437 0.10547-0.03125 0.16406-0.14844 1.2695-0.85156 2.4492-1.8359 3.0781-0.91016 0.57812-2.0195 0.67969-3.2109 0.28516l-10.695-3.5391c-0.65625-0.21484-1.3633 0.14062-1.5781 0.79297-0.21875 0.65625 0.14062 1.3633 0.79297 1.5781l10.695 3.5391c0.73047 0.24219 1.4609 0.35938 2.1719 0.35938 1.1367 0 2.2188-0.30859 3.168-0.91406 1.4727-0.94141 2.5234-2.5312 2.8828-4.332l14.926-9.5703c0.86328-0.55469 1.8984-0.73828 2.9102-0.51562 1.0156 0.22266 1.8789 0.82031 2.4336 1.6875 0.57031 0.875 0.75391 1.9062 0.53125 2.9219zm-65.762-46.535v-9.332c0-2.9609 2.4062-5.3672 5.3672-5.3672h56.727c2.957 0 5.3633 2.4062 5.3633 5.3633v33.434c0 2.957-2.4062 5.3633-5.3633 5.3633h-11.328l-11.066 9.9609c-0.23437 0.21094-0.53125 0.32031-0.83594 0.32031-0.17188 0-0.34375-0.035156-0.50781-0.10938-0.44922-0.19922-0.74219-0.64844-0.74219-1.1406v-9.0312h-16.391c-0.69141 0-1.25-0.55859-1.25-1.25s0.55859-1.25 1.25-1.25h17.641c0.69141 0 1.25 0.55859 1.25 1.25v7.4727l9.3359-8.4023c0.23047-0.20703 0.52734-0.32031 0.83594-0.32031h11.805c1.5781 0 2.8633-1.2852 2.8633-2.8633v-33.434c0-1.5781-1.2852-2.8633-2.8633-2.8633h-56.723c-1.5781 0-2.8633 1.2852-2.8633 2.8633v9.332c0 0.69141-0.55859 1.25-1.25 1.25-0.69531 0.003907-1.2539-0.55469-1.2539-1.2461zm24.738-7.1914v26.602h33.098c0.69141 0 1.25 0.55859 1.25 1.25s-0.55859 1.25-1.25 1.25h-34.348c-0.69141 0-1.25-0.55859-1.25-1.25v-27.852c0-0.69141 0.55859-1.25 1.25-1.25 0.6875 0 1.25 0.55859 1.25 1.25zm18.008 12.848 10.406-11.598h-3.7539c-0.69141 0-1.25-0.55859-1.25-1.25 0-0.69141 0.55859-1.25 1.25-1.25h6.6953c0.69141 0 1.25 0.55859 1.25 1.25v6.6953c0 0.69141-0.55859 1.25-1.25 1.25s-1.25-0.55859-1.25-1.25v-3.5898l-10.941 12.195c-0.40625 0.45312-1.0781 0.54688-1.5938 0.22656l-7.3711-4.6055-4.8945 10.629c-0.21094 0.45703-0.66406 0.72656-1.1367 0.72656-0.17578 0-0.35156-0.035156-0.52344-0.11328-0.62891-0.28906-0.90234-1.0312-0.61328-1.6562l5.4883-11.922c0.14844-0.32422 0.43359-0.57031 0.77734-0.67578 0.34375-0.10156 0.71484-0.054688 1.0195 0.13672zm-54.859 18.824 1.6758 0.37891c0.10938 0.29297 0.23047 0.58203 0.35938 0.86328l-0.91406 1.4492c-0.25781 0.40625-0.25781 0.92188-0.003906 1.3281 1.3555 2.1719 3.2109 4.0312 5.3711 5.3711 0.40625 0.25391 0.92188 0.25 1.3242-0.003906l1.4531-0.91406c0.28516 0.12891 0.57422 0.25 0.86719 0.35938l0.37891 1.6758c0.10547 0.46875 0.46875 0.83203 0.9375 0.94141 1.2305 0.28516 2.5078 0.43359 3.7969 0.43359 1.2891 0 2.5664-0.14453 3.7969-0.43359 0.46875-0.10938 0.82812-0.47656 0.9375-0.94141l0.37891-1.6758c0.29687-0.10938 0.58594-0.23047 0.86719-0.35938l1.4531 0.91406c0.40625 0.25391 0.91797 0.25781 1.3242 0.003906 2.168-1.3477 4.0273-3.2031 5.375-5.3711 0.25391-0.40625 0.25-0.92188-0.003907-1.3281l-0.91406-1.4492c0.12891-0.28516 0.25-0.57422 0.35938-0.86719l1.6719-0.37891c0.46875-0.10547 0.83203-0.46875 0.94141-0.9375 0.28906-1.2461 0.4375-2.5234 0.4375-3.7969 0-1.2773-0.14844-2.5547-0.4375-3.8008-0.10938-0.46484-0.47266-0.82812-0.94141-0.9375l-1.6719-0.37891c-0.10938-0.28906-0.23047-0.57812-0.35938-0.86719l0.91406-1.4492c0.25781-0.40625 0.25781-0.92187 0.003907-1.3281-1.3477-2.168-3.2031-4.0273-5.375-5.3711-0.40625-0.25391-0.92188-0.25-1.3242 0.003906l-1.4531 0.91406c-0.28516-0.12891-0.57422-0.25-0.86719-0.35937l-0.37891-1.6719c-0.10547-0.46484-0.46484-0.82812-0.92969-0.94141-1.2266-0.28906-2.5039-0.4375-3.8008-0.4375-1.2969 0-2.5781 0.14844-3.8008 0.4375-0.46484 0.10938-0.82422 0.47656-0.92969 0.94141l-0.37891 1.6719c-0.29688 0.10937-0.58594 0.23047-0.86719 0.35937l-1.4531-0.91406c-0.40625-0.25391-0.91797-0.25781-1.3242-0.003906-2.1602 1.3398-4.0195 3.1992-5.3711 5.3711-0.25391 0.40625-0.25391 0.92187 0.003907 1.3281l0.91406 1.4492c-0.12891 0.28125-0.24609 0.57031-0.35938 0.86328l-1.6758 0.37891c-0.46875 0.10547-0.83203 0.46875-0.94141 0.9375-0.28906 1.2461-0.4375 2.5234-0.4375 3.8008 0 1.2734 0.14844 2.5508 0.4375 3.7969 0.097656 0.47656 0.46484 0.83984 0.93359 0.94531zm1.3359-7.207 1.5625-0.35156c0.42969-0.097656 0.77734-0.41406 0.91406-0.83203 0.20703-0.63672 0.46484-1.2539 0.75781-1.832 0.19922-0.39453 0.17969-0.86328-0.054687-1.2383l-0.85547-1.3516c0.95312-1.3594 2.1445-2.5508 3.4961-3.4961l1.3594 0.85547c0.375 0.23828 0.84766 0.25781 1.2422 0.050782 0.57422-0.30078 1.1875-0.55078 1.8164-0.75391 0.42188-0.13672 0.74219-0.48438 0.83984-0.91406l0.35547-1.5625c1.6055-0.28516 3.3359-0.28516 4.9414 0l0.35547 1.5625c0.097656 0.43359 0.41797 0.78125 0.83984 0.91406 0.63281 0.19922 1.2422 0.45312 1.8164 0.75391 0.39453 0.20312 0.86719 0.18359 1.2422-0.050782l1.3594-0.85547c1.3555 0.94922 2.5469 2.1406 3.4961 3.4961l-0.85547 1.3516c-0.23438 0.375-0.25781 0.84375-0.054687 1.2383 0.30859 0.60156 0.5625 1.2148 0.75781 1.8242 0.13672 0.42188 0.48438 0.74219 0.91406 0.83984l1.5625 0.35156c0.14453 0.81641 0.21875 1.6484 0.21875 2.4766 0 0.82422-0.074219 1.6523-0.21875 2.4727l-1.5625 0.35156c-0.43359 0.097656-0.78125 0.41797-0.91406 0.83984-0.19531 0.60938-0.44922 1.2227-0.75781 1.8242-0.19922 0.39453-0.17969 0.86328 0.054687 1.2383l0.85547 1.3516c-0.94922 1.3555-2.1406 2.5469-3.4961 3.4961l-1.3594-0.85547c-0.375-0.23828-0.84766-0.25781-1.2422-0.050781-0.57422 0.29687-1.1875 0.55078-1.8164 0.75391-0.42187 0.13672-0.74219 0.48438-0.83984 0.91406l-0.35156 1.5664c-1.6172 0.28125-3.3242 0.28125-4.9414 0l-0.35156-1.5664c-0.097657-0.43359-0.41797-0.78125-0.83984-0.91406-0.63281-0.20312-1.2422-0.45312-1.8164-0.75391-0.39453-0.20313-0.86719-0.18359-1.2422 0.050781l-1.3594 0.85547c-1.3516-0.94531-2.543-2.1367-3.4961-3.4961l0.85547-1.3516c0.23438-0.375 0.25781-0.84375 0.054688-1.2383-0.29688-0.57812-0.55078-1.1953-0.75781-1.832-0.13672-0.41797-0.48438-0.73438-0.91406-0.83203l-1.5625-0.35156c-0.14453-0.81641-0.21875-1.6445-0.21875-2.4727-0.003906-0.82812 0.066407-1.6602 0.21094-2.4766zm13.906 11.262c4.8477 0 8.793-3.9414 8.793-8.7852 0-4.8477-3.9453-8.793-8.793-8.793-4.8438 0-8.7852 3.9453-8.7852 8.793-0.003906 4.8438 3.9414 8.7852 8.7852 8.7852zm0-15.078c3.4688 0 6.2891 2.8203 6.2891 6.2891 0 3.4648-2.8203 6.2852-6.2891 6.2852-3.4648 0-6.2852-2.8203-6.2852-6.2852 0-3.4648 2.8203-6.2891 6.2852-6.2891z" fill="#541875"/>
</svg>
