<?xml version="1.0" encoding="UTF-8"?>
<svg width="100pt" height="100pt" version="1.1" viewBox="0 0 100 100" xmlns="http://www.w3.org/2000/svg">
 <path d="m41.301 30.434c0 3.7617-3.0469 6.8086-6.8086 6.8086-3.7617 0-6.8125-3.0469-6.8125-6.8086 0-3.7617 3.0508-6.8125 6.8125-6.8125 3.7617 0 6.8086 3.0508 6.8086 6.8125" fill="#541875"/>
 <path d="m25.566 42.711c0.96484 0.70312 2.0117 1.2891 3.1172 1.7422 0.72656 0.29297 1.2266 0.96875 1.2969 1.75 0.36719 4.4883 0.16016 9.0039-0.61719 13.438h10.254c-0.77344-4.4336-0.98047-8.9492-0.61719-13.438 0.070312-0.77734 0.57031-1.457 1.2969-1.7461 1.1055-0.45703 2.1523-1.043 3.1172-1.7461 0.48438-0.36328 0.78516-0.92188 0.82813-1.5234 0.039062-0.60547-0.1875-1.1953-0.61719-1.6211-0.72656-0.72656-1.8672-0.81641-2.6992-0.21484-3.8438 2.7695-9.0273 2.7695-12.871 0-0.92578-0.66797-2.2188-0.46875-2.9023 0.44922-0.67969 0.92188-0.49609 2.2188 0.41406 2.9102z" fill="#541875"/>
 <path d="m24.641 68.012h19.699c1.2539 0 2.2656-1.0156 2.2656-2.2656 0-1.2539-1.0117-2.2695-2.2656-2.2695h-19.699c-1.25 0-2.2656 1.0156-2.2656 2.2695 0 1.25 1.0156 2.2656 2.2656 2.2656z" fill="#541875"/>
 <path d="m48.215 71.848h-27.449c-1.25 0-2.2656 1.0117-2.2656 2.2656 0 1.25 1.0156 2.2656 2.2656 2.2656h27.449c1.2539 0 2.2695-1.0156 2.2695-2.2656 0-1.2539-1.0156-2.2656-2.2695-2.2656z" fill="#541875"/>
 <path d="m42.984 49.293c0 0.89844 0.72656 1.6289 1.6289 1.6289h8.418c0.43359 0 0.84766-0.17188 1.1523-0.47656l6.3789-6.3789h3.8594v-0.003906c0.58984 1.2109 1.7891 2.0078 3.1328 2.0781 1.0039 0.039063 1.9805-0.32422 2.7148-1.0078 0.73438-0.6875 1.1641-1.6367 1.1953-2.6406 0.027344-1.7383-1.1562-3.2617-2.8438-3.668-1.6914-0.40625-3.4375 0.41797-4.1992 1.9805h-4.5352c-0.42969 0-0.84375 0.17187-1.1523 0.47656l-6.3789 6.3828h-7.7422c-0.90234 0-1.6289 0.72656-1.6289 1.6289z" fill="#541875"/>
 <path d="m70.992 59.766c-1.418 0.003906-2.7109 0.80859-3.332 2.082h-3.2578l-6.3828-6.3789c-0.30469-0.30469-0.71875-0.47656-1.1484-0.47656h-12.258c-0.43359 0-0.84766 0.17187-1.1523 0.47656-0.30859 0.30469-0.47656 0.71875-0.47656 1.1523s0.16797 0.84766 0.47656 1.1523c0.30469 0.30469 0.71875 0.47656 1.1523 0.47656h11.582l6.3789 6.3789c0.30469 0.30859 0.71875 0.48047 1.1523 0.48047h3.9336c0.58984 1.207 1.7891 2.0039 3.1367 2.0742 1 0.039062 1.9805-0.32422 2.7109-1.0078 0.73438-0.6875 1.1641-1.6367 1.1953-2.6406 0.015625-0.99219-0.37109-1.9531-1.0664-2.6602-0.69922-0.71094-1.6523-1.1094-2.6445-1.1094z" fill="#541875"/>
 <path d="m51.906 40.602 5.4453-5.6016h14.449c0.60938 1.1797 1.8086 1.9414 3.1328 2 2.0781 0.058594 3.8086-1.5742 3.8711-3.6484 0.027343-1.7539-1.1758-3.2891-2.8867-3.6797-1.7109-0.39062-3.4609 0.47266-4.1953 2.0703h-15.059c-0.44141 0-0.86328 0.17578-1.168 0.49219l-5.9258 6.0977c-0.625 0.64453-0.61328 1.6758 0.035157 2.3008 0.64453 0.62891 1.6719 0.61328 2.3008-0.03125z" fill="#541875"/>
 <path d="m73.926 50.141h-8.5273c-0.89844 0-1.6289 0.73047-1.6289 1.6289 0 0.89844 0.73047 1.6289 1.6289 1.6289h8.5273c0.58984 1.2109 1.793 2.0039 3.1367 2.0781 1.0039 0.039063 1.9805-0.32422 2.7148-1.0117 0.73047-0.68359 1.1602-1.6328 1.1914-2.6367 0.027344-1.7383-1.1523-3.2617-2.8438-3.668s-3.4375 0.41797-4.1992 1.9805z" fill="#541875"/>
 <path d="m77.594 68.48c-1.3477 0.070312-2.5469 0.86719-3.1367 2.0781h-13.801l-5.4453-5.6016v-0.003906c-0.30078-0.30859-0.71484-0.48828-1.1445-0.49219-0.43359-0.007813-0.85156 0.15625-1.1602 0.46094-0.3125 0.30078-0.48828 0.71094-0.49609 1.1445-0.003906 0.43359 0.16016 0.85156 0.46484 1.1602l5.9258 6.0977v-0.003907c0.30469 0.31641 0.72656 0.49609 1.168 0.49609h14.488c0.76172 1.5625 2.5078 2.3828 4.1992 1.9805 1.6875-0.40625 2.8711-1.9297 2.8438-3.668-0.03125-1.0039-0.46094-1.9531-1.1953-2.6406-0.73047-0.68359-1.7109-1.0469-2.7109-1.0078z" fill="#541875"/>
</svg>
