<?xml version="1.0" encoding="UTF-8"?>
<svg width="100pt" height="100pt" version="1.1" viewBox="0 0 100 100" xmlns="http://www.w3.org/2000/svg">
 <path d="m45.645 81.715h-18.086c-0.98047 0.003906-1.7734 0.80078-1.7812 1.7812v1.8516h21.648v-1.8477c-0.007812-0.98047-0.80078-1.7734-1.7812-1.7812zm-20.59 6.0273c-1.957 0.007812-3.543 1.5938-3.5508 3.5508v1.3086h30.195v-1.3125c-0.007813-1.957-1.5898-3.543-3.5508-3.5508zm24.766-2.1562c1.5703 0.46875 2.8828 1.5625 3.6289 3.0195 2.7891-0.80859 4.707-3.3633 4.7109-6.2695v-3.3711c0.003906-0.56641 0.40234-1.0586 0.95703-1.1719 2.2266-0.68359 4.3672-1.6172 6.3828-2.7852 2.0312-1.1719 3.9219-2.5703 5.6406-4.168 0.375-0.41406 0.99219-0.50781 1.4727-0.22656l2.9297 1.6914c3.1328 1.7852 7.1172 0.71094 8.9258-2.4062l1.6328-2.8164c1.793-3.125 0.72266-7.1094-2.3906-8.918l-2.8477-1.6484c-0.5-0.24609-0.76562-0.80078-0.64062-1.3398 1.0703-4.6367 1.0703-9.4531 0-14.086-0.125-0.52734 0.12109-1.0703 0.59766-1.3242l2.8906-1.668c3.1133-1.8086 4.1797-5.793 2.3906-8.9141l-1.6406-2.8359c-1.8086-3.1172-5.7969-4.1836-8.9219-2.3945l-2.9297 1.6875c-0.46484 0.26953-1.0586 0.19141-1.4375-0.19141-3.4375-3.2109-7.5586-5.6016-12.055-6.9844-0.55469-0.11719-0.95313-0.60547-0.95703-1.1758v-3.3672c-0.007812-3.6016-2.9219-6.5156-6.5195-6.5234h-3.2812c-3.5977 0.011718-6.5117 2.9258-6.5234 6.5273v3.3711-0.003906c0 0.56641-0.39453 1.0586-0.94922 1.1758-4.4961 1.3828-8.6172 3.7695-12.055 6.9805-0.37891 0.38672-0.97266 0.46875-1.4453 0.19922l-2.9297-1.6875c-3.1211-1.793-7.1055-0.72656-8.9141 2.3867l-1.6445 2.832c-1.7891 3.125-0.71875 7.1133 2.4023 8.9219l2.8906 1.668c0.47266 0.25391 0.71875 0.79688 0.58984 1.3242-1.0664 4.6328-1.0625 9.4492 0.003906 14.082 0.125 0.54297-0.14062 1.0938-0.63672 1.3398l-2.8516 1.6484c-3.1133 1.8086-4.1836 5.7891-2.3984 8.9141l1.6367 2.8398v-0.003907c1.3359 2.3125 3.9453 3.5781 6.5859 3.1992-0.32812-3.2578-1.1602-6.1992-1.1758-9.7773h0.003907c-0.13281-3.5742 0.65625-7.125 2.2891-10.309 1.6016-3.0938 3.8125-5.7422 7.2812-6.6328h-0.003906c2.0781-0.35547 4.1992-0.41406 6.293-0.17969 0.58203 0.035156 1.1523 0.066406 1.6328 0.085937 0.71094-0.10156 1.0859-0.085937 1.3984 0.89844l0.003906 0.003906c0.097656 0.46875 0.125 0.94531 0.082031 1.4219 0 0.67969-2.0078 2.2148-1.0078 2.3008 1.1211 0.09375 2.918 1.6523 3.5664 2.3516 1.2734 1.3828 1.9219 3.0781 2.8594 4.5586 1.043 1.6367 2.793 2.125 4 4.3125 0.58203 0.91406 0.75781 2.0352 0.47656 3.0859-0.3125 1.1016-1.0352 2.043-2.0195 2.6289-0.44922 0.28906-0.94922 0.48438-1.4766 0.57422-1.2109 0.054688-2.3867-0.41406-3.2305-1.2812-0.38281-0.41016-0.91406-0.64844-1.4727-0.67188-1.043 0.023437-2.1289 0.91406-3.7773 0.57031 3 6.3828 6.3828 6.3711 8.0117 10.438v0.003906c0.24609 0.60156 0.41016 1.2344 0.48438 1.8828 2.0078 0.34375 3.4766 2.082 3.4805 4.1211zm4.2578 5.3242c0.007813 0.125 0.015625 0.25391 0.015625 0.38281v2.5078c0 0.66016-0.53516 1.1953-1.1953 1.1992h-32.59c-0.66406 0-1.2031-0.53906-1.2031-1.1992v-2.5078c0.007812-2.6367 1.7461-4.957 4.2734-5.707v-2.0859c0.003906-1.9961 1.4141-3.7109 3.3672-4.1016 0.12109-0.37891 0.25391-0.80078 0.35547-1.1797-2.0195-0.09375-3.7891 0.74609-4.5312 0.47656-0.29687-0.10937-0.53906-0.33203-0.67187-0.61719-0.13281-0.28906-0.14453-0.61719-0.035157-0.91406 0.18359-0.53516 0.29688-1.0898 0.32812-1.6523-3.5195 0.39062-6.9375-1.3359-8.7148-4.4023l-1.6445-2.832c-2.457-4.2695-0.99609-9.7188 3.2695-12.184l2.1602-1.2461-0.003907-0.003906c-0.90234-4.4297-0.90234-8.9961 0-13.43l-2.1562-1.25c-4.2617-2.4648-5.7227-7.9102-3.2695-12.176 0.55078-0.94531 1.1055-1.8906 1.6445-2.8438-0.51172-0.28125 5.2656-7.2227 12.148-3.2773l2.1992 1.2695 0.003906 0.003906c3.375-3.0078 7.3281-5.293 11.617-6.7188v-2.5c0.007813-4.9219 3.9922-8.9102 8.9141-8.9219h3.2812c4.9219 0.007812 8.9102 3.9961 8.918 8.9219v2.5c4.2891 1.4258 8.2422 3.7109 11.617 6.7188l2.1758-1.2578c4.2656-2.4531 9.7109-0.99609 12.176 3.2656l1.6406 2.8359h-0.003907c2.457 4.2656 0.99609 9.7148-3.2656 12.18l-2.1641 1.25h0.003906c0.90234 4.4336 0.90234 9 0 13.43l2.168 1.2461v0.003906c4.25 2.4609 5.7109 7.8945 3.2695 12.156-0.13672 0.24219-1.6484 2.8633-1.6484 2.8633h-0.003906c-2.4648 4.2578-7.9141 5.7148-12.176 3.2578l-2.1719-1.25c-3.3789 3.0039-7.332 5.2891-11.617 6.7188v2.5c-0.011719 3.9805-2.6523 7.4766-6.4805 8.5742zm-10.164-11.59c-0.24609-1.1328-0.80859-2.168-1.625-2.9844l-1.3008-1.1992c-2.3047-1.9844-4.1445-4.4492-5.3867-7.2188-0.19531-0.41406-1.4688-3.1094-0.86719-3.9531 0.48828-0.69531 1.1172-0.78125 1.9219-0.21094 0.92969 0.66016 1.6797 1.1914 2.7695 0.82031 1.6602-0.57422 3.1094-0.83984 4.7812 0.41797 0.53906 0.39844 1.3398 1.1406 1.8008 1.0781h-0.003906c0.94922-0.24609 1.5898-1.125 1.5391-2.1016-0.1875-0.54297-0.47266-1.0469-0.84375-1.4844-0.91016-1.0078-2.3008-1.7109-3.3594-3.375-1.4688-2.3008-1.6445-3.7422-4.0312-5.4258-0.19141-0.14844-0.39453-0.27344-0.60938-0.38281-0.3125-0.03125-0.60547-0.18359-0.80469-0.42578-0.20312-0.24609-0.29688-0.55859-0.26562-0.875 0.007813-0.11719 0.035156-0.23047 0.082032-0.33984-0.13281-0.90625-0.1875-1.8203-0.16797-2.7344-0.79297 0.27344-1.4492 0.85156-1.8203 1.6055-0.18359 0.49219-0.30078 1.0039-0.35547 1.5273 0.003906 0.30859-0.10938 0.60938-0.31641 0.83984-0.46094 0.54297-0.60547 0.30078-1.1992 0.57422v-0.003906c-1.0859 0.57031-2.1055 1.2617-3.0312 2.0664-1.7773 1.4883-2.8984 3.6172-3.1211 5.9258-0.11328 1.0078-0.14844 2.0273-0.097657 3.043 0.27344 1.8164 0.64844 3.6211 1.125 5.3984l0.28906 1.1445c0.12891 0.22266 0.17969 0.47656 0.15234 0.73047 0.21094 1.0039 0.36328 2.0156 0.45312 3.0352 0.19141 1.5078 0.070312 3.043-0.35156 4.5039zm-9.7266-30.84c-2.1289-0.042969-3.7148 0.11719-5.3516 1.2695-2.1875 1.543-3.8867 4.7578-4.6797 7.3008v0.003907c-0.60156 2.0312-0.87891 4.1445-0.81641 6.2656 0.019531 4.2539 1.6016 9.1094 1.207 12.727 0.90234-0.1875 1.8242-0.26172 2.7422-0.21484-0.10547-1.8125-0.40234-3.6133-0.88281-5.3672-0.51172-1.8984-0.91016-3.8203-1.1914-5.7656-0.054688-1.1641-0.019532-2.3281 0.10547-3.4844 0.28516-2.9062 1.6875-5.582 3.9141-7.4688 1.1641-1.0117 2.457-1.8672 3.8438-2.5469 0.11719-0.98828 0.5-1.9297 1.1094-2.7188zm17.578 19.148 6.9375 0.38672-0.76172-1.75-0.003906 0.003906c4.8672-2.1406 8.668-6.1484 10.551-11.117 1.8828-4.9688 1.6914-10.484-0.53125-15.312-2.2227-4.8281-6.293-8.5586-11.293-10.359-5-1.7969-10.516-1.5117-15.305 0.79297-5.3516 2.4609-9.2891 7.2266-10.691 12.949-0.097657 0.32031-0.058594 0.66406 0.10938 0.94922 0.16406 0.28906 0.44531 0.49609 0.76953 0.57031 0.32031 0.074218 0.66406 0.011718 0.9375-0.17188 0.27734-0.1875 0.46484-0.48047 0.51562-0.80859 1.4922-5.9258 6.0312-10.605 11.906-12.285 5.7188-1.7461 11.93-0.4375 16.457 3.4688 4.5273 3.9023 6.7344 9.8555 5.8477 15.77-0.89063 5.9102-4.75 10.953-10.223 13.355l-0.75781-1.75z" fill="#9654bc"/>
</svg>
