<?xml version="1.0" encoding="UTF-8"?>
<svg width="100pt" height="100pt" version="1.1" viewBox="0 0 100 100" xmlns="http://www.w3.org/2000/svg">
 <path d="m38.707 43.223h2.0508v-3.9805c0-1.6211 0.66406-3.0859 1.7266-4.1562 1.0625-1.0742 2.5352-1.7266 4.1562-1.7266h6.7266c1.6211 0 3.0859 0.66406 4.1562 1.7266 1.0625 1.0625 1.7266 2.5352 1.7266 4.1562v3.9805h2.0508v-3.9805c0-2.1797-0.89453-4.168-2.3281-5.6016-1.4297-1.4297-3.4219-2.3281-5.6016-2.3281h-6.7266c-2.1797 0-4.168 0.89453-5.6016 2.3281-1.4414 1.4414-2.3281 3.4219-2.3281 5.6016v3.9805zm37.008-30.223c-1.0312 0-1.957-0.42188-2.6328-1.0938-0.42188-0.42188-0.73828-0.9375-0.92578-1.5273h-6.7773l-1.0938 10.316c1.9141 0.91406 3.9141 2.1992 5.8438 3.7695 2.0508 1.6719 4.0312 3.6719 5.7266 5.9141 0.36719 0.48438 0.27344 1.1797-0.21094 1.5469-0.48438 0.36719-1.1797 0.27344-1.5469-0.21094-1.5781-2.0859-3.4297-3.957-5.3672-5.5352-2.0312-1.6523-4.125-2.957-6.0742-3.8008l-0.74609-0.32812 1.4727-13.895h8.7695c0.17969-0.57812 0.50391-1.1055 0.92578-1.5273 0.67188-0.67188 1.6016-1.0938 2.6328-1.0938s1.957 0.42188 2.6328 1.0938c0.67188 0.67188 1.0938 1.6016 1.0938 2.6328s-0.42188 1.957-1.0938 2.6328c-0.67188 0.67188-1.6016 1.0938-2.6328 1.0938zm-1.0625-2.6641c0.27344 0.27344 0.65234 0.44141 1.0625 0.44141s0.78906-0.16797 1.0625-0.44141c0.27344-0.27344 0.44141-0.64063 0.44141-1.0625 0-0.42188-0.16797-0.78906-0.44141-1.0625-0.27344-0.27344-0.64062-0.44141-1.0625-0.44141s-0.78906 0.16797-1.0625 0.44141c-0.27344 0.27344-0.44141 0.65234-0.44141 1.0625 0 0.41016 0.16797 0.78906 0.44141 1.0625zm13.527 28.918c1.0312 0 1.957-0.42188 2.6328-1.0938 0.67188-0.67188 1.0938-1.6016 1.0938-2.6328s-0.42188-1.957-1.0938-2.6328c-0.67188-0.67188-1.6016-1.0938-2.6328-1.0938s-1.957 0.42188-2.6328 1.0938c-0.36719 0.36719-0.66406 0.82031-0.85156 1.3164l-9.2305-0.53516 1.0508 1.7891c0.74609 1.2852 1.4531 2.8086 2.0312 4.4961 0.55859 1.6094 1 3.3477 1.293 5.1562 0.042968 0.29297 0.21094 0.54687 0.42969 0.71484-0.11719 0.90625-0.14844 2.043-0.050781 3.4102l-0.019531 1.0938h0.03125c-0.011719 1.3672-0.11719 2.707-0.30469 4-0.21094 1.4414-0.51562 2.8516-0.91406 4.2227-0.16797 0.58984 0.16797 1.1992 0.74609 1.3789 0.58984 0.16797 1.1992-0.16797 1.3789-0.74609 0.42969-1.4727 0.76953-2.9883 0.98828-4.5352 0.19922-1.3789 0.30469-2.7891 0.32812-4.2109l13.746 0.66406c0.60938 0.03125 1.125-0.44141 1.1562-1.0508s-0.44141-1.125-1.0508-1.1562l-13.777-0.66406c0.17969-2.832-0.23047-4.4297-0.75781-4.8633-0.29297-1.4297-0.68359-2.8203-1.1367-4.125-0.37891-1.1055-0.80859-2.1562-1.2734-3.1172l5.1992 0.30469c0.16797 0.66406 0.50391 1.2617 0.98047 1.7383 0.67188 0.67188 1.6016 1.0938 2.6328 1.0938zm-1.0625-2.6641c-0.27344-0.27344-0.44141-0.65234-0.44141-1.0625s0.16797-0.78906 0.44141-1.0625c0.27344-0.27344 0.64062-0.44141 1.0625-0.44141 0.42187 0 0.78906 0.16797 1.0625 0.44141 0.27344 0.27344 0.44141 0.64062 0.44141 1.0625s-0.16797 0.78906-0.44141 1.0625c-0.27344 0.27344-0.65234 0.44141-1.0625 0.44141-0.41016 0-0.78906-0.16797-1.0625-0.44141zm0.85156 30.945c-1.0312 0-1.957-0.42188-2.6328-1.0938-0.49609-0.49609-0.84375-1.125-1-1.8203l-5.125-0.42969c-0.57031 1.2305-1.3047 2.5273-2.168 3.8008-1.0117 1.4961-2.1992 2.9883-3.5273 4.3789-0.42188 0.44141-1.125 0.46484-1.5703 0.042968-0.44141-0.42187-0.46484-1.125-0.042968-1.5703 1.2227-1.2852 2.3359-2.6836 3.2852-4.0938 0.96875-1.4414 1.7578-2.8633 2.293-4.1562l0.31641-0.75781 6.7266 0.57031c0.19141-0.46484 0.46484-0.875 0.80859-1.2305 0.67188-0.67188 1.6016-1.0938 2.6328-1.0938s1.957 0.42188 2.6328 1.0938c0.67188 0.67188 1.0938 1.6016 1.0938 2.6328s-0.42188 1.957-1.0938 2.6328c-0.67188 0.67188-1.6016 1.0938-2.6328 1.0938zm-1.0625-2.6602c0.27344 0.27344 0.64062 0.44141 1.0625 0.44141s0.78906-0.16797 1.0625-0.44141 0.44141-0.64062 0.44141-1.0625-0.16797-0.78906-0.44141-1.0625-0.65234-0.44141-1.0625-0.44141-0.78906 0.16797-1.0625 0.44141-0.44141 0.65234-0.44141 1.0625 0.16797 0.78906 0.44141 1.0625zm-11.191 29.641c-1.0312 0-1.957-0.42188-2.6328-1.0938-0.42188-0.42188-0.73828-0.9375-0.92578-1.5273h-8.8945l0.17969-12.359c-0.31641 0.14844-0.63281 0.28516-0.95703 0.42188-0.90625 0.37891-1.8828 0.73828-2.9062 1.0508-0.57812 0.17969-1.1992-0.14844-1.3789-0.73828-0.17969-0.58984 0.14844-1.1992 0.73828-1.3789 0.90625-0.28516 1.8086-0.60938 2.6953-0.98047 0.86328-0.35938 1.6719-0.75781 2.4102-1.1562l1.6719-0.92578-0.19922 13.844h6.6523c0.17969-0.57812 0.50391-1.1055 0.92578-1.5273 0.67188-0.67188 1.6016-1.0938 2.6328-1.0938s1.957 0.42188 2.6328 1.0938c0.67188 0.67188 1.0938 1.6016 1.0938 2.6328s-0.42188 1.957-1.0938 2.6328c-0.67188 0.67188-1.6016 1.0938-2.6328 1.0938zm-1.0625-2.6641c0.27344 0.27344 0.65234 0.44141 1.0625 0.44141s0.78906-0.16797 1.0625-0.44141c0.27344-0.27344 0.44141-0.64062 0.44141-1.0625 0-0.42187-0.16797-0.78906-0.44141-1.0625-0.27344-0.27344-0.64062-0.44141-1.0625-0.44141s-0.78906 0.16797-1.0625 0.44141c-0.27344 0.27344-0.44141 0.65234-0.44141 1.0625 0 0.41016 0.16797 0.78906 0.44141 1.0625zm-50.367-4.8516c1.0312 0 1.957 0.42188 2.6328 1.0938 0.42188 0.42188 0.73828 0.9375 0.92578 1.5273h6.7773l1.0938-10.316c-1.9141-0.91406-3.9141-2.1992-5.8438-3.7695-2.0508-1.6719-4.0312-3.6719-5.7266-5.9141-0.36719-0.48438-0.27344-1.1797 0.21094-1.5469 0.48438-0.36719 1.1797-0.27344 1.5469 0.21094 1.5781 2.0859 3.4297 3.957 5.3672 5.5352 2.0312 1.6523 4.125 2.957 6.0742 3.8008l0.74609 0.32812-1.4727 13.895h-8.7695c-0.17969 0.57812-0.50391 1.1055-0.92578 1.5273-0.67188 0.67188-1.6016 1.0938-2.6328 1.0938s-1.957-0.42188-2.6328-1.0938c-0.67188-0.67188-1.0938-1.6016-1.0938-2.6328s0.42188-1.957 1.0938-2.6328c0.67188-0.67188 1.6016-1.0938 2.6328-1.0938zm1.0625 2.6641c-0.27344-0.27344-0.64062-0.44141-1.0625-0.44141s-0.78906 0.16797-1.0625 0.44141c-0.27344 0.27344-0.44141 0.64063-0.44141 1.0625 0 0.42188 0.16797 0.78906 0.44141 1.0625 0.27344 0.27344 0.65234 0.44141 1.0625 0.44141s0.78906-0.16797 1.0625-0.44141c0.27344-0.27344 0.44141-0.65234 0.44141-1.0625 0-0.41016-0.16797-0.78906-0.44141-1.0625zm-13.527-28.918c-1.0312 0-1.957 0.42188-2.6328 1.0938-0.67188 0.67188-1.0938 1.6016-1.0938 2.6328s0.42188 1.957 1.0938 2.6328c0.67188 0.67188 1.6016 1.0938 2.6328 1.0938s1.957-0.42188 2.6328-1.0938c0.36719-0.36719 0.66406-0.82031 0.85156-1.3164l9.2305 0.53516-1.0508-1.7891c-0.74609-1.2852-1.4531-2.8086-2.0312-4.4961-0.55859-1.6094-1-3.3477-1.293-5.1562-0.042968-0.29297-0.21094-0.54687-0.42969-0.70703 0.11719-0.90625 0.14844-2.043 0.050781-3.4102l0.019531-1.0938h-0.03125c0.011719-1.3672 0.11719-2.707 0.30469-4 0.21094-1.4414 0.51562-2.8516 0.91406-4.2227 0.16797-0.58984-0.16797-1.1992-0.74609-1.3789-0.58984-0.16797-1.1992 0.16797-1.3789 0.74609-0.42969 1.4727-0.76953 2.9883-0.98828 4.5352-0.19922 1.3789-0.30469 2.7891-0.32812 4.2109l-13.746-0.66406c-0.60938-0.03125-1.125 0.44141-1.1562 1.0508s0.44141 1.125 1.0508 1.1562l13.777 0.66406c-0.19141 2.8633 0.23047 4.4648 0.75781 4.8828 0.29297 1.4219 0.68359 2.8008 1.125 4.1055 0.37891 1.1055 0.80859 2.1562 1.2734 3.1172l-5.1992-0.30469c-0.16797-0.66406-0.50391-1.2617-0.98047-1.7383-0.67188-0.67188-1.6016-1.0938-2.6328-1.0938zm1.0625 2.6641c0.27344 0.27344 0.44141 0.65234 0.44141 1.0625s-0.16797 0.78906-0.44141 1.0625c-0.27344 0.27344-0.65234 0.44141-1.0625 0.44141-0.41016 0-0.78906-0.16797-1.0625-0.44141-0.27344-0.27344-0.44141-0.64062-0.44141-1.0625s0.16797-0.78906 0.44141-1.0625c0.27344-0.27344 0.64063-0.44141 1.0625-0.44141 0.42188 0 0.78906 0.16797 1.0625 0.44141zm-0.85156-30.945c1.0312 0 1.957 0.42188 2.6328 1.0938 0.49609 0.49609 0.84375 1.125 1 1.8203l5.125 0.42969c0.57031-1.2305 1.3047-2.5273 2.168-3.8008 1.0117-1.4961 2.1992-2.9883 3.5273-4.3789 0.42188-0.44141 1.125-0.46484 1.5703-0.042968 0.44141 0.42187 0.46484 1.125 0.042968 1.5703-1.2227 1.2852-2.3359 2.6836-3.2852 4.0938-0.96875 1.4414-1.7578 2.8633-2.293 4.1562l-0.31641 0.75781-6.7266-0.57031c-0.19141 0.46484-0.46484 0.88281-0.82031 1.2305-0.67188 0.67188-1.6016 1.0938-2.6328 1.0938s-1.957-0.42188-2.6328-1.0938c-0.67188-0.67188-1.0938-1.6016-1.0938-2.6328s0.42188-1.957 1.0938-2.6328c0.67188-0.67188 1.6016-1.0938 2.6328-1.0938zm1.0625 2.6602c-0.27344-0.27344-0.65234-0.44141-1.0625-0.44141s-0.78906 0.16797-1.0625 0.44141-0.44141 0.64062-0.44141 1.0625 0.16797 0.78906 0.44141 1.0625 0.64062 0.44141 1.0625 0.44141 0.78906-0.16797 1.0625-0.44141 0.44141-0.64062 0.44141-1.0625-0.16797-0.78906-0.44141-1.0625zm11.191-29.641c1.0312 0 1.957 0.42188 2.6328 1.0938 0.42188 0.42188 0.73828 0.9375 0.92578 1.5273h8.8945l-0.17969 12.359c0.31641-0.14844 0.63281-0.28516 0.95703-0.42188 0.91406-0.37891 1.8828-0.73828 2.9062-1.0508 0.58984-0.17969 1.1992 0.14844 1.3789 0.73828 0.17969 0.58984-0.14844 1.1992-0.73828 1.3789-0.90625 0.28516-1.8086 0.60938-2.6953 0.98047-0.86328 0.35938-1.6719 0.75781-2.4102 1.1562l-1.6719 0.92578 0.19922-13.844h-6.6523c-0.17969 0.57812-0.50391 1.1055-0.92578 1.5273-0.67188 0.67188-1.6016 1.0938-2.6328 1.0938s-1.957-0.42188-2.6328-1.0938c-0.67188-0.67188-1.0938-1.6016-1.0938-2.6328s0.42188-1.957 1.0938-2.6328c0.67188-0.67188 1.6016-1.0938 2.6328-1.0938zm1.0625 2.6641c-0.27344-0.27344-0.64062-0.44141-1.0625-0.44141s-0.78906 0.16797-1.0625 0.44141c-0.27344 0.27344-0.44141 0.64062-0.44141 1.0625 0 0.42187 0.16797 0.78906 0.44141 1.0625 0.27344 0.27344 0.65234 0.44141 1.0625 0.44141s0.78906-0.16797 1.0625-0.44141c0.27344-0.27344 0.44141-0.65234 0.44141-1.0625 0-0.41016-0.16797-0.78906-0.44141-1.0625zm23.547 9.4102v-11.391c0-0.60938 0.49609-1.1055 1.1055-1.1055s1.1055 0.49609 1.1055 1.1055v11.398c0.62109 0.019532 1.2539 0.0625 1.8828 0.11719 1.0117 0.09375 1.9883 0.23047 2.957 0.41016 0.60156 0.10547 1 0.68359 0.88281 1.2852-0.10547 0.60156-0.68359 1-1.2852 0.88281-0.91406-0.16797-1.832-0.29297-2.7578-0.37891-0.89453-0.085937-1.8203-0.125-2.8008-0.125-0.89453 0-1.7773 0.042969-2.6523 0.11719-0.88281 0.074219-1.7578 0.19141-2.6211 0.34766-0.60156 0.10547-1.1797-0.29297-1.2852-0.90625-0.10547-0.60156 0.29297-1.1797 0.90625-1.2852 0.92578-0.15625 1.8633-0.28516 2.8086-0.36719 0.57812-0.050781 1.1484-0.085937 1.7383-0.10547zm2.2109 64.883v11.398c0 0.60938-0.49609 1.1055-1.1055 1.1055s-1.1055-0.49609-1.1055-1.1055v-11.398c-0.62109-0.019531-1.2539-0.0625-1.8828-0.11719-1.0117-0.09375-1.9883-0.23047-2.957-0.41016-0.60156-0.10547-1-0.68359-0.88281-1.2852 0.10547-0.60156 0.68359-1 1.2852-0.88281 0.91406 0.16797 1.832 0.29297 2.7578 0.37891 0.89453 0.085938 1.8203 0.125 2.8008 0.125 0.89453 0 1.7773-0.042969 2.6523-0.11719 0.88281-0.074218 1.7578-0.19141 2.6211-0.34766 0.60156-0.10547 1.1797 0.29297 1.2852 0.90625 0.10547 0.60156-0.29297 1.1797-0.90625 1.2852-0.92578 0.15625-1.8633 0.28516-2.8086 0.36719-0.57031 0.050781-1.1484 0.085938-1.7266 0.10547zm-1.1055-61.156c7.9258 0 15.117 3.2109 20.305 8.4102 5.1992 5.1992 8.4102 12.379 8.4102 20.305s-3.2109 15.117-8.4102 20.305c-5.1992 5.1992-12.379 8.4102-20.305 8.4102s-15.117-3.2109-20.305-8.4102c-5.1992-5.1992-8.4102-12.379-8.4102-20.305s3.2109-15.105 8.4102-20.305c5.1992-5.1992 12.379-8.4102 20.305-8.4102zm18.738 9.9766c4.8008 4.8008 7.7578 11.422 7.7578 18.738s-2.9688 13.949-7.7578 18.738c-4.8008 4.8008-11.422 7.7578-18.738 7.7578s-13.949-2.9688-18.738-7.7578c-4.8008-4.8008-7.7578-11.422-7.7578-18.738s2.9688-13.949 7.7578-18.738c4.8008-4.8008 11.422-7.7578 18.738-7.7578s13.949 2.9688 18.738 7.7578zm-15.496 26.695c0-0.0625 0-0.10547 0.019531-0.14844 0.019531-0.042969 0.050781-0.074219 0.09375-0.10547 0.67188-0.51562 1.2305-1.1914 1.6094-1.957 0.36719-0.74609 0.57812-1.5781 0.57812-2.4531 0-1.5352-0.62109-2.9141-1.6211-3.9258-1-1-2.3906-1.6211-3.9258-1.6211s-2.9141 0.62109-3.9258 1.6211c-1 1-1.6211 2.3906-1.6211 3.9258 0 0.875 0.21094 1.7148 0.57812 2.4531 0.37891 0.76953 0.9375 1.4414 1.6094 1.957 0.042969 0.03125 0.074219 0.074219 0.09375 0.10547s0.019531 0.085937 0.019531 0.14844v5.8945c0 0.69531 0.28516 1.3359 0.74609 1.7891 0.46484 0.46484 1.0938 0.74609 1.7891 0.74609h1.4219c0.69531 0 1.3359-0.28516 1.7891-0.74609 0.46484-0.46484 0.74609-1.0938 0.74609-1.7891zm-2.2227 5.8945v-5.8945c0-0.39844 0.085938-0.77734 0.26172-1.125 0.16797-0.34766 0.42188-0.64062 0.73828-0.88281 0.41016-0.31641 0.73828-0.71484 0.96875-1.168 0.22266-0.44141 0.33594-0.9375 0.33594-1.4727 0-0.91406-0.36719-1.7461-0.98047-2.3594-0.60938-0.60938-1.4297-0.98047-2.3594-0.98047-0.92578 0-1.7461 0.36719-2.3594 0.98047-0.60938 0.60938-0.98047 1.4297-0.98047 2.3594 0 0.53516 0.125 1.0312 0.33594 1.4727 0.23047 0.46484 0.55859 0.86328 0.96875 1.168 0.31641 0.24219 0.57031 0.54688 0.73828 0.88281 0.16797 0.34766 0.26172 0.72656 0.26172 1.125v5.8945c0 0.085938 0.03125 0.16797 0.09375 0.22266 0.050781 0.050781 0.13672 0.09375 0.22266 0.09375h1.4219c0.085938 0 0.16797-0.03125 0.22266-0.09375 0.050782-0.050781 0.09375-0.13672 0.09375-0.22266zm-8.0391-20.629v-3.9805c0-1 0.41016-1.9141 1.0742-2.5781 0.66406-0.66406 1.5781-1.0742 2.5781-1.0742h6.7266c1 0 1.9141 0.41016 2.5781 1.0742 0.66406 0.66406 1.0742 1.5781 1.0742 2.5781v3.9805h-14.051zm20.535 0.27344c0.35938 0.15625 0.67188 0.37891 0.94922 0.65234 0.57031 0.57031 0.92578 1.3594 0.92578 2.2305v21.379c0 0.875-0.35938 1.6641-0.92578 2.2305-0.57031 0.57031-1.3594 0.92578-2.2305 0.92578h-24.465c-0.875 0-1.6641-0.35937-2.2305-0.92578-0.57031-0.57031-0.92578-1.3594-0.92578-2.2305v-21.379c0-0.875 0.35938-1.6641 0.92578-2.2305 0.27344-0.27344 0.58984-0.49609 0.94922-0.65234v-4.2617c0-2.8008 1.1367-5.3359 2.9805-7.1797s4.3789-2.9805 7.168-2.9805h6.7266c2.8008 0 5.3359 1.1367 7.168 2.9805 1.8438 1.8438 2.9805 4.3789 2.9805 7.1797v4.2617zm-1.2852 1.9453h-24.465c-0.25391 0-0.49609 0.10547-0.66406 0.27344-0.16797 0.16797-0.27344 0.39844-0.27344 0.66406v21.379c0 0.25391 0.10547 0.49609 0.27344 0.66406 0.16797 0.16797 0.39844 0.27344 0.66406 0.27344h24.465c0.25391 0 0.49609-0.10547 0.66406-0.27344s0.27344-0.41016 0.27344-0.66406v-21.379c0-0.25391-0.10547-0.49609-0.27344-0.66406-0.16797-0.16797-0.39844-0.27344-0.66406-0.27344z" fill="#541875" fill-rule="evenodd"/>
</svg>
