<?xml version="1.0" encoding="UTF-8"?>
<svg width="100pt" height="100pt" version="1.1" viewBox="0 0 100 100" xmlns="http://www.w3.org/2000/svg">
 <path d="m67.18 61.219 0.6875-1.1797 2.3594 1.3672-0.67969 1.1797c-1.5234 2.6289-3.6602 3.8672-6.4453 3.7031l7.2656 7.2188 5.5-4.4727 1.3516-0.12109-2.7109-19.391-12.43 1.9688-8.9688 0.19922c-1.4727 0.085938-4.3984 0.79688-5.3477 1.5625l-6.5625 6.5664c-2.4414 2.4414 1.2227 8.2188 7.3477 2.3516 1.7266-1.6562 3.7422-2.3125 5.9844-1.9062 1.2617 0.22656 2.5781 0.8125 3.9297 1.7578l1.1875 0.51953c1.9844 0.875 3.5547 1.1953 4.7812 0.94141 1.1094-0.21484 2.0039-0.96875 2.75-2.2656zm-51.082-19.641 7.4375 1.0391c2.0234 0.28125 3.4297 2.1484 3.1484 4.1641l-0.015625 0.12109 10.953 1.8906 3.6641 0.69141c-11.09-7.7734-11.055-10.219-11.18-19.305-0.10156-7.4062-0.16406-11.359-0.17969-20.02l1.4453 0.085938c6.5352 0.39062 13.031-1.4922 18.18-5.5586l0.84766-0.67188 0.83984 0.67188c5.1484 4.0703 11.648 5.9531 18.18 5.5586l1.4453-0.085938c-0.011719 8.7148-0.078125 12.695-0.17969 20.18-0.11719 8.6797-0.15625 11.266-10.227 18.469l1.3516-0.03125 12.305-1.9492c-0.29297-2.0703 1.1133-3.9258 3.1406-4.207l7.5234-1.0547c1.9922-0.28125 3.8203 1.0898 4.1523 3.0625 1.1523 8.2773 2.3203 16.555 3.4688 24.836 0.27734 1.9922-1.0898 3.8281-3.0625 4.1523l-7.7422 1.0781c-1.875 0.22656-3.7031-1.1328-4.0195-3.0859l-0.64844 0.0625-5 4.0703c0.82422 3.0078-2.4219 6.7188-5.6562 6.8789-0.14062 2.8789-2.9688 5.6953-5.8594 5.7891-0.34375 3.7734-5.7891 7.3047-9.25 4.2461l-0.10938-0.10156c-0.76562 1.3047-2.2266 2.1172-3.7656 2.3633-1.9688 0.31641-4.3789-0.21875-6.4219-2.2656-7.7734-7.7734-10.633-11.75-18.387-19.395-0.79687 1.0391-1.9648 1.5234-3.3242 1.4297l-7.7344-1.0859c-1.9258-0.29297-3.3281-2.1602-3.0508-4.1484 1.1562-8.2812 2.3125-16.559 3.4688-24.836 0.42187-2.0625 2.1914-3.3281 4.2617-3.0391zm9.5938 12.285-2.3477 16.758c0.57031 0.17188 0.42188 0.070312 0.74219 0.38672 8.1055 7.9531 10.727 11.719 18.727 19.719 1.6094 1.6055 3.8203 2 5.2969 1.0469 0.51953-0.33203 0.97656-0.90234 0.54297-1.4375l-7.3438-7.0312 1.8906-1.9648 8.2539 7.9062 1.5469 1.3945c1.9375 1.6875 5.957-1.8359 4.2891-3.4922l-7.2695-6.9609-0.98438-0.94141 1.8906-1.9648 8.2539 7.9062c1.8984 1.8203 5.6562-2.1172 3.8867-3.8477h0.007813l-8.293-7.9453 1.8906-1.9648 8.3281 7.9766c1.8164 1.8164 5.2969-2.0977 4.0703-3.332l-10.098-10.039c-2.6641-2.6484-5.8438-4.4922-8.543-1.8984-3.2812 3.1484-6.3359 3.7539-8.6172 3.0664-3.9844-1.1953-5.5781-6.293-2.5586-9.3203l5.0625-5.0625-7.1641-1.3438-10.875-1.8711zm-2.5273-8.543-7.5273-1.0547c-0.51562-0.070313-1.0156 0.29688-1.0859 0.82031-1.1484 8.25-2.3438 16.5-3.4609 24.754-0.070313 0.51953 0.30469 1.0156 0.82031 1.0859l7.5234 1.0547c0.51562 0.070312 1-0.28906 1.0859-0.82031l3.4648-24.75c0.070313-0.52734-0.30859-1.0195-0.82031-1.0898zm61.992-1.0547-7.5234 1.0547c-0.51562 0.070313-0.88672 0.5625-0.8125 1.0898l3.4609 24.754c0.070312 0.51563 0.5625 0.88672 1.0898 0.8125l7.5156-1.0547c0.51953-0.070313 0.89062-0.5625 0.82031-1.0859-1.1289-8.2539-2.3047-16.504-3.4609-24.754-0.066406-0.51562-0.55859-0.88672-1.0898-0.81641zm-37.762 6.0703c1.4922-0.67578 3.6992-1.2227 5.5078-1.3555l2.6172-0.0625c12.305-8.3125 12.328-10.215 12.445-18.613 0.085937-6.6797 0.16016-9.8594 0.17969-17.285-6.3438 0.085938-12.605-1.8008-17.742-5.5586-5.1406 3.7578-11.406 5.6484-17.742 5.5586 0.011719 7.4219 0.085938 10.598 0.17188 17.285 0.12109 8.8477 0.14062 10.492 14.562 20.031zm-10.957-20.973 5.2383-5.2383 5.4844 5.4922 11.961-11.961 6.207 6.2031-18.164 18.164-11.695-11.691zm5.2383-1.3711-2.3359 2.3438 7.8203 7.8203 14.297-14.297-2.3359-2.3359-11.961 11.961z" fill="#541875"/>
</svg>
