<?xml version="1.0" encoding="UTF-8"?>
<svg xmlns="http://www.w3.org/2000/svg" xmlns:xlink="http://www.w3.org/1999/xlink" width="16px" height="16px" viewBox="0 0 16 16" version="1.1">
<g id="surface1">
<path style=" stroke:none;fill-rule:nonzero;fill:rgb(32.941177%,9.411765%,45.882353%);fill-opacity:1;" d="M 13.683594 11.785156 L 13.683594 11.464844 C 13.683594 10.976562 13.289062 10.582031 12.800781 10.582031 L 9.984375 10.582031 L 9.984375 8.945312 L 12.558594 8.945312 C 12.664062 9.34375 13.019531 9.636719 13.449219 9.636719 C 13.960938 9.636719 14.375 9.222656 14.375 8.710938 C 14.375 8.203125 13.960938 7.789062 13.449219 7.789062 C 13.019531 7.789062 12.660156 8.085938 12.558594 8.480469 L 9.984375 8.480469 L 9.984375 6.847656 L 12.800781 6.847656 C 13.289062 6.847656 13.683594 6.453125 13.683594 5.980469 L 13.703125 5.640625 C 14.105469 5.539062 14.402344 5.179688 14.402344 4.746094 C 14.402344 4.238281 13.988281 3.824219 13.476562 3.824219 C 12.96875 3.824219 12.550781 4.238281 12.550781 4.746094 C 12.550781 5.171875 12.84375 5.53125 13.238281 5.636719 L 13.222656 5.964844 C 13.222656 6.195312 13.035156 6.382812 12.804688 6.382812 L 9.984375 6.382812 L 9.984375 4.679688 L 11.039062 4.679688 C 11.523438 4.679688 11.921875 4.285156 11.921875 3.796875 L 11.921875 3.480469 C 12.328125 3.382812 12.636719 3.019531 12.636719 2.578125 C 12.636719 2.070312 12.222656 1.65625 11.710938 1.65625 C 11.203125 1.65625 10.789062 2.070312 10.789062 2.578125 C 10.789062 3 11.070312 3.351562 11.453125 3.464844 L 11.453125 3.800781 C 11.453125 4.03125 11.265625 4.21875 11.039062 4.21875 L 9.984375 4.21875 L 9.984375 3.039062 C 9.984375 1.796875 8.972656 0.785156 7.730469 0.785156 C 6.496094 0.785156 5.492188 1.796875 5.492188 3.039062 L 5.492188 3.070312 C 5.359375 3.046875 5.21875 3.035156 5.078125 3.035156 C 3.84375 3.035156 2.84375 4.046875 2.84375 5.289062 C 2.84375 5.519531 2.875 5.742188 2.945312 5.953125 C 2.140625 6.304688 1.601562 7.109375 1.601562 8 C 1.601562 8.921875 2.183594 9.753906 3.023438 10.085938 C 2.902344 10.359375 2.839844 10.65625 2.839844 10.976562 C 2.839844 12.210938 3.84375 13.210938 5.078125 13.210938 C 5.21875 13.210938 5.363281 13.199219 5.5 13.171875 C 5.597656 14.316406 6.558594 15.214844 7.730469 15.214844 C 8.972656 15.214844 9.984375 14.210938 9.984375 12.980469 L 9.984375 12.589844 L 10.648438 12.589844 C 10.878906 12.589844 11.0625 12.777344 11.0625 13.007812 L 11.0625 13.34375 C 10.679688 13.453125 10.398438 13.804688 10.398438 14.226562 C 10.398438 14.738281 10.8125 15.152344 11.320312 15.152344 C 11.832031 15.152344 12.246094 14.738281 12.246094 14.226562 C 12.246094 13.789062 11.9375 13.421875 11.53125 13.328125 L 11.53125 13.007812 C 11.53125 12.523438 11.136719 12.125 10.648438 12.125 L 9.984375 12.125 L 9.984375 11.042969 L 12.800781 11.042969 C 13.03125 11.042969 13.21875 11.230469 13.21875 11.460938 L 13.21875 11.796875 C 12.835938 11.910156 12.550781 12.261719 12.550781 12.683594 C 12.550781 13.191406 12.96875 13.605469 13.476562 13.605469 C 13.988281 13.605469 14.402344 13.191406 14.402344 12.683594 C 14.398438 12.246094 14.09375 11.878906 13.683594 11.785156 Z M 13.449219 8.253906 C 13.703125 8.253906 13.910156 8.460938 13.910156 8.710938 C 13.910156 8.96875 13.703125 9.171875 13.449219 9.171875 C 13.199219 9.171875 12.992188 8.96875 12.992188 8.710938 C 12.992188 8.460938 13.199219 8.253906 13.449219 8.253906 Z M 13.015625 4.746094 C 13.015625 4.492188 13.222656 4.285156 13.472656 4.285156 C 13.726562 4.285156 13.933594 4.492188 13.933594 4.746094 C 13.933594 4.988281 13.742188 5.1875 13.5 5.203125 C 13.5 5.203125 13.492188 5.199219 13.492188 5.199219 C 13.480469 5.199219 13.472656 5.203125 13.460938 5.203125 C 13.21875 5.199219 13.015625 4.996094 13.015625 4.746094 Z M 11.25 2.578125 C 11.25 2.328125 11.457031 2.121094 11.707031 2.121094 C 11.964844 2.121094 12.167969 2.328125 12.167969 2.578125 C 12.167969 2.832031 11.964844 3.039062 11.707031 3.039062 C 11.457031 3.039062 11.25 2.832031 11.25 2.578125 Z M 11.78125 14.226562 C 11.78125 14.480469 11.574219 14.6875 11.320312 14.6875 C 11.070312 14.6875 10.863281 14.480469 10.863281 14.226562 C 10.863281 13.972656 11.070312 13.765625 11.320312 13.765625 C 11.574219 13.765625 11.78125 13.972656 11.78125 14.226562 Z M 9.519531 12.980469 C 9.519531 13.957031 8.714844 14.75 7.726562 14.75 C 6.75 14.75 5.953125 13.957031 5.953125 12.980469 C 5.953125 12.96875 5.957031 12.957031 5.957031 12.949219 C 5.972656 12.902344 5.976562 12.855469 5.964844 12.808594 C 6.046875 11.917969 6.761719 11.230469 7.660156 11.199219 C 7.96875 11.351562 8.3125 11.4375 8.683594 11.4375 C 8.8125 11.4375 8.914062 11.332031 8.914062 11.207031 C 8.914062 11.078125 8.808594 10.972656 8.683594 10.972656 C 7.734375 10.972656 6.972656 10.257812 6.90625 9.332031 C 7.085938 9.007812 7.15625 8.625 7.09375 8.226562 C 7.070312 8.101562 6.953125 8.019531 6.824219 8.035156 C 6.699219 8.058594 6.613281 8.175781 6.632812 8.304688 C 6.683594 8.585938 6.625 8.859375 6.5 9.089844 C 6.476562 9.117188 6.460938 9.148438 6.449219 9.179688 C 6.277344 9.4375 6.011719 9.628906 5.679688 9.691406 C 5.554688 9.714844 5.472656 9.835938 5.496094 9.960938 C 5.519531 10.074219 5.617188 10.152344 5.726562 10.152344 C 5.738281 10.152344 5.753906 10.148438 5.769531 10.144531 C 6.054688 10.089844 6.308594 9.96875 6.519531 9.792969 C 6.625 10.183594 6.835938 10.535156 7.121094 10.808594 C 6.265625 11.046875 5.628906 11.777344 5.515625 12.679688 C 5.375 12.714844 5.226562 12.738281 5.078125 12.738281 C 4.101562 12.738281 3.304688 11.945312 3.304688 10.96875 C 3.304688 10.628906 3.390625 10.332031 3.558594 10.0625 C 3.597656 10 3.605469 9.921875 3.574219 9.851562 C 3.546875 9.78125 3.488281 9.730469 3.414062 9.710938 C 2.632812 9.527344 2.066406 8.800781 2.066406 7.992188 C 2.066406 7.21875 2.582031 6.527344 3.3125 6.304688 C 3.378906 6.285156 3.429688 6.242188 3.460938 6.179688 C 3.484375 6.121094 3.484375 6.050781 3.460938 5.988281 C 3.359375 5.773438 3.308594 5.535156 3.308594 5.285156 C 3.308594 4.300781 4.105469 3.496094 5.082031 3.496094 C 5.300781 3.496094 5.503906 3.527344 5.691406 3.59375 C 5.765625 3.625 5.855469 3.605469 5.917969 3.554688 C 5.980469 3.503906 6.011719 3.417969 5.996094 3.339844 C 5.980469 3.238281 5.964844 3.128906 5.964844 3.035156 C 5.964844 2.046875 6.757812 1.242188 7.734375 1.242188 C 8.722656 1.242188 9.527344 2.046875 9.527344 3.035156 L 9.527344 6.566406 C 8.921875 6.484375 8.449219 5.988281 8.402344 5.375 C 8.773438 5.15625 9.050781 4.816406 9.183594 4.402344 C 9.222656 4.28125 9.160156 4.148438 9.035156 4.109375 C 8.914062 4.070312 8.785156 4.136719 8.742188 4.257812 C 8.632812 4.589844 8.402344 4.863281 8.089844 5.019531 C 7.78125 5.175781 7.425781 5.203125 7.097656 5.09375 C 6.972656 5.050781 6.84375 5.121094 6.800781 5.242188 C 6.761719 5.363281 6.828125 5.492188 6.949219 5.535156 C 7.132812 5.59375 7.320312 5.625 7.503906 5.625 C 7.660156 5.625 7.808594 5.601562 7.957031 5.5625 C 8.085938 6.347656 8.726562 6.957031 9.523438 7.035156 L 9.523438 12.980469 Z M 13.472656 13.140625 C 13.222656 13.140625 13.015625 12.9375 13.015625 12.683594 C 13.015625 12.429688 13.222656 12.222656 13.472656 12.222656 C 13.726562 12.222656 13.933594 12.429688 13.933594 12.683594 C 13.9375 12.9375 13.730469 13.140625 13.472656 13.140625 Z M 13.472656 13.140625 "/>
</g>
</svg>
