<?xml version="1.0" encoding="UTF-8"?>
<svg xmlns="http://www.w3.org/2000/svg" xmlns:xlink="http://www.w3.org/1999/xlink" width="16px" height="16px" viewBox="0 0 16 16" version="1.1">
<g id="surface1">
<path style=" stroke:none;fill-rule:evenodd;fill:rgb(32.941177%,9.411765%,45.882353%);fill-opacity:1;" d="M 10.449219 8.222656 C 10.40625 8.277344 10.382812 8.320312 10.390625 8.398438 C 10.394531 8.460938 10.425781 8.515625 10.472656 8.558594 L 11.601562 9.507812 C 11.78125 9.613281 11.980469 9.476562 11.964844 9.292969 C 11.960938 9.230469 11.933594 9.175781 11.882812 9.132812 L 10.777344 8.199219 C 10.679688 8.117188 10.535156 8.128906 10.449219 8.222656 Z M 4.734375 7.257812 C 4.535156 7.257812 4.535156 6.953125 4.734375 6.953125 L 9.445312 6.953125 C 9.648438 6.953125 9.648438 7.257812 9.445312 7.257812 Z M 4.734375 6.070312 C 4.535156 6.070312 4.535156 5.765625 4.734375 5.765625 L 9.445312 5.765625 C 9.648438 5.765625 9.648438 6.070312 9.445312 6.070312 Z M 3.480469 9.097656 L 3.636719 9.582031 L 4.140625 9.578125 C 4.289062 9.578125 4.347656 9.769531 4.230469 9.855469 L 3.820312 10.152344 L 3.976562 10.632812 C 4.023438 10.769531 3.863281 10.894531 3.734375 10.796875 L 3.335938 10.503906 L 2.925781 10.800781 C 2.808594 10.890625 2.644531 10.773438 2.691406 10.632812 L 2.847656 10.152344 L 2.4375 9.855469 C 2.320312 9.769531 2.375 9.574219 2.539062 9.578125 L 3.03125 9.582031 L 3.1875 9.101562 C 3.234375 8.957031 3.433594 8.960938 3.480469 9.097656 Z M 3.378906 9.78125 L 3.335938 9.644531 L 3.289062 9.78125 C 3.25 9.910156 3.117188 9.886719 3 9.886719 C 3.09375 9.953125 3.214844 10.011719 3.171875 10.140625 L 3.128906 10.277344 C 3.21875 10.210938 3.316406 10.113281 3.425781 10.191406 L 3.542969 10.277344 C 3.507812 10.175781 3.441406 10.050781 3.550781 9.96875 L 3.667969 9.886719 C 3.558594 9.886719 3.421875 9.910156 3.378906 9.78125 Z M 1.757812 8.339844 L 1.796875 7.949219 L 1.792969 7.949219 C 1.808594 7.828125 1.878906 7.722656 1.988281 7.660156 C 2.09375 7.597656 2.222656 7.589844 2.335938 7.640625 L 2.691406 7.800781 C 2.726562 7.816406 2.769531 7.804688 2.792969 7.773438 L 3.023438 7.453125 C 3.066406 7.398438 3.121094 7.355469 3.179688 7.328125 L 3.179688 2.019531 C 3.179688 1.933594 3.25 1.863281 3.335938 1.863281 L 5.757812 1.863281 L 5.761719 1.378906 C 5.761719 1.292969 5.828125 1.222656 5.914062 1.222656 L 7.222656 1.222656 C 7.402344 0.527344 8.675781 0.28125 9.410156 0.738281 C 9.613281 0.863281 9.753906 1.03125 9.800781 1.222656 L 11.113281 1.222656 C 11.195312 1.222656 11.265625 1.292969 11.265625 1.378906 L 11.265625 1.863281 L 13.691406 1.863281 C 13.773438 1.863281 13.84375 1.933594 13.84375 2.019531 L 13.84375 12.816406 L 15.136719 13.910156 C 15.628906 14.328125 15.363281 15.117188 14.734375 15.171875 C 14.550781 15.1875 14.363281 15.132812 14.214844 15.003906 L 13.84375 14.691406 L 13.84375 15.339844 C 13.84375 15.425781 13.773438 15.496094 13.691406 15.496094 L 3.335938 15.496094 C 3.25 15.496094 3.179688 15.425781 3.179688 15.339844 L 3.179688 12.65625 C 3.117188 12.632812 3.0625 12.589844 3.023438 12.53125 L 2.792969 12.214844 C 2.769531 12.183594 2.726562 12.171875 2.691406 12.1875 L 2.484375 12.28125 L 1.761719 13.6875 C 1.695312 13.820312 1.496094 13.785156 1.476562 13.640625 L 1.378906 12.96875 L 0.832031 13.253906 C 0.703125 13.320312 0.558594 13.179688 0.625 13.050781 L 1.390625 11.542969 C 1.289062 11.53125 1.214844 11.53125 1.125 11.472656 C 0.972656 11.371094 0.902344 11.167969 0.980469 10.992188 L 1.140625 10.636719 C 1.15625 10.597656 1.148438 10.558594 1.113281 10.53125 L 0.796875 10.304688 C 0.585938 10.152344 0.585938 9.832031 0.796875 9.679688 L 1.113281 9.453125 C 1.148438 9.429688 1.15625 9.386719 1.140625 9.347656 L 0.980469 8.996094 C 0.871094 8.75 1.050781 8.46875 1.304688 8.453125 L 1.679688 8.414062 C 1.722656 8.410156 1.753906 8.378906 1.757812 8.339844 Z M 3.488281 7.328125 L 3.488281 2.171875 L 5.757812 2.171875 L 5.757812 2.738281 C 5.757812 2.824219 5.828125 2.894531 5.914062 2.894531 L 11.113281 2.894531 C 11.195312 2.894531 11.265625 2.824219 11.265625 2.738281 L 11.265625 2.171875 L 13.535156 2.171875 L 13.535156 12.554688 L 11.1875 10.566406 C 11.34375 10.335938 11.484375 10.09375 11.609375 9.835938 C 11.804688 9.882812 12.011719 9.816406 12.144531 9.660156 C 12.335938 9.433594 12.308594 9.09375 12.082031 8.902344 L 12.082031 8.898438 L 10.972656 7.964844 C 10.742188 7.773438 10.402344 7.804688 10.210938 8.03125 C 10.082031 8.183594 10.050781 8.394531 10.121094 8.570312 C 9.261719 9.160156 8.617188 9.917969 8.15625 10.851562 C 7.964844 10.804688 7.734375 10.875 7.621094 11.027344 C 7.429688 11.246094 7.453125 11.589844 7.683594 11.785156 L 8.792969 12.71875 C 9.019531 12.914062 9.359375 12.882812 9.554688 12.65625 C 9.683594 12.507812 9.714844 12.292969 9.644531 12.113281 C 9.859375 11.964844 10.058594 11.808594 10.25 11.640625 L 13.539062 14.429688 L 13.539062 15.1875 L 10.898438 15.1875 L 10.898438 14.773438 C 10.898438 14.429688 10.621094 14.152344 10.277344 14.152344 L 10.023438 14.152344 L 10.023438 13.9375 C 10.023438 13.722656 9.847656 13.542969 9.628906 13.542969 L 7.375 13.542969 C 7.269531 13.542969 7.167969 13.589844 7.097656 13.660156 C 6.957031 13.800781 6.980469 13.957031 6.980469 14.152344 L 6.730469 14.152344 C 6.386719 14.152344 6.109375 14.429688 6.109375 14.773438 L 6.109375 15.1875 L 3.488281 15.1875 L 3.488281 12.660156 C 3.550781 12.632812 3.605469 12.589844 3.648438 12.53125 L 3.875 12.214844 C 3.898438 12.183594 3.941406 12.171875 3.976562 12.1875 L 4.1875 12.28125 L 4.910156 13.6875 C 4.976562 13.820312 5.171875 13.785156 5.195312 13.640625 L 5.292969 12.96875 L 5.835938 13.253906 C 5.96875 13.320312 6.109375 13.179688 6.042969 13.050781 L 5.28125 11.542969 L 5.375 11.535156 C 5.5 11.519531 5.605469 11.449219 5.667969 11.339844 C 5.730469 11.234375 5.742188 11.105469 5.691406 10.992188 L 5.53125 10.636719 C 5.511719 10.601562 5.523438 10.558594 5.558594 10.535156 L 5.871094 10.308594 C 6.085938 10.15625 6.085938 9.832031 5.871094 9.679688 L 5.558594 9.453125 C 5.523438 9.429688 5.511719 9.386719 5.53125 9.351562 L 5.691406 8.996094 C 5.796875 8.757812 5.636719 8.480469 5.375 8.453125 L 4.988281 8.414062 C 4.96875 8.414062 4.953125 8.40625 4.9375 8.390625 L 4.914062 8.339844 L 4.875 7.953125 C 4.851562 7.695312 4.570312 7.535156 4.332031 7.640625 L 3.980469 7.800781 C 3.941406 7.816406 3.898438 7.804688 3.875 7.769531 L 3.648438 7.457031 C 3.605469 7.398438 3.550781 7.355469 3.488281 7.328125 Z M 4.957031 11.582031 L 4.9375 11.59375 L 4.9375 11.597656 C 4.925781 11.609375 4.914062 11.628906 4.914062 11.648438 L 4.875 12.035156 C 4.859375 12.199219 4.734375 12.332031 4.574219 12.371094 L 4.960938 13.125 L 5.023438 12.710938 C 5.039062 12.605469 5.152344 12.546875 5.253906 12.605469 L 5.554688 12.761719 Z M 2.09375 12.371094 C 1.933594 12.332031 1.8125 12.199219 1.796875 12.03125 L 1.757812 11.648438 C 1.753906 11.617188 1.738281 11.59375 1.710938 11.582031 L 1.113281 12.761719 L 1.414062 12.605469 C 1.519531 12.546875 1.632812 12.605469 1.648438 12.710938 L 1.707031 13.125 Z M 2.097656 7.988281 L 2.058594 8.371094 C 2.042969 8.554688 1.898438 8.699219 1.710938 8.71875 L 1.328125 8.757812 C 1.269531 8.765625 1.238281 8.828125 1.261719 8.871094 L 1.417969 9.226562 C 1.496094 9.394531 1.441406 9.59375 1.292969 9.703125 L 0.976562 9.929688 C 0.933594 9.957031 0.933594 10.03125 0.976562 10.058594 L 1.292969 10.285156 C 1.441406 10.394531 1.496094 10.59375 1.417969 10.761719 L 1.261719 11.117188 C 1.238281 11.164062 1.277344 11.226562 1.324219 11.230469 L 1.710938 11.269531 C 1.898438 11.289062 2.042969 11.429688 2.058594 11.617188 L 2.097656 12.003906 C 2.105469 12.054688 2.164062 12.089844 2.214844 12.070312 L 2.566406 11.910156 C 2.738281 11.832031 2.933594 11.886719 3.042969 12.039062 L 3.269531 12.351562 C 3.300781 12.394531 3.371094 12.394531 3.402344 12.351562 L 3.628906 12.039062 C 3.738281 11.886719 3.933594 11.832031 4.105469 11.910156 L 4.457031 12.070312 C 4.503906 12.089844 4.566406 12.054688 4.570312 12.003906 L 4.609375 11.617188 C 4.621094 11.523438 4.660156 11.441406 4.722656 11.378906 C 4.785156 11.320312 4.867188 11.277344 4.960938 11.269531 L 5.347656 11.230469 C 5.371094 11.226562 5.390625 11.210938 5.40625 11.1875 C 5.417969 11.164062 5.421875 11.140625 5.410156 11.117188 L 5.253906 10.761719 C 5.175781 10.59375 5.230469 10.394531 5.378906 10.285156 L 5.695312 10.058594 C 5.738281 10.03125 5.738281 9.957031 5.695312 9.929688 L 5.378906 9.703125 C 5.230469 9.59375 5.175781 9.394531 5.253906 9.226562 L 5.410156 8.871094 C 5.433594 8.824219 5.398438 8.761719 5.347656 8.757812 L 4.960938 8.71875 C 4.867188 8.710938 4.785156 8.667969 4.722656 8.609375 C 4.660156 8.546875 4.621094 8.464844 4.609375 8.371094 L 4.574219 7.984375 C 4.566406 7.933594 4.507812 7.898438 4.457031 7.917969 L 4.105469 8.078125 C 3.933594 8.15625 3.738281 8.101562 3.628906 7.949219 L 3.402344 7.636719 C 3.375 7.59375 3.304688 7.589844 3.269531 7.636719 L 3.042969 7.949219 C 2.933594 8.101562 2.738281 8.15625 2.566406 8.078125 L 2.214844 7.917969 C 2.1875 7.910156 2.167969 7.910156 2.140625 7.925781 C 2.117188 7.9375 2.105469 7.957031 2.101562 7.988281 Z M 4.347656 9.328125 C 4 8.777344 3.226562 8.605469 2.667969 8.980469 C 2.386719 9.164062 2.207031 9.445312 2.144531 9.75 C 2.085938 10.050781 2.136719 10.375 2.316406 10.65625 L 2.320312 10.65625 C 2.6875 11.21875 3.445312 11.375 3.996094 11.011719 C 4.28125 10.820312 4.460938 10.550781 4.523438 10.238281 C 4.585938 9.933594 4.53125 9.605469 4.347656 9.328125 Z M 4.609375 9.171875 C 4.609375 9.167969 4.605469 9.160156 4.601562 9.15625 C 4.371094 8.808594 4.019531 8.585938 3.640625 8.507812 C 3.261719 8.429688 2.84375 8.496094 2.5 8.726562 L 2.496094 8.730469 C 2.148438 8.960938 1.925781 9.3125 1.847656 9.6875 C 1.769531 10.066406 1.835938 10.472656 2.0625 10.824219 C 2.066406 10.828125 2.066406 10.832031 2.070312 10.835938 C 2.300781 11.183594 2.652344 11.40625 3.03125 11.480469 C 3.40625 11.558594 3.816406 11.492188 4.164062 11.265625 C 4.167969 11.265625 4.171875 11.261719 4.175781 11.257812 C 4.867188 10.796875 5.0625 9.867188 4.609375 9.171875 Z M 11.671875 3.839844 C 10.984375 3.839844 10.421875 4.398438 10.421875 5.085938 C 10.421875 5.777344 10.984375 6.335938 11.671875 6.335938 C 12.363281 6.335938 12.921875 5.777344 12.921875 5.085938 C 12.921875 4.398438 12.363281 3.839844 11.671875 3.839844 Z M 12.339844 4.421875 C 11.972656 4.050781 11.375 4.050781 11.003906 4.421875 C 10.636719 4.789062 10.636719 5.386719 11.003906 5.753906 C 11.375 6.125 11.972656 6.125 12.339844 5.753906 C 12.707031 5.386719 12.707031 4.789062 12.339844 4.421875 Z M 11.054688 5.152344 L 11.382812 5.519531 C 11.441406 5.585938 11.539062 5.589844 11.605469 5.527344 L 12.28125 4.867188 C 12.425781 4.726562 12.210938 4.507812 12.070312 4.648438 L 11.507812 5.199219 L 11.285156 4.949219 C 11.226562 4.882812 11.132812 4.878906 11.066406 4.933594 C 11.003906 4.992188 11 5.085938 11.054688 5.152344 Z M 4.734375 4.882812 L 9.445312 4.882812 C 9.648438 4.882812 9.648438 4.578125 9.445312 4.578125 L 4.734375 4.578125 C 4.535156 4.578125 4.535156 4.882812 4.734375 4.882812 Z M 8.511719 1.179688 C 8.210938 1.179688 7.96875 1.421875 7.96875 1.722656 C 7.96875 2.203125 8.554688 2.449219 8.894531 2.105469 C 9.238281 1.765625 8.996094 1.179688 8.511719 1.179688 Z M 8.679688 1.554688 C 8.53125 1.40625 8.277344 1.511719 8.277344 1.722656 C 8.277344 1.933594 8.53125 2.039062 8.679688 1.890625 C 8.773438 1.796875 8.773438 1.648438 8.679688 1.554688 Z M 7.355469 1.53125 L 6.066406 1.53125 L 6.066406 2.585938 L 10.960938 2.585938 L 10.960938 1.53125 L 9.667969 1.53125 C 9.585938 1.53125 9.515625 1.460938 9.515625 1.375 C 9.515625 1.234375 9.414062 1.101562 9.25 1 C 8.847656 0.75 8.175781 0.75 7.777344 1 C 7.609375 1.101562 7.507812 1.234375 7.507812 1.375 C 7.507812 1.460938 7.441406 1.53125 7.355469 1.53125 Z M 13.597656 13.007812 C 13.59375 13.003906 13.589844 13 13.582031 12.996094 L 11.011719 10.8125 C 10.847656 11.03125 10.667969 11.238281 10.472656 11.429688 L 14.410156 14.773438 C 14.683594 15.003906 15.113281 14.789062 15.082031 14.421875 C 15.074219 14.308594 15.027344 14.21875 14.9375 14.144531 Z M 9.628906 13.851562 L 7.375 13.851562 C 7.328125 13.851562 7.289062 13.890625 7.289062 13.9375 L 7.289062 14.152344 L 9.71875 14.152344 L 9.71875 13.9375 C 9.71875 13.890625 9.679688 13.851562 9.628906 13.851562 Z M 10.277344 14.457031 L 6.726562 14.457031 C 6.554688 14.457031 6.414062 14.601562 6.414062 14.773438 L 6.414062 15.1875 L 10.59375 15.1875 L 10.59375 14.773438 C 10.589844 14.601562 10.449219 14.457031 10.277344 14.457031 Z M 10.136719 11.328125 C 9.929688 11.523438 9.703125 11.703125 9.457031 11.871094 L 8.421875 11 C 8.863281 10.097656 9.476562 9.382812 10.304688 8.816406 L 11.339844 9.6875 C 11.199219 9.976562 11.042969 10.25 10.863281 10.5 C 10.644531 10.796875 10.417969 11.074219 10.144531 11.320312 C 10.140625 11.324219 10.140625 11.324219 10.136719 11.328125 Z M 8.164062 11.179688 C 8.113281 11.152344 8.082031 11.136719 8.011719 11.144531 C 7.8125 11.160156 7.714844 11.40625 7.882812 11.554688 L 8.988281 12.488281 C 9.140625 12.617188 9.390625 12.503906 9.375 12.289062 C 9.367188 12.222656 9.339844 12.175781 9.292969 12.128906 Z M 8.164062 11.179688 "/>
</g>
</svg>
