<?xml version="1.0" encoding="UTF-8"?>
<svg xmlns="http://www.w3.org/2000/svg" xmlns:xlink="http://www.w3.org/1999/xlink" width="16px" height="16px" viewBox="0 0 16 16" version="1.1">
<g id="surface1">
<path style=" stroke:none;fill-rule:evenodd;fill:rgb(32.941177%,9.411765%,45.882353%);fill-opacity:1;" d="M 0.78125 1.070312 L 7.65625 1.070312 C 7.742188 1.070312 7.8125 1.140625 7.8125 1.222656 L 7.8125 5.078125 C 7.8125 5.160156 7.742188 5.230469 7.65625 5.230469 L 0.78125 5.230469 C 0.699219 5.230469 0.628906 5.160156 0.628906 5.078125 L 0.628906 1.222656 C 0.628906 1.140625 0.699219 1.070312 0.78125 1.070312 Z M 7.863281 11.097656 C 7.769531 11.046875 7.703125 10.945312 7.703125 10.832031 C 7.703125 10.667969 7.835938 10.535156 8 10.535156 C 8.164062 10.535156 8.296875 10.667969 8.296875 10.832031 C 8.296875 10.945312 8.230469 11.046875 8.136719 11.097656 L 8.136719 11.289062 C 8.136719 11.363281 8.074219 11.425781 8 11.425781 C 7.925781 11.425781 7.863281 11.363281 7.863281 11.289062 Z M 8.519531 10.125 L 7.128906 10.125 C 7.101562 10.125 7.074219 10.136719 7.050781 10.15625 C 7.03125 10.175781 7.019531 10.203125 7.019531 10.234375 L 7.019531 11.726562 C 7.019531 11.757812 7.03125 11.785156 7.050781 11.804688 C 7.074219 11.824219 7.101562 11.835938 7.128906 11.835938 L 8.871094 11.835938 C 8.898438 11.835938 8.925781 11.824219 8.949219 11.804688 C 8.96875 11.785156 8.980469 11.757812 8.980469 11.726562 L 8.980469 10.234375 C 8.980469 10.203125 8.96875 10.175781 8.949219 10.15625 C 8.925781 10.136719 8.898438 10.125 8.871094 10.125 Z M 8.367188 9.816406 L 8.367188 9.542969 C 8.367188 9.460938 8.335938 9.390625 8.28125 9.339844 C 8.230469 9.289062 8.160156 9.253906 8.082031 9.253906 L 7.917969 9.253906 C 7.839844 9.253906 7.769531 9.289062 7.71875 9.339844 C 7.664062 9.390625 7.632812 9.464844 7.632812 9.542969 L 7.632812 9.816406 Z M 7.328125 9.816406 L 7.132812 9.816406 C 7.015625 9.816406 6.914062 9.863281 6.835938 9.941406 C 6.761719 10.015625 6.714844 10.121094 6.714844 10.234375 L 6.714844 11.726562 C 6.714844 11.839844 6.761719 11.945312 6.835938 12.019531 C 6.914062 12.09375 7.015625 12.140625 7.132812 12.140625 L 8.871094 12.140625 C 8.984375 12.140625 9.089844 12.09375 9.164062 12.019531 C 9.238281 11.945312 9.285156 11.839844 9.285156 11.726562 L 9.285156 10.234375 C 9.285156 10.121094 9.238281 10.015625 9.164062 9.941406 C 9.089844 9.863281 8.984375 9.816406 8.871094 9.816406 L 8.671875 9.816406 L 8.671875 9.542969 C 8.671875 9.378906 8.609375 9.230469 8.5 9.125 C 8.394531 9.015625 8.246094 8.949219 8.082031 8.949219 L 7.921875 8.949219 C 7.757812 8.949219 7.609375 9.015625 7.5 9.125 C 7.394531 9.230469 7.328125 9.378906 7.328125 9.542969 Z M 11.238281 10.59375 C 11.242188 10.589844 11.242188 10.585938 11.246094 10.578125 C 11.347656 10.265625 11.425781 9.9375 11.484375 9.601562 C 11.484375 9.59375 11.484375 9.589844 11.484375 9.582031 C 11.542969 9.230469 11.574219 8.867188 11.582031 8.492188 L 8.296875 7.246094 C 8.292969 7.246094 8.285156 7.242188 8.277344 7.238281 L 8 7.132812 L 7.722656 7.238281 C 7.714844 7.242188 7.707031 7.246094 7.703125 7.246094 L 4.417969 8.492188 C 4.421875 8.875 4.453125 9.238281 4.503906 9.582031 C 4.503906 9.589844 4.507812 9.597656 4.507812 9.605469 C 4.558594 9.945312 4.632812 10.269531 4.726562 10.578125 C 4.730469 10.585938 4.730469 10.589844 4.730469 10.597656 C 4.902344 11.148438 5.136719 11.648438 5.425781 12.109375 C 5.523438 12.265625 5.628906 12.421875 5.742188 12.570312 C 5.75 12.574219 5.753906 12.582031 5.757812 12.585938 C 6.347656 13.367188 7.113281 14.023438 8 14.59375 C 8.875 14.027344 9.617188 13.355469 10.199219 12.582031 C 10.199219 12.578125 10.203125 12.578125 10.203125 12.574219 C 10.367188 12.359375 10.515625 12.132812 10.648438 11.902344 C 10.890625 11.492188 11.089844 11.054688 11.238281 10.59375 Z M 11.59375 10.480469 C 11.660156 10.25 11.71875 10.011719 11.761719 9.769531 L 15.21875 9.769531 C 15.300781 9.769531 15.371094 9.703125 15.371094 9.617188 L 15.371094 5.761719 C 15.371094 5.679688 15.300781 5.609375 15.21875 5.609375 L 8.34375 5.609375 C 8.257812 5.609375 8.191406 5.679688 8.191406 5.765625 L 8.191406 6.878906 L 8.054688 6.828125 C 8.019531 6.816406 7.984375 6.816406 7.945312 6.828125 L 7.808594 6.878906 L 7.808594 5.761719 C 7.808594 5.679688 7.742188 5.609375 7.65625 5.609375 L 0.78125 5.609375 C 0.699219 5.609375 0.628906 5.679688 0.628906 5.765625 L 0.628906 9.617188 C 0.628906 9.703125 0.699219 9.769531 0.78125 9.769531 L 4.226562 9.769531 C 4.265625 10.015625 4.316406 10.253906 4.382812 10.480469 L 2.65625 10.480469 C 2.617188 10.480469 2.578125 10.496094 2.550781 10.527344 L 0.5625 12.554688 C 0.53125 12.582031 0.507812 12.625 0.507812 12.671875 C 0.507812 12.753906 0.578125 12.824219 0.664062 12.824219 L 5.554688 12.824219 C 6.183594 13.632812 6.988281 14.3125 7.917969 14.90625 C 7.964844 14.9375 8.03125 14.9375 8.082031 14.90625 C 9.003906 14.320312 9.789062 13.625 10.402344 12.824219 L 15.339844 12.824219 C 15.378906 12.824219 15.417969 12.808594 15.445312 12.78125 C 15.507812 12.722656 15.507812 12.625 15.449219 12.5625 L 13.460938 10.535156 C 13.433594 10.503906 13.390625 10.480469 13.34375 10.480469 Z M 10.621094 12.515625 C 10.726562 12.367188 10.824219 12.214844 10.914062 12.058594 C 11.148438 11.65625 11.34375 11.230469 11.496094 10.785156 L 13.277344 10.785156 L 14.976562 12.515625 Z M 4.472656 10.785156 C 4.648438 11.324219 4.882812 11.816406 5.167969 12.269531 C 5.21875 12.355469 5.273438 12.4375 5.328125 12.519531 L 1.023438 12.519531 L 2.722656 10.785156 Z M 8 7.792969 L 5.035156 8.917969 C 5.105469 10.015625 5.410156 10.945312 5.914062 11.75 C 6.417969 12.558594 7.125 13.25 8 13.859375 C 8.871094 13.242188 9.59375 12.5 10.109375 11.636719 C 10.585938 10.835938 10.886719 9.929688 10.964844 8.917969 Z M 4.820312 8.671875 C 4.753906 8.695312 4.71875 8.761719 4.722656 8.828125 C 4.785156 10.023438 5.109375 11.035156 5.65625 11.910156 C 6.199219 12.785156 6.964844 13.523438 7.914062 14.171875 C 7.96875 14.207031 8.042969 14.203125 8.09375 14.164062 C 9.035156 13.511719 9.816406 12.722656 10.371094 11.792969 C 10.890625 10.921875 11.210938 9.933594 11.277344 8.824219 C 11.28125 8.753906 11.238281 8.691406 11.171875 8.667969 L 8.054688 7.484375 C 8.019531 7.472656 7.980469 7.472656 7.945312 7.484375 Z M 8.496094 6.996094 L 8.496094 5.917969 L 15.066406 5.917969 L 15.066406 9.464844 L 11.8125 9.464844 C 11.863281 9.121094 11.886719 8.765625 11.886719 8.398438 C 11.890625 8.332031 11.851562 8.269531 11.789062 8.246094 Z M 4.179688 9.464844 L 0.9375 9.464844 L 0.9375 5.917969 L 7.503906 5.917969 L 7.503906 6.996094 L 4.210938 8.246094 C 4.15625 8.265625 4.113281 8.324219 4.113281 8.386719 C 4.113281 8.761719 4.136719 9.121094 4.179688 9.464844 Z M 15.066406 1.375 L 8.496094 1.375 L 8.496094 4.925781 L 15.066406 4.925781 Z M 8.34375 1.070312 L 15.21875 1.070312 C 15.300781 1.070312 15.371094 1.140625 15.371094 1.222656 L 15.371094 5.078125 C 15.371094 5.160156 15.300781 5.230469 15.21875 5.230469 L 8.34375 5.230469 C 8.257812 5.230469 8.191406 5.160156 8.191406 5.078125 L 8.191406 1.222656 C 8.191406 1.140625 8.257812 1.070312 8.34375 1.070312 Z M 7.503906 1.375 L 0.933594 1.375 L 0.933594 4.925781 L 7.503906 4.925781 Z M 7.503906 1.375 "/>
</g>
</svg>
