<?xml version="1.0" encoding="UTF-8"?>
<svg xmlns="http://www.w3.org/2000/svg" xmlns:xlink="http://www.w3.org/1999/xlink" width="16px" height="16px" viewBox="0 0 16 16" version="1.1">
<g id="surface1">
<path style=" stroke:none;fill-rule:nonzero;fill:rgb(32.941177%,9.411765%,45.882353%);fill-opacity:1;" d="M 14.644531 9.914062 C 14.34375 9.441406 13.710938 9.304688 13.238281 9.609375 L 11.050781 11.007812 C 10.960938 10.691406 10.71875 10.429688 10.390625 10.320312 L 6.632812 9.078125 C 6.148438 8.917969 5.660156 8.972656 5.226562 9.238281 L 3.558594 10.25 L 3.414062 10.019531 C 3.351562 9.925781 3.230469 9.898438 3.136719 9.957031 L 1.285156 11.136719 C 1.191406 11.199219 1.164062 11.320312 1.226562 11.414062 C 1.285156 11.507812 1.40625 11.535156 1.5 11.476562 L 3.183594 10.402344 L 3.324219 10.625 C 3.324219 10.625 3.324219 10.628906 3.324219 10.628906 C 3.328125 10.632812 3.328125 10.632812 3.332031 10.636719 L 5.320312 13.757812 L 3.640625 14.832031 C 3.546875 14.890625 3.519531 15.015625 3.578125 15.109375 C 3.617188 15.167969 3.683594 15.199219 3.75 15.199219 C 3.785156 15.199219 3.824219 15.191406 3.855469 15.167969 L 5.707031 13.988281 C 5.796875 13.929688 5.824219 13.804688 5.765625 13.710938 L 5.472656 13.253906 L 6.222656 12.800781 L 9.226562 13.792969 C 9.425781 13.859375 9.621094 13.890625 9.816406 13.890625 C 10.15625 13.890625 10.484375 13.792969 10.792969 13.597656 L 14.339844 11.324219 C 14.566406 11.175781 14.722656 10.949219 14.78125 10.683594 C 14.839844 10.417969 14.792969 10.144531 14.644531 9.914062 Z M 14.390625 10.597656 C 14.355469 10.761719 14.261719 10.898438 14.121094 10.988281 L 10.578125 13.257812 C 10.199219 13.5 9.777344 13.554688 9.351562 13.414062 L 6.257812 12.390625 C 6.203125 12.371094 6.140625 12.378906 6.089844 12.410156 L 5.257812 12.914062 L 3.773438 10.589844 L 5.433594 9.578125 C 5.769531 9.375 6.128906 9.332031 6.503906 9.457031 L 10.261719 10.699219 C 10.523438 10.789062 10.695312 11.035156 10.683594 11.3125 C 10.683594 11.320312 10.683594 11.328125 10.679688 11.339844 C 10.65625 11.542969 10.542969 11.730469 10.386719 11.832031 C 10.242188 11.921875 10.0625 11.9375 9.871094 11.875 L 8.160156 11.308594 C 8.058594 11.277344 7.945312 11.332031 7.910156 11.4375 C 7.875 11.542969 7.933594 11.65625 8.035156 11.6875 L 9.746094 12.253906 C 9.863281 12.292969 9.980469 12.3125 10.09375 12.3125 C 10.277344 12.3125 10.449219 12.265625 10.601562 12.167969 C 10.835938 12.015625 11.003906 11.761719 11.0625 11.472656 L 13.453125 9.941406 C 13.589844 9.855469 13.753906 9.824219 13.917969 9.859375 C 14.078125 9.894531 14.21875 9.992188 14.304688 10.128906 C 14.398438 10.269531 14.425781 10.433594 14.390625 10.597656 Z M 3.871094 3.152344 L 3.871094 1.660156 C 3.871094 1.183594 4.253906 0.800781 4.726562 0.800781 L 13.804688 0.800781 C 14.277344 0.800781 14.664062 1.183594 14.664062 1.660156 L 14.664062 7.007812 C 14.664062 7.480469 14.277344 7.867188 13.804688 7.867188 L 11.992188 7.867188 L 10.222656 9.460938 C 10.183594 9.492188 10.136719 9.511719 10.085938 9.511719 C 10.058594 9.511719 10.03125 9.503906 10.007812 9.492188 C 9.933594 9.460938 9.886719 9.390625 9.886719 9.3125 L 9.886719 7.867188 L 7.265625 7.867188 C 7.15625 7.867188 7.066406 7.777344 7.066406 7.664062 C 7.066406 7.554688 7.15625 7.464844 7.265625 7.464844 L 10.085938 7.464844 C 10.199219 7.464844 10.289062 7.554688 10.289062 7.664062 L 10.289062 8.863281 L 11.78125 7.515625 C 11.816406 7.484375 11.867188 7.464844 11.914062 7.464844 L 13.804688 7.464844 C 14.054688 7.464844 14.261719 7.261719 14.261719 7.007812 L 14.261719 1.660156 C 14.261719 1.40625 14.054688 1.199219 13.804688 1.199219 L 4.726562 1.199219 C 4.476562 1.199219 4.269531 1.40625 4.269531 1.660156 L 4.269531 3.152344 C 4.269531 3.261719 4.179688 3.351562 4.070312 3.351562 C 3.957031 3.351562 3.871094 3.261719 3.871094 3.152344 Z M 7.828125 2 L 7.828125 6.257812 L 13.125 6.257812 C 13.234375 6.257812 13.324219 6.347656 13.324219 6.457031 C 13.324219 6.566406 13.234375 6.65625 13.125 6.65625 L 7.628906 6.65625 C 7.515625 6.65625 7.425781 6.566406 7.425781 6.457031 L 7.425781 2 C 7.425781 1.890625 7.515625 1.800781 7.628906 1.800781 C 7.738281 1.800781 7.828125 1.890625 7.828125 2 Z M 10.707031 4.058594 L 12.375 2.203125 L 11.773438 2.203125 C 11.664062 2.203125 11.574219 2.113281 11.574219 2 C 11.574219 1.890625 11.664062 1.800781 11.773438 1.800781 L 12.84375 1.800781 C 12.953125 1.800781 13.042969 1.890625 13.042969 2 L 13.042969 3.074219 C 13.042969 3.183594 12.953125 3.273438 12.84375 3.273438 C 12.734375 3.273438 12.644531 3.183594 12.644531 3.074219 L 12.644531 2.5 L 10.894531 4.449219 C 10.828125 4.523438 10.722656 4.535156 10.640625 4.484375 L 9.460938 3.75 L 8.675781 5.449219 C 8.640625 5.523438 8.570312 5.566406 8.496094 5.566406 C 8.464844 5.566406 8.4375 5.558594 8.410156 5.546875 C 8.308594 5.5 8.265625 5.382812 8.3125 5.28125 L 9.191406 3.375 C 9.214844 3.324219 9.261719 3.285156 9.316406 3.265625 C 9.371094 3.25 9.429688 3.257812 9.476562 3.289062 Z M 1.929688 7.070312 L 2.199219 7.128906 C 2.21875 7.175781 2.234375 7.222656 2.257812 7.269531 L 2.109375 7.5 C 2.070312 7.566406 2.070312 7.648438 2.109375 7.710938 C 2.328125 8.058594 2.625 8.355469 2.96875 8.570312 C 3.035156 8.613281 3.117188 8.613281 3.179688 8.570312 L 3.414062 8.425781 C 3.460938 8.445312 3.503906 8.464844 3.550781 8.480469 L 3.613281 8.75 C 3.628906 8.824219 3.6875 8.882812 3.761719 8.902344 C 3.960938 8.945312 4.164062 8.96875 4.371094 8.96875 C 4.578125 8.96875 4.78125 8.945312 4.976562 8.902344 C 5.054688 8.882812 5.109375 8.824219 5.128906 8.75 L 5.1875 8.480469 C 5.234375 8.464844 5.28125 8.445312 5.328125 8.425781 L 5.558594 8.570312 C 5.625 8.613281 5.707031 8.613281 5.773438 8.570312 C 6.117188 8.355469 6.417969 8.058594 6.632812 7.710938 C 6.671875 7.648438 6.671875 7.566406 6.632812 7.5 L 6.484375 7.269531 C 6.503906 7.222656 6.523438 7.175781 6.542969 7.128906 L 6.808594 7.066406 C 6.886719 7.050781 6.941406 6.992188 6.960938 6.917969 C 7.007812 6.71875 7.03125 6.515625 7.03125 6.3125 C 7.03125 6.105469 7.007812 5.902344 6.960938 5.703125 C 6.941406 5.628906 6.886719 5.570312 6.808594 5.550781 L 6.542969 5.492188 C 6.523438 5.445312 6.503906 5.398438 6.484375 5.351562 L 6.632812 5.121094 C 6.671875 5.054688 6.671875 4.972656 6.632812 4.910156 C 6.417969 4.5625 6.121094 4.265625 5.773438 4.050781 C 5.707031 4.007812 5.625 4.007812 5.558594 4.050781 L 5.328125 4.195312 C 5.28125 4.175781 5.234375 4.15625 5.1875 4.140625 L 5.128906 3.871094 C 5.109375 3.796875 5.054688 3.738281 4.980469 3.722656 C 4.78125 3.675781 4.578125 3.652344 4.371094 3.652344 C 4.164062 3.652344 3.957031 3.675781 3.761719 3.722656 C 3.6875 3.738281 3.632812 3.796875 3.613281 3.871094 L 3.554688 4.140625 C 3.507812 4.15625 3.460938 4.175781 3.414062 4.195312 L 3.183594 4.050781 C 3.117188 4.007812 3.035156 4.007812 2.96875 4.050781 C 2.625 4.265625 2.328125 4.5625 2.109375 4.910156 C 2.070312 4.972656 2.070312 5.054688 2.113281 5.121094 L 2.257812 5.351562 C 2.238281 5.398438 2.21875 5.445312 2.199219 5.492188 L 1.933594 5.550781 C 1.859375 5.570312 1.800781 5.628906 1.78125 5.703125 C 1.734375 5.902344 1.710938 6.105469 1.710938 6.308594 C 1.710938 6.515625 1.734375 6.71875 1.78125 6.917969 C 1.796875 6.992188 1.855469 7.050781 1.929688 7.070312 Z M 2.144531 5.914062 L 2.394531 5.859375 C 2.464844 5.84375 2.519531 5.792969 2.542969 5.726562 C 2.574219 5.625 2.617188 5.527344 2.664062 5.433594 C 2.695312 5.371094 2.691406 5.296875 2.652344 5.234375 L 2.515625 5.019531 C 2.667969 4.800781 2.859375 4.609375 3.078125 4.460938 L 3.292969 4.597656 C 3.355469 4.632812 3.429688 4.636719 3.492188 4.605469 C 3.585938 4.554688 3.683594 4.515625 3.78125 4.484375 C 3.851562 4.460938 3.902344 4.40625 3.917969 4.335938 L 3.972656 4.085938 C 4.230469 4.042969 4.507812 4.042969 4.765625 4.085938 L 4.820312 4.335938 C 4.835938 4.40625 4.890625 4.460938 4.957031 4.484375 C 5.058594 4.515625 5.15625 4.554688 5.246094 4.605469 C 5.308594 4.636719 5.386719 4.632812 5.445312 4.597656 L 5.664062 4.460938 C 5.878906 4.613281 6.070312 4.800781 6.222656 5.019531 L 6.085938 5.234375 C 6.046875 5.296875 6.042969 5.371094 6.078125 5.433594 C 6.125 5.53125 6.167969 5.628906 6.199219 5.726562 C 6.21875 5.792969 6.277344 5.84375 6.34375 5.859375 L 6.59375 5.914062 C 6.617188 6.046875 6.628906 6.179688 6.628906 6.3125 C 6.628906 6.445312 6.617188 6.578125 6.59375 6.707031 L 6.34375 6.765625 C 6.273438 6.78125 6.21875 6.832031 6.199219 6.898438 C 6.167969 6.996094 6.125 7.09375 6.078125 7.191406 C 6.046875 7.253906 6.046875 7.328125 6.085938 7.386719 L 6.222656 7.605469 C 6.070312 7.820312 5.878906 8.011719 5.664062 8.164062 L 5.445312 8.027344 C 5.386719 7.988281 5.308594 7.984375 5.246094 8.019531 C 5.15625 8.066406 5.058594 8.105469 4.957031 8.140625 C 4.890625 8.160156 4.835938 8.21875 4.820312 8.285156 L 4.765625 8.535156 C 4.507812 8.582031 4.234375 8.582031 3.976562 8.535156 L 3.917969 8.285156 C 3.902344 8.214844 3.851562 8.160156 3.785156 8.140625 C 3.683594 8.105469 3.585938 8.066406 3.492188 8.019531 C 3.429688 7.988281 3.355469 7.988281 3.296875 8.027344 L 3.078125 8.164062 C 2.859375 8.011719 2.671875 7.820312 2.519531 7.605469 L 2.65625 7.386719 C 2.691406 7.328125 2.695312 7.253906 2.664062 7.191406 C 2.617188 7.097656 2.574219 7 2.542969 6.898438 C 2.519531 6.832031 2.464844 6.78125 2.394531 6.765625 L 2.144531 6.707031 C 2.125 6.578125 2.109375 6.445312 2.109375 6.3125 C 2.109375 6.179688 2.121094 6.046875 2.144531 5.914062 Z M 4.371094 7.71875 C 5.144531 7.71875 5.777344 7.085938 5.777344 6.3125 C 5.777344 5.535156 5.144531 4.90625 4.371094 4.90625 C 3.59375 4.90625 2.964844 5.535156 2.964844 6.3125 C 2.964844 7.085938 3.59375 7.71875 4.371094 7.71875 Z M 4.371094 5.304688 C 4.925781 5.304688 5.375 5.757812 5.375 6.3125 C 5.375 6.867188 4.925781 7.316406 4.371094 7.316406 C 3.816406 7.316406 3.363281 6.867188 3.363281 6.3125 C 3.363281 5.757812 3.816406 5.304688 4.371094 5.304688 Z M 4.371094 5.304688 "/>
</g>
</svg>
