<?xml version="1.0" encoding="UTF-8"?>
<svg xmlns="http://www.w3.org/2000/svg" xmlns:xlink="http://www.w3.org/1999/xlink" width="28px" height="28px" viewBox="0 0 28 28" version="1.1">
<g id="surface1">
<path style=" stroke:none;fill-rule:nonzero;fill:rgb(100%,100%,100%);fill-opacity:1;" d="M 23.945312 20.621094 L 23.945312 20.0625 C 23.945312 19.210938 23.253906 18.519531 22.398438 18.519531 L 17.472656 18.519531 L 17.472656 15.65625 L 21.980469 15.65625 C 22.164062 16.351562 22.785156 16.867188 23.539062 16.867188 C 24.433594 16.867188 25.160156 16.140625 25.160156 15.246094 C 25.160156 14.355469 24.433594 13.628906 23.539062 13.628906 C 22.785156 13.628906 22.160156 14.148438 21.980469 14.84375 L 17.472656 14.84375 L 17.472656 11.984375 L 22.40625 11.984375 C 23.257812 11.984375 23.949219 11.292969 23.949219 10.464844 L 23.984375 9.871094 C 24.683594 9.695312 25.203125 9.0625 25.203125 8.308594 C 25.203125 7.414062 24.480469 6.691406 23.582031 6.691406 C 22.691406 6.691406 21.96875 7.414062 21.96875 8.308594 C 21.96875 9.054688 22.476562 9.683594 23.167969 9.863281 L 23.136719 10.441406 C 23.136719 10.84375 22.8125 11.171875 22.410156 11.171875 L 17.46875 11.171875 L 17.46875 8.191406 L 19.316406 8.191406 C 20.167969 8.191406 20.859375 7.5 20.859375 6.648438 L 20.859375 6.085938 C 21.578125 5.921875 22.117188 5.28125 22.117188 4.511719 C 22.117188 3.621094 21.390625 2.898438 20.496094 2.898438 C 19.601562 2.898438 18.878906 3.621094 18.878906 4.511719 C 18.878906 5.25 19.375 5.867188 20.046875 6.0625 L 20.046875 6.652344 C 20.046875 7.054688 19.71875 7.382812 19.316406 7.382812 L 17.46875 7.382812 L 17.46875 5.320312 C 17.46875 3.144531 15.703125 1.375 13.527344 1.375 C 11.367188 1.375 9.613281 3.144531 9.613281 5.320312 L 9.613281 5.375 C 9.382812 5.332031 9.136719 5.3125 8.882812 5.3125 C 6.726562 5.3125 4.972656 7.078125 4.972656 9.257812 C 4.972656 9.660156 5.03125 10.050781 5.152344 10.417969 C 3.746094 11.03125 2.800781 12.441406 2.800781 14 C 2.800781 15.613281 3.824219 17.070312 5.289062 17.648438 C 5.078125 18.128906 4.972656 18.648438 4.972656 19.210938 C 4.972656 21.367188 6.730469 23.121094 8.882812 23.121094 C 9.132812 23.121094 9.382812 23.09375 9.625 23.046875 C 9.796875 25.050781 11.480469 26.625 13.523438 26.625 C 15.703125 26.625 17.46875 24.867188 17.46875 22.714844 L 17.46875 22.03125 L 18.632812 22.03125 C 19.035156 22.03125 19.363281 22.359375 19.363281 22.761719 L 19.363281 23.351562 C 18.691406 23.542969 18.195312 24.160156 18.195312 24.898438 C 18.195312 25.789062 18.921875 26.515625 19.8125 26.515625 C 20.707031 26.515625 21.433594 25.789062 21.433594 24.898438 C 21.433594 24.132812 20.894531 23.488281 20.175781 23.324219 L 20.175781 22.765625 C 20.175781 21.917969 19.488281 21.21875 18.632812 21.21875 L 17.46875 21.21875 L 17.46875 19.328125 L 22.40625 19.328125 C 22.808594 19.328125 23.132812 19.65625 23.132812 20.058594 L 23.132812 20.648438 C 22.464844 20.84375 21.96875 21.457031 21.96875 22.195312 C 21.96875 23.085938 22.691406 23.8125 23.582031 23.8125 C 24.476562 23.8125 25.203125 23.085938 25.203125 22.195312 C 25.199219 21.429688 24.660156 20.789062 23.945312 20.621094 Z M 23.539062 14.445312 C 23.984375 14.445312 24.34375 14.804688 24.34375 15.246094 C 24.34375 15.691406 23.984375 16.054688 23.539062 16.054688 C 23.097656 16.054688 22.734375 15.691406 22.734375 15.246094 C 22.734375 14.804688 23.097656 14.445312 23.539062 14.445312 Z M 22.777344 8.300781 C 22.777344 7.863281 23.136719 7.5 23.578125 7.5 C 24.023438 7.5 24.386719 7.863281 24.386719 8.300781 C 24.386719 8.730469 24.050781 9.078125 23.625 9.105469 C 23.621094 9.105469 23.613281 9.101562 23.609375 9.101562 C 23.589844 9.101562 23.574219 9.105469 23.558594 9.109375 C 23.128906 9.101562 22.777344 8.742188 22.777344 8.300781 Z M 19.6875 4.515625 C 19.6875 4.074219 20.050781 3.710938 20.492188 3.710938 C 20.9375 3.710938 21.296875 4.074219 21.296875 4.515625 C 21.296875 4.960938 20.9375 5.320312 20.492188 5.320312 C 20.050781 5.320312 19.6875 4.960938 19.6875 4.515625 Z M 20.617188 24.898438 C 20.617188 25.339844 20.257812 25.699219 19.8125 25.699219 C 19.371094 25.699219 19.011719 25.339844 19.011719 24.898438 C 19.011719 24.453125 19.371094 24.09375 19.8125 24.09375 C 20.257812 24.09375 20.617188 24.453125 20.617188 24.898438 Z M 16.65625 22.714844 C 16.65625 24.421875 15.25 25.816406 13.519531 25.816406 C 11.8125 25.816406 10.421875 24.421875 10.421875 22.714844 C 10.421875 22.691406 10.425781 22.675781 10.425781 22.660156 C 10.453125 22.578125 10.457031 22.492188 10.4375 22.414062 C 10.582031 20.855469 11.832031 19.652344 13.40625 19.597656 C 13.941406 19.863281 14.546875 20.015625 15.195312 20.015625 C 15.417969 20.015625 15.601562 19.832031 15.601562 19.609375 C 15.601562 19.382812 15.417969 19.203125 15.195312 19.203125 C 13.535156 19.203125 12.199219 17.949219 12.085938 16.328125 C 12.398438 15.765625 12.523438 15.09375 12.410156 14.398438 C 12.371094 14.179688 12.164062 14.03125 11.945312 14.066406 C 11.722656 14.101562 11.574219 14.3125 11.609375 14.53125 C 11.695312 15.027344 11.597656 15.503906 11.375 15.90625 C 11.332031 15.953125 11.304688 16.007812 11.289062 16.066406 C 10.988281 16.515625 10.519531 16.847656 9.941406 16.957031 C 9.722656 17 9.578125 17.214844 9.621094 17.433594 C 9.660156 17.628906 9.828125 17.765625 10.019531 17.765625 C 10.042969 17.765625 10.070312 17.761719 10.097656 17.757812 C 10.597656 17.660156 11.042969 17.441406 11.40625 17.136719 C 11.59375 17.824219 11.960938 18.433594 12.464844 18.914062 C 10.964844 19.328125 9.851562 20.609375 9.652344 22.1875 C 9.40625 22.253906 9.148438 22.296875 8.886719 22.296875 C 7.175781 22.296875 5.785156 20.902344 5.785156 19.195312 C 5.785156 18.601562 5.929688 18.078125 6.226562 17.605469 C 6.296875 17.496094 6.308594 17.359375 6.257812 17.238281 C 6.207031 17.117188 6.105469 17.027344 5.976562 16.996094 C 4.609375 16.671875 3.617188 15.402344 3.617188 13.984375 C 3.617188 12.636719 4.515625 11.421875 5.796875 11.035156 C 5.914062 11.003906 6 10.921875 6.054688 10.816406 C 6.101562 10.710938 6.101562 10.585938 6.054688 10.480469 C 5.878906 10.101562 5.789062 9.6875 5.789062 9.25 C 5.789062 7.523438 7.183594 6.117188 8.890625 6.117188 C 9.277344 6.117188 9.632812 6.175781 9.957031 6.289062 C 10.09375 6.339844 10.246094 6.308594 10.355469 6.222656 C 10.464844 6.128906 10.519531 5.984375 10.496094 5.84375 C 10.464844 5.664062 10.4375 5.480469 10.4375 5.308594 C 10.4375 3.582031 11.828125 2.175781 13.539062 2.175781 C 15.265625 2.175781 16.671875 3.578125 16.671875 5.308594 L 16.671875 11.488281 C 15.617188 11.34375 14.789062 10.480469 14.703125 9.40625 C 15.351562 9.027344 15.835938 8.425781 16.074219 7.703125 C 16.140625 7.488281 16.027344 7.261719 15.816406 7.191406 C 15.601562 7.121094 15.375 7.238281 15.300781 7.449219 C 15.109375 8.035156 14.703125 8.507812 14.15625 8.785156 C 13.613281 9.054688 13 9.101562 12.417969 8.910156 C 12.207031 8.839844 11.976562 8.960938 11.90625 9.171875 C 11.832031 9.382812 11.953125 9.613281 12.164062 9.683594 C 12.480469 9.789062 12.808594 9.839844 13.136719 9.839844 C 13.402344 9.839844 13.664062 9.804688 13.921875 9.734375 C 14.148438 11.105469 15.273438 12.175781 16.667969 12.316406 L 16.664062 22.714844 Z M 23.578125 23 C 23.140625 23 22.777344 22.636719 22.777344 22.195312 C 22.777344 21.75 23.140625 21.390625 23.578125 21.390625 C 24.023438 21.390625 24.386719 21.75 24.386719 22.195312 C 24.390625 22.636719 24.027344 23 23.578125 23 Z M 23.578125 23 "/>
</g>
</svg>
