<?xml version="1.0" encoding="UTF-8"?>
<svg xmlns="http://www.w3.org/2000/svg" xmlns:xlink="http://www.w3.org/1999/xlink" width="28px" height="28px" viewBox="0 0 28 28" version="1.1">
<g id="surface1">
<path style=" stroke:none;fill-rule:evenodd;fill:rgb(100%,100%,100%);fill-opacity:1;" d="M 21.074219 15.441406 C 21.089844 15.480469 21.101562 15.527344 21.101562 15.574219 C 21.101562 16.441406 20.398438 17.144531 19.53125 17.144531 C 18.664062 17.144531 17.960938 16.441406 17.960938 15.574219 C 17.957031 15.527344 17.96875 15.480469 17.988281 15.441406 L 19.007812 12.859375 C 17.253906 12.886719 15.925781 10.898438 14.335938 11.21875 L 14.335938 16.875 C 15.480469 17.039062 16.324219 18.019531 16.328125 19.175781 C 16.328125 19.359375 16.175781 19.511719 15.992188 19.511719 L 12.007812 19.511719 C 11.824219 19.511719 11.671875 19.359375 11.671875 19.175781 C 11.675781 18.019531 12.519531 17.039062 13.664062 16.875 L 13.664062 11.21875 C 12.070312 10.910156 10.746094 12.898438 8.992188 12.859375 L 10.011719 15.441406 C 10.03125 15.480469 10.042969 15.527344 10.039062 15.574219 C 10.039062 16.441406 9.335938 17.144531 8.46875 17.144531 C 7.601562 17.144531 6.898438 16.441406 6.898438 15.574219 C 6.898438 15.527344 6.910156 15.480469 6.925781 15.441406 L 8.160156 12.320312 C 8.226562 12.15625 8.40625 12.070312 8.574219 12.125 C 9.414062 12.351562 10.1875 11.878906 10.96875 11.40625 C 11.808594 10.898438 12.648438 10.386719 13.664062 10.539062 L 13.664062 10.101562 C 13.269531 9.9375 13.042969 9.523438 13.125 9.105469 C 13.207031 8.6875 13.574219 8.382812 14 8.382812 C 14.425781 8.382812 14.792969 8.6875 14.875 9.105469 C 14.957031 9.523438 14.730469 9.9375 14.335938 10.101562 L 14.335938 10.542969 C 15.347656 10.386719 16.191406 10.898438 17.03125 11.40625 C 17.8125 11.882812 18.589844 12.351562 19.421875 12.125 C 19.59375 12.070312 19.773438 12.15625 19.839844 12.324219 L 21.070312 15.4375 Z M 19.992188 18.3125 C 20.03125 18.132812 20.207031 18.015625 20.390625 18.050781 C 20.570312 18.089844 20.683594 18.269531 20.648438 18.449219 C 20.554688 18.890625 20.441406 19.320312 20.328125 19.738281 C 21.082031 19.472656 21.808594 19.136719 22.503906 18.742188 C 24.488281 17.585938 25.761719 16.039062 25.914062 14.335938 L 22.207031 14.335938 C 22.023438 14.335938 21.871094 14.1875 21.871094 14 C 21.871094 13.8125 22.023438 13.664062 22.207031 13.664062 L 25.914062 13.664062 C 25.761719 11.960938 24.488281 10.414062 22.503906 9.261719 C 21.808594 8.863281 21.082031 8.527344 20.328125 8.261719 C 20.722656 9.65625 20.964844 11.089844 21.054688 12.539062 C 21.050781 12.714844 20.914062 12.863281 20.738281 12.871094 C 20.5625 12.882812 20.40625 12.753906 20.382812 12.582031 C 20.289062 11.027344 20.003906 9.492188 19.542969 8.003906 C 15.917969 6.960938 12.066406 6.960938 8.441406 8.003906 C 7.976562 9.492188 7.695312 11.027344 7.597656 12.582031 C 7.597656 12.671875 7.5625 12.761719 7.492188 12.828125 C 7.425781 12.890625 7.335938 12.921875 7.242188 12.917969 C 7.148438 12.910156 7.0625 12.867188 7.003906 12.796875 C 6.945312 12.722656 6.917969 12.632812 6.929688 12.539062 C 7.023438 11.089844 7.273438 9.65625 7.671875 8.261719 C 6.917969 8.527344 6.191406 8.863281 5.496094 9.261719 C 3.511719 10.414062 2.238281 11.960938 2.085938 13.664062 L 5.792969 13.664062 C 5.976562 13.664062 6.128906 13.8125 6.128906 14 C 6.128906 14.1875 5.976562 14.335938 5.792969 14.335938 L 2.085938 14.335938 C 2.238281 16.039062 3.511719 17.585938 5.496094 18.742188 C 6.191406 19.136719 6.917969 19.472656 7.671875 19.738281 C 7.550781 19.324219 7.445312 18.898438 7.351562 18.449219 C 7.316406 18.269531 7.429688 18.089844 7.609375 18.050781 C 7.792969 18.015625 7.96875 18.132812 8.007812 18.3125 C 8.125 18.878906 8.273438 19.441406 8.449219 19.992188 C 12.074219 21.035156 15.925781 21.035156 19.550781 19.992188 C 19.726562 19.441406 19.875 18.878906 19.992188 18.3125 Z M 20.078125 20.53125 C 19.40625 22.507812 18.324219 24.449219 16.792969 25.601562 C 18.894531 25.089844 20.816406 24.023438 22.359375 22.507812 C 23.902344 20.992188 25.003906 19.089844 25.550781 16.996094 C 24.300781 18.675781 22.191406 19.847656 20.078125 20.53125 Z M 11.199219 25.601562 C 9.667969 24.445312 8.585938 22.519531 7.914062 20.53125 C 5.808594 19.847656 3.699219 18.683594 2.449219 16.996094 C 2.996094 19.085938 4.097656 20.992188 5.636719 22.507812 C 7.175781 24.023438 9.101562 25.089844 11.199219 25.601562 Z M 8.714844 20.769531 C 10.328125 21.199219 11.992188 21.425781 13.664062 21.445312 L 13.664062 25.925781 C 12.476562 25.808594 11.367188 25.085938 10.429688 23.914062 C 9.699219 22.964844 9.117188 21.910156 8.714844 20.78125 Z M 14.335938 25.910156 L 14.335938 21.429688 C 16.007812 21.410156 17.671875 21.183594 19.285156 20.753906 C 18.882812 21.882812 18.300781 22.9375 17.570312 23.886719 C 16.632812 25.058594 15.523438 25.78125 14.335938 25.898438 Z M 14.335938 2.089844 C 15.804688 2.238281 17.152344 3.308594 18.199219 5.007812 C 18.632812 5.714844 18.992188 6.464844 19.277344 7.246094 C 17.664062 6.8125 16.007812 6.578125 14.335938 6.554688 Z M 13.664062 6.570312 C 11.992188 6.589844 10.328125 6.816406 8.714844 7.246094 C 9.003906 6.464844 9.367188 5.714844 9.800781 5.007812 C 10.847656 3.308594 12.195312 2.238281 13.664062 2.089844 Z M 7.921875 7.46875 C 8.578125 5.527344 9.65625 3.566406 11.199219 2.398438 C 9.101562 2.910156 7.175781 3.976562 5.636719 5.492188 C 4.097656 7.007812 2.996094 8.914062 2.449219 11.003906 C 3.699219 9.324219 5.808594 8.152344 7.921875 7.46875 Z M 16.800781 2.398438 C 18.351562 3.566406 19.429688 5.527344 20.085938 7.46875 C 22.199219 8.152344 24.308594 9.316406 25.558594 11.003906 C 25.011719 8.910156 23.910156 7.007812 22.367188 5.492188 C 20.824219 3.976562 18.902344 2.90625 16.800781 2.398438 Z M 14 1.398438 C 10.660156 1.398438 7.453125 2.726562 5.089844 5.089844 C 2.726562 7.453125 1.398438 10.660156 1.398438 14 C 1.398438 17.339844 2.726562 20.546875 5.089844 22.910156 C 7.453125 25.273438 10.660156 26.601562 14 26.601562 C 17.339844 26.601562 20.546875 25.273438 22.910156 22.910156 C 25.273438 20.546875 26.601562 17.339844 26.601562 14 C 26.601562 10.660156 25.273438 7.453125 22.910156 5.089844 C 20.546875 2.726562 17.339844 1.398438 14 1.398438 Z M 14.152344 9.121094 C 14.066406 9.035156 13.929688 9.035156 13.84375 9.121094 C 13.757812 9.207031 13.761719 9.34375 13.847656 9.429688 C 13.933594 9.515625 14.070312 9.515625 14.15625 9.429688 C 14.242188 9.34375 14.238281 9.203125 14.152344 9.121094 Z M 15.621094 18.839844 C 15.464844 18.070312 14.785156 17.515625 14 17.515625 C 13.214844 17.515625 12.535156 18.070312 12.378906 18.839844 Z M 18.785156 15.238281 L 20.273438 15.238281 L 19.53125 13.359375 Z M 9.214844 15.238281 L 8.46875 13.359375 L 7.726562 15.238281 Z M 9.308594 15.90625 L 7.625 15.90625 C 7.761719 16.253906 8.097656 16.480469 8.464844 16.480469 C 8.839844 16.480469 9.171875 16.253906 9.308594 15.90625 Z M 18.691406 15.90625 L 18.695312 15.90625 C 18.828125 16.253906 19.160156 16.480469 19.535156 16.480469 C 19.902344 16.480469 20.238281 16.253906 20.375 15.90625 Z M 18.691406 15.90625 "/>
</g>
</svg>
