<?xml version="1.0" encoding="UTF-8"?>
<svg xmlns="http://www.w3.org/2000/svg" xmlns:xlink="http://www.w3.org/1999/xlink" width="28px" height="28px" viewBox="0 0 28 28" version="1.1">
<g id="surface1">
<path style=" stroke:none;fill-rule:nonzero;fill:rgb(100%,100%,100%);fill-opacity:1;" d="M 24.984375 12.824219 C 24.605469 11.613281 23.773438 10.664062 22.734375 10.105469 L 22.734375 5.703125 C 22.734375 5.535156 22.597656 5.398438 22.429688 5.398438 L 3.105469 5.398438 C 2.9375 5.398438 2.800781 5.535156 2.800781 5.703125 L 2.800781 18.289062 C 2.800781 18.460938 2.9375 18.597656 3.105469 18.597656 L 10.089844 18.597656 L 10.089844 20.75 L 8.484375 20.75 C 8.3125 20.75 8.175781 20.886719 8.175781 21.054688 C 8.175781 21.222656 8.3125 21.359375 8.484375 21.359375 L 17.050781 21.359375 C 17.21875 21.359375 17.355469 21.222656 17.355469 21.054688 C 17.355469 20.886719 17.21875 20.75 17.050781 20.75 L 15.445312 20.75 L 15.445312 18.597656 L 18.953125 18.597656 C 19.457031 18.78125 19.992188 18.878906 20.535156 18.878906 C 20.582031 18.878906 20.628906 18.875 20.671875 18.875 L 21.648438 21.964844 C 21.773438 22.351562 22.132812 22.601562 22.519531 22.601562 C 22.609375 22.601562 22.699219 22.589844 22.789062 22.5625 L 23.089844 22.46875 C 23.570312 22.316406 23.835938 21.804688 23.6875 21.324219 L 22.75 18.316406 C 23.5625 17.882812 24.226562 17.214844 24.664062 16.378906 C 25.242188 15.277344 25.355469 14.015625 24.984375 12.824219 Z M 22.121094 6.011719 L 22.121094 9.832031 C 21.195312 9.496094 20.15625 9.449219 19.148438 9.761719 C 18.246094 10.042969 17.488281 10.578125 16.933594 11.257812 C 16.925781 11.257812 16.921875 11.257812 16.914062 11.257812 L 14.457031 11.257812 L 14.457031 8.449219 C 14.457031 8.28125 14.320312 8.144531 14.148438 8.144531 L 11.386719 8.144531 C 11.214844 8.144531 11.078125 8.28125 11.078125 8.449219 L 11.078125 9.570312 L 8.929688 9.570312 L 8.929688 7.054688 C 8.929688 6.886719 8.792969 6.75 8.621094 6.75 L 5.855469 6.75 C 5.6875 6.75 5.550781 6.886719 5.550781 7.054688 L 5.550781 15.289062 C 5.550781 15.457031 5.6875 15.59375 5.855469 15.59375 L 16.082031 15.59375 C 16.082031 15.597656 16.085938 15.601562 16.085938 15.601562 C 16.171875 15.886719 16.285156 16.15625 16.421875 16.40625 L 3.414062 16.40625 L 3.414062 6.011719 Z M 15.9375 14.980469 L 14.453125 14.980469 L 14.453125 11.871094 L 16.507812 11.871094 C 15.972656 12.789062 15.753906 13.882812 15.9375 14.980469 Z M 8.925781 14.980469 L 8.925781 10.179688 L 11.078125 10.179688 L 11.078125 14.980469 Z M 8.316406 14.980469 L 6.160156 14.980469 L 6.160156 7.359375 L 8.316406 7.359375 Z M 11.691406 8.757812 L 13.84375 8.757812 L 13.84375 14.980469 L 11.691406 14.980469 Z M 14.832031 20.75 L 10.703125 20.75 L 10.703125 18.597656 L 14.832031 18.597656 Z M 3.414062 17.984375 L 3.414062 17.019531 L 16.8125 17.019531 C 17.09375 17.390625 17.425781 17.714844 17.796875 17.984375 Z M 23.105469 21.507812 C 23.152344 21.664062 23.066406 21.832031 22.90625 21.882812 L 22.609375 21.976562 C 22.453125 22.023438 22.285156 21.933594 22.234375 21.777344 L 21.296875 18.8125 C 21.507812 18.777344 21.714844 18.730469 21.921875 18.664062 C 22.011719 18.636719 22.101562 18.605469 22.1875 18.570312 Z M 24.121094 16.09375 C 23.621094 17.054688 22.773438 17.757812 21.742188 18.078125 C 21.339844 18.203125 20.933594 18.261719 20.535156 18.261719 C 18.8125 18.261719 17.207031 17.152344 16.667969 15.417969 C 16.648438 15.359375 16.628906 15.296875 16.613281 15.234375 C 16.613281 15.21875 16.609375 15.207031 16.605469 15.191406 C 16.089844 13.128906 17.273438 10.988281 19.328125 10.347656 C 21.460938 9.683594 23.734375 10.875 24.402344 13.007812 C 24.722656 14.039062 24.625 15.136719 24.121094 16.09375 Z M 22.21875 13.445312 L 20.820312 11.023438 C 20.765625 10.925781 20.664062 10.867188 20.554688 10.867188 C 20.445312 10.867188 20.34375 10.925781 20.292969 11.023438 L 17.492188 15.871094 C 17.4375 15.964844 17.4375 16.082031 17.492188 16.179688 C 17.546875 16.273438 17.648438 16.332031 17.757812 16.332031 L 23.355469 16.332031 C 23.464844 16.332031 23.566406 16.273438 23.621094 16.179688 C 23.675781 16.082031 23.675781 15.964844 23.621094 15.871094 Z M 18.285156 15.71875 L 20.554688 11.789062 L 21.691406 13.75 L 22.824219 15.71875 Z M 20.863281 12.921875 L 20.863281 14.167969 C 20.863281 14.335938 20.726562 14.472656 20.554688 14.472656 C 20.386719 14.472656 20.25 14.335938 20.25 14.167969 L 20.25 12.921875 C 20.25 12.75 20.386719 12.613281 20.554688 12.613281 C 20.722656 12.613281 20.863281 12.75 20.863281 12.921875 Z M 20.863281 14.90625 L 20.863281 14.980469 C 20.863281 15.152344 20.726562 15.289062 20.554688 15.289062 C 20.386719 15.289062 20.25 15.152344 20.25 14.980469 L 20.25 14.90625 C 20.25 14.738281 20.386719 14.601562 20.554688 14.601562 C 20.722656 14.601562 20.863281 14.738281 20.863281 14.90625 Z M 20.863281 14.90625 "/>
</g>
</svg>
