<?xml version="1.0" encoding="UTF-8"?>
<svg xmlns="http://www.w3.org/2000/svg" xmlns:xlink="http://www.w3.org/1999/xlink" width="60px" height="60px" viewBox="0 0 60 60" version="1.1">
<g id="surface1">
<path style=" stroke:none;fill-rule:nonzero;fill:rgb(100%,100%,100%);fill-opacity:1;" d="M 53.535156 27.480469 C 52.726562 24.886719 50.945312 22.851562 48.71875 21.652344 L 48.71875 12.21875 C 48.71875 11.863281 48.425781 11.570312 48.066406 11.570312 L 6.652344 11.570312 C 6.296875 11.570312 6.003906 11.863281 6.003906 12.21875 L 6.003906 39.191406 C 6.003906 39.558594 6.296875 39.851562 6.652344 39.851562 L 21.621094 39.851562 L 21.621094 44.464844 L 18.183594 44.464844 C 17.8125 44.464844 17.519531 44.757812 17.519531 45.117188 C 17.519531 45.476562 17.8125 45.769531 18.183594 45.769531 L 36.535156 45.769531 C 36.894531 45.769531 37.191406 45.476562 37.191406 45.117188 C 37.191406 44.757812 36.894531 44.464844 36.535156 44.464844 L 33.097656 44.464844 L 33.097656 39.851562 L 40.613281 39.851562 C 41.691406 40.246094 42.839844 40.457031 44.003906 40.457031 C 44.105469 40.457031 44.207031 40.449219 44.296875 40.449219 L 46.386719 47.066406 C 46.660156 47.898438 47.429688 48.429688 48.253906 48.429688 C 48.449219 48.429688 48.640625 48.40625 48.835938 48.347656 L 49.480469 48.144531 C 50.507812 47.820312 51.074219 46.726562 50.761719 45.695312 L 48.75 39.25 C 50.488281 38.320312 51.914062 36.886719 52.851562 35.097656 C 54.089844 32.738281 54.332031 30.03125 53.535156 27.480469 Z M 47.402344 12.882812 L 47.402344 21.066406 C 45.417969 20.347656 43.191406 20.246094 41.035156 20.917969 C 39.097656 21.519531 37.472656 22.667969 36.285156 24.121094 C 36.269531 24.121094 36.261719 24.121094 36.242188 24.121094 L 30.980469 24.121094 L 30.980469 18.105469 C 30.980469 17.746094 30.683594 17.453125 30.320312 17.453125 L 24.402344 17.453125 C 24.03125 17.453125 23.738281 17.746094 23.738281 18.105469 L 23.738281 20.507812 L 19.132812 20.507812 L 19.132812 15.117188 C 19.132812 14.757812 18.839844 14.464844 18.472656 14.464844 L 12.546875 14.464844 C 12.1875 14.464844 11.894531 14.757812 11.894531 15.117188 L 11.894531 32.761719 C 11.894531 33.121094 12.1875 33.417969 12.546875 33.417969 L 34.460938 33.417969 C 34.460938 33.425781 34.472656 33.429688 34.472656 33.429688 C 34.65625 34.042969 34.894531 34.621094 35.1875 35.15625 L 7.316406 35.15625 L 7.316406 12.882812 Z M 34.152344 32.101562 L 30.96875 32.101562 L 30.96875 25.4375 L 35.371094 25.4375 C 34.226562 27.402344 33.757812 29.746094 34.152344 32.101562 Z M 19.128906 32.101562 L 19.128906 21.816406 L 23.738281 21.816406 L 23.738281 32.101562 Z M 17.820312 32.101562 L 13.199219 32.101562 L 13.199219 15.769531 L 17.820312 15.769531 Z M 25.050781 18.769531 L 29.667969 18.769531 L 29.667969 32.101562 L 25.050781 32.101562 Z M 31.785156 44.464844 L 22.9375 44.464844 L 22.9375 39.851562 L 31.785156 39.851562 Z M 7.316406 38.535156 L 7.316406 36.472656 L 36.027344 36.472656 C 36.628906 37.265625 37.339844 37.960938 38.136719 38.535156 Z M 49.511719 46.085938 C 49.613281 46.425781 49.425781 46.785156 49.082031 46.894531 L 48.449219 47.089844 C 48.113281 47.195312 47.753906 47 47.644531 46.667969 L 45.636719 40.3125 C 46.085938 40.238281 46.53125 40.136719 46.972656 39.992188 C 47.167969 39.933594 47.363281 39.871094 47.546875 39.792969 Z M 51.6875 34.484375 C 50.617188 36.542969 48.800781 38.054688 46.589844 38.738281 C 45.730469 39.003906 44.855469 39.132812 44.003906 39.132812 C 40.3125 39.132812 36.871094 36.753906 35.714844 33.039062 C 35.675781 32.910156 35.632812 32.78125 35.597656 32.644531 C 35.597656 32.609375 35.59375 32.585938 35.582031 32.550781 C 34.480469 28.132812 37.011719 23.546875 41.417969 22.175781 C 45.988281 20.75 50.859375 23.300781 52.292969 27.871094 C 52.976562 30.085938 52.765625 32.433594 51.6875 34.484375 Z M 47.609375 28.808594 L 44.617188 23.621094 C 44.5 23.410156 44.277344 23.289062 44.042969 23.289062 C 43.808594 23.289062 43.59375 23.410156 43.484375 23.621094 L 37.480469 34.011719 C 37.363281 34.210938 37.363281 34.460938 37.480469 34.667969 C 37.597656 34.871094 37.820312 34.996094 38.054688 34.996094 L 50.046875 34.996094 C 50.28125 34.996094 50.5 34.871094 50.617188 34.667969 C 50.734375 34.460938 50.734375 34.210938 50.617188 34.011719 Z M 39.183594 33.683594 L 44.042969 25.261719 L 46.480469 29.464844 L 48.910156 33.683594 Z M 44.707031 27.6875 L 44.707031 30.359375 C 44.707031 30.722656 44.414062 31.011719 44.042969 31.011719 C 43.683594 31.011719 43.390625 30.722656 43.390625 30.359375 L 43.390625 27.6875 C 43.390625 27.324219 43.683594 27.027344 44.042969 27.027344 C 44.40625 27.027344 44.707031 27.324219 44.707031 27.6875 Z M 44.707031 31.941406 L 44.707031 32.101562 C 44.707031 32.46875 44.414062 32.761719 44.042969 32.761719 C 43.683594 32.761719 43.390625 32.46875 43.390625 32.101562 L 43.390625 31.941406 C 43.390625 31.582031 43.683594 31.289062 44.042969 31.289062 C 44.40625 31.289062 44.707031 31.582031 44.707031 31.941406 Z M 44.707031 31.941406 "/>
</g>
</svg>
