<?xml version="1.0" encoding="UTF-8"?>
<svg xmlns="http://www.w3.org/2000/svg" xmlns:xlink="http://www.w3.org/1999/xlink" width="28px" height="28px" viewBox="0 0 28 28" version="1.1">
<g id="surface1">
<path style=" stroke:none;fill-rule:evenodd;fill:rgb(100%,100%,100%);fill-opacity:1;" d="M 17.355469 12.066406 L 10.644531 12.066406 C 10.21875 12.066406 9.867188 12.417969 9.867188 12.84375 L 9.867188 16.867188 C 9.867188 17.296875 10.21875 17.648438 10.644531 17.648438 L 17.355469 17.648438 C 17.785156 17.648438 18.136719 17.296875 18.136719 16.867188 L 18.136719 12.84375 C 18.136719 12.417969 17.785156 12.066406 17.355469 12.066406 Z M 10.539062 11.304688 L 10.539062 10.207031 C 10.539062 8.300781 12.097656 6.742188 14 6.742188 C 15.90625 6.742188 17.464844 8.300781 17.464844 10.207031 L 17.464844 11.304688 C 18.265625 11.363281 18.898438 12.035156 18.898438 12.84375 L 18.898438 16.867188 C 18.898438 17.71875 18.207031 18.410156 17.355469 18.410156 L 10.644531 18.410156 C 9.796875 18.410156 9.101562 17.71875 9.101562 16.867188 L 9.101562 12.84375 C 9.101562 12.035156 9.734375 11.363281 10.539062 11.304688 Z M 12.195312 11.300781 L 12.195312 10.207031 C 12.195312 9.21875 13.011719 8.402344 14 8.402344 C 14.992188 8.402344 15.804688 9.21875 15.804688 10.207031 L 15.804688 11.300781 L 16.703125 11.300781 L 16.703125 10.207031 C 16.703125 8.722656 15.484375 7.507812 14 7.507812 C 12.515625 7.507812 11.300781 8.722656 11.300781 10.207031 L 11.300781 11.300781 Z M 15.042969 11.300781 L 15.042969 10.207031 C 15.042969 9.308594 13.9375 8.804688 13.265625 9.472656 C 13.078125 9.664062 12.960938 9.921875 12.960938 10.207031 L 12.960938 11.300781 Z M 14.496094 16.320312 L 13.503906 16.320312 L 13.714844 14.695312 C 13.738281 14.542969 13.664062 14.402344 13.546875 14.324219 C 13.035156 13.996094 13.359375 13.390625 14 13.390625 C 14.644531 13.390625 14.96875 13.996094 14.457031 14.324219 C 14.324219 14.410156 14.261719 14.566406 14.289062 14.714844 Z M 15.070312 14.8125 L 15.308594 16.652344 C 15.335938 16.863281 15.1875 17.054688 14.980469 17.082031 C 14.964844 17.082031 14.945312 17.082031 14.929688 17.082031 L 14.929688 17.085938 L 13.070312 17.085938 C 12.835938 17.085938 12.652344 16.882812 12.699219 16.621094 L 12.933594 14.8125 C 12.378906 14.300781 12.390625 13.480469 12.984375 12.984375 C 13.917969 12.207031 15.472656 12.78125 15.472656 13.921875 C 15.472656 14.265625 15.320312 14.582031 15.070312 14.8125 Z M 21.753906 21.109375 C 19.765625 23.585938 16.988281 25.527344 14.128906 26.574219 C 14.046875 26.601562 13.957031 26.605469 13.867188 26.574219 C 8.328125 24.566406 3.296875 19.320312 3.296875 13.128906 L 3.296875 6.464844 C 3.296875 6.296875 3.40625 6.144531 3.574219 6.097656 C 5.390625 5.578125 7.164062 4.941406 8.871094 4.175781 C 10.578125 3.410156 12.222656 2.515625 13.78125 1.46875 C 13.90625 1.382812 14.078125 1.375 14.210938 1.464844 C 17.347656 3.566406 20.800781 5.058594 24.429688 6.097656 C 24.585938 6.144531 24.703125 6.289062 24.703125 6.464844 L 24.703125 13.355469 C 24.703125 16.199219 23.546875 18.875 21.753906 21.109375 Z M 13.996094 25.808594 C 8.808594 23.875 4.058594 18.941406 4.058594 13.125 L 4.058594 6.75 C 7.570312 5.71875 10.941406 4.253906 14 2.238281 C 17.0625 4.253906 20.433594 5.71875 23.945312 6.75 L 23.945312 13.355469 C 23.945312 19.019531 19.023438 23.921875 13.996094 25.808594 Z M 19.820312 19.113281 C 18.34375 21.050781 16.269531 22.632812 14.175781 23.613281 C 14.074219 23.671875 13.949219 23.679688 13.832031 23.628906 C 9.8125 21.769531 6.039062 17.773438 6.039062 13.085938 L 6.039062 8.472656 L 6.042969 8.472656 C 6.042969 8.316406 6.140625 8.164062 6.300781 8.113281 C 7.632812 7.65625 8.9375 7.140625 10.207031 6.5625 C 11.433594 6.003906 12.632812 5.378906 13.800781 4.691406 C 13.917969 4.617188 14.070312 4.613281 14.195312 4.6875 C 16.574219 6.09375 19.085938 7.214844 21.703125 8.113281 C 21.851562 8.164062 21.960938 8.304688 21.960938 8.472656 L 21.960938 13.324219 C 21.960938 15.421875 21.117188 17.40625 19.820312 19.113281 Z M 13.992188 22.859375 C 10.304688 21.09375 6.804688 17.40625 6.804688 13.085938 L 6.804688 8.746094 C 9.292969 7.875 11.722656 6.785156 14 5.457031 C 16.277344 6.785156 18.707031 7.875 21.199219 8.746094 L 21.199219 13.324219 C 21.199219 17.507812 17.523438 21.15625 13.992188 22.859375 Z M 13.992188 22.859375 "/>
</g>
</svg>
