<?xml version="1.0" encoding="UTF-8"?>
<svg xmlns="http://www.w3.org/2000/svg" xmlns:xlink="http://www.w3.org/1999/xlink" width="28px" height="28px" viewBox="0 0 28 28" version="1.1">
<g id="surface1">
<path style=" stroke:none;fill-rule:evenodd;fill:rgb(100%,100%,100%);fill-opacity:1;" d="M 1.371094 1.875 L 13.402344 1.875 C 13.546875 1.875 13.667969 1.992188 13.667969 2.140625 L 13.667969 8.886719 C 13.667969 9.035156 13.546875 9.152344 13.402344 9.152344 L 1.371094 9.152344 C 1.222656 9.152344 1.101562 9.035156 1.101562 8.886719 L 1.101562 2.140625 C 1.101562 1.992188 1.222656 1.875 1.371094 1.875 Z M 13.761719 19.417969 C 13.59375 19.332031 13.480469 19.15625 13.480469 18.953125 C 13.480469 18.667969 13.710938 18.433594 14 18.433594 C 14.289062 18.433594 14.519531 18.667969 14.519531 18.953125 C 14.519531 19.15625 14.40625 19.332031 14.238281 19.417969 L 14.238281 19.757812 C 14.238281 19.890625 14.128906 19.996094 14 19.996094 C 13.871094 19.996094 13.761719 19.890625 13.761719 19.757812 Z M 14.910156 17.714844 L 12.480469 17.714844 C 12.425781 17.714844 12.378906 17.738281 12.34375 17.773438 C 12.308594 17.808594 12.285156 17.855469 12.285156 17.910156 L 12.285156 20.519531 C 12.285156 20.574219 12.308594 20.621094 12.34375 20.65625 C 12.378906 20.691406 12.425781 20.714844 12.480469 20.714844 L 15.519531 20.714844 C 15.574219 20.714844 15.621094 20.691406 15.65625 20.65625 C 15.691406 20.621094 15.714844 20.574219 15.714844 20.519531 L 15.714844 17.910156 C 15.714844 17.859375 15.691406 17.808594 15.65625 17.773438 C 15.625 17.738281 15.574219 17.714844 15.519531 17.714844 Z M 14.640625 17.183594 L 14.640625 16.695312 C 14.640625 16.558594 14.585938 16.433594 14.496094 16.34375 C 14.402344 16.253906 14.277344 16.195312 14.140625 16.195312 L 13.859375 16.195312 C 13.71875 16.195312 13.59375 16.253906 13.503906 16.34375 C 13.414062 16.433594 13.355469 16.558594 13.355469 16.695312 L 13.355469 17.183594 Z M 12.824219 17.183594 L 12.480469 17.183594 C 12.28125 17.183594 12.097656 17.265625 11.964844 17.394531 C 11.832031 17.527344 11.753906 17.707031 11.753906 17.910156 L 11.753906 20.519531 C 11.753906 20.71875 11.835938 20.902344 11.964844 21.035156 C 12.097656 21.167969 12.28125 21.246094 12.480469 21.246094 L 15.523438 21.246094 C 15.722656 21.246094 15.90625 21.164062 16.035156 21.035156 C 16.167969 20.902344 16.25 20.71875 16.25 20.519531 L 16.25 17.910156 C 16.25 17.707031 16.167969 17.527344 16.035156 17.394531 C 15.902344 17.261719 15.722656 17.183594 15.523438 17.183594 L 15.179688 17.183594 L 15.179688 16.695312 C 15.179688 16.410156 15.0625 16.152344 14.875 15.964844 C 14.6875 15.777344 14.425781 15.660156 14.144531 15.660156 L 13.859375 15.660156 C 13.574219 15.660156 13.316406 15.777344 13.128906 15.964844 C 12.941406 16.152344 12.824219 16.410156 12.824219 16.695312 L 12.820312 17.183594 Z M 19.671875 18.539062 C 19.671875 18.53125 19.675781 18.523438 19.675781 18.515625 C 19.855469 17.964844 19.996094 17.394531 20.09375 16.804688 C 20.09375 16.792969 20.097656 16.78125 20.101562 16.769531 C 20.199219 16.152344 20.257812 15.519531 20.265625 14.863281 L 14.523438 12.683594 C 14.511719 12.679688 14.5 12.675781 14.488281 12.667969 L 14 12.484375 L 13.511719 12.667969 C 13.5 12.675781 13.488281 12.679688 13.476562 12.683594 L 7.734375 14.863281 C 7.742188 15.53125 7.792969 16.164062 7.882812 16.769531 C 7.882812 16.78125 7.886719 16.796875 7.886719 16.808594 C 7.976562 17.40625 8.105469 17.972656 8.269531 18.515625 C 8.273438 18.523438 8.277344 18.535156 8.28125 18.546875 C 8.574219 19.507812 8.984375 20.386719 9.492188 21.191406 C 9.667969 21.46875 9.851562 21.734375 10.050781 21.996094 C 10.058594 22.007812 10.066406 22.015625 10.074219 22.027344 C 11.109375 23.390625 12.449219 24.539062 14 25.542969 C 15.527344 24.546875 16.832031 23.371094 17.84375 22.019531 C 17.847656 22.015625 17.851562 22.007812 17.859375 22.003906 C 18.140625 21.625 18.402344 21.234375 18.636719 20.832031 C 19.0625 20.109375 19.40625 19.34375 19.671875 18.539062 Z M 20.289062 18.34375 C 20.410156 17.9375 20.507812 17.523438 20.585938 17.097656 L 26.632812 17.097656 C 26.78125 17.097656 26.898438 16.976562 26.898438 16.832031 L 26.898438 10.085938 C 26.898438 9.9375 26.777344 9.816406 26.628906 9.816406 L 14.601562 9.820312 C 14.453125 9.820312 14.332031 9.9375 14.332031 10.085938 L 14.332031 12.042969 L 14.09375 11.949219 C 14.035156 11.929688 13.96875 11.925781 13.90625 11.949219 L 13.667969 12.042969 L 13.667969 10.085938 C 13.667969 9.9375 13.546875 9.816406 13.398438 9.816406 L 1.371094 9.820312 C 1.222656 9.820312 1.101562 9.9375 1.101562 10.085938 L 1.101562 16.832031 C 1.101562 16.980469 1.222656 17.101562 1.371094 17.101562 L 7.394531 17.097656 C 7.464844 17.527344 7.558594 17.941406 7.667969 18.34375 L 4.652344 18.34375 C 4.582031 18.34375 4.511719 18.371094 4.460938 18.421875 L 0.980469 21.972656 C 0.925781 22.023438 0.890625 22.09375 0.890625 22.171875 C 0.890625 22.320312 1.011719 22.441406 1.160156 22.441406 L 9.722656 22.441406 C 10.820312 23.859375 12.226562 25.046875 13.855469 26.082031 C 13.941406 26.140625 14.054688 26.144531 14.144531 26.085938 C 15.753906 25.0625 17.128906 23.84375 18.203125 22.441406 L 26.84375 22.441406 C 26.910156 22.441406 26.980469 22.417969 27.03125 22.363281 C 27.136719 22.261719 27.136719 22.09375 27.035156 21.988281 L 23.554688 18.4375 C 23.507812 18.378906 23.433594 18.34375 23.351562 18.34375 L 20.289062 18.339844 Z M 18.589844 21.90625 C 18.769531 21.644531 18.941406 21.375 19.101562 21.101562 C 19.511719 20.398438 19.851562 19.65625 20.121094 18.878906 L 23.238281 18.878906 L 26.207031 21.90625 Z M 7.828125 18.878906 C 8.132812 19.816406 8.542969 20.679688 9.042969 21.476562 C 9.136719 21.621094 9.230469 21.765625 9.328125 21.90625 L 1.792969 21.90625 L 4.761719 18.878906 Z M 14 13.636719 L 8.808594 15.605469 C 8.9375 17.523438 9.46875 19.152344 10.347656 20.5625 C 11.230469 21.980469 12.464844 23.183594 13.996094 24.25 C 15.523438 23.171875 16.785156 21.875 17.6875 20.367188 C 18.527344 18.964844 19.050781 17.378906 19.1875 15.605469 Z M 8.4375 15.175781 C 8.324219 15.21875 8.253906 15.332031 8.265625 15.449219 C 8.375 17.542969 8.941406 19.316406 9.894531 20.847656 C 10.847656 22.375 12.1875 23.664062 13.847656 24.796875 C 13.945312 24.863281 14.070312 24.855469 14.160156 24.789062 C 15.808594 23.644531 17.175781 22.261719 18.144531 20.640625 C 19.054688 19.117188 19.617188 17.382812 19.734375 15.441406 C 19.742188 15.316406 19.664062 15.210938 19.554688 15.171875 L 14.09375 13.101562 C 14.03125 13.074219 13.964844 13.078125 13.90625 13.101562 Z M 14.867188 12.242188 L 14.867188 10.351562 L 26.363281 10.351562 L 26.363281 16.5625 L 20.671875 16.5625 C 20.757812 15.960938 20.800781 15.335938 20.800781 14.695312 C 20.808594 14.582031 20.742188 14.472656 20.628906 14.429688 Z M 7.316406 16.5625 L 1.636719 16.5625 L 1.636719 10.351562 L 13.132812 10.351562 L 13.132812 12.242188 L 7.371094 14.429688 C 7.269531 14.46875 7.199219 14.566406 7.199219 14.679688 C 7.199219 15.335938 7.238281 15.960938 7.316406 16.5625 Z M 26.363281 2.410156 L 14.867188 2.410156 L 14.867188 8.617188 L 26.363281 8.617188 Z M 14.601562 1.875 L 26.632812 1.875 C 26.777344 1.875 26.898438 1.992188 26.898438 2.140625 L 26.898438 8.886719 C 26.898438 9.035156 26.777344 9.152344 26.632812 9.152344 L 14.601562 9.152344 C 14.453125 9.152344 14.332031 9.035156 14.332031 8.886719 L 14.332031 2.140625 C 14.332031 1.992188 14.453125 1.875 14.601562 1.875 Z M 13.132812 2.410156 L 1.636719 2.410156 L 1.636719 8.617188 L 13.132812 8.617188 Z M 13.132812 2.410156 "/>
</g>
</svg>
