<?xml version="1.0" encoding="UTF-8"?>
<svg xmlns="http://www.w3.org/2000/svg" xmlns:xlink="http://www.w3.org/1999/xlink" width="60px" height="60px" viewBox="0 0 60 60" version="1.1">
<g id="surface1">
<path style=" stroke:none;fill-rule:evenodd;fill:rgb(100%,100%,100%);fill-opacity:1;" d="M 37.191406 25.855469 L 22.808594 25.855469 C 21.894531 25.855469 21.144531 26.609375 21.144531 27.519531 L 21.144531 36.144531 C 21.144531 37.0625 21.894531 37.820312 22.808594 37.820312 L 37.191406 37.820312 C 38.113281 37.820312 38.863281 37.0625 38.863281 36.144531 L 38.863281 27.519531 C 38.863281 26.609375 38.113281 25.855469 37.191406 25.855469 Z M 22.585938 24.226562 L 22.585938 21.871094 C 22.585938 17.785156 25.925781 14.445312 30 14.445312 C 34.082031 14.445312 37.425781 17.785156 37.425781 21.871094 L 37.425781 24.226562 C 39.140625 24.347656 40.496094 25.789062 40.496094 27.519531 L 40.496094 36.144531 C 40.496094 37.96875 39.015625 39.449219 37.191406 39.449219 L 22.808594 39.449219 C 20.996094 39.449219 19.503906 37.96875 19.503906 36.144531 L 19.503906 27.519531 C 19.503906 25.789062 20.859375 24.347656 22.585938 24.226562 Z M 26.132812 24.214844 L 26.132812 21.871094 C 26.132812 19.753906 27.882812 18.003906 30 18.003906 C 32.128906 18.003906 33.867188 19.753906 33.867188 21.871094 L 33.867188 24.214844 L 35.792969 24.214844 L 35.792969 21.871094 C 35.792969 18.691406 33.183594 16.085938 30 16.085938 C 26.816406 16.085938 24.214844 18.691406 24.214844 21.871094 L 24.214844 24.214844 Z M 32.234375 24.214844 L 32.234375 21.871094 C 32.234375 19.949219 29.863281 18.867188 28.425781 20.300781 C 28.027344 20.710938 27.773438 21.261719 27.773438 21.871094 L 27.773438 24.214844 Z M 31.0625 34.972656 L 28.9375 34.972656 L 29.386719 31.492188 C 29.441406 31.164062 29.277344 30.863281 29.03125 30.695312 C 27.933594 29.992188 28.625 28.691406 30 28.691406 C 31.378906 28.691406 32.078125 29.992188 30.980469 30.695312 C 30.695312 30.878906 30.558594 31.214844 30.617188 31.53125 Z M 32.292969 31.738281 L 32.804688 35.683594 C 32.863281 36.136719 32.546875 36.542969 32.101562 36.605469 C 32.066406 36.605469 32.023438 36.605469 31.992188 36.605469 L 31.992188 36.613281 L 28.007812 36.613281 C 27.507812 36.613281 27.113281 36.179688 27.214844 35.617188 L 27.714844 31.738281 C 26.527344 30.644531 26.550781 28.886719 27.824219 27.824219 C 29.824219 26.160156 33.15625 27.390625 33.15625 29.832031 C 33.15625 30.566406 32.832031 31.246094 32.292969 31.738281 Z M 46.613281 45.234375 C 42.355469 50.539062 36.402344 54.699219 30.277344 56.945312 C 30.097656 57.003906 29.910156 57.011719 29.714844 56.945312 C 17.84375 52.644531 7.0625 41.398438 7.0625 28.132812 L 7.0625 13.855469 C 7.0625 13.496094 7.296875 13.167969 7.660156 13.066406 C 11.550781 11.953125 15.351562 10.589844 19.011719 8.949219 C 22.667969 7.308594 26.191406 5.390625 29.53125 3.144531 C 29.796875 2.960938 30.167969 2.949219 30.449219 3.136719 C 37.175781 7.644531 44.574219 10.839844 52.351562 13.066406 C 52.683594 13.167969 52.9375 13.476562 52.9375 13.855469 L 52.9375 28.621094 C 52.9375 34.714844 50.457031 40.449219 46.613281 45.234375 Z M 29.992188 55.304688 C 18.875 51.160156 8.699219 40.589844 8.699219 28.125 L 8.699219 14.464844 C 16.222656 12.253906 23.445312 9.113281 30 4.796875 C 36.5625 9.113281 43.785156 12.253906 51.308594 14.464844 L 51.308594 28.621094 C 51.308594 40.753906 40.761719 51.261719 29.992188 55.304688 Z M 42.472656 40.957031 C 39.308594 45.109375 34.863281 48.496094 30.378906 50.597656 C 30.160156 50.722656 29.890625 50.742188 29.640625 50.632812 C 21.027344 46.648438 12.941406 38.085938 12.941406 28.039062 L 12.941406 18.15625 L 12.949219 18.15625 C 12.949219 17.820312 13.15625 17.492188 13.503906 17.386719 C 16.355469 16.40625 19.152344 15.300781 21.871094 14.0625 C 24.5 12.863281 27.070312 11.527344 29.574219 10.050781 C 29.824219 9.894531 30.148438 9.886719 30.417969 10.046875 C 35.515625 13.058594 40.898438 15.460938 46.503906 17.386719 C 46.824219 17.492188 47.058594 17.792969 47.058594 18.15625 L 47.058594 28.550781 C 47.058594 33.046875 45.253906 37.296875 42.472656 40.957031 Z M 29.980469 48.984375 C 22.082031 45.203125 14.582031 37.296875 14.582031 28.039062 L 14.582031 18.742188 C 19.914062 16.875 25.121094 14.539062 30 11.691406 C 34.878906 14.539062 40.085938 16.875 45.425781 18.742188 L 45.425781 28.550781 C 45.425781 37.519531 37.550781 45.332031 29.980469 48.984375 Z M 29.980469 48.984375 "/>
</g>
</svg>
