<?xml version="1.0" encoding="UTF-8"?>
<svg xmlns="http://www.w3.org/2000/svg" xmlns:xlink="http://www.w3.org/1999/xlink" width="28px" height="28px" viewBox="0 0 28 28" version="1.1">
<g id="surface1">
<path style=" stroke:none;fill-rule:nonzero;fill:rgb(100%,100%,100%);fill-opacity:1;" d="M 25.628906 17.351562 C 25.097656 16.523438 23.992188 16.28125 23.164062 16.8125 L 19.335938 19.265625 C 19.179688 18.710938 18.757812 18.25 18.179688 18.0625 L 11.605469 15.886719 C 10.757812 15.605469 9.910156 15.703125 9.148438 16.167969 L 6.230469 17.941406 L 5.972656 17.535156 C 5.867188 17.371094 5.652344 17.324219 5.488281 17.429688 L 2.25 19.492188 C 2.089844 19.597656 2.039062 19.8125 2.144531 19.976562 C 2.246094 20.136719 2.464844 20.1875 2.628906 20.082031 L 5.570312 18.207031 L 5.816406 18.59375 C 5.816406 18.597656 5.820312 18.597656 5.820312 18.601562 C 5.820312 18.605469 5.824219 18.609375 5.828125 18.613281 L 9.3125 24.078125 L 6.371094 25.953125 C 6.210938 26.058594 6.160156 26.273438 6.265625 26.4375 C 6.332031 26.542969 6.445312 26.601562 6.558594 26.601562 C 6.625 26.601562 6.691406 26.582031 6.75 26.546875 L 9.984375 24.480469 C 10.148438 24.375 10.195312 24.160156 10.089844 23.996094 L 9.578125 23.191406 L 10.886719 22.398438 L 16.144531 24.136719 C 16.492188 24.253906 16.835938 24.308594 17.175781 24.308594 C 17.769531 24.308594 18.351562 24.136719 18.886719 23.792969 L 25.09375 19.816406 C 25.492188 19.558594 25.769531 19.160156 25.871094 18.695312 C 25.972656 18.230469 25.886719 17.75 25.628906 17.351562 Z M 25.183594 18.546875 C 25.121094 18.832031 24.953125 19.070312 24.714844 19.226562 L 18.507812 23.203125 C 17.847656 23.625 17.105469 23.71875 16.363281 23.472656 L 10.949219 21.683594 C 10.851562 21.652344 10.746094 21.664062 10.660156 21.714844 L 9.199219 22.601562 L 6.605469 18.53125 L 9.507812 16.765625 C 10.097656 16.40625 10.730469 16.335938 11.382812 16.550781 L 17.957031 18.726562 C 18.417969 18.878906 18.71875 19.3125 18.699219 19.796875 C 18.695312 19.8125 18.691406 19.824219 18.691406 19.839844 C 18.648438 20.195312 18.453125 20.527344 18.175781 20.703125 C 17.921875 20.867188 17.613281 20.894531 17.277344 20.785156 L 14.285156 19.792969 C 14.097656 19.730469 13.902344 19.832031 13.839844 20.015625 C 13.78125 20.199219 13.878906 20.394531 14.0625 20.457031 L 17.058594 21.449219 C 17.261719 21.515625 17.46875 21.546875 17.667969 21.546875 C 17.984375 21.546875 18.289062 21.460938 18.554688 21.292969 C 18.964844 21.027344 19.257812 20.582031 19.359375 20.078125 L 23.539062 17.398438 C 23.78125 17.242188 24.070312 17.191406 24.355469 17.253906 C 24.640625 17.316406 24.878906 17.484375 25.035156 17.726562 C 25.195312 17.972656 25.246094 18.261719 25.183594 18.546875 Z M 6.769531 5.515625 L 6.769531 2.902344 C 6.769531 2.074219 7.445312 1.398438 8.273438 1.398438 L 24.15625 1.398438 C 24.984375 1.398438 25.660156 2.074219 25.660156 2.902344 L 25.660156 12.261719 C 25.660156 13.089844 24.984375 13.765625 24.15625 13.765625 L 20.984375 13.765625 L 17.886719 16.554688 C 17.820312 16.613281 17.738281 16.644531 17.652344 16.644531 C 17.605469 16.644531 17.558594 16.632812 17.511719 16.613281 C 17.386719 16.558594 17.304688 16.433594 17.304688 16.292969 L 17.304688 13.765625 L 12.714844 13.765625 C 12.519531 13.765625 12.363281 13.609375 12.363281 13.414062 C 12.363281 13.222656 12.519531 13.066406 12.714844 13.066406 L 17.652344 13.066406 C 17.847656 13.066406 18.003906 13.222656 18.003906 13.414062 L 18.003906 15.507812 L 20.617188 13.15625 C 20.683594 13.097656 20.765625 13.066406 20.851562 13.066406 L 24.15625 13.066406 C 24.597656 13.066406 24.957031 12.707031 24.957031 12.261719 L 24.957031 2.902344 C 24.957031 2.460938 24.597656 2.101562 24.15625 2.101562 L 8.273438 2.101562 C 7.832031 2.101562 7.472656 2.460938 7.472656 2.902344 L 7.472656 5.515625 C 7.472656 5.707031 7.316406 5.863281 7.121094 5.863281 C 6.929688 5.867188 6.773438 5.710938 6.773438 5.515625 Z M 13.699219 3.503906 L 13.699219 10.949219 L 22.964844 10.949219 C 23.160156 10.949219 23.316406 11.105469 23.316406 11.300781 C 23.316406 11.496094 23.160156 11.652344 22.964844 11.652344 L 13.347656 11.652344 C 13.15625 11.652344 12.996094 11.496094 12.996094 11.300781 L 12.996094 3.503906 C 12.996094 3.308594 13.15625 3.152344 13.347656 3.152344 C 13.539062 3.152344 13.699219 3.308594 13.699219 3.503906 Z M 18.738281 7.101562 L 21.652344 3.851562 L 20.601562 3.851562 C 20.410156 3.851562 20.253906 3.695312 20.253906 3.503906 C 20.253906 3.308594 20.410156 3.152344 20.601562 3.152344 L 22.476562 3.152344 C 22.671875 3.152344 22.828125 3.308594 22.828125 3.503906 L 22.828125 5.378906 C 22.828125 5.570312 22.671875 5.726562 22.476562 5.726562 C 22.285156 5.726562 22.128906 5.570312 22.128906 5.378906 L 22.128906 4.371094 L 19.0625 7.785156 C 18.949219 7.914062 18.761719 7.941406 18.617188 7.851562 L 16.554688 6.558594 L 15.183594 9.535156 C 15.125 9.664062 14.996094 9.738281 14.863281 9.738281 C 14.816406 9.738281 14.765625 9.730469 14.71875 9.707031 C 14.542969 9.628906 14.464844 9.417969 14.546875 9.246094 L 16.082031 5.90625 C 16.125 5.816406 16.203125 5.746094 16.300781 5.71875 C 16.398438 5.6875 16.5 5.703125 16.585938 5.753906 Z M 3.378906 12.371094 L 3.847656 12.476562 C 3.878906 12.558594 3.914062 12.640625 3.949219 12.71875 L 3.695312 13.125 C 3.621094 13.238281 3.621094 13.382812 3.691406 13.496094 C 4.070312 14.105469 4.589844 14.625 5.195312 15 C 5.308594 15.070312 5.453125 15.070312 5.566406 15 L 5.972656 14.742188 C 6.054688 14.777344 6.136719 14.8125 6.21875 14.84375 L 6.324219 15.3125 C 6.351562 15.445312 6.453125 15.546875 6.585938 15.578125 C 6.929688 15.65625 7.289062 15.699219 7.648438 15.699219 C 8.007812 15.699219 8.367188 15.65625 8.710938 15.578125 C 8.84375 15.546875 8.945312 15.441406 8.972656 15.3125 L 9.082031 14.84375 C 9.164062 14.8125 9.246094 14.777344 9.324219 14.742188 L 9.730469 15 C 9.84375 15.070312 9.988281 15.070312 10.101562 15 C 10.707031 14.621094 11.226562 14.101562 11.605469 13.496094 C 11.675781 13.382812 11.675781 13.238281 11.605469 13.125 L 11.347656 12.71875 C 11.386719 12.636719 11.417969 12.558594 11.449219 12.476562 L 11.917969 12.371094 C 12.046875 12.339844 12.152344 12.238281 12.179688 12.105469 C 12.261719 11.757812 12.304688 11.398438 12.304688 11.042969 C 12.304688 10.6875 12.261719 10.328125 12.179688 9.980469 C 12.152344 9.847656 12.046875 9.746094 11.917969 9.71875 L 11.449219 9.609375 C 11.417969 9.53125 11.386719 9.449219 11.347656 9.367188 L 11.605469 8.960938 C 11.675781 8.847656 11.675781 8.703125 11.605469 8.589844 C 11.226562 7.984375 10.707031 7.460938 10.101562 7.085938 C 9.988281 7.015625 9.84375 7.015625 9.730469 7.085938 L 9.324219 7.34375 C 9.242188 7.308594 9.164062 7.273438 9.082031 7.242188 L 8.972656 6.773438 C 8.945312 6.644531 8.84375 6.542969 8.714844 6.511719 C 8.371094 6.429688 8.011719 6.390625 7.648438 6.390625 C 7.285156 6.390625 6.929688 6.429688 6.585938 6.511719 C 6.457031 6.542969 6.355469 6.644531 6.324219 6.773438 L 6.21875 7.242188 C 6.136719 7.273438 6.054688 7.308594 5.976562 7.34375 L 5.570312 7.085938 C 5.457031 7.015625 5.3125 7.015625 5.199219 7.085938 C 4.59375 7.460938 4.074219 7.980469 3.695312 8.589844 C 3.625 8.703125 3.625 8.847656 3.695312 8.960938 L 3.953125 9.367188 C 3.914062 9.445312 3.882812 9.527344 3.851562 9.609375 L 3.382812 9.714844 C 3.25 9.746094 3.148438 9.847656 3.117188 9.976562 C 3.039062 10.328125 2.996094 10.683594 2.996094 11.042969 C 2.996094 11.398438 3.039062 11.757812 3.117188 12.105469 C 3.144531 12.238281 3.25 12.339844 3.378906 12.371094 Z M 3.753906 10.351562 L 4.191406 10.253906 C 4.3125 10.226562 4.410156 10.136719 4.445312 10.019531 C 4.503906 9.84375 4.578125 9.671875 4.660156 9.507812 C 4.714844 9.398438 4.710938 9.265625 4.644531 9.160156 L 4.40625 8.78125 C 4.671875 8.402344 5.003906 8.070312 5.382812 7.804688 L 5.765625 8.042969 C 5.867188 8.109375 6 8.117188 6.113281 8.058594 C 6.273438 7.972656 6.445312 7.902344 6.621094 7.847656 C 6.738281 7.808594 6.828125 7.710938 6.855469 7.589844 L 6.957031 7.152344 C 7.40625 7.074219 7.890625 7.074219 8.339844 7.152344 L 8.4375 7.589844 C 8.464844 7.710938 8.554688 7.808594 8.671875 7.847656 C 8.851562 7.902344 9.019531 7.972656 9.183594 8.058594 C 9.292969 8.113281 9.425781 8.109375 9.53125 8.042969 L 9.910156 7.804688 C 10.289062 8.070312 10.625 8.402344 10.890625 8.78125 L 10.648438 9.160156 C 10.585938 9.265625 10.578125 9.398438 10.632812 9.507812 C 10.722656 9.675781 10.792969 9.847656 10.847656 10.019531 C 10.886719 10.136719 10.980469 10.226562 11.101562 10.253906 L 11.539062 10.351562 C 11.582031 10.582031 11.601562 10.8125 11.601562 11.046875 C 11.601562 11.277344 11.582031 11.507812 11.539062 11.738281 L 11.101562 11.835938 C 10.980469 11.863281 10.882812 11.953125 10.847656 12.070312 C 10.792969 12.242188 10.722656 12.414062 10.632812 12.582031 C 10.578125 12.691406 10.585938 12.824219 10.648438 12.929688 L 10.890625 13.308594 C 10.625 13.6875 10.289062 14.019531 9.910156 14.285156 L 9.53125 14.046875 C 9.425781 13.980469 9.292969 13.976562 9.183594 14.03125 C 9.019531 14.117188 8.847656 14.1875 8.671875 14.242188 C 8.554688 14.28125 8.464844 14.378906 8.4375 14.5 L 8.339844 14.9375 C 7.886719 15.015625 7.410156 15.015625 6.957031 14.9375 L 6.859375 14.5 C 6.832031 14.378906 6.742188 14.28125 6.621094 14.242188 C 6.445312 14.1875 6.273438 14.117188 6.113281 14.03125 C 6.003906 13.976562 5.871094 13.980469 5.765625 14.046875 L 5.386719 14.285156 C 5.007812 14.023438 4.671875 13.6875 4.40625 13.308594 L 4.644531 12.929688 C 4.710938 12.824219 4.71875 12.691406 4.660156 12.582031 C 4.578125 12.421875 4.507812 12.246094 4.449219 12.070312 C 4.410156 11.953125 4.3125 11.863281 4.195312 11.835938 L 3.757812 11.738281 C 3.714844 11.507812 3.695312 11.277344 3.695312 11.046875 C 3.695312 10.8125 3.714844 10.582031 3.753906 10.351562 Z M 7.648438 13.507812 C 9.003906 13.507812 10.109375 12.402344 10.109375 11.046875 C 10.109375 9.6875 9.003906 8.585938 7.648438 8.585938 C 6.292969 8.585938 5.1875 9.6875 5.1875 11.046875 C 5.1875 12.402344 6.292969 13.507812 7.648438 13.507812 Z M 7.648438 9.285156 C 8.617188 9.285156 9.410156 10.074219 9.410156 11.046875 C 9.410156 12.015625 8.617188 12.804688 7.648438 12.804688 C 6.675781 12.804688 5.886719 12.015625 5.886719 11.046875 C 5.886719 10.074219 6.675781 9.285156 7.648438 9.285156 Z M 7.648438 9.285156 "/>
</g>
</svg>
