<?xml version="1.0" encoding="UTF-8"?>
<svg xmlns="http://www.w3.org/2000/svg" xmlns:xlink="http://www.w3.org/1999/xlink" width="28px" height="28px" viewBox="0 0 28 28" version="1.1">
<g id="surface1">
<path style=" stroke:none;fill-rule:nonzero;fill:rgb(100%,100%,100%);fill-opacity:1;" d="M 11.5625 8.523438 C 11.5625 9.574219 10.710938 10.429688 9.65625 10.429688 C 8.605469 10.429688 7.75 9.574219 7.75 8.523438 C 7.75 7.46875 8.605469 6.613281 9.65625 6.613281 C 10.710938 6.613281 11.5625 7.46875 11.5625 8.523438 "/>
<path style=" stroke:none;fill-rule:nonzero;fill:rgb(100%,100%,100%);fill-opacity:1;" d="M 7.160156 11.960938 C 7.429688 12.15625 7.722656 12.320312 8.03125 12.445312 C 8.234375 12.527344 8.375 12.71875 8.394531 12.9375 C 8.496094 14.195312 8.4375 15.457031 8.222656 16.699219 L 11.09375 16.699219 C 10.875 15.457031 10.816406 14.195312 10.917969 12.9375 C 10.941406 12.71875 11.078125 12.527344 11.28125 12.449219 C 11.59375 12.320312 11.886719 12.15625 12.15625 11.960938 C 12.292969 11.855469 12.375 11.699219 12.386719 11.53125 C 12.398438 11.363281 12.335938 11.199219 12.214844 11.078125 C 12.011719 10.875 11.691406 10.851562 11.460938 11.019531 C 10.382812 11.792969 8.929688 11.792969 7.855469 11.019531 C 7.597656 10.832031 7.234375 10.886719 7.042969 11.144531 C 6.851562 11.402344 6.902344 11.765625 7.160156 11.960938 Z M 7.160156 11.960938 "/>
<path style=" stroke:none;fill-rule:nonzero;fill:rgb(100%,100%,100%);fill-opacity:1;" d="M 6.898438 19.042969 L 12.414062 19.042969 C 12.765625 19.042969 13.050781 18.757812 13.050781 18.410156 C 13.050781 18.058594 12.765625 17.773438 12.414062 17.773438 L 6.898438 17.773438 C 6.550781 17.773438 6.265625 18.058594 6.265625 18.410156 C 6.265625 18.757812 6.550781 19.042969 6.898438 19.042969 Z M 6.898438 19.042969 "/>
<path style=" stroke:none;fill-rule:nonzero;fill:rgb(100%,100%,100%);fill-opacity:1;" d="M 13.5 20.117188 L 5.816406 20.117188 C 5.464844 20.117188 5.179688 20.402344 5.179688 20.75 C 5.179688 21.101562 5.464844 21.386719 5.816406 21.386719 L 13.5 21.386719 C 13.851562 21.386719 14.136719 21.101562 14.136719 20.75 C 14.136719 20.402344 13.851562 20.117188 13.5 20.117188 Z M 13.5 20.117188 "/>
<path style=" stroke:none;fill-rule:nonzero;fill:rgb(100%,100%,100%);fill-opacity:1;" d="M 12.035156 13.800781 C 12.035156 14.054688 12.238281 14.257812 12.492188 14.257812 L 14.847656 14.257812 C 14.96875 14.257812 15.085938 14.210938 15.171875 14.125 L 16.957031 12.339844 L 18.039062 12.339844 L 18.039062 12.335938 C 18.203125 12.675781 18.539062 12.898438 18.914062 12.917969 C 19.195312 12.929688 19.46875 12.828125 19.675781 12.636719 C 19.882812 12.445312 20 12.179688 20.011719 11.898438 C 20.019531 11.410156 19.6875 10.984375 19.214844 10.871094 C 18.738281 10.757812 18.25 10.988281 18.039062 11.425781 L 16.769531 11.425781 C 16.648438 11.425781 16.53125 11.472656 16.445312 11.558594 L 14.660156 13.347656 L 12.492188 13.347656 C 12.238281 13.347656 12.035156 13.550781 12.035156 13.800781 Z M 12.035156 13.800781 "/>
<path style=" stroke:none;fill-rule:nonzero;fill:rgb(100%,100%,100%);fill-opacity:1;" d="M 19.878906 16.734375 C 19.480469 16.734375 19.117188 16.960938 18.945312 17.316406 L 18.03125 17.316406 L 16.246094 15.53125 C 16.160156 15.445312 16.042969 15.398438 15.925781 15.398438 L 12.492188 15.398438 C 12.371094 15.398438 12.253906 15.445312 12.167969 15.53125 C 12.082031 15.617188 12.035156 15.734375 12.035156 15.855469 C 12.035156 15.976562 12.082031 16.089844 12.167969 16.175781 C 12.253906 16.261719 12.371094 16.308594 12.492188 16.308594 L 15.734375 16.308594 L 17.519531 18.097656 C 17.605469 18.183594 17.722656 18.230469 17.84375 18.230469 L 18.945312 18.230469 C 19.109375 18.570312 19.445312 18.792969 19.824219 18.8125 C 20.101562 18.824219 20.378906 18.71875 20.582031 18.527344 C 20.789062 18.335938 20.90625 18.070312 20.917969 17.789062 C 20.921875 17.511719 20.8125 17.242188 20.617188 17.046875 C 20.421875 16.847656 20.15625 16.734375 19.878906 16.734375 Z M 19.878906 16.734375 "/>
<path style=" stroke:none;fill-rule:nonzero;fill:rgb(100%,100%,100%);fill-opacity:1;" d="M 14.535156 11.367188 L 16.058594 9.800781 L 20.105469 9.800781 C 20.273438 10.128906 20.609375 10.34375 20.980469 10.359375 C 21.5625 10.375 22.046875 9.917969 22.066406 9.339844 C 22.074219 8.847656 21.734375 8.417969 21.257812 8.308594 C 20.777344 8.199219 20.289062 8.441406 20.082031 8.886719 L 15.867188 8.886719 C 15.742188 8.886719 15.625 8.9375 15.539062 9.027344 L 13.878906 10.734375 C 13.703125 10.914062 13.707031 11.203125 13.890625 11.378906 C 14.070312 11.554688 14.355469 11.550781 14.535156 11.367188 Z M 14.535156 11.367188 "/>
<path style=" stroke:none;fill-rule:nonzero;fill:rgb(100%,100%,100%);fill-opacity:1;" d="M 20.699219 14.039062 L 18.3125 14.039062 C 18.058594 14.039062 17.855469 14.242188 17.855469 14.496094 C 17.855469 14.746094 18.058594 14.953125 18.3125 14.953125 L 20.699219 14.953125 C 20.863281 15.289062 21.203125 15.511719 21.578125 15.535156 C 21.859375 15.542969 22.132812 15.441406 22.335938 15.25 C 22.542969 15.058594 22.664062 14.792969 22.671875 14.511719 C 22.679688 14.023438 22.347656 13.597656 21.875 13.484375 C 21.402344 13.371094 20.914062 13.601562 20.699219 14.039062 Z M 20.699219 14.039062 "/>
<path style=" stroke:none;fill-rule:nonzero;fill:rgb(100%,100%,100%);fill-opacity:1;" d="M 21.726562 19.175781 C 21.347656 19.195312 21.011719 19.417969 20.847656 19.757812 L 16.984375 19.757812 L 15.460938 18.1875 C 15.375 18.101562 15.257812 18.050781 15.136719 18.050781 C 15.015625 18.046875 14.898438 18.09375 14.8125 18.179688 C 14.726562 18.261719 14.675781 18.378906 14.675781 18.5 C 14.671875 18.621094 14.71875 18.738281 14.804688 18.824219 L 16.464844 20.53125 C 16.550781 20.617188 16.667969 20.667969 16.792969 20.667969 L 20.847656 20.667969 C 21.0625 21.105469 21.550781 21.335938 22.023438 21.222656 C 22.496094 21.109375 22.828125 20.683594 22.820312 20.195312 C 22.8125 19.914062 22.691406 19.648438 22.484375 19.457031 C 22.28125 19.265625 22.007812 19.164062 21.726562 19.175781 Z M 21.726562 19.175781 "/>
</g>
</svg>
