<?xml version="1.0" encoding="UTF-8"?>
<svg xmlns="http://www.w3.org/2000/svg" xmlns:xlink="http://www.w3.org/1999/xlink" width="100px" height="100px" viewBox="0 0 100 100" version="1.1">
<g id="surface1">
<path style=" stroke:none;fill-rule:nonzero;fill:rgb(100%,100%,100%);fill-opacity:1;" d="M 41.296875 30.4375 C 41.296875 34.1875 38.25 37.246094 34.484375 37.246094 C 30.734375 37.246094 27.675781 34.1875 27.675781 30.4375 C 27.675781 26.671875 30.734375 23.625 34.484375 23.625 C 38.25 23.625 41.296875 26.671875 41.296875 30.4375 "/>
<path style=" stroke:none;fill-rule:nonzero;fill:rgb(100%,100%,100%);fill-opacity:1;" d="M 25.578125 42.714844 C 26.53125 43.417969 27.578125 44.003906 28.679688 44.445312 C 29.40625 44.734375 29.914062 45.421875 29.980469 46.203125 C 30.34375 50.695312 30.136719 55.203125 29.367188 59.640625 L 39.617188 59.640625 C 38.835938 55.203125 38.632812 50.695312 38.992188 46.203125 C 39.070312 45.421875 39.5625 44.734375 40.292969 44.460938 C 41.40625 44.003906 42.453125 43.417969 43.417969 42.714844 C 43.90625 42.34375 44.199219 41.789062 44.238281 41.179688 C 44.277344 40.585938 44.054688 40 43.625 39.5625 C 42.898438 38.835938 41.757812 38.757812 40.929688 39.355469 C 37.078125 42.117188 31.894531 42.117188 28.054688 39.355469 C 27.140625 38.679688 25.839844 38.875 25.15625 39.804688 C 24.472656 40.722656 24.648438 42.023438 25.578125 42.714844 Z M 25.578125 42.714844 "/>
<path style=" stroke:none;fill-rule:nonzero;fill:rgb(100%,100%,100%);fill-opacity:1;" d="M 24.640625 68.007812 L 44.335938 68.007812 C 45.59375 68.007812 46.609375 66.992188 46.609375 65.75 C 46.609375 64.492188 45.59375 63.476562 44.335938 63.476562 L 24.640625 63.476562 C 23.398438 63.476562 22.375 64.492188 22.375 65.75 C 22.375 66.992188 23.398438 68.007812 24.640625 68.007812 Z M 24.640625 68.007812 "/>
<path style=" stroke:none;fill-rule:nonzero;fill:rgb(100%,100%,100%);fill-opacity:1;" d="M 48.210938 71.84375 L 20.773438 71.84375 C 19.523438 71.84375 18.496094 72.859375 18.496094 74.109375 C 18.496094 75.359375 19.523438 76.375 20.773438 76.375 L 48.210938 76.375 C 49.472656 76.375 50.488281 75.359375 50.488281 74.109375 C 50.488281 72.859375 49.472656 71.84375 48.210938 71.84375 Z M 48.210938 71.84375 "/>
<path style=" stroke:none;fill-rule:nonzero;fill:rgb(100%,100%,100%);fill-opacity:1;" d="M 42.976562 49.289062 C 42.976562 50.195312 43.710938 50.917969 44.617188 50.917969 L 53.027344 50.917969 C 53.457031 50.917969 53.875 50.75 54.1875 50.449219 L 60.554688 44.070312 L 64.421875 44.070312 L 64.421875 44.054688 C 65.007812 45.273438 66.210938 46.0625 67.546875 46.132812 C 68.554688 46.179688 69.53125 45.8125 70.273438 45.125 C 71.007812 44.445312 71.425781 43.496094 71.476562 42.492188 C 71.492188 40.75 70.3125 39.226562 68.625 38.828125 C 66.921875 38.417969 65.175781 39.25 64.421875 40.8125 L 59.890625 40.8125 C 59.460938 40.8125 59.042969 40.976562 58.730469 41.28125 L 52.351562 47.664062 L 44.617188 47.664062 C 43.710938 47.664062 42.976562 48.398438 42.976562 49.289062 Z M 42.976562 49.289062 "/>
<path style=" stroke:none;fill-rule:nonzero;fill:rgb(100%,100%,100%);fill-opacity:1;" d="M 70.996094 59.765625 C 69.570312 59.765625 68.273438 60.578125 67.664062 61.84375 L 64.394531 61.84375 L 58.015625 55.46875 C 57.714844 55.164062 57.296875 54.992188 56.875 54.992188 L 44.617188 54.992188 C 44.179688 54.992188 43.757812 55.164062 43.457031 55.46875 C 43.15625 55.773438 42.976562 56.191406 42.976562 56.632812 C 42.976562 57.0625 43.15625 57.460938 43.457031 57.773438 C 43.757812 58.078125 44.179688 58.242188 44.617188 58.242188 L 56.191406 58.242188 L 62.570312 64.640625 C 62.882812 64.941406 63.289062 65.109375 63.730469 65.109375 L 67.664062 65.109375 C 68.25 66.320312 69.445312 67.117188 70.800781 67.1875 C 71.789062 67.226562 72.78125 66.855469 73.507812 66.171875 C 74.25 65.488281 74.667969 64.539062 74.707031 63.535156 C 74.71875 62.539062 74.328125 61.582031 73.632812 60.878906 C 72.9375 60.164062 71.984375 59.765625 70.996094 59.765625 Z M 70.996094 59.765625 "/>
<path style=" stroke:none;fill-rule:nonzero;fill:rgb(100%,100%,100%);fill-opacity:1;" d="M 51.914062 40.59375 L 57.351562 35 L 71.804688 35 C 72.402344 36.171875 73.601562 36.945312 74.929688 37 C 77.011719 37.050781 78.742188 35.421875 78.808594 33.359375 C 78.835938 31.601562 77.625 30.070312 75.917969 29.679688 C 74.210938 29.289062 72.460938 30.148438 71.71875 31.738281 L 56.671875 31.738281 C 56.21875 31.738281 55.800781 31.921875 55.5 32.234375 L 49.570312 38.339844 C 48.9375 38.976562 48.953125 40.007812 49.609375 40.632812 C 50.253906 41.269531 51.269531 41.25 51.914062 40.59375 Z M 51.914062 40.59375 "/>
<path style=" stroke:none;fill-rule:nonzero;fill:rgb(100%,100%,100%);fill-opacity:1;" d="M 73.925781 50.136719 L 65.398438 50.136719 C 64.492188 50.136719 63.769531 50.867188 63.769531 51.765625 C 63.769531 52.664062 64.492188 53.40625 65.398438 53.40625 L 73.925781 53.40625 C 74.511719 54.601562 75.722656 55.398438 77.0625 55.476562 C 78.066406 55.507812 79.042969 55.148438 79.773438 54.460938 C 80.507812 53.78125 80.945312 52.832031 80.96875 51.828125 C 80.996094 50.085938 79.8125 48.5625 78.125 48.15625 C 76.4375 47.753906 74.695312 48.574219 73.925781 50.136719 Z M 73.925781 50.136719 "/>
<path style=" stroke:none;fill-rule:nonzero;fill:rgb(100%,100%,100%);fill-opacity:1;" d="M 77.597656 68.484375 C 76.242188 68.554688 75.039062 69.34375 74.453125 70.566406 L 60.65625 70.566406 L 55.214844 64.953125 C 54.914062 64.648438 54.492188 64.460938 54.0625 64.460938 C 53.625 64.453125 53.210938 64.617188 52.898438 64.929688 C 52.597656 65.226562 52.414062 65.632812 52.414062 66.074219 C 52.402344 66.503906 52.570312 66.921875 52.871094 67.226562 L 58.796875 73.328125 C 59.109375 73.632812 59.53125 73.820312 59.96875 73.820312 L 74.453125 73.820312 C 75.226562 75.382812 76.960938 76.203125 78.652344 75.789062 C 80.34375 75.390625 81.53125 73.867188 81.503906 72.128906 C 81.476562 71.125 81.046875 70.175781 80.304688 69.492188 C 79.578125 68.808594 78.601562 68.445312 77.597656 68.484375 Z M 77.597656 68.484375 "/>
</g>
</svg>
